<?xml version="1.0" standalone="no"?>
<!DOCTYPE svg PUBLIC "-//W3C//DTD SVG 1.1//EN" "http://www.w3.org/Graphics/SVG/1.1/DTD/svg11.dtd" >
<svg>
<metadata>
Created by FontForge 20090622 at Sun Dec 27 17:05:13 2015
 By deploy user
2008 Lukasz Dziedzic published by FSI FontShop International GmbH
</metadata>
<defs>
<font id="ClanOT-NewsItalic" horiz-adv-x="598" >
  <font-face 
    font-family="ClanOT-NewsItalic"
    font-weight="475"
    font-style="italic"
    font-stretch="normal"
    units-per-em="1000"
    panose-1="2 11 6 4 3 1 1 2 1 2"
    ascent="787"
    descent="-213"
    x-height="595"
    cap-height="750"
    bbox="-177 -233 1154 960"
    underline-thickness="70"
    underline-position="-30"
    slope="-8"
    unicode-range="U+000D-U+FB02"
  />
<missing-glyph horiz-adv-x="604" 
d="M25 0v750h554v-750h-554zM83 58h438v634h-438v-634z" />
    <glyph glyph-name="f_i" unicode="fi" horiz-adv-x="620" 
d="M43 524l13 67h84q17 117 78 165t196 48l-3 -69q-83 0 -122.5 -28t-51.5 -116h248q33 0 82 7l-84 -598h-97l73 524h-232l-73 -524h-97l73 524h-87zM543 799q56 0 56 -40q0 -58 -70 -58q-56 0 -56 38q0 60 70 60z" />
    <glyph glyph-name="f_j" unicode="fj" horiz-adv-x="620" 
d="M496 94q-17 -122 -80.5 -178.5t-177.5 -69.5l2 67q75 12 111 51t48 129l59 425h-232l-72 -518h-97l72 518h-87l14 73h84q17 117 78 165t196 48l-3 -71q-83 0 -122.5 -28t-51.5 -114h245q36 0 85 7zM543 799q56 0 56 -40q0 -58 -70 -58q-56 0 -56 38q0 60 70 60z" />
    <glyph glyph-name="f_l" unicode="fl" horiz-adv-x="593" 
d="M43 524l13 67h84q17 116 84.5 164.5t207.5 48.5q70 0 142 -12l-111 -792h-97l103 736q-19 3 -45 3q-93 0 -134.5 -33.5t-52.5 -114.5h144l-12 -67h-142l-73 -524h-97l73 524h-87z" />
    <glyph glyph-name=".notdef" horiz-adv-x="604" 
d="M25 0v750h554v-750h-554zM83 58h438v634h-438v-634z" />
    <glyph glyph-name=".null" horiz-adv-x="0" 
 />
    <glyph glyph-name=".null" horiz-adv-x="0" 
 />
    <glyph glyph-name="nonmarkingreturn" horiz-adv-x="333" 
 />
    <glyph glyph-name="CR" unicode="&#xd;" horiz-adv-x="324" 
 />
    <glyph glyph-name="space" unicode=" " horiz-adv-x="324" 
 />
    <glyph glyph-name="exclam" unicode="!" horiz-adv-x="304" 
d="M164 199h-73l62 551h105zM116 97q55 0 55 -45q0 -30 -18 -46.5t-52 -16.5q-54 0 -54 40q0 68 69 68z" />
    <glyph glyph-name="quotedbl" unicode="&#x22;" horiz-adv-x="379" 
d="M289 770h98l-53 -236h-64zM109 770h98l-53 -236h-64z" />
    <glyph glyph-name="numbersign" unicode="#" horiz-adv-x="650" 
d="M56 292h115l50 172h-141l10 70h150l58 216h77l-59 -216h114l59 216h75l-59 -216h107l-10 -70h-115l-50 -172h140l-10 -69h-147l-62 -223h-75l60 223h-114l-60 -223h-77l61 223h-107zM298 464l-50 -172h114l50 172h-114z" />
    <glyph glyph-name="dollar" unicode="$" horiz-adv-x="650" 
d="M452 824l-16 -65q85 -7 138 -33l-20 -82q-67 26 -138 33l-62 -250q42 -16 68.5 -29t56.5 -35t45 -53.5t15 -71.5q0 -125 -75.5 -187.5t-216.5 -64.5l-21 -70l-57 5l17 68q-112 10 -174 50l25 87q76 -47 168 -59l69 285q-45 16 -71.5 29t-58.5 34.5t-47 51t-15 67.5
q0 105 79 165.5t212 62.5l17 66zM322 334l-63 -269q91 1 141.5 37t50.5 107q0 44 -33.5 72t-95.5 53zM358 680q-89 -1 -135 -36.5t-46 -91.5q0 -39 32 -61.5t95 -45.5z" />
    <glyph glyph-name="percent" unicode="%" horiz-adv-x="713" 
d="M248 763q62 0 92 -28.5t30 -92.5q0 -116 -45 -172t-126 -56q-63 0 -93.5 30t-30.5 93q0 26 4 51q13 92 53 133.5t116 41.5zM240 707q-42 0 -63.5 -25t-30.5 -93q-4 -34 -4 -45q0 -40 16 -56.5t49 -16.5q41 0 62 25.5t30 92.5q4 36 4 47q0 39 -15 55t-48 16zM569 736
l52 -40l-487 -683l-52 40zM520 343q62 0 92.5 -29.5t30.5 -94.5q0 -116 -46 -171.5t-127 -55.5q-63 0 -93 29.5t-30 92.5q0 27 4 52q13 93 53 135t116 42zM512 285q-41 0 -62.5 -25.5t-31.5 -93.5q-4 -24 -4 -46q0 -40 15.5 -55.5t49.5 -15.5q41 0 62 25t30 92q4 24 4 48
q0 40 -15 55.5t-48 15.5z" />
    <glyph glyph-name="ampersand" unicode="&#x26;" horiz-adv-x="695" 
d="M366 762q74 0 115.5 -31.5t41.5 -83.5q0 -30 -14 -60t-30 -50.5t-52 -49t-54 -41t-63 -41.5q56 -88 151 -186q57 75 85 164h83q-27 -108 -111 -217q69 -60 126 -95l-46 -81q-68 42 -142 108q-118 -111 -254 -111q-93 0 -137.5 44.5t-44.5 116.5q0 87 48 151.5t130 121.5
q-45 87 -45 150q0 82 56 136.5t157 54.5zM402 150q-104 106 -165 202q-116 -92 -116 -187q0 -46 29 -71.5t78 -25.5q87 0 174 82zM354 693q-45 0 -77 -31.5t-32 -84.5q0 -43 30 -106q38 24 59 39t46 36.5t36 43t11 44.5q0 28 -19.5 43.5t-53.5 15.5z" />
    <glyph glyph-name="quotesingle" unicode="'" horiz-adv-x="208" 
d="M113 770h98l-53 -236h-64z" />
    <glyph glyph-name="parenleft" unicode="(" horiz-adv-x="333" 
d="M314 797l78 -5q-103 -118 -160.5 -266t-57.5 -310q0 -191 88 -342l-79 -5q-101 138 -101 349q0 339 232 579z" />
    <glyph glyph-name="parenright" unicode=")" horiz-adv-x="333" 
d="M64 792l79 5q101 -149 101 -344q0 -169 -63.5 -324t-168.5 -260l-75 5q99 118 156.5 266.5t57.5 312.5q0 188 -87 339z" />
    <glyph glyph-name="asterisk" unicode="*" horiz-adv-x="360" 
d="M218 792h49l-10 -113l110 29l11 -46l-112 -38l54 -95l-43 -29l-62 92l-91 -93l-35 28l80 97l-101 38l24 46l103 -29z" />
    <glyph glyph-name="plus" unicode="+" 
d="M525 297h-186v-183h-86v183h-182v83h182v188h86v-188h186v-83z" />
    <glyph glyph-name="comma" unicode="," horiz-adv-x="251" 
d="M89 105q55 0 55 -54q0 -38 -32.5 -90t-79.5 -101l-30 19q40 65 58 110q-20 0 -31 11.5t-11 31.5q0 32 19 52.5t52 20.5z" />
    <glyph glyph-name="hyphen" unicode="-" horiz-adv-x="405" 
d="M72 374h266l-9 -67h-266z" />
    <glyph glyph-name="period" unicode="." horiz-adv-x="253" 
d="M91 106q55 0 55 -46q0 -33 -18.5 -52t-52.5 -19q-57 0 -57 44q0 73 73 73z" />
    <glyph glyph-name="slash" unicode="/" horiz-adv-x="442" 
d="M415 795h83l-473 -922h-81z" />
    <glyph glyph-name="zero" unicode="0" horiz-adv-x="650" 
d="M595 374q-29 -207 -104.5 -296t-217.5 -89q-117 0 -171 58t-54 189q0 56 11 138q30 212 104 298.5t219 86.5q117 0 170.5 -56.5t53.5 -187.5q0 -58 -11 -141zM496 375q12 81 12 137q0 94 -33 130t-104 36q-62 0 -100.5 -24.5t-67 -91t-45.5 -187.5q-12 -82 -12 -138
q0 -95 33.5 -131.5t104.5 -36.5q61 0 99.5 24.5t67 92t45.5 189.5z" />
    <glyph glyph-name="one" unicode="1" horiz-adv-x="650" 
d="M129 0l9 68h134l72 517q4 26 8 40l-2 2q-19 -14 -34 -22l-138 -81v83l234 145h60l-96 -684h128l-9 -68h-366z" />
    <glyph glyph-name="two" unicode="2" horiz-adv-x="650" 
d="M378 758q108 0 164.5 -44.5t56.5 -124.5q0 -62 -29 -122.5t-92.5 -126t-129.5 -120t-174 -135.5v-3h361l-14 -82h-485l8 64l84 69.5l83.5 70l73.5 64t69.5 65l54.5 59.5t46 61.5t26 56.5t11 57q0 49 -35 78t-107 29q-101 0 -203 -74l-17 75q111 83 248 83z" />
    <glyph glyph-name="three" unicode="3" horiz-adv-x="650" 
d="M371 758q105 0 162.5 -41t57.5 -117q0 -149 -151 -199v-2q124 -31 124 -142q0 -121 -82 -193.5t-229 -72.5q-130 0 -216 61l31 75q86 -57 194 -57q96 0 150 51t54 131q0 58 -51.5 84.5t-169.5 26.5l9 70q127 0 184.5 37.5t57.5 111.5q0 95 -142 95q-109 0 -210 -73
l-15 72q108 82 242 82z" />
    <glyph glyph-name="four" unicode="4" horiz-adv-x="650" 
d="M573 165h-91l-23 -165h-93l23 165h-348v61l400 524h123l-71 -505h94zM403 245l59 379q3 19 8 41l-2 1q-12 -20 -24 -34l-266 -355q-13 -18 -25 -30l1 -2h249z" />
    <glyph glyph-name="five" unicode="5" horiz-adv-x="650" 
d="M590 750l-8 -85h-334l-40 -178q-7 -29 -10 -39l1 -1q72 25 151 25q212 0 212 -169q0 -15 -4 -47q-37 -265 -300 -265q-127 0 -211 61l30 76q85 -58 182 -58q174 0 198 177q3 18 3 35q0 58 -36.5 85t-111.5 27q-98 0 -180 -40l-33 37l81 359h410z" />
    <glyph glyph-name="six" unicode="6" horiz-adv-x="650" 
d="M367 477q207 0 207 -170q0 -13 -4 -49q-19 -132 -93.5 -199.5t-199.5 -67.5q-113 0 -168.5 56.5t-55.5 186.5q0 52 9 118q58 407 370 407q90 0 163 -30l-20 -79q-66 26 -141 26q-110 0 -175 -64t-90 -198l1 -1q91 64 197 64zM337 405q-44 0 -94.5 -21t-81.5 -55
q-7 -52 -7 -97q0 -86 32.5 -124t101.5 -38q155 0 182 189q3 19 3 36q0 57 -33 83.5t-103 26.5z" />
    <glyph glyph-name="seven" unicode="7" horiz-adv-x="650" 
d="M646 749l-11 -79l-410 -670h-115l404 627q10 16 23 32l-1 2h-428l19 88h519z" />
    <glyph glyph-name="eight" unicode="8" horiz-adv-x="650" 
d="M382 758q211 0 211 -152q0 -144 -140 -212v-2q55 -22 86 -56.5t31 -93.5q0 -16 -3 -36q-30 -215 -293 -215q-237 0 -237 172q0 80 43.5 139.5t121.5 93.5v2q-85 44 -85 138q0 104 67.5 163t197.5 59zM283 362q-71 -33 -109.5 -76.5t-38.5 -110.5q0 -55 36.5 -81.5
t116.5 -26.5q81 0 131.5 38t50.5 116q0 18 -4.5 33.5t-17.5 28l-21.5 20.5t-32.5 18t-32.5 14t-40 14.5t-38.5 12.5zM372 685q-77 0 -118.5 -36t-41.5 -103q0 -22 9.5 -40t22 -29.5t37.5 -23t42 -17l50 -15.5q66 29 97 69t31 98q0 97 -129 97z" />
    <glyph glyph-name="nine" unicode="9" horiz-adv-x="650" 
d="M369 758q111 0 169.5 -64t58.5 -190q0 -45 -7 -91q-32 -223 -119.5 -322.5t-240.5 -99.5q-97 0 -170 35l26 76q69 -30 147 -30q105 0 165 67.5t88 219.5l-2 2q-79 -59 -190 -59q-107 0 -160 47t-53 132q0 128 75.5 202.5t212.5 74.5zM495 447q4 31 4 64q0 168 -143 168
q-83 0 -130 -47.5t-47 -136.5q0 -118 142 -118q110 0 174 70z" />
    <glyph glyph-name="colon" unicode=":" horiz-adv-x="253" 
d="M156 564q55 0 55 -46q0 -33 -19 -52t-53 -19q-56 0 -56 44q0 73 73 73zM91 106q55 0 55 -46q0 -33 -18.5 -52t-52.5 -19q-57 0 -57 44q0 73 73 73z" />
    <glyph glyph-name="semicolon" unicode=";" horiz-adv-x="257" 
d="M160 564q55 0 55 -46q0 -33 -19 -52t-53 -19q-56 0 -56 44q0 73 73 73zM91 105q55 0 55 -54q0 -38 -32.5 -90t-79.5 -101l-30 19q40 65 58 110q-20 0 -31 11.5t-11 31.5q0 32 19 52.5t52 20.5z" />
    <glyph glyph-name="less" unicode="&#x3c;" 
d="M507 488l-264 -133q-28 -14 -37 -17v-2q9 -3 37 -17l264 -131v-88l-418 214v45l418 220v-91z" />
    <glyph glyph-name="equal" unicode="=" 
d="M520 390h-444v72h444v-72zM520 209h-444v72h444v-72z" />
    <glyph glyph-name="greater" unicode="&#x3e;" 
d="M89 100v88l264 130q12 7 37 17v2q-25 10 -37 17l-264 134v91l418 -220v-45z" />
    <glyph glyph-name="question" unicode="?" horiz-adv-x="514" 
d="M314 762q190 0 190 -146q0 -170 -218 -279l-25 -138h-76l18 170q102 58 150.5 107t48.5 116q0 87 -112 87q-99 0 -185 -71l-27 71q99 83 236 83zM210 97q54 0 54 -44q0 -30 -18 -47t-51 -17q-55 0 -55 40q0 68 70 68z" />
    <glyph glyph-name="at" unicode="@" horiz-adv-x="864" 
d="M477 568q61 0 84 -43h2l19 36l55 -4l-82 -260q-10 -33 -10 -55q0 -60 60 -60q57 0 99 56.5t57 166.5q5 38 5 66q0 119 -66.5 190t-191.5 71q-76 0 -142.5 -26t-114 -72t-81.5 -106.5t-51 -130.5t-17 -144q0 -143 74 -223.5t222 -80.5q183 0 306 99l16 -49
q-134 -104 -328 -104q-169 0 -260 91.5t-91 258.5q0 103 32 199.5t91 173.5t151 123t202 46q145 0 227 -85t82 -226q0 -30 -5 -70q-21 -142 -86 -214.5t-149 -72.5q-91 0 -103 77l-2 1q-61 -78 -148 -78q-52 0 -81.5 32t-29.5 95q0 121 79 221.5t176 100.5zM481 305l50 160
q-13 37 -60 37q-60 0 -114 -76t-54 -164q0 -75 61 -75q37 0 70 33.5t47 84.5z" />
    <glyph glyph-name="A" unicode="A" horiz-adv-x="712" 
d="M527 0l-35 185h-325l-88 -185h-111l380 750h125l172 -750h-118zM400 674h-2q-5 -15 -16 -37l-178 -373h273l-71 370q-5 24 -6 40z" />
    <glyph glyph-name="B" unicode="B" horiz-adv-x="688" 
d="M428 750q201 0 201 -151q0 -81 -38 -131.5t-98 -69.5v-2q115 -27 115 -144q0 -18 -3 -39q-29 -213 -270 -213h-289l105 750h277zM196 354l-38 -274h189q157 0 157 172q0 102 -123 102h-185zM241 669l-35 -244h180q139 0 139 155q0 47 -27.5 68t-84.5 21h-172z" />
    <glyph glyph-name="C" unicode="C" horiz-adv-x="607" 
d="M446 762q99 0 169 -34l-24 -83q-64 32 -151 32q-122 0 -183.5 -65.5t-84.5 -229.5q-9 -63 -9 -112q0 -108 46.5 -153t147.5 -45q86 0 161 36l2 -78q-92 -44 -189 -44q-141 0 -209 68t-68 212q0 53 9 116q28 195 120.5 287.5t262.5 92.5z" />
    <glyph glyph-name="D" unicode="D" horiz-adv-x="739" 
d="M151 750h259q146 0 213.5 -62t67.5 -199q0 -49 -9 -111q-29 -201 -119.5 -289.5t-256.5 -88.5h-260zM244 663l-81 -576h153q58 0 98 13t72.5 45t53 89t32.5 144q8 53 8 106q0 100 -43 139.5t-140 39.5h-153z" />
    <glyph glyph-name="E" unicode="E" horiz-adv-x="624" 
d="M162 84h378l-14 -84h-480l105 750h463l-9 -85h-361l-33 -235h309l-11 -78h-309z" />
    <glyph glyph-name="F" unicode="F" horiz-adv-x="594" 
d="M604 663h-360l-34 -243h302l-13 -82h-301l-47 -338h-105l106 750h462z" />
    <glyph glyph-name="G" unicode="G" horiz-adv-x="679" 
d="M620 397l-52 -369q-94 -42 -221 -42q-152 0 -223 66.5t-71 208.5q0 51 9 112q28 205 123 297.5t274 92.5q110 0 194 -37l-24 -84q-80 36 -177 36q-129 0 -193 -66.5t-88 -238.5q-9 -61 -9 -109q0 -105 46 -148.5t148 -43.5q70 0 127 21l42 304h95z" />
    <glyph glyph-name="H" unicode="H" horiz-adv-x="754" 
d="M607 0h-104l48 346h-352l-48 -346h-105l105 750h105l-45 -318h352l45 318h104z" />
    <glyph glyph-name="I" unicode="I" horiz-adv-x="324" 
d="M59 0l105 750h107l-105 -750h-107z" />
    <glyph glyph-name="J" unicode="J" horiz-adv-x="547" 
d="M505 750l-70 -498q-20 -141 -92 -202t-203 -61q-95 0 -153 40l19 80q48 -37 133 -37t130.5 41t59.5 138l70 499h106z" />
    <glyph glyph-name="K" unicode="K" horiz-adv-x="705" 
d="M629 0h-130l-192 351h-107l-49 -351h-105l105 750h105l-45 -319h108l275 319h124l-308 -354z" />
    <glyph glyph-name="L" unicode="L" horiz-adv-x="574" 
d="M163 86h349l-16 -86h-450l105 750h105z" />
    <glyph glyph-name="M" unicode="M" horiz-adv-x="917" 
d="M151 750h119l147 -570q7 -30 9 -40h2q8 18 18 36l312 574h118l-105 -750h-95l76 544q4 23 9 41l-2 1l-315 -586h-74l-150 581h-2q-2 -30 -4 -41l-75 -540h-93z" />
    <glyph glyph-name="N" unicode="N" horiz-adv-x="759" 
d="M613 0h-75l-316 593h-2q-2 -30 -4 -41l-77 -552h-93l105 750h95l300 -573h2q0 21 3 41l74 532h93z" />
    <glyph glyph-name="O" unicode="O" horiz-adv-x="743" 
d="M685 375q-29 -209 -113.5 -299t-251.5 -90q-140 0 -204 63t-64 202q0 58 10 124q29 207 114 297t253 90q140 0 203 -61.5t63 -198.5q0 -60 -10 -127zM576 375q11 77 11 126q0 99 -40 137.5t-130 38.5q-113 0 -167 -63.5t-79 -238.5q-10 -69 -10 -123q0 -101 40 -140.5
t131 -39.5q112 0 166 64.5t78 238.5z" />
    <glyph glyph-name="P" unicode="P" horiz-adv-x="654" 
d="M151 750h251q121 0 177.5 -42.5t56.5 -134.5q0 -287 -299 -287h-146l-40 -286h-105zM244 668l-42 -303h146q86 0 125.5 34.5t50.5 117.5q3 23 3 42q0 59 -33 84t-104 25h-146z" />
    <glyph glyph-name="Q" unicode="Q" horiz-adv-x="743" 
d="M685 375q-25 -180 -91.5 -271.5t-188.5 -108.5l147 -120l-133 -29l-119 140q-129 5 -188.5 68t-59.5 197q0 58 10 124q29 207 114 297t253 90q140 0 203 -61.5t63 -198.5q0 -60 -10 -127zM576 375q11 77 11 126q0 99 -40 137.5t-130 38.5q-113 0 -167 -63.5t-79 -238.5
q-10 -69 -10 -123q0 -101 40 -140.5t131 -39.5q112 0 166 64.5t78 238.5z" />
    <glyph glyph-name="R" unicode="R" horiz-adv-x="664" 
d="M151 750h256q109 0 162 -40.5t53 -125.5q0 -108 -48 -170t-131 -76l150 -338h-124l-125 320h-149l-44 -320h-105zM245 669l-39 -273h147q161 0 161 176q0 52 -28 74.5t-90 22.5h-151z" />
    <glyph glyph-name="S" unicode="S" horiz-adv-x="570" 
d="M362 762q115 0 193 -40l-26 -81q-88 36 -173 36t-128 -38t-43 -94q0 -39 33.5 -65t81 -42.5t95 -36t81 -59t33.5 -97.5q0 -119 -79.5 -189t-210.5 -70q-122 0 -212 57l26 85q89 -57 196 -57q82 0 130 40.5t48 111.5q0 41 -33.5 68.5t-81.5 44.5t-95.5 36.5t-81 57.5
t-33.5 94q0 103 74 170.5t206 67.5z" />
    <glyph glyph-name="T" unicode="T" horiz-adv-x="584" 
d="M611 663h-224l-93 -663h-105l93 663h-223l15 87h546z" />
    <glyph glyph-name="U" unicode="U" horiz-adv-x="737" 
d="M710 750l-67 -479q-40 -285 -326 -285q-252 0 -252 219q0 26 5 66l67 479h104l-68 -482q-4 -24 -4 -50q0 -74 39.5 -109.5t120.5 -35.5q93 0 144 47t65 148l68 482h104z" />
    <glyph glyph-name="V" unicode="V" horiz-adv-x="694" 
d="M619 750h110l-372 -750h-120l-161 750h115l114 -614q6 -38 6 -40h2q12 30 16 37z" />
    <glyph glyph-name="W" unicode="W" horiz-adv-x="1012" 
d="M506 750h115l59 -614q2 -26 2 -41h2q4 15 13 39l219 616h104l-286 -750h-128l-55 613q-3 39 -3 41h-2l-13 -39l-226 -615h-128l-76 750h108l45 -616q2 -26 2 -41h2q11 34 13 38z" />
    <glyph glyph-name="X" unicode="X" horiz-adv-x="699" 
d="M702 750l-276 -362l186 -388h-121l-131 292q-9 17 -15 38h-2q-8 -15 -22 -34l-211 -296h-123l290 392l-177 358h126l120 -265q8 -16 15 -37h2q7 11 23 33l196 269h120z" />
    <glyph glyph-name="Y" unicode="Y" horiz-adv-x="672" 
d="M76 750h119l129 -364q1 -4 4 -12.5t5 -15t3 -11.5h2q6 13 20 35l233 368h116l-331 -494l-35 -256h-107l35 256z" />
    <glyph glyph-name="Z" unicode="Z" horiz-adv-x="618" 
d="M514 0h-517l8 64l455 569q12 15 26 29l-1 2h-383l16 86h501l-10 -73l-447 -560q-12 -15 -26 -29l1 -2h391z" />
    <glyph glyph-name="bracketleft" unicode="[" horiz-adv-x="328" 
d="M26 -128l129 923h231l-9 -66h-143l-111 -792h143l-9 -65h-231z" />
    <glyph glyph-name="backslash" unicode="\" horiz-adv-x="385" 
d="M68 795h80l173 -922h-79z" />
    <glyph glyph-name="bracketright" unicode="]" horiz-adv-x="328" 
d="M295 795l-129 -923h-230l9 65h143l111 792h-144l9 66h231z" />
    <glyph glyph-name="asciicircum" unicode="^" horiz-adv-x="650" 
d="M523 462l-179 271l-178 -271h-82l227 342h68l224 -342h-80z" />
    <glyph glyph-name="underscore" unicode="_" horiz-adv-x="429" 
d="M-32 -46h379l-8 -58h-379z" />
    <glyph glyph-name="grave" unicode="`" horiz-adv-x="399" 
d="M330 662h-75l-90 143h117z" />
    <glyph glyph-name="a" unicode="a" horiz-adv-x="601" 
d="M391 604q35 0 82 -4.5t72 -4.5h13l-83 -595h-76v84l-2 1q-74 -95 -197 -95q-85 0 -128 47.5t-43 147.5q0 191 98 305t264 114zM232 67q70 0 119 51t62 138l38 266q-55 5 -71 5q-102 0 -165 -65.5t-81 -193.5q-6 -44 -6 -76q0 -67 25.5 -96t78.5 -29z" />
    <glyph glyph-name="b" unicode="b" horiz-adv-x="605" 
d="M391 605q83 0 124.5 -47.5t41.5 -153.5q0 -206 -79 -310t-221 -104q-126 0 -219 69l103 732l98 6l-33 -234q-5 -33 -7 -40l1 -1q75 83 191 83zM356 527q-69 0 -119 -49.5t-62 -132.5l-34 -242q51 -36 120 -36q81 0 126 53.5t63 178.5q8 58 8 94q0 74 -25.5 104t-76.5 30z
" />
    <glyph glyph-name="c" unicode="c" horiz-adv-x="492" 
d="M333 605q87 0 149 -36l-36 -68q-50 23 -110 23q-84 0 -133 -55t-65 -174q-6 -47 -6 -81q0 -80 31.5 -113.5t93.5 -33.5q79 0 139 54l26 -58q-79 -73 -194 -73q-195 0 -195 218q0 44 7 92q21 151 95.5 228t197.5 77z" />
    <glyph glyph-name="d" unicode="d" horiz-adv-x="603" 
d="M338 605q66 0 122 -16l29 202l98 6l-112 -797h-74l-3 39q-1 13 -1 41l-2 1q-76 -91 -197 -91q-83 0 -125 47t-42 153q0 204 82.5 309.5t224.5 105.5zM232 67q70 0 119 51t62 138l36 254q-42 16 -108 16q-86 0 -136.5 -58.5t-67.5 -180.5q-7 -48 -7 -88q0 -72 25.5 -102
t76.5 -30z" />
    <glyph glyph-name="e" unicode="e" horiz-adv-x="518" 
d="M330 605q81 0 124 -33.5t43 -88.5q0 -93 -86 -148.5t-281 -78.5q-2 -30 -2 -41q0 -80 33 -113.5t100 -33.5q95 0 161 55l26 -58q-85 -75 -214 -75q-201 0 -201 221q0 44 7 89q21 151 94.5 228t195.5 77zM319 532q-75 0 -118.5 -52t-61.5 -158q145 17 208 54t63 93
q0 28 -23 45.5t-68 17.5z" />
    <glyph glyph-name="f" unicode="f" horiz-adv-x="369" 
d="M43 524l13 67h84q17 117 78 165t196 48l-4 -69q-81 0 -121 -28.5t-52 -115.5h158l-14 -67h-154l-73 -524h-97l73 524h-87z" />
    <glyph glyph-name="g" unicode="g" horiz-adv-x="599" 
d="M556 595l-70 -496q-36 -253 -287 -253q-90 0 -167 37l21 72q73 -34 139 -34q86 0 134.5 39.5t62.5 136.5l3 19l-2 1q-59 -83 -172 -83q-83 0 -127 44t-44 145q0 175 89.5 278t245.5 103q31 0 79.5 -4.5t71.5 -4.5h23zM252 109q66 0 109 46t55 131l33 238q-29 4 -74 4
q-102 0 -165.5 -79t-63.5 -216q0 -68 26.5 -96t79.5 -28z" />
    <glyph glyph-name="h" unicode="h" horiz-adv-x="609" 
d="M492 0h-97l52 375q4 25 4 52q0 53 -23.5 75t-72.5 22q-70 0 -119 -48.5t-61 -133.5l-48 -342h-97l111 790l98 7l-33 -232q-5 -31 -7 -40l1 -1q73 81 190 81q159 0 159 -166q0 -25 -5 -62z" />
    <glyph glyph-name="i" unicode="i" horiz-adv-x="270" 
d="M134 0h-97l83 592l98 6zM194 799q56 0 56 -40q0 -58 -70 -58q-56 0 -56 38q0 60 70 60z" />
    <glyph glyph-name="j" unicode="j" horiz-adv-x="293" 
d="M240 598l-71 -504q-17 -122 -80 -178.5t-176 -69.5l1 67q74 12 109.5 50.5t48.5 129.5l70 499zM214 799q56 0 56 -40q0 -58 -70 -58q-56 0 -56 38q0 60 70 60z" />
    <glyph glyph-name="k" unicode="k" horiz-adv-x="603" 
d="M127 0h-97l111 790l98 7l-40 -285q-4 -28 -7 -40l2 -1q47 65 108 99.5t125 34.5q124 0 124 -110q0 -73 -52 -139.5t-145 -107.5q29 -76 79.5 -124t115.5 -59l-22 -73q-102 6 -178.5 84t-101.5 206q97 28 151.5 80.5t54.5 107.5q0 54 -62 54q-78 0 -146.5 -84.5
t-87.5 -222.5z" />
    <glyph glyph-name="l" unicode="l" horiz-adv-x="257" 
d="M127 0h-97l111 790l98 7z" />
    <glyph glyph-name="m" unicode="m" horiz-adv-x="897" 
d="M355 0l51 367q5 37 5 59q0 51 -20 74t-61 23q-63 0 -105.5 -48.5t-54.5 -133.5l-47 -341h-97l83 592l76 6v-79l2 -1q68 87 180 87t134 -105l2 -1q69 106 193 106q141 0 141 -165q0 -32 -6 -73l-51 -367h-97l51 367q5 38 5 60q0 51 -19.5 73t-60.5 22q-64 0 -106 -50.5
t-55 -141.5l-46 -330h-97z" />
    <glyph glyph-name="n" unicode="n" horiz-adv-x="604" 
d="M390 0l52 374q4 25 4 52q0 53 -23 75.5t-72 22.5q-71 0 -120 -48.5t-61 -133.5l-48 -342h-97l83 592l77 6l1 -44q0 -27 -1 -40l2 -1q73 92 198 92q159 0 159 -164q0 -26 -5 -64l-52 -377h-97z" />
    <glyph glyph-name="o" unicode="o" horiz-adv-x="587" 
d="M318 528q-79 0 -120.5 -52t-59.5 -181q-8 -59 -8 -96q0 -75 28.5 -105t92.5 -30q80 0 122 52t60 183q7 49 7 92q0 76 -29 106.5t-93 30.5zM331 605q109 0 158.5 -50t49.5 -158q0 -42 -8 -101q-23 -160 -91.5 -233t-200.5 -73q-109 0 -158.5 49.5t-49.5 157.5q0 41 8 102
q22 160 91 233t201 73z" />
    <glyph glyph-name="p" unicode="p" horiz-adv-x="601" 
d="M386 605q84 0 125.5 -47t41.5 -154q0 -55 -8 -108q-43 -306 -266 -306q-89 0 -152 42l-25 -179h-97l104 740l76 6l-1 -49q0 -6 -0.5 -20t-0.5 -20l2 -1q75 96 201 96zM352 527q-69 0 -119 -49t-62 -133l-33 -238q48 -40 121 -40q80 0 124.5 55t62.5 177q8 58 8 93
q0 74 -25.5 104.5t-76.5 30.5z" />
    <glyph glyph-name="q" unicode="q" horiz-adv-x="601" 
d="M391 604q36 0 86 -4.5t81 -4.5l-104 -742h-97l25 178q4 29 7 40l-2 2q-73 -83 -187 -83q-85 0 -128 47.5t-43 147.5q0 191 98 305t264 114zM232 66q70 0 119 51.5t62 138.5l38 267q-44 4 -71 4q-103 0 -165.5 -65.5t-80.5 -193.5q-6 -42 -6 -75q0 -68 25.5 -97.5
t78.5 -29.5z" />
    <glyph glyph-name="r" unicode="r" horiz-adv-x="439" 
d="M378 604q46 0 71 -14l-27 -90q-24 12 -63 12q-75 0 -129 -63.5t-70 -181.5l-37 -267h-97l83 592l77 6l-4 -118l2 -1q73 125 194 125z" />
    <glyph glyph-name="s" unicode="s" horiz-adv-x="485" 
d="M300 605q93 0 154 -38l-37 -68q-58 29 -132 29q-54 0 -89.5 -25.5t-35.5 -64.5q0 -25 19 -44t48 -30.5t62.5 -26.5t62.5 -30.5t48 -44.5t19 -67q0 -8 -2 -24q-13 -84 -69 -132t-160 -48q-112 0 -183 61l32 68q60 -54 154 -54q63 0 98 31t35 78q0 32 -26.5 54.5t-65 38.5
l-76.5 33t-64.5 48.5t-26.5 75.5q0 82 63.5 131t171.5 49z" />
    <glyph glyph-name="t" unicode="t" horiz-adv-x="412" 
d="M47 519l15 73h86l37 155l78 12l-23 -167h164l-16 -73h-159l-46 -327q-3 -22 -3 -41q0 -81 67 -81q41 0 83 26l2 -68q-54 -35 -121 -35q-129 0 -129 139q0 29 4 57l46 330h-85z" />
    <glyph glyph-name="u" unicode="u" horiz-adv-x="593" 
d="M559 595l-56 -399q-30 -207 -259 -207q-101 0 -152 43t-51 123q0 20 3 41l56 396l98 6l-57 -401q-2 -20 -2 -27q0 -101 116 -101q133 0 151 128l56 398h97z" />
    <glyph glyph-name="v" unicode="v" horiz-adv-x="589" 
d="M531 609q18 -62 18 -126q0 -93 -27 -176.5t-67.5 -139.5t-87.5 -97.5t-86.5 -60.5t-64.5 -19q-54 0 -104.5 72.5t-50.5 206.5q0 43 8 102l31 221l98 6l-32 -227q-8 -53 -8 -107q0 -90 24.5 -138t52.5 -48q22 0 57 29t71.5 78.5t62.5 130t26 169.5q0 57 -12 100z" />
    <glyph glyph-name="w" unicode="w" horiz-adv-x="892" 
d="M834 609q18 -62 18 -126q0 -92 -25 -175t-62.5 -139t-81 -98t-80.5 -61.5t-62 -19.5q-38 0 -77.5 51t-51.5 147h-1q-48 -92 -112.5 -145t-100.5 -53q-47 0 -92 72.5t-45 202.5q0 55 8 107l31 220l98 6l-32 -226q-9 -64 -9 -113q0 -59 11 -101t25.5 -59.5t29.5 -17.5
q13 0 37 20.5t51.5 57t53 99.5t35.5 136l28 199h97l-31 -221q-8 -55 -8 -109q0 -88 22.5 -135t50.5 -47q13 0 35.5 16t50.5 50.5t52.5 80t41 114t16.5 143.5q0 57 -12 100z" />
    <glyph glyph-name="x" unicode="x" horiz-adv-x="604" 
d="M85 0h-110l249 312l-147 281l112 5l94 -202q11 -22 16 -37h2q7 11 23 33l154 203h106l-228 -292l154 -303h-112l-101 218l-16 37h-2q-13 -21 -23 -33z" />
    <glyph glyph-name="y" unicode="y" horiz-adv-x="584" 
d="M465 595h96q-67 -253 -188.5 -448.5t-290.5 -295.5l-33 70q101 68 164 149l-154 520l107 8l107 -403q6 -22 9 -40h2q117 186 181 440z" />
    <glyph glyph-name="z" unicode="z" horiz-adv-x="542" 
d="M506 530l-349 -424q-1 -1 -11 -12.5t-15 -16.5l1 -2h316l-13 -75h-426l8 64l352 426q1 1 26 29l-1 2h-301l13 74h409z" />
    <glyph glyph-name="braceleft" unicode="{" horiz-adv-x="371" 
d="M265 439q-9 -73 -76 -102v-2q48 -23 48 -82q0 -13 -1 -20q-6 -42 -22 -106t-21 -101q-1 -7 -1 -19q0 -65 87 -65h30l-9 -69h-25q-93 0 -134 28.5t-41 85.5q0 9 2 27q6 41 25 111t24 109q1 5 1 14q0 28 -17.5 45.5t-46.5 21.5l6 41q34 5 58 27t28 55q5 37 6 107t7 112
q10 71 59.5 106.5t152.5 35.5h25l-10 -70h-30q-99 0 -110 -83q-5 -38 -7 -102t-8 -105z" />
    <glyph glyph-name="bar" unicode="|" horiz-adv-x="282" 
d="M102 -177v990h76v-990h-76z" />
    <glyph glyph-name="braceright" unicode="}" horiz-adv-x="371" 
d="M99 233q11 75 77 102v2q-49 22 -49 82q0 13 1 20q6 40 22 104t22 103q1 7 1 19q0 64 -88 64h-30l10 70h25q174 0 174 -115q0 -9 -2 -27q-6 -40 -24.5 -110t-24.5 -109q-1 -4 -1 -13q0 -28 17.5 -46.5t48.5 -22.5l-6 -41q-35 -4 -59.5 -26t-28.5 -55q-6 -39 -7 -109
t-6 -111q-10 -70 -59.5 -105.5t-151.5 -35.5h-24l9 69h29q100 0 111 84q6 39 7.5 103t6.5 104z" />
    <glyph glyph-name="asciitilde" unicode="~" horiz-adv-x="650" 
d="M191 628h-59q17 142 130 142q40 0 106 -35.5t96 -35.5q57 0 73 60h58q-16 -143 -130 -143q-39 0 -105 35.5t-95 35.5q-58 0 -74 -59z" />
    <glyph glyph-name="uni00A0" unicode="&#xa0;" horiz-adv-x="324" 
 />
    <glyph glyph-name="exclamdown" unicode="&#xa1;" horiz-adv-x="303" 
d="M129 464h77l-71 -599h-104zM193 668q56 0 56 -42q0 -31 -18.5 -48t-52.5 -17q-54 0 -54 42q0 65 69 65z" />
    <glyph glyph-name="cent" unicode="&#xa2;" horiz-adv-x="650" 
d="M395 731h76l-27 -129q54 -8 99 -33l-36 -68q-50 23 -110 23q-84 0 -133 -55t-65 -174q-6 -47 -6 -81q0 -80 31.5 -113.5t93.5 -33.5q79 0 139 54l26 -58q-63 -59 -146 -70l-27 -135h-77l26 134q-165 14 -165 217q0 45 7 91q41 289 267 304z" />
    <glyph glyph-name="sterling" unicode="&#xa3;" horiz-adv-x="650" 
d="M82 339l6 73h52q-10 80 -10 95q0 109 73.5 181t228.5 72q103 0 181 -38l-26 -82q-65 35 -157 35q-198 0 -198 -179q0 -16 7 -84h262l-10 -73h-244v-28q0 -171 -105 -233l1 -2q86 17 216 17q92 0 202 -12l-18 -87q-132 14 -241 14q-144 0 -284 -13l7 83q65 21 95.5 83.5
t30.5 144.5q0 22 -1 33h-68z" />
    <glyph glyph-name="currency" unicode="&#xa4;" horiz-adv-x="650" 
d="M348 538q54 0 94 -29l80 69l43 -51l-79 -69q18 -36 18 -73q0 -66 -42 -119l56 -66l-58 -51l-56 64q-48 -31 -106 -31q-55 0 -96 30l-73 -63l-44 50l74 65q-16 34 -16 71q0 67 47 125l-57 67l58 50l57 -67q47 28 100 28zM339 475q-52 0 -91 -39t-39 -91q0 -42 27.5 -69
t70.5 -27q52 0 91 38t39 91q0 42 -27.5 69.5t-70.5 27.5z" />
    <glyph glyph-name="yen" unicode="&#xa5;" horiz-adv-x="650" 
d="M137 335h108l-154 415h116l105 -374q2 -6 3.5 -13t3.5 -15l3 -12h2l8.5 16.5t10.5 19.5l212 378h113l-264 -415h107l-9 -59h-131l-7 -51h131l-8 -58h-131l-23 -167h-110l23 167h-133l8 58h133l7 51h-133z" />
    <glyph glyph-name="brokenbar" unicode="&#xa6;" horiz-adv-x="282" 
d="M102 374v439h76v-439h-76zM102 -170v444h76v-444h-76z" />
    <glyph glyph-name="section" unicode="&#xa7;" horiz-adv-x="563" 
d="M359 788q117 0 185 -47l-20 -69q-74 44 -170 44q-64 0 -101.5 -25.5t-37.5 -68.5q0 -29 31 -54t74.5 -47t87.5 -47t75 -65t31 -91q0 -53 -30 -100t-91 -74v-2q66 -49 66 -108q0 -83 -66.5 -130.5t-177.5 -47.5q-115 0 -183 47l19 69q72 -44 169 -44q65 0 101.5 25
t36.5 68q0 29 -30.5 54.5t-74.5 47t-88 47t-74.5 65.5t-30.5 91q0 53 30 100t91 73v2q-66 47 -66 108q0 83 66.5 131t177.5 48zM249 457q-46 -16 -70 -45t-24 -64q0 -14 4.5 -27t10 -23t19 -22.5l21.5 -19.5t27 -19t27.5 -16.5l32 -17.5l30.5 -17q92 34 92 111q0 13 -4.5 26
t-10 23t-18.5 22l-21 19t-27 18.5l-28 17t-31 18t-30 16.5z" />
    <glyph glyph-name="dieresis" unicode="&#xa8;" horiz-adv-x="369" 
d="M169 797q41 0 41 -36q0 -56 -54 -56q-41 0 -41 33q0 59 54 59zM331 797q41 0 41 -36q0 -56 -54 -56q-42 0 -42 34q0 27 14.5 42.5t40.5 15.5z" />
    <glyph glyph-name="copyright" unicode="&#xa9;" horiz-adv-x="904" 
d="M511 771q147 0 244 -97t97 -241q0 -118 -64 -221.5t-168.5 -164.5t-218.5 -61q-148 0 -245.5 96.5t-97.5 240.5q0 118 63.5 222t168 165t221.5 61zM503 719q-156 0 -273.5 -116.5t-117.5 -270.5q0 -125 83 -210.5t212 -85.5q154 0 273.5 117t119.5 274q0 124 -84 208
t-213 84zM499 634q92 0 147 -47l-17 -66q-52 33 -120 33q-95 0 -151 -58.5t-56 -148.5q0 -67 41.5 -107.5t117.5 -40.5q74 0 139 41q0 -43 1 -64q-81 -58 -174 -58q-102 0 -163 60t-61 158q0 119 82.5 208.5t213.5 89.5z" />
    <glyph glyph-name="ordfeminine" unicode="&#xaa;" horiz-adv-x="469" 
d="M342 821q24 0 56 -3.5t48 -3.5h23l-61 -435h-66q-1 20 -1 61l-2 1q-53 -69 -140 -69q-128 0 -128 143q0 137 73.5 221.5t197.5 84.5zM228 438q46 0 79.5 34t41.5 91l27 192q-26 2 -42 2q-80 0 -128 -61.5t-48 -172.5q0 -45 17 -65t53 -20z" />
    <glyph glyph-name="guillemotleft" unicode="&#xab;" horiz-adv-x="626" 
d="M552 449l-213 -123l178 -122l-10 -73l-265 191l1 9l319 191zM332 449l-213 -123l178 -122l-10 -73l-265 191l1 9l316 191z" />
    <glyph glyph-name="logicalnot" unicode="&#xac;" horiz-adv-x="650" 
d="M457 300h-346v81h427v-236h-81v155z" />
    <glyph glyph-name="uni00AD" unicode="&#xad;" horiz-adv-x="405" 
d="M72 374h266l-9 -67h-266z" />
    <glyph glyph-name="registered" unicode="&#xae;" horiz-adv-x="449" 
d="M293 837q67 0 111 -44.5t44 -110.5q0 -81 -62.5 -142.5t-142.5 -61.5q-68 0 -112.5 44.5t-44.5 109.5q0 83 62.5 144t144.5 61zM289 807q-68 0 -120.5 -51t-52.5 -120q0 -54 37 -91t94 -37q67 0 118.5 51.5t51.5 119.5q0 55 -36.5 91.5t-91.5 36.5zM204 762h87
q70 0 70 -50q0 -23 -12.5 -42t-34.5 -26l33 -83h-47l-28 79h-43l-11 -79h-43zM242 728l-8 -59h49q17 0 26.5 9.5t9.5 24.5q0 25 -32 25h-45z" />
    <glyph glyph-name="macron" unicode="&#xaf;" horiz-adv-x="377" 
d="M391 770l-8 -58h-284l8 58h284z" />
    <glyph glyph-name="degree" unicode="&#xb0;" horiz-adv-x="353" 
d="M93 687q8 54 50.5 92t96.5 38q49 0 81 -32t32 -80q0 -58 -45 -102.5t-104 -44.5q-48 0 -80 32t-32 79q0 12 1 18zM141 687q-1 -4 -1 -11q0 -30 20 -50.5t52 -20.5q37 0 65 28t28 67q0 30 -19.5 50t-50.5 20q-36 0 -62.5 -24.5t-31.5 -58.5z" />
    <glyph glyph-name="plusminus" unicode="&#xb1;" horiz-adv-x="650" 
d="M547 343h-182v-166h-86v166h-177v78h177v178h86v-178h182v-78zM544 67h-443v69h443v-69z" />
    <glyph glyph-name="twosuperior" unicode="&#xb2;" horiz-adv-x="354" 
d="M256 897q61 0 92 -25t31 -68q0 -63 -52.5 -115t-169.5 -132v-3h189l-8 -56h-276l6 45l52 41l51 41l42 35.5t38 36t26.5 31.5t20 33.5t5.5 30.5q0 49 -71 49q-52 0 -112 -38l-10 52q70 42 146 42z" />
    <glyph glyph-name="threesuperior" unicode="&#xb3;" horiz-adv-x="354" 
d="M253 897q62 0 95 -22.5t33 -65.5q0 -77 -80 -101v-2q65 -17 65 -74q0 -64 -46 -101.5t-129 -37.5q-73 0 -125 32l23 50q49 -30 109 -30q48 0 74 24t26 61q0 28 -26 40t-88 12l7 47q124 0 124 67q0 47 -73 47q-64 0 -117 -36l-11 48q59 42 139 42z" />
    <glyph glyph-name="acute" unicode="&#xb4;" horiz-adv-x="399" 
d="M290 805h118l-134 -143h-76z" />
    <glyph glyph-name="mu" unicode="&#xb5;" horiz-adv-x="621" 
d="M227 -7q-83 0 -110 61h-2q-9 -110 -15 -199l-96 -8l105 748h96l-56 -400q-2 -12 -2 -32q0 -93 93 -93q66 0 122 46t66 120l50 359h96l-83 -593l-72 -6v94l-2 1q-34 -46 -83.5 -72t-106.5 -26z" />
    <glyph glyph-name="paragraph" unicode="&#xb6;" horiz-adv-x="666" 
d="M204 -151h-87l91 645q-60 2 -94.5 30.5t-34.5 79.5q0 64 45.5 105t123.5 41h425l-16 -77h-76l-116 -824h-87l116 824h-174z" />
    <glyph glyph-name="periodcentered" unicode="&#xb7;" horiz-adv-x="284" 
d="M149 402q55 0 55 -46q0 -33 -18.5 -52t-52.5 -19q-57 0 -57 44q0 73 73 73z" />
    <glyph glyph-name="cedilla" unicode="&#xb8;" horiz-adv-x="399" 
d="M47 -191l92 196h66l-65 -196h-93z" />
    <glyph glyph-name="onesuperior" unicode="&#xb9;" horiz-adv-x="272" 
d="M281 894l-55 -396h-70l37 269q5 30 8 40l-2 2q-16 -12 -35 -22l-60 -34l2 59l129 82h46z" />
    <glyph glyph-name="ordmasculine" unicode="&#xba;" horiz-adv-x="458" 
d="M445 596q-17 -121 -67 -172.5t-146 -51.5q-82 0 -120 36t-38 117q0 32 6 71q17 120 68 172.5t147 52.5q81 0 118.5 -35.5t37.5 -116.5q0 -33 -6 -73zM167 596q-5 -32 -5 -66q0 -50 18.5 -70.5t60.5 -20.5q53 0 79 34t39 123q5 33 5 66q0 50 -18.5 70t-60.5 20
q-53 0 -79 -33.5t-39 -122.5z" />
    <glyph glyph-name="guillemotright" unicode="&#xbb;" horiz-adv-x="626" 
d="M41 131l10 73l211 122l-176 123l10 73l265 -191l-1 -9zM261 131l10 73l211 122l-176 123l10 73l265 -191l-1 -9z" />
    <glyph glyph-name="onequarter" unicode="&#xbc;" horiz-adv-x="879" 
d="M740 82h-45l-11 -82h-64l11 82h-207v40l231 272h84l-37 -260h47zM639 134l26 161q3 19 8 41l-2 1q-4 -6 -26 -33l-115 -139q-13 -17 -27 -29l1 -2h135zM332 752l-55 -396h-70l37 269q5 30 8 40l-2 2q-16 -12 -35 -22l-60 -34l2 59l129 82h46zM710 750h72l-610 -750h-72z
" />
    <glyph glyph-name="onehalf" unicode="&#xbd;" horiz-adv-x="879" 
d="M665 399q61 0 92 -25t31 -68q0 -63 -52.5 -115t-169.5 -132v-3h189l-8 -56h-276l6 45l52 41l51 41l42 35.5t38 36t26.5 31.5t20 33.5t5.5 30.5q0 49 -71 49q-52 0 -112 -38l-10 52q70 42 146 42zM332 752l-55 -396h-70l37 269q5 30 8 40l-2 2q-16 -12 -35 -22l-60 -34
l2 59l129 82h46zM699 750h72l-610 -750h-72z" />
    <glyph glyph-name="threequarters" unicode="&#xbe;" horiz-adv-x="879" 
d="M257 755q62 0 95 -22.5t33 -65.5q0 -77 -80 -101v-2q65 -17 65 -74q0 -64 -46 -101.5t-129 -37.5q-73 0 -125 32l23 50q49 -30 109 -30q48 0 74 24t26 61q0 28 -26 40t-88 12l7 47q124 0 124 67q0 47 -73 47q-64 0 -117 -36l-11 48q60 42 139 42zM740 82h-45l-11 -82h-64
l11 82h-207v40l231 272h84l-37 -260h47zM639 134l26 161q3 19 8 41l-2 1q-4 -6 -26 -33l-115 -139q-13 -17 -27 -29l1 -2h135zM719 750h72l-610 -750h-72z" />
    <glyph glyph-name="questiondown" unicode="&#xbf;" horiz-adv-x="490" 
d="M192 -101q-95 0 -143 37.5t-48 107.5q0 92 56 159.5t161 120.5l24 137h78l-18 -170q-101 -58 -149.5 -107t-48.5 -115q0 -86 112 -86q97 0 184 70l27 -72q-97 -82 -235 -82zM310 671q56 0 56 -41q0 -67 -71 -67q-56 0 -56 43q0 65 71 65z" />
    <glyph glyph-name="Agrave" unicode="&#xc0;" horiz-adv-x="712" 
d="M527 0l-35 185h-325l-88 -185h-111l380 750h125l172 -750h-118zM400 674h-2q-5 -15 -16 -37l-178 -373h273l-71 370q-5 24 -6 40zM461 796h-81l-103 116h120z" />
    <glyph glyph-name="Aacute" unicode="&#xc1;" horiz-adv-x="712" 
d="M527 0l-35 185h-325l-88 -185h-111l380 750h125l172 -750h-118zM400 674h-2q-5 -15 -16 -37l-178 -373h273l-71 370q-5 24 -6 40zM458 912h130l-146 -116h-81z" />
    <glyph glyph-name="Acircumflex" unicode="&#xc2;" horiz-adv-x="712" 
d="M527 0l-35 185h-325l-88 -185h-111l380 750h125l172 -750h-118zM400 674h-2q-5 -15 -16 -37l-178 -373h273l-71 370q-5 24 -6 40zM371 913h103l99 -117h-91l-63 80l-87 -80h-90z" />
    <glyph glyph-name="Atilde" unicode="&#xc3;" horiz-adv-x="712" 
d="M527 0l-35 185h-325l-88 -185h-111l380 750h125l172 -750h-118zM400 674h-2q-5 -15 -16 -37l-178 -373h273l-71 370q-5 24 -6 40zM319 798h-48q10 47 36.5 75.5t65.5 28.5q25 0 47.5 -16t41 -31.5t32.5 -15.5q31 0 45 49h46q-10 -48 -36 -76t-65 -28q-24 0 -47 15.5
t-41.5 31t-32.5 15.5q-27 0 -44 -48z" />
    <glyph glyph-name="Adieresis" unicode="&#xc4;" horiz-adv-x="712" 
d="M527 0l-35 185h-325l-88 -185h-111l380 750h125l172 -750h-118zM400 674h-2q-5 -15 -16 -37l-178 -373h273l-71 370q-5 24 -6 40zM332 892q41 0 41 -35q0 -54 -54 -54q-40 0 -40 32q0 57 53 57zM525 892q41 0 41 -35q0 -54 -54 -54q-41 0 -41 32q0 57 54 57z" />
    <glyph glyph-name="Aring" unicode="&#xc5;" horiz-adv-x="712" 
d="M427 885q92 0 92 -67q0 -54 -44 -79l170 -739h-118l-35 185h-325l-88 -185h-111l374 737q-26 16 -26 51q0 44 28 70.5t83 26.5zM400 674h-2q-5 -15 -16 -37l-178 -373h273l-71 370q-5 24 -6 40zM423 842q-55 0 -55 -49q0 -29 44 -29q54 0 54 45q0 33 -43 33z" />
    <glyph glyph-name="AE" unicode="&#xc6;" horiz-adv-x="1057" 
d="M1043 665h-378l-10 -236h297l-11 -77h-289l-12 -268h331l-13 -84h-426l8 185h-302l-121 -185h-125l522 750h538zM565 680l-2 1q-4 -8 -22 -35l-251 -382h254l17 375q2 26 4 41z" />
    <glyph glyph-name="Ccedilla" unicode="&#xc7;" horiz-adv-x="607" 
d="M207 -191l84 179q-120 9 -178.5 77t-58.5 201q0 53 9 116q28 195 120.5 287.5t262.5 92.5q99 0 169 -34l-24 -83q-64 32 -151 32q-122 0 -183.5 -65.5t-84.5 -229.5q-9 -63 -9 -112q0 -108 46.5 -153t147.5 -45q86 0 161 36l2 -78q-74 -36 -161 -42l-59 -179h-93z" />
    <glyph glyph-name="Egrave" unicode="&#xc8;" horiz-adv-x="624" 
d="M162 84h378l-14 -84h-480l105 750h463l-9 -85h-361l-33 -235h309l-11 -78h-309zM448 796h-81l-103 116h120z" />
    <glyph glyph-name="Eacute" unicode="&#xc9;" horiz-adv-x="624" 
d="M162 84h378l-14 -84h-480l105 750h463l-9 -85h-361l-33 -235h309l-11 -78h-309zM422 912h130l-146 -116h-81z" />
    <glyph glyph-name="Ecircumflex" unicode="&#xca;" horiz-adv-x="624" 
d="M162 84h378l-14 -84h-480l105 750h463l-9 -85h-361l-33 -235h309l-11 -78h-309zM358 913h103l99 -117h-91l-63 80l-87 -80h-90z" />
    <glyph glyph-name="Edieresis" unicode="&#xcb;" horiz-adv-x="624" 
d="M162 84h378l-14 -84h-480l105 750h463l-9 -85h-361l-33 -235h309l-11 -78h-309zM308 892q41 0 41 -35q0 -54 -54 -54q-40 0 -40 32q0 57 53 57zM501 892q41 0 41 -35q0 -54 -54 -54q-41 0 -41 32q0 57 54 57z" />
    <glyph glyph-name="Igrave" unicode="&#xcc;" horiz-adv-x="324" 
d="M59 0l105 750h107l-105 -750h-107zM277 796h-81l-103 116h120z" />
    <glyph glyph-name="Iacute" unicode="&#xcd;" horiz-adv-x="324" 
d="M59 0l105 750h107l-105 -750h-107zM266 912h130l-146 -116h-81z" />
    <glyph glyph-name="Icircumflex" unicode="&#xce;" horiz-adv-x="324" 
d="M59 0l105 750h107l-105 -750h-107zM188 913h103l99 -117h-91l-63 80l-87 -80h-90z" />
    <glyph glyph-name="Idieresis" unicode="&#xcf;" horiz-adv-x="324" 
d="M59 0l105 750h107l-105 -750h-107zM140 892q41 0 41 -35q0 -54 -54 -54q-40 0 -40 32q0 57 53 57zM333 892q41 0 41 -35q0 -54 -54 -54q-41 0 -41 32q0 57 54 57z" />
    <glyph glyph-name="Eth" unicode="&#xd0;" horiz-adv-x="746" 
d="M159 750h259q146 0 213.5 -62t67.5 -199q0 -49 -9 -111q-29 -201 -119.5 -289.5t-256.5 -88.5h-260l50 362h-71l9 61h71zM252 663l-34 -240h104l-9 -61h-104l-38 -275h153q58 0 98 13t72.5 45t53 89t32.5 144q8 53 8 106q0 100 -43 139.5t-140 39.5h-153z" />
    <glyph glyph-name="Ntilde" unicode="&#xd1;" horiz-adv-x="759" 
d="M613 0h-75l-316 593h-2q-2 -30 -4 -41l-77 -552h-93l105 750h95l300 -573h2q0 21 3 41l74 532h93zM339 798h-48q10 47 36.5 75.5t65.5 28.5q25 0 47.5 -16t41 -31.5t32.5 -15.5q31 0 45 49h46q-10 -48 -36 -76t-65 -28q-24 0 -47 15.5t-41.5 31t-32.5 15.5q-27 0 -44 -48
z" />
    <glyph glyph-name="Ograve" unicode="&#xd2;" horiz-adv-x="743" 
d="M685 375q-29 -209 -113.5 -299t-251.5 -90q-140 0 -204 63t-64 202q0 58 10 124q29 207 114 297t253 90q140 0 203 -61.5t63 -198.5q0 -60 -10 -127zM576 375q11 77 11 126q0 99 -40 137.5t-130 38.5q-113 0 -167 -63.5t-79 -238.5q-10 -69 -10 -123q0 -101 40 -140.5
t131 -39.5q112 0 166 64.5t78 238.5zM497 796h-81l-103 116h120z" />
    <glyph glyph-name="Oacute" unicode="&#xd3;" horiz-adv-x="743" 
d="M685 375q-29 -209 -113.5 -299t-251.5 -90q-140 0 -204 63t-64 202q0 58 10 124q29 207 114 297t253 90q140 0 203 -61.5t63 -198.5q0 -60 -10 -127zM576 375q11 77 11 126q0 99 -40 137.5t-130 38.5q-113 0 -167 -63.5t-79 -238.5q-10 -69 -10 -123q0 -101 40 -140.5
t131 -39.5q112 0 166 64.5t78 238.5zM467 912h130l-146 -116h-81z" />
    <glyph glyph-name="Ocircumflex" unicode="&#xd4;" horiz-adv-x="743" 
d="M685 375q-29 -209 -113.5 -299t-251.5 -90q-140 0 -204 63t-64 202q0 58 10 124q29 207 114 297t253 90q140 0 203 -61.5t63 -198.5q0 -60 -10 -127zM576 375q11 77 11 126q0 99 -40 137.5t-130 38.5q-113 0 -167 -63.5t-79 -238.5q-10 -69 -10 -123q0 -101 40 -140.5
t131 -39.5q112 0 166 64.5t78 238.5zM399 913h103l99 -117h-91l-63 80l-87 -80h-90z" />
    <glyph glyph-name="Otilde" unicode="&#xd5;" horiz-adv-x="743" 
d="M685 375q-29 -209 -113.5 -299t-251.5 -90q-140 0 -204 63t-64 202q0 58 10 124q29 207 114 297t253 90q140 0 203 -61.5t63 -198.5q0 -60 -10 -127zM576 375q11 77 11 126q0 99 -40 137.5t-130 38.5q-113 0 -167 -63.5t-79 -238.5q-10 -69 -10 -123q0 -101 40 -140.5
t131 -39.5q112 0 166 64.5t78 238.5zM321 798h-48q10 47 36.5 75.5t65.5 28.5q25 0 47.5 -16t41 -31.5t32.5 -15.5q31 0 45 49h46q-10 -48 -36 -76t-65 -28q-24 0 -47 15.5t-41.5 31t-32.5 15.5q-27 0 -44 -48z" />
    <glyph glyph-name="Odieresis" unicode="&#xd6;" horiz-adv-x="743" 
d="M685 375q-29 -209 -113.5 -299t-251.5 -90q-140 0 -204 63t-64 202q0 58 10 124q29 207 114 297t253 90q140 0 203 -61.5t63 -198.5q0 -60 -10 -127zM576 375q11 77 11 126q0 99 -40 137.5t-130 38.5q-113 0 -167 -63.5t-79 -238.5q-10 -69 -10 -123q0 -101 40 -140.5
t131 -39.5q112 0 166 64.5t78 238.5zM351 892q41 0 41 -35q0 -54 -54 -54q-40 0 -40 32q0 57 53 57zM544 892q41 0 41 -35q0 -54 -54 -54q-41 0 -41 32q0 57 54 57z" />
    <glyph glyph-name="multiply" unicode="&#xd7;" 
d="M501 187l-55 -56l-147 147l-148 -147l-56 56l147 148l-148 147l57 57l148 -148l147 148l57 -57l-148 -147z" />
    <glyph glyph-name="Oslash" unicode="&#xd8;" horiz-adv-x="743" 
d="M49 -15l-46 46l73 78q-23 55 -23 142q0 65 9 124q29 207 114 297t253 90q151 0 213 -74l72 73l46 -46l-84 -85q19 -51 19 -130q0 -48 -10 -125q-30 -209 -113.5 -299t-251.5 -90q-145 0 -208 67zM174 375q-10 -66 -10 -120q0 -27 4 -63l397 414q-34 66 -149 66
q-111 0 -164.5 -63t-77.5 -234zM574 375q10 67 10 121q0 10 -0.5 29t-0.5 23l-395 -411q35 -60 144 -60q112 0 165 63.5t77 234.5z" />
    <glyph glyph-name="Ugrave" unicode="&#xd9;" horiz-adv-x="737" 
d="M710 750l-67 -479q-40 -285 -326 -285q-252 0 -252 219q0 26 5 66l67 479h104l-68 -482q-4 -24 -4 -50q0 -74 39.5 -109.5t120.5 -35.5q93 0 144 47t65 148l68 482h104zM489 796h-81l-103 116h120z" />
    <glyph glyph-name="Uacute" unicode="&#xda;" horiz-adv-x="737" 
d="M710 750l-67 -479q-40 -285 -326 -285q-252 0 -252 219q0 26 5 66l67 479h104l-68 -482q-4 -24 -4 -50q0 -74 39.5 -109.5t120.5 -35.5q93 0 144 47t65 148l68 482h104zM463 912h130l-146 -116h-81z" />
    <glyph glyph-name="Ucircumflex" unicode="&#xdb;" horiz-adv-x="737" 
d="M710 750l-67 -479q-40 -285 -326 -285q-252 0 -252 219q0 26 5 66l67 479h104l-68 -482q-4 -24 -4 -50q0 -74 39.5 -109.5t120.5 -35.5q93 0 144 47t65 148l68 482h104zM394 913h103l99 -117h-91l-63 80l-87 -80h-90z" />
    <glyph glyph-name="Udieresis" unicode="&#xdc;" horiz-adv-x="737" 
d="M710 750l-67 -479q-40 -285 -326 -285q-252 0 -252 219q0 26 5 66l67 479h104l-68 -482q-4 -24 -4 -50q0 -74 39.5 -109.5t120.5 -35.5q93 0 144 47t65 148l68 482h104zM347 892q41 0 41 -35q0 -54 -54 -54q-40 0 -40 32q0 57 53 57zM540 892q41 0 41 -35q0 -54 -54 -54
q-41 0 -41 32q0 57 54 57z" />
    <glyph glyph-name="Yacute" unicode="&#xdd;" horiz-adv-x="672" 
d="M76 750h119l129 -364q1 -4 4 -12.5t5 -15t3 -11.5h2q6 13 20 35l233 368h116l-331 -494l-35 -256h-107l35 256zM433 912h130l-146 -116h-81z" />
    <glyph glyph-name="Thorn" unicode="&#xde;" horiz-adv-x="653" 
d="M237 618h127q133 0 193.5 -42.5t60.5 -136.5q0 -29 -4 -54q-17 -118 -91 -175t-224 -57h-127l-21 -153h-105l105 750h105zM225 535l-43 -303h128q94 0 139.5 33.5t57.5 120.5q3 21 3 38q0 61 -37 86t-120 25h-128z" />
    <glyph glyph-name="germandbls" unicode="&#xdf;" horiz-adv-x="636" 
d="M51 94l57 410q17 125 86.5 192t185.5 67q74 0 119 -35t45 -89q0 -39 -24.5 -75.5t-54.5 -58.5t-54.5 -44.5t-24.5 -37.5t29 -35t64 -39.5t64 -58t29 -86.5q0 -96 -72.5 -154.5t-179.5 -58.5q-98 0 -148 40l18 80q46 -38 126 -38q67 0 111 31t44 88q0 30 -20 56t-48 43.5
l-56 34.5t-48 37.5t-20 43.5q0 27 26.5 56t58.5 51t58.5 53t26.5 61q0 26 -22.5 42t-60.5 16q-135 0 -159 -173l-59 -418q-17 -122 -80.5 -178.5t-176.5 -69.5l2 67q74 12 110 51t48 129z" />
    <glyph glyph-name="agrave" unicode="&#xe0;" horiz-adv-x="601" 
d="M391 604q35 0 82 -4.5t72 -4.5h13l-83 -595h-76v84l-2 1q-74 -95 -197 -95q-85 0 -128 47.5t-43 147.5q0 191 98 305t264 114zM232 67q70 0 119 51t62 138l38 266q-55 5 -71 5q-102 0 -165 -65.5t-81 -193.5q-6 -44 -6 -76q0 -67 25.5 -96t78.5 -29zM460 662h-75l-90 143
h117z" />
    <glyph glyph-name="aacute" unicode="&#xe1;" horiz-adv-x="601" 
d="M391 604q35 0 82 -4.5t72 -4.5h13l-83 -595h-76v84l-2 1q-74 -95 -197 -95q-85 0 -128 47.5t-43 147.5q0 191 98 305t264 114zM232 67q70 0 119 51t62 138l38 266q-55 5 -71 5q-102 0 -165 -65.5t-81 -193.5q-6 -44 -6 -76q0 -67 25.5 -96t78.5 -29zM428 805h118
l-134 -143h-76z" />
    <glyph glyph-name="acircumflex" unicode="&#xe2;" horiz-adv-x="601" 
d="M391 604q35 0 82 -4.5t72 -4.5h13l-83 -595h-76v84l-2 1q-74 -95 -197 -95q-85 0 -128 47.5t-43 147.5q0 191 98 305t264 114zM232 67q70 0 119 51t62 138l38 266q-55 5 -71 5q-102 0 -165 -65.5t-81 -193.5q-6 -44 -6 -76q0 -67 25.5 -96t78.5 -29zM350 805h86l85 -143
h-75l-58 105l-86 -105h-74z" />
    <glyph glyph-name="atilde" unicode="&#xe3;" horiz-adv-x="601" 
d="M391 604q35 0 82 -4.5t72 -4.5h13l-83 -595h-76v84l-2 1q-74 -95 -197 -95q-85 0 -128 47.5t-43 147.5q0 191 98 305t264 114zM232 67q70 0 119 51t62 138l38 266q-55 5 -71 5q-102 0 -165 -65.5t-81 -193.5q-6 -44 -6 -76q0 -67 25.5 -96t78.5 -29zM460 672
q-25 0 -45.5 17t-37 33.5t-31.5 16.5q-28 0 -45 -57h-56q11 54 39.5 85t66.5 31q25 0 45.5 -17t37 -33.5t31.5 -16.5q28 0 45 57h56q-12 -54 -40 -85t-66 -31z" />
    <glyph glyph-name="adieresis" unicode="&#xe4;" horiz-adv-x="601" 
d="M391 604q35 0 82 -4.5t72 -4.5h13l-83 -595h-76v84l-2 1q-74 -95 -197 -95q-85 0 -128 47.5t-43 147.5q0 191 98 305t264 114zM232 67q70 0 119 51t62 138l38 266q-55 5 -71 5q-102 0 -165 -65.5t-81 -193.5q-6 -44 -6 -76q0 -67 25.5 -96t78.5 -29zM323 797q41 0 41 -36
q0 -56 -54 -56q-41 0 -41 33q0 59 54 59zM485 797q41 0 41 -36q0 -56 -54 -56q-42 0 -42 34q0 27 14.5 42.5t40.5 15.5z" />
    <glyph glyph-name="aring" unicode="&#xe5;" horiz-adv-x="601" 
d="M391 604q35 0 82 -4.5t72 -4.5h13l-83 -595h-76v84l-2 1q-74 -95 -197 -95q-85 0 -128 47.5t-43 147.5q0 191 98 305t264 114zM232 67q70 0 119 51t62 138l38 266q-55 5 -71 5q-102 0 -165 -65.5t-81 -193.5q-6 -44 -6 -76q0 -67 25.5 -96t78.5 -29zM394 824
q45 0 69 -18.5t24 -49.5q0 -43 -30.5 -67t-84.5 -24q-92 0 -92 66q0 42 30 67.5t84 25.5zM390 786q-28 0 -44 -14t-16 -35q0 -35 48 -35q27 0 43.5 13t16.5 35q0 36 -48 36z" />
    <glyph glyph-name="ae" unicode="&#xe6;" horiz-adv-x="898" 
d="M385 604q74 0 148 -22l-6 -48l2 -1q63 72 180 72q81 0 124 -34t43 -92q0 -182 -366 -225q-2 -30 -2 -41q0 -79 32.5 -112t99.5 -33q97 0 161 55l27 -58q-85 -75 -215 -75q-156 0 -181 143h-2q-35 -71 -96 -107t-136 -36q-85 0 -127 46.5t-42 146.5q0 201 98.5 311
t257.5 110zM232 67q69 0 118.5 48.5t61.5 131.5l39 277q-42 6 -70 6q-118 0 -185 -87.5t-67 -248.5q0 -68 24.5 -97.5t78.5 -29.5zM704 533q-75 0 -120 -50.5t-65 -160.5q148 18 209 55t61 92q0 29 -21 46.5t-64 17.5z" />
    <glyph glyph-name="ccedilla" unicode="&#xe7;" horiz-adv-x="492" 
d="M123 -191l85 182q-175 11 -175 218q0 45 7 91q21 151 95.5 228t197.5 77q87 0 149 -36l-36 -68q-50 23 -110 23q-84 0 -133 -55t-65 -174q-6 -47 -6 -81q0 -80 31.5 -113.5t93.5 -33.5q79 0 139 54l26 -58q-61 -58 -145 -70l-61 -184h-93z" />
    <glyph glyph-name="egrave" unicode="&#xe8;" horiz-adv-x="518" 
d="M330 605q81 0 124 -33.5t43 -88.5q0 -93 -86 -148.5t-281 -78.5q-2 -30 -2 -41q0 -80 33 -113.5t100 -33.5q95 0 161 55l26 -58q-85 -75 -214 -75q-201 0 -201 221q0 44 7 89q21 151 94.5 228t195.5 77zM319 532q-75 0 -118.5 -52t-61.5 -158q145 17 208 54t63 93
q0 28 -23 45.5t-68 17.5zM391 662h-75l-90 143h117z" />
    <glyph glyph-name="eacute" unicode="&#xe9;" horiz-adv-x="518" 
d="M330 605q81 0 124 -33.5t43 -88.5q0 -93 -86 -148.5t-281 -78.5q-2 -30 -2 -41q0 -80 33 -113.5t100 -33.5q95 0 161 55l26 -58q-85 -75 -214 -75q-201 0 -201 221q0 44 7 89q21 151 94.5 228t195.5 77zM319 532q-75 0 -118.5 -52t-61.5 -158q145 17 208 54t63 93
q0 28 -23 45.5t-68 17.5zM368 805h118l-134 -143h-76z" />
    <glyph glyph-name="ecircumflex" unicode="&#xea;" horiz-adv-x="518" 
d="M330 605q81 0 124 -33.5t43 -88.5q0 -93 -86 -148.5t-281 -78.5q-2 -30 -2 -41q0 -80 33 -113.5t100 -33.5q95 0 161 55l26 -58q-85 -75 -214 -75q-201 0 -201 221q0 44 7 89q21 151 94.5 228t195.5 77zM319 532q-75 0 -118.5 -52t-61.5 -158q145 17 208 54t63 93
q0 28 -23 45.5t-68 17.5zM303 805h86l85 -143h-75l-58 105l-86 -105h-74z" />
    <glyph glyph-name="edieresis" unicode="&#xeb;" horiz-adv-x="518" 
d="M330 605q81 0 124 -33.5t43 -88.5q0 -93 -86 -148.5t-281 -78.5q-2 -30 -2 -41q0 -80 33 -113.5t100 -33.5q95 0 161 55l26 -58q-85 -75 -214 -75q-201 0 -201 221q0 44 7 89q21 151 94.5 228t195.5 77zM319 532q-75 0 -118.5 -52t-61.5 -158q145 17 208 54t63 93
q0 28 -23 45.5t-68 17.5zM261 797q41 0 41 -36q0 -56 -54 -56q-41 0 -41 33q0 59 54 59zM423 797q41 0 41 -36q0 -56 -54 -56q-42 0 -42 34q0 27 14.5 42.5t40.5 15.5z" />
    <glyph glyph-name="igrave" unicode="&#xec;" horiz-adv-x="270" 
d="M135 0h-98l83 592l98 5zM224 662h-75l-90 143h117z" />
    <glyph glyph-name="iacute" unicode="&#xed;" horiz-adv-x="270" 
d="M135 0h-98l83 592l98 5zM228 805h118l-134 -143h-76z" />
    <glyph glyph-name="icircumflex" unicode="&#xee;" horiz-adv-x="270" 
d="M135 0h-98l83 592l98 5zM156 805h86l85 -143h-75l-58 105l-86 -105h-74z" />
    <glyph glyph-name="idieresis" unicode="&#xef;" horiz-adv-x="270" 
d="M135 0h-98l83 592l98 5zM116 797q41 0 41 -36q0 -56 -54 -56q-41 0 -41 33q0 59 54 59zM278 797q41 0 41 -36q0 -56 -54 -56q-42 0 -42 34q0 27 14.5 42.5t40.5 15.5z" />
    <glyph glyph-name="eth" unicode="&#xf0;" horiz-adv-x="615" 
d="M516 765l-85 -56q62 -67 99 -150.5t37 -172.5q0 -18 -4 -54q-25 -184 -97 -262.5t-208 -78.5q-114 0 -171 47.5t-57 162.5q0 31 7 85q20 143 86.5 211.5t186.5 68.5q83 0 138 -38l2 1q-32 76 -88 135l-95 -63l-33 36l92 61q-34 30 -88 62l73 45q43 -25 84 -61l91 61z
M323 489q-83 0 -126 -47.5t-59 -158.5q-6 -43 -6 -76q0 -78 33 -109.5t100 -31.5q82 0 128 57t65 187q3 24 3 45q0 134 -138 134z" />
    <glyph glyph-name="ntilde" unicode="&#xf1;" horiz-adv-x="604" 
d="M390 0l52 374q4 25 4 52q0 53 -23 75.5t-72 22.5q-71 0 -120 -48.5t-61 -133.5l-48 -342h-97l83 592l77 6l1 -44q0 -27 -1 -40l2 -1q73 92 198 92q159 0 159 -164q0 -26 -5 -64l-52 -377h-97zM416 672q-25 0 -45.5 17t-37 33.5t-31.5 16.5q-28 0 -45 -57h-56
q11 54 39.5 85t66.5 31q25 0 45.5 -17t37 -33.5t31.5 -16.5q28 0 45 57h56q-12 -54 -40 -85t-66 -31z" />
    <glyph glyph-name="ograve" unicode="&#xf2;" horiz-adv-x="587" 
d="M318 528q-79 0 -120.5 -52t-59.5 -181q-8 -59 -8 -96q0 -75 28.5 -105t92.5 -30q80 0 122 52t60 183q7 49 7 92q0 76 -29 106.5t-93 30.5zM331 605q109 0 158.5 -50t49.5 -158q0 -42 -8 -101q-23 -160 -91.5 -233t-200.5 -73q-109 0 -158.5 49.5t-49.5 157.5q0 41 8 102
q22 160 91 233t201 73zM398 662h-75l-90 143h117z" />
    <glyph glyph-name="oacute" unicode="&#xf3;" horiz-adv-x="587" 
d="M318 528q-79 0 -120.5 -52t-59.5 -181q-8 -59 -8 -96q0 -75 28.5 -105t92.5 -30q80 0 122 52t60 183q7 49 7 92q0 76 -29 106.5t-93 30.5zM331 605q109 0 158.5 -50t49.5 -158q0 -42 -8 -101q-23 -160 -91.5 -233t-200.5 -73q-109 0 -158.5 49.5t-49.5 157.5q0 41 8 102
q22 160 91 233t201 73zM372 805h118l-134 -143h-76z" />
    <glyph glyph-name="ocircumflex" unicode="&#xf4;" horiz-adv-x="587" 
d="M318 528q-79 0 -120.5 -52t-59.5 -181q-8 -59 -8 -96q0 -75 28.5 -105t92.5 -30q80 0 122 52t60 183q7 49 7 92q0 76 -29 106.5t-93 30.5zM331 605q109 0 158.5 -50t49.5 -158q0 -42 -8 -101q-23 -160 -91.5 -233t-200.5 -73q-109 0 -158.5 49.5t-49.5 157.5q0 41 8 102
q22 160 91 233t201 73zM316 805h86l85 -143h-75l-58 105l-86 -105h-74z" />
    <glyph glyph-name="otilde" unicode="&#xf5;" horiz-adv-x="587" 
d="M318 528q-79 0 -120.5 -52t-59.5 -181q-8 -59 -8 -96q0 -75 28.5 -105t92.5 -30q80 0 122 52t60 183q7 49 7 92q0 76 -29 106.5t-93 30.5zM331 605q109 0 158.5 -50t49.5 -158q0 -42 -8 -101q-23 -160 -91.5 -233t-200.5 -73q-109 0 -158.5 49.5t-49.5 157.5q0 41 8 102
q22 160 91 233t201 73zM408 672q-25 0 -45.5 17t-37 33.5t-31.5 16.5q-28 0 -45 -57h-56q11 54 39.5 85t66.5 31q25 0 45.5 -17t37 -33.5t31.5 -16.5q28 0 45 57h56q-12 -54 -40 -85t-66 -31z" />
    <glyph glyph-name="odieresis" unicode="&#xf6;" horiz-adv-x="587" 
d="M318 528q-79 0 -120.5 -52t-59.5 -181q-8 -59 -8 -96q0 -75 28.5 -105t92.5 -30q80 0 122 52t60 183q7 49 7 92q0 76 -29 106.5t-93 30.5zM331 605q109 0 158.5 -50t49.5 -158q0 -42 -8 -101q-23 -160 -91.5 -233t-200.5 -73q-109 0 -158.5 49.5t-49.5 157.5q0 41 8 102
q22 160 91 233t201 73zM275 797q41 0 41 -36q0 -56 -54 -56q-41 0 -41 33q0 59 54 59zM437 797q41 0 41 -36q0 -56 -54 -56q-42 0 -42 34q0 27 14.5 42.5t40.5 15.5z" />
    <glyph glyph-name="divide" unicode="&#xf7;" 
d="M364 502q0 -52 -67 -52t-67 52q0 25 18 39t49 14q67 0 67 -53zM532 296h-469v86h469v-86zM364 176q0 -52 -67 -52t-67 52q0 25 18 39t49 14q67 0 67 -53z" />
    <glyph glyph-name="oslash" unicode="&#xf8;" horiz-adv-x="587" 
d="M331 605q115 0 165 -56l45 49l37 -38l-54 -60q15 -42 15 -101q0 -42 -8 -103q-23 -160 -91.5 -233t-200.5 -73q-115 0 -163 54l-46 -48l-38 38l54 58q-16 41 -16 101q0 47 9 106q22 160 90.5 233t201.5 73zM433 299q7 61 7 117l-299 -293q23 -59 110 -59q80 0 122 52
t60 183zM318 528q-79 0 -120.5 -52t-59.5 -181q-8 -58 -8 -118l298 292q-25 59 -110 59z" />
    <glyph glyph-name="ugrave" unicode="&#xf9;" horiz-adv-x="593" 
d="M559 595l-56 -399q-30 -207 -259 -207q-101 0 -152 43t-51 123q0 20 3 41l56 396l98 6l-57 -401q-2 -20 -2 -27q0 -101 116 -101q133 0 151 128l56 398h97zM403 662h-75l-90 143h117z" />
    <glyph glyph-name="uacute" unicode="&#xfa;" horiz-adv-x="593" 
d="M559 595l-56 -399q-30 -207 -259 -207q-101 0 -152 43t-51 123q0 20 3 41l56 396l98 6l-57 -401q-2 -20 -2 -27q0 -101 116 -101q133 0 151 128l56 398h97zM377 805h118l-134 -143h-76z" />
    <glyph glyph-name="ucircumflex" unicode="&#xfb;" horiz-adv-x="593" 
d="M559 595l-56 -399q-30 -207 -259 -207q-101 0 -152 43t-51 123q0 20 3 41l56 396l98 6l-57 -401q-2 -20 -2 -27q0 -101 116 -101q133 0 151 128l56 398h97zM315 805h86l85 -143h-75l-58 105l-86 -105h-74z" />
    <glyph glyph-name="udieresis" unicode="&#xfc;" horiz-adv-x="593" 
d="M559 595l-56 -399q-30 -207 -259 -207q-101 0 -152 43t-51 123q0 20 3 41l56 396l98 6l-57 -401q-2 -20 -2 -27q0 -101 116 -101q133 0 151 128l56 398h97zM274 797q41 0 41 -36q0 -56 -54 -56q-41 0 -41 33q0 59 54 59zM436 797q41 0 41 -36q0 -56 -54 -56q-42 0 -42 34
q0 27 14.5 42.5t40.5 15.5z" />
    <glyph glyph-name="yacute" unicode="&#xfd;" horiz-adv-x="584" 
d="M465 595h96q-67 -253 -188.5 -448.5t-290.5 -295.5l-33 70q101 68 164 149l-154 520l107 8l107 -403q6 -22 9 -40h2q117 186 181 440zM371 805h118l-134 -143h-76z" />
    <glyph glyph-name="thorn" unicode="&#xfe;" horiz-adv-x="605" 
d="M391 605q83 0 124.5 -47.5t41.5 -153.5q0 -53 -8 -108q-43 -305 -266 -305q-90 0 -152 43l-25 -181h-97l132 937l98 7l-33 -234q-5 -32 -7 -40l1 -1q75 83 191 83zM356 527q-69 0 -119 -49.5t-62 -133.5l-33 -236q46 -40 121 -40q80 0 125 55t62 176q7 49 7 92
q0 75 -25 105.5t-76 30.5z" />
    <glyph glyph-name="ydieresis" unicode="&#xff;" horiz-adv-x="584" 
d="M465 595h96q-67 -253 -188.5 -448.5t-290.5 -295.5l-33 70q101 68 164 149l-154 520l107 8l107 -403q6 -22 9 -40h2q117 186 181 440zM276 797q41 0 41 -36q0 -56 -54 -56q-41 0 -41 33q0 59 54 59zM438 797q41 0 41 -36q0 -56 -54 -56q-42 0 -42 34q0 27 14.5 42.5
t40.5 15.5z" />
    <glyph glyph-name="dotlessi" unicode="&#x131;" horiz-adv-x="270" 
d="M135 0h-98l83 592l98 5z" />
    <glyph glyph-name="IJ" unicode="&#x132;" horiz-adv-x="853" 
d="M59 0l105 750h107l-105 -750h-107zM811 750l-70 -498q-20 -141 -92 -202t-203 -61q-95 0 -153 40l19 80q48 -37 133 -37t130.5 41t59.5 138l70 499h106z" />
    <glyph glyph-name="ij" unicode="&#x133;" horiz-adv-x="549" 
d="M134 0h-97l83 592l98 6zM496 598l-71 -504q-17 -122 -80 -178.5t-177 -69.5l1 67q75 12 110.5 50.5t48.5 129.5l70 499zM194 799q56 0 56 -40q0 -58 -70 -58q-56 0 -56 38q0 60 70 60zM472 799q56 0 56 -40q0 -58 -70 -58q-56 0 -56 38q0 60 70 60z" />
    <glyph glyph-name="Lslash" unicode="&#x141;" horiz-adv-x="601" 
d="M190 86h349l-16 -86h-450l41 298l-82 -37l3 80l91 40l52 369h105l-46 -326l223 100l-3 -83l-232 -103z" />
    <glyph glyph-name="lslash" unicode="&#x142;" horiz-adv-x="351" 
d="M44 367l9 78l94 46l42 299l98 7l-37 -265l99 50l-9 -76l-101 -51l-64 -455h-97l58 413z" />
    <glyph glyph-name="OE" unicode="&#x152;" horiz-adv-x="1097" 
d="M998 0h-469l7 52q1 16 7 41l-2 1q-79 -108 -241 -108q-128 0 -188 62.5t-60 200.5q0 60 10 126q28 205 110.5 296t237.5 91q159 0 212 -101l1 1q3 31 4 40l7 48h453l-10 -85h-361l-33 -236h309l-11 -77h-309l-38 -268h378zM573 375q11 79 11 129q0 97 -39 134.5
t-128 37.5q-113 0 -167 -63.5t-79 -237.5q-10 -67 -10 -123q0 -100 40.5 -140t130.5 -40q111 0 164 64.5t77 238.5z" />
    <glyph glyph-name="oe" unicode="&#x153;" horiz-adv-x="913" 
d="M331 605q148 0 179 -112h2q68 112 212 112q81 0 124 -34t43 -92q0 -182 -366 -225q-2 -30 -2 -41q0 -79 32.5 -112t99.5 -33q96 0 162 55l26 -58q-85 -75 -215 -75q-138 0 -173 112h-2q-64 -112 -214 -112q-109 0 -158.5 49.5t-49.5 157.5q0 41 8 102q22 160 91 233
t201 73zM319 527q-80 0 -121.5 -52t-59.5 -180q-8 -59 -8 -94q0 -75 29 -105.5t93 -30.5q80 0 121.5 52t59.5 182q7 49 7 91q0 75 -29 106t-92 31zM719 532q-75 0 -120 -50t-65 -160q149 18 209.5 54.5t60.5 91.5q0 64 -85 64z" />
    <glyph glyph-name="Scaron" unicode="&#x160;" horiz-adv-x="570" 
d="M362 762q115 0 193 -40l-26 -81q-88 36 -173 36t-128 -38t-43 -94q0 -39 33.5 -65t81 -42.5t95 -36t81 -59t33.5 -97.5q0 -119 -79.5 -189t-210.5 -70q-122 0 -212 57l26 85q89 -57 196 -57q82 0 130 40.5t48 111.5q0 41 -33.5 68.5t-81.5 44.5t-95.5 36.5t-81 57.5
t-33.5 94q0 103 74 170.5t206 67.5zM421 796h-102l-97 117h90l63 -81l88 81h90z" />
    <glyph glyph-name="scaron" unicode="&#x161;" horiz-adv-x="485" 
d="M300 605q93 0 154 -38l-37 -68q-58 29 -132 29q-54 0 -89.5 -25.5t-35.5 -64.5q0 -25 19 -44t48 -30.5t62.5 -26.5t62.5 -30.5t48 -44.5t19 -67q0 -8 -2 -24q-13 -84 -69 -132t-160 -48q-112 0 -183 61l32 68q60 -54 154 -54q63 0 98 31t35 78q0 32 -26.5 54.5t-65 38.5
l-76.5 33t-64.5 48.5t-26.5 75.5q0 82 63.5 131t171.5 49zM343 662h-86l-83 143h75l56 -105l86 105h76z" />
    <glyph glyph-name="Ydieresis" unicode="&#x178;" horiz-adv-x="672" 
d="M76 750h119l129 -364q1 -4 4 -12.5t5 -15t3 -11.5h2q6 13 20 35l233 368h116l-331 -494l-35 -256h-107l35 256zM318 892q41 0 41 -35q0 -54 -54 -54q-40 0 -40 32q0 57 53 57zM511 892q41 0 41 -35q0 -54 -54 -54q-41 0 -41 32q0 57 54 57z" />
    <glyph glyph-name="Zcaron" unicode="&#x17d;" horiz-adv-x="618" 
d="M514 0h-517l8 64l455 569q12 15 26 29l-1 2h-383l16 86h501l-10 -73l-447 -560q-12 -15 -26 -29l1 -2h391zM431 796h-102l-97 117h90l63 -81l88 81h90z" />
    <glyph glyph-name="zcaron" unicode="&#x17e;" horiz-adv-x="542" 
d="M506 530l-349 -424q-1 -1 -11 -12.5t-15 -16.5l1 -2h316l-13 -75h-426l8 64l352 426q1 1 26 29l-1 2h-301l13 74h409zM352 662h-86l-83 143h75l56 -105l86 105h76z" />
    <glyph glyph-name="longs" unicode="&#x17f;" horiz-adv-x="307" 
d="M43 524l13 67h83q17 117 78.5 165t196.5 48l-4 -69q-81 0 -121.5 -29t-52.5 -116l-69 -496q-17 -122 -80.5 -178.5t-176.5 -69.5l2 67q74 12 110 51t48 129l60 431h-87z" />
    <glyph glyph-name="florin" unicode="&#x192;" horiz-adv-x="410" 
d="M20 -148h-96l237 671h-63l26 72h63l17 51q21 64 75 100t131 37q44 0 81 -13l-30 -61q-22 9 -55 9q-79 0 -104 -73l-17 -50h141l-26 -72h-141z" />
    <glyph glyph-name="uni02BB" unicode="&#x2bb;" horiz-adv-x="234" 
d="M148 577q-55 0 -55 55q0 37 32.5 90t79.5 101l30 -20q-39 -59 -59 -110q20 0 31.5 -11.5t11.5 -31.5q0 -31 -19 -52t-52 -21z" />
    <glyph glyph-name="afii57929" unicode="&#x2bc;" horiz-adv-x="234" 
d="M178 792q54 0 54 -53q0 -39 -32 -91t-80 -101l-29 19q37 59 58 110q-20 0 -31.5 11.5t-11.5 31.5q0 32 19.5 52.5t52.5 20.5z" />
    <glyph glyph-name="circumflex" unicode="&#x2c6;" horiz-adv-x="377" 
d="M208 805h86l85 -143h-75l-58 105l-86 -105h-74z" />
    <glyph glyph-name="caron" unicode="&#x2c7;" horiz-adv-x="377" 
d="M275 662h-86l-83 143h75l56 -105l86 105h76z" />
    <glyph glyph-name="breve" unicode="&#x2d8;" horiz-adv-x="377" 
d="M325 805h69q-10 -72 -51 -111t-112 -39q-125 0 -125 113q0 18 3 37h68q-2 -10 -2 -27q0 -36 17 -54.5t46 -18.5q33 0 56.5 25.5t30.5 74.5z" />
    <glyph glyph-name="dotaccent" unicode="&#x2d9;" horiz-adv-x="399" 
d="M261 799q56 0 56 -40q0 -58 -70 -58q-56 0 -56 38q0 60 70 60z" />
    <glyph glyph-name="ring" unicode="&#x2da;" horiz-adv-x="377" 
d="M254 824q45 0 69 -18.5t24 -49.5q0 -43 -30.5 -67t-84.5 -24q-92 0 -92 66q0 42 30 67.5t84 25.5zM250 786q-28 0 -44 -14t-16 -35q0 -35 48 -35q27 0 43.5 13t16.5 35q0 36 -48 36z" />
    <glyph glyph-name="ogonek" unicode="&#x2db;" horiz-adv-x="399" 
d="M173 -181q-95 0 -95 68q0 42 31 76.5t83 51.5l38 -15q-35 -13 -55 -36.5t-20 -49.5q0 -38 52 -38q35 0 62 15v-49q-46 -23 -96 -23z" />
    <glyph glyph-name="tilde" unicode="&#x2dc;" horiz-adv-x="399" 
d="M314 672q-25 0 -45.5 17t-37 33.5t-31.5 16.5q-28 0 -45 -57h-56q11 54 39.5 85t66.5 31q25 0 45.5 -17t37 -33.5t31.5 -16.5q28 0 45 57h56q-12 -54 -40 -85t-66 -31z" />
    <glyph glyph-name="hungarumlaut" unicode="&#x2dd;" horiz-adv-x="377" 
d="M216 805h105l-129 -143h-64zM377 805h106l-135 -143h-73z" />
    <glyph glyph-name="uni0394" unicode="&#x394;" horiz-adv-x="755" 
d="M468 754l194 -754h-669l404 754h71zM417 640h-2q-2 -5 -18 -37l-272 -525h421l-121 522q-7 31 -8 40z" />
    <glyph glyph-name="uni03A9" unicode="&#x3a9;" horiz-adv-x="743" 
d="M428 761q264 0 264 -249q0 -132 -60.5 -245t-182.5 -187v-3h194l-10 -77h-273l15 107q208 145 208 398q0 90 -40.5 131.5t-125.5 41.5q-102 0 -157.5 -60t-74.5 -192q-4 -27 -4 -59q0 -161 117 -260l-15 -107h-272l10 77h194l1 3q-144 103 -144 286q0 27 5 64
q47 331 351 331z" />
    <glyph glyph-name="uni03BC" unicode="&#x3bc;" horiz-adv-x="621" 
d="M227 -7q-83 0 -110 61h-2q-9 -110 -15 -199l-96 -8l105 748h96l-56 -400q-2 -12 -2 -32q0 -93 93 -93q66 0 122 46t66 120l50 359h96l-83 -593l-72 -6v94l-2 1q-34 -46 -83.5 -72t-106.5 -26z" />
    <glyph glyph-name="pi" unicode="&#x3c0;" horiz-adv-x="677" 
d="M411 147l52 370h-205l-72 -517h-96l72 516q-63 -3 -93 -25l-18 70q48 34 160 34h451l-11 -78h-93l-52 -370q-3 -18 -3 -30q0 -29 14.5 -40.5t47.5 -11.5l-10 -69q-83 0 -115.5 22.5t-32.5 78.5q0 25 4 50z" />
    <glyph glyph-name="uni2007" unicode="&#x2007;" horiz-adv-x="650" 
 />
    <glyph glyph-name="uni2008" unicode="&#x2008;" horiz-adv-x="253" 
 />
    <glyph glyph-name="uni200B" unicode="&#x200b;" horiz-adv-x="0" 
 />
    <glyph glyph-name="endash" unicode="&#x2013;" horiz-adv-x="532" 
d="M72 374h392l-9 -67h-392z" />
    <glyph glyph-name="emdash" unicode="&#x2014;" horiz-adv-x="708" 
d="M72 374h569l-9 -67h-569z" />
    <glyph glyph-name="quoteleft" unicode="&#x2018;" horiz-adv-x="234" 
d="M148 577q-55 0 -55 55q0 37 32.5 90t79.5 101l30 -20q-39 -59 -59 -110q20 0 31.5 -11.5t11.5 -31.5q0 -31 -19 -52t-52 -21z" />
    <glyph glyph-name="quoteright" unicode="&#x2019;" horiz-adv-x="234" 
d="M178 792q54 0 54 -53q0 -39 -32 -91t-80 -101l-29 19q37 59 58 110q-20 0 -31.5 11.5t-11.5 31.5q0 32 19.5 52.5t52.5 20.5z" />
    <glyph glyph-name="quotesinglbase" unicode="&#x201a;" horiz-adv-x="234" 
d="M81 105q55 0 55 -54q0 -38 -32.5 -90t-79.5 -101l-30 19q40 65 58 110q-20 0 -31 11.5t-11 31.5q0 32 19 52.5t52 20.5z" />
    <glyph glyph-name="quotedblleft" unicode="&#x201c;" horiz-adv-x="419" 
d="M148 577q-55 0 -55 55q0 37 32.5 90t79.5 101l30 -20q-39 -59 -59 -110q20 0 31.5 -11.5t11.5 -31.5q0 -31 -19 -52t-52 -21zM334 577q-55 0 -55 55q0 37 32.5 90t79.5 101l30 -20q-39 -59 -59 -110q20 0 31.5 -11.5t11.5 -31.5q0 -31 -19 -52t-52 -21z" />
    <glyph glyph-name="quotedblright" unicode="&#x201d;" horiz-adv-x="419" 
d="M178 791q54 0 54 -53q0 -39 -32 -91t-80 -101l-29 19q38 61 57 110q-20 0 -31 11.5t-11 31.5q0 32 19 52.5t53 20.5zM363 791q54 0 54 -53q0 -39 -32 -91t-80 -101l-29 19q38 61 57 110q-20 0 -31 11.5t-11 31.5q0 32 19 52.5t53 20.5z" />
    <glyph glyph-name="quotedblbase" unicode="&#x201e;" horiz-adv-x="419" 
d="M266 105q55 0 55 -54q0 -38 -32.5 -90t-79.5 -101l-30 19q40 65 58 110q-20 0 -31 11.5t-11 31.5q0 32 19 52.5t52 20.5zM81 105q55 0 55 -54q0 -38 -32.5 -90t-79.5 -101l-30 19q40 65 58 110q-20 0 -31 11.5t-11 31.5q0 32 19 52.5t52 20.5z" />
    <glyph glyph-name="dagger" unicode="&#x2020;" horiz-adv-x="501" 
d="M78 600l164 -7l19 201h96l-35 -201l169 7l-12 -83l-167 6l-87 -667h-96l103 667l-166 -6z" />
    <glyph glyph-name="daggerdbl" unicode="&#x2021;" horiz-adv-x="501" 
d="M425 135l-11 -82l-167 6l-22 -204h-96l38 204l-166 -6l11 82l165 -6l55 394l-166 -6l12 83l164 -7l19 201h96l-35 -201l169 7l-12 -83l-167 6l-55 -394z" />
    <glyph glyph-name="bullet" unicode="&#x2022;" horiz-adv-x="407" 
d="M61 322q18 134 154 134q119 0 119 -104q0 -82 -41.5 -124t-115.5 -42q-118 0 -118 103q0 21 2 33z" />
    <glyph glyph-name="ellipsis" unicode="&#x2026;" horiz-adv-x="657" 
d="M498 106q55 0 55 -46q0 -33 -18.5 -52t-52.5 -19q-57 0 -57 44q0 73 73 73zM299 106q55 0 55 -46q0 -33 -18.5 -52t-52.5 -19q-57 0 -57 44q0 73 73 73zM91 106q55 0 55 -46q0 -33 -18.5 -52t-52.5 -19q-57 0 -57 44q0 73 73 73z" />
    <glyph glyph-name="perthousand" unicode="&#x2030;" horiz-adv-x="1031" 
d="M248 763q62 0 92.5 -28.5t30.5 -93.5q0 -116 -45.5 -171.5t-126.5 -55.5q-63 0 -93.5 30t-30.5 93q0 26 4 51q13 93 52.5 134t116.5 41zM240 707q-42 0 -64 -25t-31 -93q-4 -34 -4 -44q0 -40 16.5 -57t49.5 -17q41 0 63 25.5t31 92.5q4 36 4 46q0 40 -16 56t-49 16z
M569 736l53 -40l-486 -683l-54 40zM520 343q62 0 92.5 -29.5t30.5 -94.5q0 -116 -46 -171.5t-127 -55.5q-63 0 -93 29.5t-30 92.5q0 27 4 52q13 93 52.5 135t116.5 42zM513 285q-42 0 -64.5 -25.5t-31.5 -93.5q-4 -34 -4 -45q0 -40 16 -56t50 -16q41 0 63 25.5t31 91.5
q4 24 4 47q0 40 -15.5 56t-48.5 16zM839 343q62 0 92.5 -29.5t30.5 -95.5q0 -115 -46 -170.5t-128 -55.5q-62 0 -92 29.5t-30 92.5q0 27 4 52q13 93 52.5 135t116.5 42zM831 285q-42 0 -64 -25.5t-31 -93.5q-4 -34 -4 -45q0 -40 16 -56t49 -16q41 0 63 25.5t31 91.5
q4 24 4 47q0 40 -15.5 56t-48.5 16z" />
    <glyph glyph-name="guilsinglleft" unicode="&#x2039;" horiz-adv-x="405" 
d="M350 449l-213 -123l178 -122l-10 -73l-265 191l1 9l319 191z" />
    <glyph glyph-name="guilsinglright" unicode="&#x203a;" horiz-adv-x="405" 
d="M36 131l10 73l211 122l-176 123l10 73l265 -191l-1 -9z" />
    <glyph glyph-name="fraction" unicode="&#x2044;" horiz-adv-x="289" 
d="M433 750h72l-610 -750h-72z" />
    <glyph glyph-name="uni2070" unicode="&#x2070;" horiz-adv-x="369" 
d="M260 898q67 0 98.5 -33t31.5 -105q0 -25 -5 -65q-14 -104 -58 -153t-124 -49q-67 0 -99 34t-32 106q0 24 5 62q15 107 59 155t124 48zM252 843q-45 0 -70 -31.5t-37 -116.5q-5 -40 -5 -61q0 -49 17 -68t53 -19q44 0 68.5 31.5t36.5 116.5q5 42 5 63q0 47 -16.5 66
t-51.5 19z" />
    <glyph glyph-name="uni2074" unicode="&#x2074;" horiz-adv-x="369" 
d="M380 580h-45l-11 -82h-64l11 82h-207v40l231 272h84l-37 -260h47zM279 632l26 161q3 19 8 41l-2 1l-26 -33l-115 -139q-13 -17 -27 -29l1 -2h135z" />
    <glyph glyph-name="uni2075" unicode="&#x2075;" horiz-adv-x="369" 
d="M386 892l-6 -55h-185l-21 -99q40 10 77 10q121 0 121 -92q0 -77 -44.5 -120t-126.5 -43q-74 0 -124 30l19 52q51 -30 107 -30q100 0 100 98q0 55 -75 55q-51 0 -98 -17l-25 18l45 193h236z" />
    <glyph glyph-name="uni2076" unicode="&#x2076;" horiz-adv-x="369" 
d="M385 881l-12 -54q-35 15 -84 15q-57 0 -89.5 -29.5t-45.5 -90.5l1 -1q47 30 102 30q118 0 118 -91q0 -81 -45 -124t-122 -43q-131 0 -131 134q0 131 58 200.5t156 69.5q52 0 94 -16zM241 702q-22 0 -50 -9.5t-42 -24.5q-3 -22 -3 -40q0 -44 17 -63.5t53 -19.5
q39 0 64.5 26.5t25.5 77.5q0 53 -65 53z" />
    <glyph glyph-name="uni2077" unicode="&#x2077;" horiz-adv-x="369" 
d="M410 892l-8 -58l-214 -336h-82l200 301q12 19 23 31l-1 2h-227l12 60h297z" />
    <glyph glyph-name="uni2078" unicode="&#x2078;" horiz-adv-x="369" 
d="M203 493q-139 0 -139 94q0 81 85 117v2q-42 25 -42 71q0 57 39 88.5t114 31.5q122 0 122 -84q0 -70 -68 -106v-2q58 -23 58 -77q0 -66 -44 -100.5t-125 -34.5zM212 544q40 0 64.5 18t24.5 47q0 27 -23 41.5t-74 30.5q-71 -33 -71 -85t79 -52zM253 848q-37 0 -58.5 -17
t-21.5 -47q0 -13 6 -22t21 -16t25.5 -10.5t33.5 -10.5q58 29 58 76t-64 47z" />
    <glyph glyph-name="uni2079" unicode="&#x2079;" horiz-adv-x="369" 
d="M252 898q133 0 133 -135q0 -14 -4 -50q-15 -114 -65.5 -167t-136.5 -53q-54 0 -100 19l20 51q37 -17 83 -17q54 0 86.5 32.5t46.5 105.5l-2 2q-40 -33 -101 -33q-122 0 -122 96q0 65 42.5 107t119.5 42zM244 845q-41 0 -64 -22.5t-23 -63.5q0 -57 70 -57q59 0 87 33
q2 24 2 32q0 42 -18 60t-54 18z" />
    <glyph glyph-name="uni207A" unicode="&#x207a;" horiz-adv-x="371" 
d="M373 669h-113v-113h-59v113h-111v58h111v114h59v-114h113v-58z" />
    <glyph glyph-name="uni207B" unicode="&#x207b;" horiz-adv-x="371" 
d="M367 674h-274l8 55h274z" />
    <glyph glyph-name="uni207C" unicode="&#x207c;" horiz-adv-x="371" 
d="M370 734h-275v50h275v-50zM370 619h-275v50h275v-50z" />
    <glyph glyph-name="uni207D" unicode="&#x207d;" horiz-adv-x="210" 
d="M227 924l50 -5q-112 -133 -112 -299q0 -95 44 -180l-50 -3q-58 70 -58 182q0 182 126 305z" />
    <glyph glyph-name="uni207E" unicode="&#x207e;" horiz-adv-x="210" 
d="M89 919l51 5q58 -78 58 -181q0 -89 -34 -170t-92 -136l-51 3q112 140 112 301q0 96 -44 178z" />
    <glyph glyph-name="uni2080" unicode="&#x2080;" horiz-adv-x="369" 
d="M171 253q67 0 98.5 -33t31.5 -105q0 -25 -5 -65q-14 -104 -58 -153t-124 -49q-67 0 -99 34t-32 106q0 24 5 62q15 107 59 155t124 48zM163 198q-45 0 -70 -31.5t-37 -116.5q-5 -40 -5 -61q0 -49 17 -68t53 -19q44 0 68.5 31.5t36.5 116.5q5 42 5 63q0 47 -16.5 66
t-51.5 19z" />
    <glyph glyph-name="uni2081" unicode="&#x2081;" horiz-adv-x="272" 
d="M192 249l-55 -396h-70l37 269q5 30 8 40l-2 2q-16 -12 -35 -22l-60 -34l2 59l129 82h46z" />
    <glyph glyph-name="uni2082" unicode="&#x2082;" horiz-adv-x="354" 
d="M167 252q61 0 92 -25t31 -68q0 -63 -52.5 -115t-169.5 -132v-3h189l-8 -56h-276l6 45l52 41l51 41l42 35.5t38 36t26.5 31.5t20 33.5t5.5 30.5q0 49 -71 49q-52 0 -112 -38l-10 52q70 42 146 42z" />
    <glyph glyph-name="uni2083" unicode="&#x2083;" horiz-adv-x="354" 
d="M164 252q62 0 95 -22.5t33 -65.5q0 -77 -80 -101v-2q65 -17 65 -74q0 -64 -46 -101.5t-129 -37.5q-73 0 -125 32l23 50q49 -30 109 -30q48 0 74 24t26 61q0 28 -26 40t-88 12l7 47q124 0 124 67q0 47 -73 47q-65 0 -117 -36l-11 48q60 42 139 42z" />
    <glyph glyph-name="uni2084" unicode="&#x2084;" horiz-adv-x="369" 
d="M291 -65h-45l-11 -82h-64l11 82h-207v40l231 272h84l-37 -260h47zM190 -13l26 161q3 19 8 41l-2 1q-4 -6 -26 -33l-115 -139q-13 -17 -27 -29l1 -2h135z" />
    <glyph glyph-name="uni2085" unicode="&#x2085;" horiz-adv-x="369" 
d="M297 247l-6 -55h-185l-21 -99q40 10 77 10q121 0 121 -92q0 -77 -44.5 -120t-126.5 -43q-75 0 -124 30l19 52q51 -30 107 -30q100 0 100 98q0 55 -75 55q-51 0 -98 -17l-25 18l45 193h236z" />
    <glyph glyph-name="uni2086" unicode="&#x2086;" horiz-adv-x="369" 
d="M296 236l-12 -54q-35 15 -84 15q-57 0 -89.5 -29.5t-45.5 -90.5l1 -1q47 30 102 30q118 0 118 -91q0 -81 -45 -124t-122 -43q-131 0 -131 134q0 131 58 200.5t156 69.5q52 0 94 -16zM152 57q-22 0 -50 -9.5t-42 -24.5q-3 -23 -3 -40q0 -44 17 -63.5t53 -19.5
q39 0 64.5 26.5t25.5 77.5q0 53 -65 53z" />
    <glyph glyph-name="uni2087" unicode="&#x2087;" horiz-adv-x="369" 
d="M321 247l-8 -58l-214 -336h-82l200 301q12 19 23 31l-1 2h-227l12 60h297z" />
    <glyph glyph-name="uni2088" unicode="&#x2088;" horiz-adv-x="369" 
d="M114 -152q-139 0 -139 94q0 81 85 117v2q-42 25 -42 71q0 57 39 88.5t114 31.5q122 0 122 -84q0 -70 -68 -106v-2q58 -23 58 -77q0 -66 -44 -100.5t-125 -34.5zM123 -101q40 0 64.5 18t24.5 47q0 27 -23 41.5t-74 30.5q-71 -33 -71 -85t79 -52zM164 203q-37 0 -58.5 -17
t-21.5 -47q0 -13 6 -22t21 -16t25.5 -10.5t33.5 -10.5q58 29 58 76t-64 47z" />
    <glyph glyph-name="uni2089" unicode="&#x2089;" horiz-adv-x="369" 
d="M163 253q133 0 133 -135q0 -14 -4 -50q-15 -114 -65.5 -167t-136.5 -53q-54 0 -100 19l20 51q37 -17 83 -17q55 0 87 32.5t46 105.5l-2 2q-40 -33 -101 -33q-122 0 -122 96q0 65 42.5 107t119.5 42zM155 200q-41 0 -64 -22.5t-23 -63.5q0 -57 70 -57q59 0 87 33
q2 24 2 32q0 42 -18 60t-54 18z" />
    <glyph glyph-name="uni208A" unicode="&#x208a;" horiz-adv-x="371" 
d="M284 24h-113v-113h-59v113h-111v58h111v114h59v-114h113v-58z" />
    <glyph glyph-name="uni208B" unicode="&#x208b;" horiz-adv-x="371" 
d="M277 29h-274l7 55h274z" />
    <glyph glyph-name="uni208C" unicode="&#x208c;" horiz-adv-x="371" 
d="M281 89h-275v50h275v-50zM281 -26h-275v50h275v-50z" />
    <glyph glyph-name="uni208D" unicode="&#x208d;" horiz-adv-x="210" 
d="M138 279l50 -5q-112 -133 -112 -299q0 -95 44 -180l-50 -3q-58 70 -58 182q0 182 126 305z" />
    <glyph glyph-name="uni208E" unicode="&#x208e;" horiz-adv-x="210" 
d="M0 274l51 5q58 -78 58 -181q0 -89 -34 -170t-92 -136l-51 3q112 140 112 301q0 96 -44 178z" />
    <glyph glyph-name="franc" unicode="&#x20a3;" horiz-adv-x="650" 
d="M0 179h87l80 571h467l-10 -87h-365l-33 -236h286l-12 -81h-286l-23 -167h92l-10 -66h-92l-15 -113h-104l15 113h-87z" />
    <glyph glyph-name="lira" unicode="&#x20a4;" horiz-adv-x="650" 
d="M95 402l4 57h36q-3 21 -3 45q0 111 72 183.5t227 72.5q105 0 183 -38l-26 -82q-66 35 -158 35q-197 0 -197 -183q0 -5 0.5 -16t0.5 -17h288l-8 -57h-272q4 -40 5 -61h258l-7 -55h-250q-10 -151 -105 -207l1 -2q89 16 216 16q91 0 202 -12l-18 -87q-132 14 -241 14
q-144 0 -284 -13l6 83q116 37 127 208h-70l5 55h64q-1 13 -4 35t-3 26h-49z" />
    <glyph glyph-name="peseta" unicode="&#x20a7;" horiz-adv-x="650" 
d="M641 490h-59q-20 -105 -85.5 -155t-187.5 -50h-133l-40 -285h-97l68 490h-61l8 51h61l29 209h230q113 0 165.5 -41t52.5 -133q0 -11 -2 -35h59zM230 670l-18 -129h279q0 4 0.5 10.5t0.5 9.5q0 59 -30.5 84t-98.5 25h-133zM319 362q72 0 110.5 28t53.5 100h-279l-18 -128
h133z" />
    <glyph glyph-name="Euro" unicode="&#x20ac;" horiz-adv-x="650" 
d="M499 343l-22 -54h-258q0 -116 46.5 -167.5t147.5 -51.5q88 0 176 49l-1 -74q-89 -54 -210 -54q-136 0 -199.5 67t-63.5 207q0 4 0.5 12t0.5 12h-89l8 54h84q3 31 9 63h-84l7 56h88q37 142 127.5 218t226.5 76q113 0 177 -36l-33 -78q-59 29 -136 29q-197 0 -258 -209h310
l-21 -56h-301q-6 -32 -9 -63h277z" />
    <glyph glyph-name="trademark" unicode="&#x2122;" horiz-adv-x="666" 
d="M636 495h-50l24 172q4 23 9 41l-2 1l-116 -214h-45l-57 213h-2q-2 -30 -4 -41l-24 -172h-50l39 275h75l46 -174q9 -37 9 -40h2q4 10 18 36l96 178h71zM311 721h-84l-32 -226h-59l32 226h-85l7 49h228z" />
    <glyph glyph-name="Omega" unicode="&#x2126;" horiz-adv-x="743" 
d="M428 761q264 0 264 -249q0 -132 -60.5 -245t-182.5 -187v-3h194l-10 -77h-273l15 107q208 145 208 398q0 90 -40.5 131.5t-125.5 41.5q-102 0 -157.5 -60t-74.5 -192q-4 -27 -4 -59q0 -161 117 -260l-15 -107h-272l10 77h194l1 3q-144 103 -144 286q0 27 5 64
q47 331 351 331z" />
    <glyph glyph-name="uni2150" unicode="&#x2150;" horiz-adv-x="930" 
d="M262 752l-55 -396h-70l37 269q5 30 8 40l-2 2q-16 -12 -35 -22l-60 -34l2 59l129 82h46zM705 750h72l-610 -750h-72zM902 394l-8 -58l-214 -336h-82l200 301q12 19 23 31l-1 2h-227l12 60h297z" />
    <glyph glyph-name="uni2151" unicode="&#x2151;" horiz-adv-x="930" 
d="M262 752l-55 -396h-70l37 269q5 30 8 40l-2 2q-16 -12 -35 -22l-60 -34l2 59l129 82h46zM705 750h72l-610 -750h-72zM744 400q133 0 133 -135q0 -14 -4 -50q-15 -114 -65.5 -167t-136.5 -53q-54 0 -100 19l20 51q37 -17 83 -17q54 0 86.5 32.5t46.5 105.5l-2 2
q-41 -33 -101 -33q-122 0 -122 96q0 65 42.5 107t119.5 42zM736 347q-41 0 -64 -22.5t-23 -63.5q0 -57 70 -57q59 0 87 33q2 24 2 32q0 42 -18 60t-54 18z" />
    <glyph glyph-name="uni2152" unicode="&#x2152;" horiz-adv-x="1202" 
d="M262 752l-55 -396h-70l37 269q5 30 8 40l-2 2q-16 -12 -35 -22l-60 -34l2 59l129 82h46zM705 750h72l-610 -750h-72zM773 396l-55 -396h-70l37 269q5 30 8 40l-2 2q-16 -12 -35 -22l-60 -34l2 59l129 82h46zM1024 400q67 0 98.5 -33t31.5 -105q0 -25 -5 -65
q-14 -104 -58 -153t-124 -49q-67 0 -99 34t-32 106q0 24 5 62q15 107 59 155t124 48zM1016 345q-45 0 -70 -31.5t-37 -116.5q-5 -40 -5 -61q0 -49 17 -68t53 -19q44 0 68.5 31.5t36.5 116.5q5 42 5 63q0 47 -16.5 66t-51.5 19z" />
    <glyph glyph-name="onethird" unicode="&#x2153;" horiz-adv-x="879" 
d="M662 399q62 0 95 -22.5t33 -65.5q0 -77 -80 -101v-2q65 -17 65 -74q0 -64 -46 -101.5t-129 -37.5q-73 0 -125 32l23 50q49 -30 109 -30q48 0 74 24t26 61q0 28 -26 40t-88 12l7 47q124 0 124 67q0 47 -73 47q-65 0 -117 -36l-11 48q59 42 139 42zM332 752l-55 -396h-70
l37 269q5 30 8 40l-2 2q-16 -12 -35 -22l-60 -34l2 59l129 82h46zM699 750h72l-610 -750h-72z" />
    <glyph glyph-name="twothirds" unicode="&#x2154;" horiz-adv-x="879" 
d="M665 399q62 0 95 -22.5t33 -65.5q0 -77 -80 -101v-2q65 -17 65 -74q0 -64 -46 -101.5t-129 -37.5q-73 0 -125 32l23 50q49 -30 109 -30q48 0 74 24t26 61q0 28 -26 40t-88 12l7 47q124 0 124 67q0 47 -73 47q-64 0 -117 -36l-11 48q60 42 139 42zM257 755q61 0 92 -25
t31 -68q0 -63 -52.5 -115t-169.5 -132v-3h189l-8 -56h-276l6 45l52 41l51 41l42 35.5t38 36t26.5 31.5t20 33.5t5.5 30.5q0 49 -71 49q-52 0 -112 -38l-10 52q70 42 146 42zM708 750h72l-610 -750h-72z" />
    <glyph glyph-name="uni2155" unicode="&#x2155;" horiz-adv-x="930" 
d="M262 752l-55 -396h-70l37 269q5 30 8 40l-2 2q-16 -12 -35 -22l-60 -34l2 59l129 82h46zM705 750h72l-610 -750h-72zM878 394l-6 -55h-185l-21 -99q40 10 77 10q121 0 121 -92q0 -77 -44.5 -120t-126.5 -43q-75 0 -124 30l19 52q51 -30 107 -30q100 0 100 98q0 55 -75 55
q-51 0 -98 -17l-25 18l45 193h236z" />
    <glyph glyph-name="uni2156" unicode="&#x2156;" horiz-adv-x="1012" 
d="M237 755q61 0 92 -25t31 -68q0 -63 -52.5 -115t-169.5 -132v-3h189l-8 -56h-276l6 45l52 41l51 41l42 35.5t38 36t26.5 31.5t20 33.5t5.5 30.5q0 49 -71 49q-52 0 -112 -38l-10 52q70 42 146 42zM787 750h72l-610 -750h-72zM960 394l-6 -55h-185l-21 -99q40 10 77 10
q121 0 121 -92q0 -77 -44.5 -120t-126.5 -43q-75 0 -124 30l19 52q51 -30 107 -30q100 0 100 98q0 55 -75 55q-51 0 -98 -17l-25 18l45 193h236z" />
    <glyph glyph-name="uni2157" unicode="&#x2157;" horiz-adv-x="1012" 
d="M234 755q62 0 95 -22.5t33 -65.5q0 -77 -80 -101v-2q65 -17 65 -74q0 -64 -46 -101.5t-129 -37.5q-73 0 -125 32l23 50q49 -30 109 -30q48 0 74 24t26 61q0 28 -26 40t-88 12l7 47q124 0 124 67q0 47 -73 47q-65 0 -117 -36l-11 48q60 42 139 42zM787 750h72l-610 -750
h-72zM960 394l-6 -55h-185l-21 -99q40 10 77 10q121 0 121 -92q0 -77 -44.5 -120t-126.5 -43q-75 0 -124 30l19 52q51 -30 107 -30q100 0 100 98q0 55 -75 55q-51 0 -98 -17l-25 18l45 193h236z" />
    <glyph glyph-name="uni2158" unicode="&#x2158;" horiz-adv-x="1027" 
d="M361 438h-45l-11 -82h-64l11 82h-207v40l231 272h84l-37 -260h47zM260 490l26 161q3 19 8 41l-2 1l-26 -33l-115 -139q-13 -17 -27 -29l1 -2h135zM802 750h72l-610 -750h-72zM975 394l-6 -55h-185l-21 -99q40 10 77 10q121 0 121 -92q0 -77 -44.5 -120t-126.5 -43
q-74 0 -124 30l19 52q51 -30 107 -30q100 0 100 98q0 55 -75 55q-51 0 -98 -17l-25 18l45 193h236z" />
    <glyph glyph-name="uni2159" unicode="&#x2159;" horiz-adv-x="930" 
d="M262 752l-55 -396h-70l37 269q5 30 8 40l-2 2q-16 -12 -35 -22l-60 -34l2 59l129 82h46zM705 750h72l-610 -750h-72zM877 383l-12 -54q-35 15 -84 15q-57 0 -89.5 -29.5t-45.5 -90.5l1 -1q47 30 102 30q118 0 118 -91q0 -81 -45 -124t-122 -43q-131 0 -131 134
q0 131 58 200.5t156 69.5q52 0 94 -16zM733 204q-22 0 -50 -9.5t-42 -24.5q-3 -22 -3 -40q0 -44 17 -63.5t53 -19.5q39 0 64.5 26.5t25.5 77.5q0 53 -65 53z" />
    <glyph glyph-name="uni215A" unicode="&#x215a;" horiz-adv-x="1027" 
d="M367 750l-6 -55h-185l-21 -99q40 10 77 10q121 0 121 -92q0 -77 -44.5 -120t-126.5 -43q-74 0 -124 30l19 52q51 -30 107 -30q100 0 100 98q0 55 -75 55q-51 0 -98 -17l-25 18l45 193h236zM802 750h72l-610 -750h-72zM974 383l-12 -54q-35 15 -84 15q-57 0 -89.5 -29.5
t-45.5 -90.5l1 -1q47 30 102 30q118 0 118 -91q0 -81 -45 -124t-122 -43q-131 0 -131 134q0 131 58 200.5t156 69.5q52 0 94 -16zM830 204q-22 0 -50 -9.5t-42 -24.5q-3 -22 -3 -40q0 -44 17 -63.5t53 -19.5q39 0 64.5 26.5t25.5 77.5q0 53 -65 53z" />
    <glyph glyph-name="oneeighth" unicode="&#x215b;" horiz-adv-x="879" 
d="M612 -5q-139 0 -139 94q0 81 85 117v2q-42 25 -42 71q0 57 39 88.5t114 31.5q122 0 122 -84q0 -70 -68 -106v-2q58 -23 58 -77q0 -66 -44 -100.5t-125 -34.5zM621 46q40 0 64.5 18t24.5 47q0 27 -23 41.5t-74 30.5q-71 -33 -71 -85t79 -52zM662 350q-37 0 -58.5 -17
t-21.5 -47q0 -13 6 -22t21 -16t25.5 -10.5t33.5 -10.5q58 29 58 76t-64 47zM332 752l-55 -396h-70l37 269q5 30 8 40l-2 2q-16 -12 -35 -22l-60 -34l2 59l129 82h46zM699 750h72l-610 -750h-72z" />
    <glyph glyph-name="threeeighths" unicode="&#x215c;" horiz-adv-x="879" 
d="M615 -5q-139 0 -139 94q0 81 85 117v2q-42 25 -42 71q0 57 39 88.5t114 31.5q122 0 122 -84q0 -70 -68 -106v-2q58 -23 58 -77q0 -66 -44 -100.5t-125 -34.5zM624 46q40 0 64.5 18t24.5 47q0 27 -23 41.5t-74 30.5q-71 -33 -71 -85t79 -52zM665 350q-37 0 -58.5 -17
t-21.5 -47q0 -13 6 -22t21 -16t25.5 -10.5t33.5 -10.5q58 29 58 76t-64 47zM257 755q62 0 95 -22.5t33 -65.5q0 -77 -80 -101v-2q65 -17 65 -74q0 -64 -46 -101.5t-129 -37.5q-73 0 -125 32l23 50q49 -30 109 -30q48 0 74 24t26 61q0 28 -26 40t-88 12l7 47q124 0 124 67
q0 47 -73 47q-64 0 -117 -36l-11 48q60 42 139 42zM708 750h72l-610 -750h-72z" />
    <glyph glyph-name="fiveeighths" unicode="&#x215d;" horiz-adv-x="879" 
d="M615 -5q-139 0 -139 94q0 81 85 117v2q-42 25 -42 71q0 57 39 88.5t114 31.5q122 0 122 -84q0 -70 -68 -106v-2q58 -23 58 -77q0 -66 -44 -100.5t-125 -34.5zM624 46q40 0 64.5 18t24.5 47q0 27 -23 41.5t-74 30.5q-71 -33 -71 -85t79 -52zM665 350q-37 0 -58.5 -17
t-21.5 -47q0 -13 6 -22t21 -16t25.5 -10.5t33.5 -10.5q58 29 58 76t-64 47zM390 750l-6 -55h-185l-21 -99q40 10 77 10q121 0 121 -92q0 -77 -44.5 -120t-126.5 -43q-75 0 -124 30l19 52q51 -30 107 -30q100 0 100 98q0 55 -75 55q-51 0 -98 -17l-25 18l45 193h236zM708 750
h72l-610 -750h-72z" />
    <glyph glyph-name="seveneighths" unicode="&#x215e;" horiz-adv-x="879" 
d="M612 -5q-139 0 -139 94q0 81 85 117v2q-42 25 -42 71q0 57 39 88.5t114 31.5q122 0 122 -84q0 -70 -68 -106v-2q58 -23 58 -77q0 -66 -44 -100.5t-125 -34.5zM621 46q40 0 64.5 18t24.5 47q0 27 -23 41.5t-74 30.5q-71 -33 -71 -85t79 -52zM662 350q-37 0 -58.5 -17
t-21.5 -47q0 -13 6 -22t21 -16t25.5 -10.5t33.5 -10.5q58 29 58 76t-64 47zM461 750l-8 -58l-214 -336h-82l200 301q12 19 23 31l-1 2h-227l12 60h297zM699 750h72l-610 -750h-72z" />
    <glyph glyph-name="uni215F" unicode="&#x215f;" horiz-adv-x="561" 
d="M262 752l-55 -396h-70l37 269q5 30 8 40l-2 2q-16 -12 -35 -22l-60 -34l2 59l129 82h46zM705 750h72l-610 -750h-72z" />
    <glyph glyph-name="uni2189" unicode="&#x2189;" horiz-adv-x="978" 
d="M241 756q67 0 98.5 -33t31.5 -105q0 -25 -5 -65q-14 -104 -58 -153t-124 -49q-67 0 -99 34t-32 106q0 24 5 62q15 107 59 155t124 48zM233 701q-45 0 -70 -31.5t-37 -116.5q-5 -40 -5 -61q0 -49 17 -68t53 -19q44 0 68.5 31.5t36.5 116.5q5 42 5 63q0 47 -16.5 66
t-51.5 19zM768 750h72l-610 -750h-72zM808 399q62 0 95 -22.5t33 -65.5q0 -77 -80 -101v-2q65 -17 65 -74q0 -64 -46 -101.5t-129 -37.5q-73 0 -125 32l23 50q49 -30 109 -30q48 0 74 24t26 61q0 28 -26 40t-88 12l7 47q124 0 124 67q0 47 -73 47q-65 0 -117 -36l-11 48
q60 42 139 42z" />
    <glyph glyph-name="partialdiff" unicode="&#x2202;" horiz-adv-x="632" 
d="M352 561q99 0 155 -59l2 1q-1 91 -42.5 134.5t-124.5 43.5q-110 0 -198 -66l-17 64q108 80 240 80q103 0 167 -65t64 -197q0 -38 -6 -83q-26 -187 -125.5 -307t-245.5 -120q-98 0 -146.5 47.5t-48.5 136.5q0 30 4 55q23 158 107.5 246.5t214.5 88.5zM483 374q1 5 1 14
q0 42 -32.5 72.5t-92.5 30.5q-91 0 -152 -70t-79 -200q-3 -23 -3 -42q0 -119 117 -119q92 0 157.5 91.5t83.5 222.5z" />
    <glyph glyph-name="Delta" unicode="&#x2206;" horiz-adv-x="755" 
d="M468 754l194 -754h-669l404 754h71zM417 640h-2q-2 -5 -18 -37l-272 -525h421l-121 522q-7 31 -8 40z" />
    <glyph glyph-name="product" unicode="&#x220f;" horiz-adv-x="745" 
d="M244 -152h-90v826l-89 7l-2 69h622l-2 -68l-89 -7v-827h-89v820h-261v-820z" />
    <glyph glyph-name="summation" unicode="&#x2211;" horiz-adv-x="703" 
d="M500 297l-238 -304l-49 -59l2 -3h439l-2 -83h-559v57l306 404l-306 380v61h542l2 -84h-417l-1 -2l51 -60l230 -285v-22z" />
    <glyph glyph-name="minus" unicode="&#x2212;" 
d="M510 297h-440l12 84h440z" />
    <glyph glyph-name="uni2219" unicode="&#x2219;" 
d="M163 322q18 134 154 134q119 0 119 -104q0 -82 -41.5 -124t-115.5 -42q-118 0 -118 103q0 21 2 33z" />
    <glyph glyph-name="radical" unicode="&#x221a;" horiz-adv-x="586" 
d="M15 411l12 82h154l64 -353q5 -26 6 -40h2q7 22 14 38l274 657h102l-344 -795h-115l-84 411h-85z" />
    <glyph glyph-name="infinity" unicode="&#x221e;" horiz-adv-x="742" 
d="M531 167q-100 0 -163 90q-56 -90 -156 -90q-73 0 -119 48.5t-46 133.5q0 82 43 132.5t120 50.5q101 0 163 -91q56 91 157 91q72 0 118 -49t46 -135q0 -81 -43 -131t-120 -50zM528 450q-24 0 -43 -9t-34.5 -30.5t-24 -37t-23.5 -48.5q49 -81 124 -81q41 0 64.5 29t23.5 74
q0 48 -24.5 75.5t-62.5 27.5zM214 249q19 0 36 7.5t27.5 16.5t23 29.5t18.5 32t18 38.5q-24 40 -52.5 60.5t-69.5 20.5q-42 0 -65.5 -29t-23.5 -74q0 -48 25 -75t63 -27z" />
    <glyph glyph-name="integral" unicode="&#x222b;" horiz-adv-x="318" 
d="M208 608l-1 -571q0 -100 -48.5 -147.5t-151.5 -47.5l-2 65q55 1 80.5 32t25.5 96v574q0 188 199 191l2 -67q-104 0 -104 -125z" />
    <glyph glyph-name="approxequal" unicode="&#x2248;" horiz-adv-x="650" 
d="M434 361q-41 0 -114.5 27.5t-106.5 27.5q-57 0 -111 -35v74q53 33 111 33q39 0 113 -27.5t108 -27.5q55 0 113 35v-73q-54 -34 -113 -34zM434 185q-41 0 -114.5 27.5t-106.5 27.5q-57 0 -111 -35v73q54 34 111 34q39 0 113 -27.5t108 -27.5q57 0 113 35v-73
q-52 -34 -113 -34z" />
    <glyph glyph-name="notequal" unicode="&#x2260;" horiz-adv-x="650" 
d="M412 585l63 -29l-48 -94h120v-72h-157l-56 -109h213v-72h-249l-65 -127l-64 29l50 98h-117v72h154l56 109h-210v72h247z" />
    <glyph glyph-name="lessequal" unicode="&#x2264;" horiz-adv-x="650" 
d="M541 526l-337 -122q-5 -2 -12 -4.5t-15 -5t-12 -3.5v-2q5 -1 11.5 -3t15 -5t12.5 -4l337 -116v-87l-442 174v86l442 181v-89zM541 52h-438v73h438v-73z" />
    <glyph glyph-name="greaterequal" unicode="&#x2265;" horiz-adv-x="650" 
d="M99 174v87l336 116q29 10 39 12v2q-26 8 -39 13l-336 122v89l442 -181v-86zM536 52h-437v73h437v-73z" />
    <glyph glyph-name="dotmath" unicode="&#x22c5;" 
d="M308 402q55 0 55 -46q0 -33 -18.5 -52t-52.5 -19q-57 0 -57 44q0 73 73 73z" />
    <glyph glyph-name="lozenge" unicode="&#x25ca;" horiz-adv-x="613" 
d="M29 330l277 324l278 -324l-278 -324zM132 330l174 -202l175 202l-175 204z" />
    <glyph glyph-name="fi" unicode="&#xfb01;" horiz-adv-x="620" 
d="M43 524l13 67h84q17 117 78 165t196 48l-3 -69q-83 0 -122.5 -28t-51.5 -116h248q33 0 82 7l-84 -598h-97l73 524h-232l-73 -524h-97l73 524h-87zM543 799q56 0 56 -40q0 -58 -70 -58q-56 0 -56 38q0 60 70 60z" />
    <glyph glyph-name="fl" unicode="&#xfb02;" horiz-adv-x="593" 
d="M43 524l13 67h84q17 116 84.5 164.5t207.5 48.5q70 0 142 -12l-111 -792h-97l103 736q-19 3 -45 3q-93 0 -134.5 -33.5t-52.5 -114.5h144l-12 -67h-142l-73 -524h-97l73 524h-87z" />
    <glyph glyph-name="product.alt001" horiz-adv-x="747" 
d="M173 -150h-91l117 829l-88 7l6 64h625l-12 -63l-89 -7l-117 -830h-91l116 824h-260z" />
    <glyph glyph-name="summation.alt001" horiz-adv-x="704" 
d="M493 298l-315 -343l-27 -27v-2h443l-13 -76h-560l8 52l366 407l-255 383l8 58h543l-8 -78h-422l-1 -2q16 -20 23 -31l213 -320z" />
    <glyph glyph-name="infinity.alt001" horiz-adv-x="744" 
d="M235 530q100 0 150 -90q68 90 170 90q64 0 103.5 -39t39.5 -108q0 -92 -54 -153t-139 -61q-101 0 -150 89q-69 -89 -170 -89q-64 0 -103 38.5t-39 106.5q0 94 53 155t139 61zM198 245q24 0 44 9t39 31.5t29 37t31 49.5q-18 43 -44 64.5t-67 21.5q-47 0 -76.5 -37.5
t-29.5 -91.5q0 -40 20.5 -62t53.5 -22zM542 454q-24 0 -44 -9t-39 -32t-29 -38t-31 -50q19 -42 44.5 -63t66.5 -21q47 0 76.5 37.5t29.5 91.5q0 39 -21 61.5t-53 22.5z" />
    <glyph glyph-name="integral.alt001" horiz-adv-x="319" 
d="M244 608l-80 -570q-14 -99 -70 -147t-158 -48l6 61q54 1 83 32.5t39 98.5l81 574q26 188 228 191l-6 -62q-105 -2 -123 -130z" />
    <glyph glyph-name="lozenge.alt001" horiz-adv-x="615" 
d="M25 329l323 322l234 -322l-325 -322zM125 329l149 -204l206 204l-148 206z" />
    <glyph glyph-name="dollar.subs" horiz-adv-x="320" 
d="M160 315h56l-17 -78q41 -4 76 -18l-17 -51q-49 17 -92 17q-41 0 -61.5 -16t-20.5 -40q0 -21 26.5 -33.5t59 -19t59 -28t26.5 -57.5q0 -53 -34 -86.5t-91 -40.5l-15 -76h-56l15 75q-59 5 -92 27l17 53q44 -29 104 -29q38 0 61 16.5t23 44.5q0 21 -26.5 35t-58 21t-58 28
t-26.5 56q0 48 32 82t93 40z" />
    <glyph glyph-name="comma.subs" horiz-adv-x="159" 
d="M17 -80q39 0 39 -33q0 -19 -20.5 -56.5t-44.5 -63.5l-25 7q23 41 34 69q-16 0 -24.5 9t-8.5 22q0 19 13 32.5t37 13.5z" />
    <glyph glyph-name="period.subs" horiz-adv-x="159" 
d="M18 -78q39 0 39 -32q0 -46 -50 -46q-39 0 -39 28q0 50 50 50z" />
    <glyph glyph-name="cent.subs" horiz-adv-x="320" 
d="M273 219l-11 -55q-40 17 -72 17q-68 0 -99 -39.5t-31 -127.5q0 -49 22.5 -71t68.5 -22q40 0 82 22l-1 -50q-33 -21 -82 -25l-16 -80h-58l18 81q-108 15 -108 136q0 105 44 165t128 67l16 78h58l-17 -80q31 -4 58 -16z" />
    <glyph glyph-name="dollar.sups" horiz-adv-x="320" 
d="M249 960h56l-17 -78q41 -4 76 -18l-17 -51q-49 17 -92 17q-41 0 -61.5 -16t-20.5 -40q0 -21 26.5 -33.5t59 -19t59 -28t26.5 -57.5q0 -53 -34 -86.5t-91 -40.5l-15 -76h-56l15 75q-59 5 -92 27l17 53q44 -29 104 -29q38 0 61 16.5t23 44.5q0 21 -26.5 35t-58 21t-58 28
t-26.5 56q0 48 32 82t93 40z" />
    <glyph glyph-name="comma.sups" horiz-adv-x="159" 
d="M106 565q39 0 39 -33q0 -19 -20.5 -56.5t-44.5 -63.5l-25 7q23 41 34 69q-16 0 -24.5 9t-8.5 22q0 19 13 32.5t37 13.5z" />
    <glyph glyph-name="period.sups" horiz-adv-x="159" 
d="M107 567q39 0 39 -32q0 -46 -50 -46q-39 0 -39 28q0 50 50 50z" />
    <glyph glyph-name="cent.sups" horiz-adv-x="320" 
d="M362 864l-11 -55q-40 17 -72 17q-68 0 -99 -39.5t-31 -127.5q0 -49 22.5 -71t68.5 -22q40 0 82 22l-1 -50q-33 -21 -82 -25l-16 -80h-58l18 81q-108 15 -108 136q0 105 44 165t128 67l16 78h58l-17 -80q31 -4 58 -16z" />
    <glyph glyph-name="dollar.numr" horiz-adv-x="320" 
d="M230 818h56l-17 -78q41 -4 76 -18l-17 -51q-49 17 -92 17q-41 0 -61.5 -16t-20.5 -40q0 -21 26.5 -33.5t59 -19t59 -28t26.5 -57.5q0 -53 -34 -86.5t-91 -40.5l-15 -76h-56l15 75q-59 5 -92 27l17 53q44 -29 104 -29q38 0 61 16.5t23 44.5q0 21 -26.5 35t-58 21t-58 28
t-26.5 56q0 48 32 82t93 40z" />
    <glyph glyph-name="parenleft.numr" horiz-adv-x="210" 
d="M208 782l50 -5q-112 -133 -112 -299q0 -95 44 -180l-50 -3q-58 70 -58 182q0 182 126 305z" />
    <glyph glyph-name="parenright.numr" horiz-adv-x="210" 
d="M70 777l51 5q58 -78 58 -181q0 -89 -34 -170t-92 -136l-51 3q112 140 112 301q0 96 -44 178z" />
    <glyph glyph-name="plus.numr" horiz-adv-x="371" 
d="M354 527h-113v-113h-59v113h-111v58h111v114h59v-114h113v-58z" />
    <glyph glyph-name="comma.numr" horiz-adv-x="159" 
d="M87 423q39 0 39 -33q0 -19 -20.5 -56.5t-44.5 -63.5l-25 7q23 41 34 69q-16 0 -24.5 9t-8.5 22q0 19 13 32.5t37 13.5z" />
    <glyph glyph-name="period.numr" horiz-adv-x="159" 
d="M88 425q39 0 39 -32q0 -46 -50 -46q-39 0 -39 28q0 50 50 50z" />
    <glyph glyph-name="zero.numr" horiz-adv-x="369" 
d="M241 756q67 0 98.5 -33t31.5 -105q0 -25 -5 -65q-14 -104 -58 -153t-124 -49q-67 0 -99 34t-32 106q0 24 5 62q15 107 59 155t124 48zM233 701q-45 0 -70 -31.5t-37 -116.5q-5 -40 -5 -61q0 -49 17 -68t53 -19q44 0 68.5 31.5t36.5 116.5q5 42 5 63q0 47 -16.5 66
t-51.5 19z" />
    <glyph glyph-name="one.numr" horiz-adv-x="272" 
d="M262 752l-55 -396h-70l37 269q5 30 8 40l-2 2q-16 -12 -35 -22l-60 -34l2 59l129 82h46z" />
    <glyph glyph-name="two.numr" horiz-adv-x="354" 
d="M237 755q61 0 92 -25t31 -68q0 -63 -52.5 -115t-169.5 -132v-3h189l-8 -56h-276l6 45l52 41l51 41l42 35.5t38 36t26.5 31.5t20 33.5t5.5 30.5q0 49 -71 49q-52 0 -112 -38l-10 52q70 42 146 42z" />
    <glyph glyph-name="three.numr" horiz-adv-x="354" 
d="M234 755q62 0 95 -22.5t33 -65.5q0 -77 -80 -101v-2q65 -17 65 -74q0 -64 -46 -101.5t-129 -37.5q-73 0 -125 32l23 50q49 -30 109 -30q48 0 74 24t26 61q0 28 -26 40t-88 12l7 47q124 0 124 67q0 47 -73 47q-65 0 -117 -36l-11 48q60 42 139 42z" />
    <glyph glyph-name="four.numr" horiz-adv-x="369" 
d="M361 438h-45l-11 -82h-64l11 82h-207v40l231 272h84l-37 -260h47zM260 490l26 161q3 19 8 41l-2 1l-26 -33l-115 -139q-13 -17 -27 -29l1 -2h135z" />
    <glyph glyph-name="five.numr" horiz-adv-x="369" 
d="M367 750l-6 -55h-185l-21 -99q40 10 77 10q121 0 121 -92q0 -77 -44.5 -120t-126.5 -43q-74 0 -124 30l19 52q51 -30 107 -30q100 0 100 98q0 55 -75 55q-51 0 -98 -17l-25 18l45 193h236z" />
    <glyph glyph-name="six.numr" horiz-adv-x="369" 
d="M366 739l-12 -54q-35 15 -84 15q-57 0 -89.5 -29.5t-45.5 -90.5l1 -1q47 30 102 30q118 0 118 -91q0 -81 -45 -124t-122 -43q-131 0 -131 134q0 131 58 200.5t156 69.5q52 0 94 -16zM222 560q-22 0 -50 -9.5t-42 -24.5q-3 -22 -3 -40q0 -44 17 -63.5t53 -19.5
q39 0 64.5 26.5t25.5 77.5q0 53 -65 53z" />
    <glyph glyph-name="seven.numr" horiz-adv-x="369" 
d="M391 750l-8 -58l-214 -336h-82l200 301q12 19 23 31l-1 2h-227l12 60h297z" />
    <glyph glyph-name="eight.numr" horiz-adv-x="369" 
d="M184 351q-139 0 -139 94q0 81 85 117v2q-42 25 -42 71q0 57 39 88.5t114 31.5q122 0 122 -84q0 -70 -68 -106v-2q58 -23 58 -77q0 -66 -44 -100.5t-125 -34.5zM193 402q40 0 64.5 18t24.5 47q0 27 -23 41.5t-74 30.5q-71 -33 -71 -85t79 -52zM234 706q-37 0 -58.5 -17
t-21.5 -47q0 -13 6 -22t21 -16t25.5 -10.5t33.5 -10.5q58 29 58 76t-64 47z" />
    <glyph glyph-name="nine.numr" horiz-adv-x="369" 
d="M233 756q133 0 133 -135q0 -14 -4 -50q-15 -114 -65.5 -167t-136.5 -53q-54 0 -100 19l20 51q37 -17 83 -17q55 0 87 32.5t46 105.5l-2 2q-41 -33 -101 -33q-122 0 -122 96q0 65 42.5 107t119.5 42zM225 703q-41 0 -64 -22.5t-23 -63.5q0 -57 70 -57q59 0 87 33
q2 24 2 32q0 42 -18 60t-54 18z" />
    <glyph glyph-name="equal.numr" horiz-adv-x="371" 
d="M351 592h-275v50h275v-50zM351 477h-275v50h275v-50z" />
    <glyph glyph-name="cent.numr" horiz-adv-x="320" 
d="M343 722l-11 -55q-40 17 -72 17q-68 0 -99 -39.5t-31 -127.5q0 -49 22.5 -71t68.5 -22q40 0 82 22l-1 -50q-33 -21 -82 -25l-16 -80h-58l18 81q-108 15 -108 136q0 105 44 165t128 67l16 78h58l-17 -80q31 -4 58 -16z" />
    <glyph glyph-name="minus.numr" horiz-adv-x="371" 
d="M347 532h-274l8 55h274z" />
    <glyph glyph-name="dollar.dnom" horiz-adv-x="320" 
d="M180 462h56l-17 -78q41 -4 76 -18l-17 -51q-49 17 -92 17q-41 0 -61.5 -16t-20.5 -40q0 -21 26.5 -33.5t59 -19t59 -28t26.5 -57.5q0 -53 -34 -86.5t-91 -40.5l-15 -76h-56l15 75q-59 5 -92 27l17 53q44 -29 104 -29q38 0 61 16.5t23 44.5q0 21 -26.5 35t-58 21t-58 28
t-26.5 56q0 48 32 82t93 40z" />
    <glyph glyph-name="parenleft.dnom" horiz-adv-x="210" 
d="M158 426l50 -5q-112 -133 -112 -299q0 -95 44 -180l-50 -3q-58 70 -58 182q0 182 126 305z" />
    <glyph glyph-name="parenright.dnom" horiz-adv-x="210" 
d="M20 421l51 5q58 -78 58 -181q0 -89 -34 -170t-92 -136l-51 3q112 140 112 301q0 96 -44 178z" />
    <glyph glyph-name="plus.dnom" horiz-adv-x="371" 
d="M304 171h-113v-113h-59v113h-111v58h111v114h59v-114h113v-58z" />
    <glyph glyph-name="comma.dnom" horiz-adv-x="159" 
d="M37 67q39 0 39 -33q0 -19 -20.5 -56.5t-44.5 -63.5l-25 7q23 41 34 69q-16 0 -24.5 9t-8.5 22q0 19 13 32.5t37 13.5z" />
    <glyph glyph-name="period.dnom" horiz-adv-x="159" 
d="M38 69q39 0 39 -32q0 -46 -50 -46q-39 0 -39 28q0 50 50 50z" />
    <glyph glyph-name="zero.dnom" horiz-adv-x="369" 
d="M191 400q67 0 98.5 -33t31.5 -105q0 -25 -5 -65q-14 -104 -58 -153t-124 -49q-67 0 -99 34t-32 106q0 24 5 62q15 107 59 155t124 48zM183 345q-45 0 -70 -31.5t-37 -116.5q-5 -40 -5 -61q0 -49 17 -68t53 -19q44 0 68.5 31.5t36.5 116.5q5 42 5 63q0 47 -16.5 66
t-51.5 19z" />
    <glyph glyph-name="one.dnom" horiz-adv-x="272" 
d="M212 396l-55 -396h-70l37 269q5 30 8 40l-2 2q-16 -12 -35 -22l-60 -34l2 59l129 82h46z" />
    <glyph glyph-name="two.dnom" horiz-adv-x="354" 
d="M187 399q61 0 92 -25t31 -68q0 -63 -52.5 -115t-169.5 -132v-3h189l-8 -56h-276l6 45l52 41l51 41l42 35.5t38 36t26.5 31.5t20 33.5t5.5 30.5q0 49 -71 49q-52 0 -112 -38l-10 52q70 42 146 42z" />
    <glyph glyph-name="three.dnom" horiz-adv-x="354" 
d="M184 399q62 0 95 -22.5t33 -65.5q0 -77 -80 -101v-2q65 -17 65 -74q0 -64 -46 -101.5t-129 -37.5q-73 0 -125 32l23 50q49 -30 109 -30q48 0 74 24t26 61q0 28 -26 40t-88 12l7 47q124 0 124 67q0 47 -73 47q-65 0 -117 -36l-11 48q59 42 139 42z" />
    <glyph glyph-name="four.dnom" horiz-adv-x="369" 
d="M311 82h-45l-11 -82h-64l11 82h-207v40l231 272h84l-37 -260h47zM210 134l26 161q3 19 8 41l-2 1q-4 -6 -26 -33l-115 -139q-13 -17 -27 -29l1 -2h135z" />
    <glyph glyph-name="five.dnom" horiz-adv-x="369" 
d="M317 394l-6 -55h-185l-21 -99q40 10 77 10q121 0 121 -92q0 -77 -44.5 -120t-126.5 -43q-75 0 -124 30l19 52q51 -30 107 -30q100 0 100 98q0 55 -75 55q-51 0 -98 -17l-25 18l45 193h236z" />
    <glyph glyph-name="six.dnom" horiz-adv-x="369" 
d="M316 383l-12 -54q-35 15 -84 15q-57 0 -89.5 -29.5t-45.5 -90.5l1 -1q47 30 102 30q118 0 118 -91q0 -81 -45 -124t-122 -43q-131 0 -131 134q0 131 58 200.5t156 69.5q52 0 94 -16zM172 204q-22 0 -50 -9.5t-42 -24.5q-3 -22 -3 -40q0 -44 17 -63.5t53 -19.5
q39 0 64.5 26.5t25.5 77.5q0 53 -65 53z" />
    <glyph glyph-name="seven.dnom" horiz-adv-x="369" 
d="M341 394l-8 -58l-214 -336h-82l200 301q12 19 23 31l-1 2h-227l12 60h297z" />
    <glyph glyph-name="eight.dnom" horiz-adv-x="369" 
d="M134 -5q-139 0 -139 94q0 81 85 117v2q-42 25 -42 71q0 57 39 88.5t114 31.5q122 0 122 -84q0 -70 -68 -106v-2q58 -23 58 -77q0 -66 -44 -100.5t-125 -34.5zM143 46q40 0 64.5 18t24.5 47q0 27 -23 41.5t-74 30.5q-71 -33 -71 -85t79 -52zM184 350q-37 0 -58.5 -17
t-21.5 -47q0 -13 6 -22t21 -16t25.5 -10.5t33.5 -10.5q58 29 58 76t-64 47z" />
    <glyph glyph-name="nine.dnom" horiz-adv-x="369" 
d="M183 400q133 0 133 -135q0 -14 -4 -50q-15 -114 -65.5 -167t-136.5 -53q-54 0 -100 19l20 51q37 -17 83 -17q55 0 87 32.5t46 105.5l-2 2q-40 -33 -101 -33q-122 0 -122 96q0 65 42.5 107t119.5 42zM175 347q-41 0 -64 -22.5t-23 -63.5q0 -57 70 -57q59 0 87 33
q2 24 2 32q0 42 -18 60t-54 18z" />
    <glyph glyph-name="equal.dnom" horiz-adv-x="371" 
d="M301 236h-275v50h275v-50zM301 121h-275v50h275v-50z" />
    <glyph glyph-name="cent.dnom" horiz-adv-x="320" 
d="M293 366l-11 -55q-40 17 -72 17q-68 0 -99 -39.5t-31 -127.5q0 -49 22.5 -71t68.5 -22q40 0 82 22l-1 -50q-33 -21 -82 -25l-16 -80h-58l18 81q-108 15 -108 136q0 105 44 165t128 67l16 78h58l-17 -80q31 -4 58 -16z" />
    <glyph glyph-name="minus.dnom" horiz-adv-x="371" 
d="M300 176h-274v55h274v-55z" />
    <glyph glyph-name="space.frac" horiz-adv-x="64" 
 />
    <glyph glyph-name="numbersign.osf" 
d="M29 255h100l45 145h-123l9 64h132l53 185h77l-54 -185h132l53 185h75l-54 -185h94l-9 -64h-102l-44 -145h125l-8 -63h-134l-54 -192h-75l54 192h-132l-54 -192h-76l53 192h-92zM251 400l-45 -145h131l45 145h-131z" />
    <glyph glyph-name="dollar.osf" horiz-adv-x="489" 
d="M294 731h77l-27 -129q66 -8 109 -35l-37 -68q-58 29 -132 29q-54 0 -89.5 -25.5t-35.5 -64.5q0 -25 19 -44t48 -30.5t62.5 -26.5t62.5 -30.5t48 -44.5t19 -67q0 -81 -49.5 -136t-136.5 -65l-27 -140h-77l28 139q-96 9 -152 59l32 68q60 -54 154 -54q63 0 98 31t35 78
q0 32 -26.5 54.5t-64.5 38.5l-76.5 33t-65 48.5t-26.5 75.5q0 76 54.5 123.5t149.5 55.5z" />
    <glyph glyph-name="zero.osf" horiz-adv-x="626" 
d="M353 638q113 0 166.5 -53t53.5 -169q0 -43 -8 -104q-23 -169 -95.5 -245.5t-208.5 -76.5q-114 0 -167.5 53.5t-53.5 168.5q0 41 8 100q25 173 96.5 249.5t208.5 76.5zM342 559q-87 0 -132.5 -53.5t-65.5 -192.5q-7 -50 -7 -93q0 -84 33 -118t103 -34q86 0 130.5 53
t63.5 192q8 59 8 97q0 82 -32 115.5t-101 33.5z" />
    <glyph glyph-name="one.osf" horiz-adv-x="468" 
d="M383 630l-88 -630h-99l65 468q5 31 8 40l-2 2q-16 -12 -35 -22l-124 -72v81l216 133h59z" />
    <glyph glyph-name="two.osf" horiz-adv-x="589" 
d="M328 637q103 0 157 -40.5t54 -111.5q0 -43 -19.5 -85t-47.5 -76.5t-83.5 -79t-102 -76.5l-128.5 -86v-3h330l-14 -79h-458l8 61l89.5 66l88 64.5l74.5 57t67.5 58t48 52.5t35 55t10.5 51q0 42 -33 67t-101 25q-97 0 -193 -64l-16 71q108 73 234 73z" />
    <glyph glyph-name="three.osf" horiz-adv-x="579" 
d="M308 638q101 0 152 -38.5t51 -102.5q0 -60 -32.5 -105t-91.5 -67v-2q107 -29 107 -129q0 -139 -119 -220.5t-317 -85.5l2 75q168 4 254.5 65t86.5 153q0 98 -138 98q-28 0 -70 -6l4 64q125 14 174 47.5t49 93.5q0 81 -129 81q-106 0 -194 -60l-15 70q41 31 102 50t124 19
z" />
    <glyph glyph-name="four.osf" horiz-adv-x="615" 
d="M543 69h-85l-24 -173l-91 -6l25 179h-363v60l425 508l107 -7l-69 -489h89zM381 141l59 368q3 19 8 41l-2 1q-5 -9 -25 -33l-286 -346q-1 -1 -11 -12.5t-15 -16.5l1 -2h271z" />
    <glyph glyph-name="five.osf" horiz-adv-x="568" 
d="M522 628l-7 -83h-319l-35 -162q-5 -25 -10 -39l1 -1q68 25 146 25q98 0 148 -40.5t50 -115.5q0 -144 -118.5 -232t-324.5 -92l3 79q164 3 252.5 65t88.5 161q0 50 -32 74.5t-103 24.5q-97 0 -177 -41l-31 35l77 342h391z" />
    <glyph glyph-name="six.osf" horiz-adv-x="593" 
d="M500 744l3 -77q-142 -4 -231.5 -73.5t-119.5 -191.5l1 -1q85 61 183 61q197 0 197 -162q0 -15 -4 -49q-37 -260 -279 -260q-105 0 -159.5 56t-54.5 179q0 126 38 225.5t103.5 161.5t147.5 95t175 36zM263 72q146 0 171 179q2 12 2 33q0 106 -127 106q-42 0 -89.5 -20
t-77.5 -52q-6 -50 -6 -87q0 -86 31.5 -122.5t95.5 -36.5z" />
    <glyph glyph-name="seven.osf" horiz-adv-x="582" 
d="M570 628l-11 -76l-393 -653h-110l376 609q5 9 22 32l-1 2h-381l19 86h479z" />
    <glyph glyph-name="eight.osf" horiz-adv-x="603" 
d="M250 -10q-230 0 -230 151q0 64 38 113.5t106 77.5v2q-74 37 -74 114q0 88 63.5 138.5t187.5 50.5q203 0 203 -135q0 -118 -118 -172v-2q104 -39 104 -128q0 -102 -74 -156t-206 -54zM262 63q77 0 123 30t46 92q0 15 -5 28t-16.5 23t-22 17t-31.5 14.5t-33 11l-38.5 11
l-37.5 10.5q-132 -52 -132 -146q0 -46 35 -68.5t112 -22.5zM330 566q-147 0 -147 -108q0 -37 33.5 -58t126.5 -45q59 23 86 53.5t27 75.5q0 82 -126 82z" />
    <glyph glyph-name="nine.osf" horiz-adv-x="584" 
d="M324 637q213 0 213 -224q0 -38 -6 -83q-30 -215 -154 -325.5t-302 -114.5l2 77q129 6 219.5 78.5t123.5 206.5l-2 2q-71 -62 -174 -62q-92 0 -141.5 43.5t-49.5 129.5q0 125 72 198.5t199 73.5zM311 557q-75 0 -117.5 -47t-42.5 -132q0 -109 125 -109q109 0 159 79
q5 42 5 68q0 74 -31 107.5t-98 33.5z" />
    <glyph glyph-name="cent.osf" horiz-adv-x="501" 
d="M336 731h77l-28 -130q56 -8 97 -32l-36 -68q-50 23 -110 23q-84 0 -133 -55t-65 -174q-6 -47 -6 -81q0 -80 31.5 -113.5t93.5 -33.5q79 0 139 54l26 -58q-62 -59 -144 -69l-27 -140h-77l26 137q-167 14 -167 217q0 44 7 92q41 290 269 304z" />
    <glyph glyph-name="sterling.osf" horiz-adv-x="551" 
d="M47 294l5 64h45q-7 44 -7 74q0 45 14 83.5t44.5 71.5t85 51.5t129.5 18.5q95 0 164 -33l-23 -72q-62 30 -143 30q-97 0 -136 -42t-39 -115q0 -23 6 -67h236l-9 -64h-221v-18q0 -151 -89 -207l1 -2q83 14 192 14q83 0 181 -12l-16 -74q-132 12 -221 12q-120 0 -255 -11
l7 74q108 35 108 199v25h-59z" />
    <glyph glyph-name="currency.osf" 
d="M318 503q52 0 91 -28l77 66l43 -50l-77 -67q17 -32 17 -73q0 -63 -40 -114l54 -63l-57 -50l-53 62q-51 -31 -104 -31q-54 0 -93 30l-71 -61l-43 50l71 62q-15 29 -15 65q0 72 44 125l-54 65l57 50l55 -66q47 28 98 28zM309 437q-50 0 -87 -37t-37 -86q0 -40 26.5 -66
t67.5 -26q49 0 86.5 36.5t37.5 86.5q0 39 -26.5 65.5t-67.5 26.5z" />
    <glyph glyph-name="yen.osf" 
d="M114 291h101l-147 358h106l105 -303q3 -8 6.5 -21t5.5 -18h2q6 12 20 35l192 307h104l-245 -358h101l-7 -50h-124l-7 -53h124l-7 -48h-124l-19 -140h-102l19 140h-125l7 48h125l7 53h-125z" />
    <glyph glyph-name="franc.osf" 
d="M7 158h80l69 491h437l-8 -79h-346l-28 -200h267l-11 -75h-267l-19 -137h87l-9 -61h-87l-13 -97h-94l13 97h-80z" />
    <glyph glyph-name="lira.osf" 
d="M381 657q103 0 173 -35l-23 -72q-64 32 -153 32q-185 0 -185 -162q0 -4 0.5 -11t0.5 -11h274l-6 -48h-261q5 -42 6 -57h247l-7 -48h-240q-6 -66 -27 -108t-63 -68l1 -2q86 15 203 15q88 0 189 -12l-15 -75q-139 12 -231 12q-141 0 -266 -11l7 74q100 31 111 175h-63l5 48
h57q-1 10 -3.5 29.5l-3.5 27.5h-43l3 48h32q-2 20 -2 30q0 46 14.5 85t45.5 72.5t88 52.5t135 19z" />
    <glyph glyph-name="peseta.osf" 
d="M81 649h105q56 0 80.5 -23.5t24.5 -84.5q0 -26 -7 -80q-16 -111 -47.5 -150.5t-103.5 -39.5h-47l-38 -271h-58zM409 351h-46l-38 -269q-1 -5 -1 -14q0 -26 20 -26q11 0 16 4l-4 -45q-14 -8 -33 -8q-53 0 -53 63q0 16 2 26l38 269h-23l7 48h25l22 92l41 7l-13 -99h48z
M533 111q-17 -119 -99 -119q-33 0 -51 18l9 50q16 -17 44 -17q22 0 36 20.5t14 59.5q0 22 -11 39t-23.5 27t-23.5 30.5t-11 48.5q0 61 28 99t71 38q27 0 48 -16l-11 -51q-19 13 -39 13t-33 -19t-13 -50q0 -20 10.5 -35.5t23 -25.5t23 -30.5t10.5 -49.5q0 -19 -2 -30z
M178 591h-47l-38 -266h47q38 0 56.5 26.5t29.5 109.5q6 44 6 69q0 36 -12.5 48.5t-41.5 12.5z" />
    <glyph glyph-name="Euro.osf" 
d="M417 660q108 0 181 -39l-36 -72q-57 30 -134 30q-95 0 -149 -38.5t-81 -122.5h307l-26 -50h-293q-10 -40 -10 -75h271l-26 -49h-247q1 -94 45.5 -135.5t135.5 -41.5q84 0 156 42l-1 -72q-80 -50 -190 -50q-130 0 -192.5 63t-62.5 194h-48l7 49h43q3 36 11 75h-44l7 50h49
q70 242 327 242z" />
    <glyph glyph-name="numbersign.lf" horiz-adv-x="643" 
d="M45 291h116l53 174h-144l9 67h154l62 218h79l-63 -218h113l63 218h77l-63 -218h111l-9 -67h-119l-53 -174h146l-9 -69h-156l-63 -222h-76l63 222h-115l-63 -222h-78l63 222h-107zM293 465l-54 -174h114l54 174h-114z" />
    <glyph glyph-name="dollar.lf" horiz-adv-x="601" 
d="M387 827l58 -4l-16 -64q81 -8 135 -33l-20 -80q-64 25 -135 32l-63 -254q41 -15 68 -28.5t56 -35.5t43.5 -53t14.5 -71q0 -123 -74 -184t-211 -63l-22 -72l-56 4l17 70q-109 10 -171 48l25 84q70 -43 164 -54l68 285q-44 18 -69 30t-56 33.5t-45.5 50.5t-14.5 67
q0 105 76.5 164.5t208.5 62.5zM316 336l-62 -270q89 1 138.5 36.5t49.5 106.5q0 45 -32 73t-94 54zM354 681q-88 -1 -133.5 -37.5t-45.5 -93.5q0 -39 31 -62.5t93 -45.5z" />
    <glyph glyph-name="zero.lf" horiz-adv-x="634" 
d="M374 759q117 0 170.5 -56.5t53.5 -187.5q0 -58 -11 -141q-29 -207 -104.5 -296t-217.5 -89q-117 0 -171 58t-54 189q0 56 11 138q30 212 104 298.5t219 86.5zM363 678q-62 0 -100.5 -24.5t-67 -91t-45.5 -187.5q-12 -82 -12 -138q0 -95 33.5 -131.5t105.5 -36.5
q91 0 138.5 64t72.5 242q12 81 12 137q0 94 -33 130t-104 36z" />
    <glyph glyph-name="one.lf" horiz-adv-x="475" 
d="M406 752l-105 -752h-104l80 579q4 26 8 40l-2 2q-22 -16 -34 -23l-135 -83v86l231 151h61z" />
    <glyph glyph-name="two.lf" horiz-adv-x="631" 
d="M367 758q107 0 163.5 -44.5t56.5 -124.5q0 -50 -21.5 -100.5t-54 -94.5t-91.5 -99t-113.5 -99l-139.5 -108v-3h356l-14 -85h-485l8 64l75 62.5l75 62.5l67.5 58t64.5 58.5l54 54t47.5 55.5l33.5 51t24 52t7 49q0 49 -35 78t-107 29q-100 0 -203 -74l-17 75q112 83 249 83
z" />
    <glyph glyph-name="three.lf" horiz-adv-x="631" 
d="M360 758q106 0 163.5 -41.5t57.5 -117.5q0 -149 -151 -198v-2q124 -31 124 -142q0 -121 -82 -193.5t-229 -72.5q-130 0 -216 61l31 75q84 -57 193 -57q96 0 150.5 51t54.5 132q0 59 -51 84.5t-170 25.5l9 70q242 0 242 148q0 96 -142 96q-109 0 -210 -73l-16 72
q108 82 242 82z" />
    <glyph glyph-name="four.lf" horiz-adv-x="646" 
d="M570 165h-91l-23 -165h-94l23 165h-347v61l399 524h124l-71 -506h94zM399 244l59 380q3 19 8 41l-2 1q-12 -20 -24 -34l-266 -356q-13 -18 -25 -30l1 -2h249z" />
    <glyph glyph-name="five.lf" horiz-adv-x="604" 
d="M573 750l-8 -85h-334l-40 -178q-7 -29 -10 -39l1 -1q72 25 151 25q212 0 212 -169q0 -15 -4 -47q-37 -265 -300 -265q-127 0 -211 61l30 76q85 -58 182 -58q174 0 198 177q3 18 3 35q0 58 -36.5 85t-111.5 27q-98 0 -180 -40l-33 36l81 360h410z" />
    <glyph glyph-name="six.lf" horiz-adv-x="619" 
d="M419 759q89 0 162 -30l-19 -79q-66 26 -142 26q-109 0 -174 -64t-91 -199l1 -1q91 65 197 65q207 0 207 -170q0 -13 -4 -49q-19 -132 -93.5 -199.5t-198.5 -67.5q-113 0 -169 57t-56 187q0 53 9 117q58 407 371 407zM323 405q-44 0 -94.5 -21t-81.5 -55q-7 -50 -7 -95
q0 -87 32 -125t102 -38q156 0 183 188q3 18 3 35q0 111 -137 111z" />
    <glyph glyph-name="seven.lf" horiz-adv-x="627" 
d="M631 750l-11 -80l-406 -670h-115l401 628q10 16 23 32l-1 2h-422l17 88h514z" />
    <glyph glyph-name="eight.lf" horiz-adv-x="625" 
d="M261 -9q-237 0 -237 172q0 80 43.5 139.5t121.5 93.5v2q-84 45 -84 138q0 104 67 163t197 59q211 0 211 -152q0 -144 -140 -212v-2q55 -22 86 -56.5t31 -93.5q0 -16 -3 -36q-30 -215 -293 -215zM271 362q-71 -33 -110 -76.5t-39 -110.5q0 -55 36.5 -81.5t116.5 -26.5
q81 0 131.5 38t50.5 115q0 24 -8 42t-18.5 30t-38.5 25t-50.5 21zM358 684q-76 0 -117.5 -35.5t-41.5 -101.5q0 -23 9.5 -41t22 -29.5t37.5 -23t42 -17l50 -15.5q66 29 97 69t31 98q0 96 -130 96z" />
    <glyph glyph-name="nine.lf" horiz-adv-x="619" 
d="M357 758q111 0 169.5 -64t58.5 -190q0 -45 -7 -91q-32 -223 -119.5 -322.5t-240.5 -99.5q-97 0 -170 35l25 76q70 -30 147 -30q106 0 166 66.5t88 220.5l-2 2q-79 -59 -190 -59q-107 0 -160 47t-53 132q0 128 75.5 202.5t212.5 74.5zM344 679q-83 0 -130 -47.5
t-47 -136.5q0 -118 141 -118q111 0 175 70q4 31 4 64q0 168 -143 168z" />
    <glyph glyph-name="cent.lf" horiz-adv-x="505" 
d="M337 731h77l-27 -130q50 -7 95 -32l-36 -68q-50 23 -110 23q-84 0 -133 -55t-65 -174q-6 -47 -6 -81q0 -80 31.5 -113.5t93.5 -33.5q79 0 139 54l26 -58q-63 -59 -146 -70l-27 -139h-77l27 138q-166 14 -166 217q0 45 7 91q40 290 270 304z" />
    <glyph glyph-name="sterling.lf" horiz-adv-x="640" 
d="M73 342l6 71h53q-11 68 -11 94q0 51 16.5 94.5t51 80t95.5 57.5t143 21q107 0 185 -39l-25 -79q-70 36 -160 36q-106 0 -153.5 -49t-47.5 -129q0 -29 8 -87h266l-10 -71h-249v-29q0 -173 -104 -238l1 -2q88 17 217 17q98 0 205 -13l-17 -83q-135 14 -247 14
q-144 0 -287 -13l7 84q45 14 74 51t40.5 81t11.5 95q0 6 -0.5 18.5t-0.5 17.5h-68z" />
    <glyph glyph-name="currency.lf" horiz-adv-x="582" 
d="M111 361q8 56 44 100l-58 68l59 52l58 -69q50 29 102 29q53 0 93 -29l80 69l44 -52l-79 -70q18 -36 18 -73q0 -67 -42 -120l57 -66l-60 -52l-56 65q-48 -31 -106 -31q-54 0 -97 30l-74 -64l-43 52l74 65q-16 34 -16 71q0 7 2 25zM177 363q-1 -6 -1 -17q0 -42 27.5 -69.5
t70.5 -27.5q52 0 92 38.5t40 90.5q0 42 -28 70t-72 28q-47 0 -85 -33t-44 -80z" />
    <glyph glyph-name="yen.lf" horiz-adv-x="723" 
d="M168 338h112l-164 412h119l114 -371q10 -31 11 -39h2q10 22 19 36l219 374h116l-274 -412h111l-8 -56h-135l-7 -52h136l-8 -55h-136l-24 -175h-113l24 175h-137l8 55h137l7 52h-137z" />
    <glyph glyph-name="franc.lf" horiz-adv-x="618" 
d="M-5 179h84l80 571h462l-9 -87h-360l-34 -237h278l-12 -81h-277l-23 -166h90l-10 -68h-90l-15 -111h-105l15 111h-84z" />
    <glyph glyph-name="lira.lf" horiz-adv-x="663" 
d="M86 402l4 56h36q-3 20 -3 41q0 53 16 98t50 82.5t95 59t144 21.5q107 0 185 -39l-25 -78q-68 35 -160 35q-201 0 -201 -180q0 -14 2 -40h291l-8 -56h-276q4 -40 5 -61h262l-7 -55h-254q-11 -151 -105 -211l1 -2q88 17 218 17q98 0 205 -13l-17 -83q-135 14 -247 14
q-144 0 -287 -13l7 84q60 20 92.5 77t32.5 130h-69l5 55h63q0 4 -6 61h-49z" />
    <glyph glyph-name="peseta.lf" horiz-adv-x="802" 
d="M260 750q77 0 112.5 -32.5t35.5 -111.5q0 -33 -6 -75q-17 -121 -64 -172t-140 -51h-61l-43 -308h-75l105 750h136zM562 404h-60l-43 -309q-1 -6 -1 -15q0 -31 27 -31q11 0 21 6l-4 -55q-16 -9 -45 -9q-66 0 -66 72q0 16 5 53l40 288h-31l8 56h33l27 106l53 7l-16 -113h60
zM250 679h-62l-43 -303h62q53 0 78.5 31t38.5 123q6 39 6 65q0 47 -18.5 65.5t-61.5 18.5zM732 149q0 -65 -32 -112.5t-93 -47.5q-45 0 -70 23l12 59q23 -22 59 -22q27 0 43.5 23.5t16.5 67.5q0 22 -9.5 38t-22.5 27.5l-26 23.5t-22.5 32.5t-9.5 48.5q0 70 34 113t89 43
q37 0 63 -18l-13 -61q-26 16 -53 16q-25 0 -41 -21t-16 -55q0 -23 14 -41.5t31.5 -30.5t31.5 -39.5t14 -66.5z" />
    <glyph glyph-name="Euro.lf" horiz-adv-x="663" 
d="M485 343l-21 -54h-257q0 -118 46 -169.5t148 -51.5q87 0 172 47l-1 -71q-87 -52 -205 -52q-134 0 -197 66.5t-63 206.5q0 4 0.5 12t0.5 12h-87l8 54h83q3 33 9 64h-83l7 55h87q36 142 125.5 218t223.5 76q109 0 173 -35l-31 -74q-61 29 -134 29q-196 0 -257 -214h306
l-20 -55h-298q-6 -31 -9 -64h274z" />
    <glyph glyph-name="numbersign.tosf" 
d="M29 255h101l45 145h-124l9 65h133l53 184h76l-54 -184h132l53 184h74l-54 -184h95l-9 -65h-103l-44 -145h126l-8 -66h-136l-53 -189h-74l53 189h-132l-53 -189h-75l52 189h-92zM251 400l-45 -145h131l45 145h-131z" />
    <glyph glyph-name="dollar.tosf" 
d="M496 175q-11 -77 -65 -127t-153 -59l-27 -138h-83l28 138q-102 8 -163 54l26 80q35 -28 87 -43t103 -15q70 0 108.5 31.5t38.5 79.5q0 32 -31.5 52.5t-77 33t-91 27.5t-77 46t-31.5 79q0 79 58.5 129.5t162.5 58.5l29 134h82l-29 -134q77 -8 135 -35l-21 -79
q-82 36 -170 36q-64 0 -103.5 -25.5t-39.5 -66.5q0 -30 31.5 -49t76.5 -31t90 -26.5t76.5 -46t31.5 -80.5q0 -6 -2 -24z" />
    <glyph glyph-name="zero.tosf" 
d="M339 638q113 0 166 -52.5t53 -168.5q0 -43 -8 -105q-24 -169 -95.5 -245.5t-207.5 -76.5q-115 0 -168.5 53.5t-53.5 168.5q0 41 8 100q25 173 97 249.5t209 76.5zM328 559q-87 0 -132.5 -53.5t-65.5 -192.5q-7 -50 -7 -94q0 -85 33 -118.5t103 -33.5q86 0 130.5 53
t63.5 193q8 59 8 97q0 83 -32 116t-101 33z" />
    <glyph glyph-name="one.tosf" 
d="M61 0l8 60h174l58 413q5 30 8 40l-2 2l-35 -21l-177 -95v81l268 150h59l-80 -570h158l-8 -60h-431z" />
    <glyph glyph-name="two.tosf" 
d="M334 637q102 0 156 -40.5t54 -111.5q0 -43 -19.5 -85.5t-48 -77t-84 -79t-103 -77.5l-130.5 -87v-3h334l-13 -76h-458l8 61l79 58l77 56.5l68 52t63 51t50.5 47.5t41 48t24 45t9.5 46q0 91 -134 91q-99 0 -192 -63l-17 71q108 73 235 73z" />
    <glyph glyph-name="three.tosf" 
d="M322 638q100 0 150.5 -38t50.5 -103q0 -61 -32 -105.5t-91 -66.5v-2q107 -29 107 -129q0 -139 -119 -220.5t-317 -85.5l1 75q168 4 255 65t87 153q0 98 -139 98q-29 0 -69 -6l4 64q125 14 174 47.5t49 93.5q0 81 -128 81q-107 0 -196 -60l-15 70q43 31 104.5 50t123.5 19
z" />
    <glyph glyph-name="four.tosf" 
d="M528 630l-68 -487h88l-14 -74h-85l-24 -173l-91 -6l25 179h-364v60l425 508zM373 143l58 369q3 19 8 41l-2 1q-20 -27 -25 -33l-286 -347q-1 -1 -11 -12.5t-15 -16.5l1 -2h272z" />
    <glyph glyph-name="five.tosf" 
d="M537 628l-7 -84h-319l-35 -161l-5.5 -22t-4.5 -17l1 -1q70 25 142 25q98 0 150 -41t52 -116q0 -143 -118.5 -231t-323.5 -92l2 79q162 3 251.5 63.5t89.5 158.5q0 100 -143 100q-89 0 -169 -39l-31 36l77 342h391z" />
    <glyph glyph-name="six.tosf" 
d="M342 462q196 0 196 -162q0 -15 -4 -49q-19 -130 -89.5 -195t-189.5 -65q-105 0 -160 56t-55 179q0 126 38 225.5t103.5 161.5t147.5 95t175 36l4 -77q-143 -4 -233.5 -74t-118.5 -194l1 -1q87 64 185 64zM313 390q-41 0 -88.5 -20.5t-77.5 -53.5q-6 -50 -6 -88
q0 -85 31 -120.5t95 -35.5q147 0 172 179q2 12 2 33q0 54 -31 80t-97 26z" />
    <glyph glyph-name="seven.tosf" 
d="M581 628l-11 -76l-393 -653h-109l375 607q5 9 22 32l-1 2h-382l19 88h480z" />
    <glyph glyph-name="eight.tosf" 
d="M250 -10q-230 0 -230 150q0 64 37.5 114t106.5 78v2q-74 37 -74 114q0 88 63 138.5t188 50.5q203 0 203 -135q0 -118 -118 -172v-2q104 -39 104 -128q0 -102 -74 -156t-206 -54zM262 63q77 0 123 30t46 92q0 15 -5 28t-16.5 23t-22 17t-31.5 14.5t-33 11l-38.5 11
l-37.5 10.5q-132 -52 -132 -146q0 -46 35 -68.5t112 -22.5zM329 566q-146 0 -146 -108q0 -39 35 -59.5t125 -43.5q58 23 85 53.5t27 75.5q0 82 -126 82z" />
    <glyph glyph-name="nine.tosf" 
d="M331 636q213 0 213 -224q0 -37 -6 -82q-15 -110 -57 -194.5t-103 -137t-136 -79.5t-161 -29l2 77q129 6 220 79t125 206l-2 2q-70 -60 -175 -60q-91 0 -141 43.5t-50 128.5q0 124 71.5 197t199.5 73zM318 556q-76 0 -118 -46.5t-42 -132.5q0 -109 124 -109q109 0 160 80
q5 42 5 67q0 74 -31 107.5t-98 33.5z" />
    <glyph glyph-name="cent.tosf" 
d="M389 736h80l-29 -137q69 -6 120 -30l-17 -81q-67 31 -141 31q-109 0 -163.5 -52t-70.5 -167q-5 -38 -5 -63q0 -168 176 -168q87 0 155 39l-2 -75q-61 -39 -159 -45l-29 -139h-80l29 141q-195 23 -195 231q0 173 77.5 271t224.5 108z" />
    <glyph glyph-name="sterling.tosf" 
d="M51 294l5 65h47q-8 46 -8 71q0 45 14.5 84t46 72t88.5 52t134 19q102 0 174 -35l-24 -72q-64 31 -153 31q-184 0 -184 -154q0 -33 6 -68h251l-9 -65h-235v-27q0 -143 -90 -198l1 -2q86 15 203 15q88 0 189 -12l-15 -75q-139 12 -231 12q-141 0 -266 -11l7 74
q111 34 111 192q0 22 -1 32h-61z" />
    <glyph glyph-name="currency.tosf" 
d="M318 503q52 0 91 -28l77 66l43 -50l-77 -67q17 -32 17 -73q0 -63 -40 -114l54 -63l-57 -50l-53 62q-51 -31 -104 -31q-54 0 -93 30l-71 -61l-43 50l71 62q-15 29 -15 65q0 72 44 125l-54 65l57 50l55 -66q47 28 98 28zM309 437q-50 0 -87 -37t-37 -86q0 -40 26.5 -66
t67.5 -26q49 0 86.5 36.5t37.5 86.5q0 39 -26.5 65.5t-67.5 26.5z" />
    <glyph glyph-name="yen.tosf" 
d="M114 291h101l-147 358h106l105 -303q3 -8 6.5 -21t5.5 -18h2q6 12 20 35l192 307h104l-245 -358h101l-7 -50h-124l-7 -53h124l-7 -48h-124l-19 -140h-102l19 140h-125l7 48h125l7 53h-125z" />
    <glyph glyph-name="uni2007.tosf" 
 />
    <glyph glyph-name="franc.tosf" 
d="M7 158h80l69 491h437l-8 -79h-346l-28 -200h267l-11 -75h-267l-19 -137h87l-9 -61h-87l-13 -97h-94l13 97h-80z" />
    <glyph glyph-name="lira.tosf" 
d="M64 348l4 49h32q-2 20 -2 33q0 45 14.5 84t46 72t88.5 52t134 19q103 0 173 -35l-23 -72q-64 32 -153 32q-185 0 -185 -163q0 -10 1 -22h274l-7 -49h-261q0 -2 2.5 -22t3.5 -31h248l-7 -50h-241q-6 -66 -27 -108t-62 -68l1 -2q85 15 203 15q88 0 189 -12l-15 -75
q-139 12 -231 12q-141 0 -266 -11l7 74q100 31 111 175h-63l5 50h56q-1 19 -7 53h-43z" />
    <glyph glyph-name="peseta.tosf" 
d="M338 649q104 0 152.5 -36.5t48.5 -115.5q0 -19 -1 -29h60l-6 -47h-60q-20 -89 -79.5 -131.5t-171.5 -42.5h-124l-34 -247h-92l59 421h-57l6 47h57l26 181h216zM328 579h-124l-16 -111h256q0 3 0.5 9.5t0.5 8.5q0 50 -28 71.5t-89 21.5zM290 313q64 0 99 23.5t49 84.5
h-256l-16 -108h124z" />
    <glyph glyph-name="Euro.tosf" 
d="M598 621l-36 -72q-57 30 -134 30q-94 0 -149 -39t-81 -122h307l-26 -53h-293q-10 -35 -10 -72h272l-27 -51h-246q2 -92 47 -133.5t133 -41.5q89 0 159 43l-4 -73q-80 -50 -190 -50q-129 0 -192 62.5t-63 192.5h-48l7 51h43q3 40 11 72h-44l7 53h49q70 242 327 242
q108 0 181 -39z" />
    <glyph glyph-name="f_i.sc" horiz-adv-x="854" 
d="M548 569h-334l-28 -203h292l-11 -76h-292l-40 -290h-97l91 649h428zM605 0l91 649h100l-91 -649h-100z" />
    <glyph glyph-name="f_l.sc" horiz-adv-x="1086" 
d="M548 569h-334l-28 -203h292l-11 -76h-292l-40 -290h-97l91 649h428zM701 80h322l-14 -80h-416l91 649h97z" />
    <glyph glyph-name="exclam.sc" horiz-adv-x="293" 
d="M157 175h-71l53 474h98zM110 88q50 0 50 -39q0 -28 -16.5 -43.5t-47.5 -15.5q-51 0 -51 37q0 61 65 61z" />
    <glyph glyph-name="ampersand.sc" horiz-adv-x="656" 
d="M588 335q-22 -91 -100 -189q61 -48 117 -79l-44 -76q-71 41 -133 92q-103 -93 -227 -93q-87 0 -127 39t-40 102q0 74 41.5 128.5t113.5 101.5q-36 72 -36 130q0 74 48.5 121t139.5 47q69 0 109 -28.5t40 -74.5q0 -27 -13 -53t-28 -44t-48 -42t-50 -34.5l-57 -34.5
q53 -76 139 -156q53 70 77 143h78zM224 63q76 0 152 66q-91 84 -150 172q-97 -72 -97 -156q0 -40 25 -61t70 -21zM329 594q-39 0 -65.5 -26.5t-26.5 -71.5q0 -38 24 -91q45 27 69 43.5t45.5 42.5t21.5 52q0 51 -68 51z" />
    <glyph glyph-name="question.sc" horiz-adv-x="492" 
d="M289 660q87 0 132 -34t45 -97q0 -147 -199 -240l-22 -114h-70l14 146q92 45 135.5 86.5t43.5 98.5q0 75 -104 75q-90 0 -168 -62l-25 66q91 75 218 75zM199 88q50 0 50 -39q0 -28 -16.5 -43.5t-47.5 -15.5q-50 0 -50 37q0 61 64 61z" />
    <glyph glyph-name="grave.sc" horiz-adv-x="399" 
d="M321 698h-74l-100 132h113z" />
    <glyph glyph-name="a.sc" horiz-adv-x="663" 
d="M484 0l-34 158h-298l-79 -158h-105l346 649h115l166 -649h-111zM361 577h-2q-10 -24 -17 -37l-154 -309h246l-66 306q-3 11 -7 40z" />
    <glyph glyph-name="b.sc" horiz-adv-x="623" 
d="M129 649h258q182 0 182 -132q0 -70 -33 -113t-85 -60v-2q104 -23 104 -126q0 -102 -63 -159t-185 -57h-269zM173 303l-32 -229h177q140 0 140 142q0 87 -111 87h-174zM212 573l-28 -203h169q58 0 89.5 31.5t31.5 93.5q0 41 -24.5 59.5t-76.5 18.5h-161z" />
    <glyph glyph-name="c.sc" horiz-adv-x="557" 
d="M391 660q86 0 158 -31l-23 -77q-63 29 -142 29q-111 0 -167 -57.5t-75 -194.5q-7 -48 -7 -90q0 -94 42.5 -133t136.5 -39q78 0 151 33l1 -73q-81 -38 -175 -38q-131 0 -194 60.5t-63 186.5q0 46 7 94q23 167 108 248.5t242 81.5z" />
    <glyph glyph-name="d.sc" horiz-adv-x="670" 
d="M129 649h241q133 0 195 -56t62 -175q0 -46 -7 -92q-24 -171 -106.5 -248.5t-233.5 -77.5h-242zM214 569l-68 -489h143q105 0 157.5 53t72.5 194q7 56 7 84q0 87 -40 122.5t-129 35.5h-143z" />
    <glyph glyph-name="e.sc" horiz-adv-x="577" 
d="M145 78h350l-13 -78h-444l91 649h429l-9 -79h-334l-28 -198h286l-10 -70h-286z" />
    <glyph glyph-name="f.sc" horiz-adv-x="555" 
d="M548 569h-334l-28 -203h292l-11 -76h-292l-40 -290h-97l91 649h428z" />
    <glyph glyph-name="g.sc" horiz-adv-x="620" 
d="M401 660q105 0 181 -33l-22 -79q-77 32 -164 32q-118 0 -176 -56.5t-78 -200.5q-7 -46 -7 -88q0 -90 42 -128.5t136 -38.5q65 0 119 19l36 255h88l-45 -316q-88 -38 -206 -38q-141 0 -206.5 58.5t-65.5 183.5q0 45 7 93q25 175 111 256t250 81z" />
    <glyph glyph-name="h.sc" horiz-adv-x="694" 
d="M556 0h-98l41 296h-323l-41 -296h-97l91 649h97l-39 -273h323l39 273h98z" />
    <glyph glyph-name="i.sc" horiz-adv-x="299" 
d="M50 0l91 649h100l-91 -649h-100z" />
    <glyph glyph-name="j.sc" horiz-adv-x="460" 
d="M424 649l-62 -439q-31 -222 -239 -222q-85 0 -133 38l19 77q42 -36 107 -36q127 0 147 142l62 440h99z" />
    <glyph glyph-name="k.sc" horiz-adv-x="650" 
d="M577 0h-124l-178 300h-98l-42 -300h-97l91 649h97l-39 -274h102l250 274h115l-282 -306z" />
    <glyph glyph-name="l.sc" horiz-adv-x="531" 
d="M146 80h322l-14 -80h-416l91 649h97z" />
    <glyph glyph-name="m.sc" horiz-adv-x="844" 
d="M129 649h109l140 -487q8 -29 10 -39h2q7 16 19 36l280 490h108l-91 -649h-89l64 462q5 33 9 50l-2 1l-284 -513h-66l-143 504h-2q-2 -30 -4 -41l-64 -463h-87z" />
    <glyph glyph-name="n.sc" horiz-adv-x="699" 
d="M561 0h-78l-288 506l-2 -1q-2 -30 -4 -41l-64 -464h-87l91 649h87l280 -491l2 1q0 14 4 40l63 450h87z" />
    <glyph glyph-name="o.sc" horiz-adv-x="666" 
d="M375 659q130 0 189 -55.5t59 -176.5q0 -42 -8 -103q-25 -178 -102.5 -256.5t-231.5 -78.5q-130 0 -189.5 56t-59.5 178q0 42 8 101q25 177 103 256t232 79zM364 581q-103 0 -152.5 -55t-70.5 -202q-8 -59 -8 -98q0 -88 37.5 -124t122.5 -36q102 0 150.5 56t69.5 202
q8 62 8 101q0 87 -36.5 121.5t-120.5 34.5z" />
    <glyph glyph-name="p.sc" horiz-adv-x="605" 
d="M129 649h233q111 0 163 -38t52 -119q0 -13 -4 -47q-15 -102 -78.5 -152t-189.5 -50h-136l-34 -243h-97zM215 574l-36 -260h136q75 0 111.5 28t46.5 103q3 20 3 35q0 51 -30 72.5t-95 21.5h-136z" />
    <glyph glyph-name="q.sc" horiz-adv-x="681" 
d="M383 659q130 0 189 -55.5t59 -176.5q0 -42 -8 -103q-21 -150 -79 -228t-165 -97l133 -111l-117 -18l-125 119q-120 4 -175 60.5t-55 173.5q0 42 8 101q25 177 103 256t232 79zM372 581q-103 0 -152.5 -55t-70.5 -202q-8 -59 -8 -98q0 -88 37.5 -124t122.5 -36
q102 0 150.5 56t69.5 202q8 62 8 101q0 87 -36.5 121.5t-120.5 34.5z" />
    <glyph glyph-name="r.sc" horiz-adv-x="623" 
d="M129 649h238q199 0 199 -148q0 -88 -43.5 -143.5t-117.5 -68.5l138 -289h-118l-115 272h-137l-38 -272h-97zM215 575l-33 -234h137q73 0 108.5 35.5t35.5 116.5q0 43 -25.5 62.5t-82.5 19.5h-140z" />
    <glyph glyph-name="s.sc" horiz-adv-x="534" 
d="M326 659q108 0 179 -36l-23 -74q-83 33 -163 33q-75 0 -114 -32t-39 -79q0 -33 31 -55t76 -36t89.5 -30.5t75.5 -51t31 -86.5q0 -101 -73 -162t-193 -61q-117 0 -197 50l26 77q80 -51 182 -51q73 0 116.5 34t43.5 92q0 30 -22.5 51.5t-56 33l-73 26t-73 30t-56 46.5
t-22.5 73q0 90 66.5 149t188.5 59z" />
    <glyph glyph-name="t.sc" horiz-adv-x="539" 
d="M554 570h-205l-80 -570h-99l80 570h-205l12 79h506z" />
    <glyph glyph-name="u.sc" horiz-adv-x="685" 
d="M649 649l-57 -406q-36 -255 -301 -255q-233 0 -233 197q0 30 4 58l57 406h97l-57 -407q-3 -24 -3 -44q0 -130 146 -130q86 0 132.5 42.5t59.5 131.5l57 407h98z" />
    <glyph glyph-name="v.sc" horiz-adv-x="648" 
d="M563 649h104l-338 -649h-110l-156 649h110l106 -526q6 -31 7 -40h2q7 18 17 37z" />
    <glyph glyph-name="w.sc" horiz-adv-x="943" 
d="M460 649h108l60 -527q0 -1 3 -41h2q1 4 3.5 12t5 15t4.5 12l193 529h98l-259 -649h-119l-56 519q-3 27 -3 41h-2q-2 -8 -7 -22t-6 -16l-201 -522h-119l-77 649h103l42 -528q2 -26 2 -41h2q7 22 14 38z" />
    <glyph glyph-name="x.sc" horiz-adv-x="654" 
d="M206 649l108 -219q7 -12 17 -37h2q9 15 24 33l172 223h115l-252 -313l175 -336h-115l-120 245q-7 12 -17 37h-2q-13 -21 -23 -33l-186 -249h-117l264 339l-165 310h120z" />
    <glyph glyph-name="y.sc" horiz-adv-x="629" 
d="M63 649h113l119 -313q9 -23 13 -38h2q8 14 21 34l207 317h110l-300 -427l-31 -222h-102l31 222z" />
    <glyph glyph-name="z.sc" horiz-adv-x="579" 
d="M476 0h-478l8 59l409 480q13 17 27 29l-1 2h-352l15 79h463l-10 -67l-401 -473q-18 -20 -27 -28l1 -2h359z" />
    <glyph glyph-name="exclamdown.sc" horiz-adv-x="303" 
d="M126 456h78l-66 -550h-103zM193 665q56 0 56 -42q0 -31 -18.5 -48t-52.5 -17q-54 0 -54 42q0 65 69 65z" />
    <glyph glyph-name="dieresis.sc" horiz-adv-x="399" 
d="M183 817q40 0 40 -32q0 -51 -51 -51q-41 0 -41 32q0 24 14 37.5t38 13.5zM348 817q40 0 40 -32q0 -51 -51 -51q-42 0 -42 32q0 24 14 37.5t39 13.5z" />
    <glyph glyph-name="macron.sc" horiz-adv-x="399" 
d="M405 796l-7 -53h-285l7 53h285z" />
    <glyph glyph-name="acute.sc" horiz-adv-x="385" 
d="M295 830h123l-156 -132h-83z" />
    <glyph glyph-name="cedilla.sc" horiz-adv-x="399" 
d="M48 -191l91 195h66l-65 -195h-92z" />
    <glyph glyph-name="questiondown.sc" horiz-adv-x="528" 
d="M199 -88q-95 0 -143 37t-48 105q0 90 55.5 155.5t160.5 117.5l24 129h77l-17 -159q-103 -58 -151 -105.5t-48 -112.5q0 -86 114 -86q96 0 185 69l27 -68q-97 -82 -236 -82zM314 663q55 0 55 -41q0 -66 -70 -66q-55 0 -55 42q0 65 70 65z" />
    <glyph glyph-name="germandbls.sc" horiz-adv-x="1068" 
d="M326 659q108 0 179 -36l-23 -74q-83 33 -163 33q-75 0 -114 -32t-39 -79q0 -33 31 -55t76 -36t89.5 -30.5t75.5 -51t31 -86.5q0 -101 -73 -162t-193 -61q-117 0 -197 50l26 77q80 -51 182 -51q73 0 116.5 34t43.5 92q0 30 -22.5 51.5t-56 33l-73 26t-73 30t-56 46.5
t-22.5 73q0 90 66.5 149t188.5 59zM860 659q108 0 179 -36l-23 -74q-83 33 -163 33q-75 0 -114 -32t-39 -79q0 -33 31 -55t76 -36t89.5 -30.5t75.5 -51t31 -86.5q0 -101 -73 -162t-193 -61q-117 0 -197 50l26 77q80 -51 182 -51q73 0 116.5 34t43.5 92q0 30 -22.5 51.5
t-56 33l-73 26t-73 30t-56 46.5t-22.5 73q0 90 66.5 149t188.5 59z" />
    <glyph glyph-name="agrave.sc" horiz-adv-x="663" 
d="M484 0l-34 158h-298l-79 -158h-105l346 649h115l166 -649h-111zM361 577h-2q-10 -24 -17 -37l-154 -309h246l-66 306q-3 11 -7 40zM432 698h-74l-100 132h113z" />
    <glyph glyph-name="aacute.sc" horiz-adv-x="663" 
d="M484 0l-34 158h-298l-79 -158h-105l346 649h115l166 -649h-111zM361 577h-2q-10 -24 -17 -37l-154 -309h246l-66 306q-3 11 -7 40zM453 830h123l-156 -132h-83z" />
    <glyph glyph-name="acircumflex.sc" horiz-adv-x="663" 
d="M484 0l-34 158h-298l-79 -158h-105l346 649h115l166 -649h-111zM361 577h-2q-10 -24 -17 -37l-154 -309h246l-66 306q-3 11 -7 40zM346 830h87l86 -132h-78l-56 97l-82 -97h-77z" />
    <glyph glyph-name="atilde.sc" horiz-adv-x="663" 
d="M484 0l-34 158h-298l-79 -158h-105l346 649h115l166 -649h-111zM361 577h-2q-10 -24 -17 -37l-154 -309h246l-66 306q-3 11 -7 40zM435 712q-32 0 -65.5 30t-49.5 30q-29 0 -44 -52h-56q11 48 38 75.5t65 27.5q32 0 66 -30t50 -30q27 0 44 52h56q-11 -48 -38.5 -75.5
t-65.5 -27.5z" />
    <glyph glyph-name="adieresis.sc" horiz-adv-x="663" 
d="M484 0l-34 158h-298l-79 -158h-105l346 649h115l166 -649h-111zM361 577h-2q-10 -24 -17 -37l-154 -309h246l-66 306q-3 11 -7 40zM301 817q40 0 40 -32q0 -51 -51 -51q-41 0 -41 32q0 24 14 37.5t38 13.5zM466 817q40 0 40 -32q0 -51 -51 -51q-42 0 -42 32q0 24 14 37.5
t39 13.5z" />
    <glyph glyph-name="aring.sc" horiz-adv-x="663" 
d="M389 787q47 0 71.5 -19t24.5 -51q0 -59 -52 -84l162 -633h-111l-34 158h-298l-79 -158h-105l337 632q-36 16 -36 58q0 43 31 70t89 27zM361 577h-2q-10 -24 -17 -37l-154 -309h246l-66 306q-3 11 -7 40zM385 747q-30 0 -46 -14t-16 -36q0 -36 50 -36q28 0 44 13.5
t16 36.5q0 36 -48 36z" />
    <glyph glyph-name="ae.sc" horiz-adv-x="952" 
d="M930 571h-345l-7 -199h272l-10 -70h-265l-9 -224h303l-12 -78h-393l5 158h-278l-109 -158h-118l476 649h498zM486 580l-2 1q-2 -4 -23 -35l-220 -316h231l11 309q2 34 3 41z" />
    <glyph glyph-name="ccedilla.sc" horiz-adv-x="557" 
d="M160 -191l85 182q-107 10 -159 70t-52 175q0 46 7 94q23 167 108 248.5t242 81.5q86 0 158 -31l-23 -77q-63 29 -142 29q-111 0 -167 -57.5t-75 -194.5q-7 -48 -7 -90q0 -94 42.5 -133t136.5 -39q78 0 151 33l1 -73q-68 -32 -154 -37l-60 -181h-92z" />
    <glyph glyph-name="egrave.sc" horiz-adv-x="577" 
d="M145 78h350l-13 -78h-444l91 649h429l-9 -79h-334l-28 -198h286l-10 -70h-286zM414 698h-74l-100 132h113z" />
    <glyph glyph-name="eacute.sc" horiz-adv-x="577" 
d="M145 78h350l-13 -78h-444l91 649h429l-9 -79h-334l-28 -198h286l-10 -70h-286zM394 830h123l-156 -132h-83z" />
    <glyph glyph-name="ecircumflex.sc" horiz-adv-x="577" 
d="M145 78h350l-13 -78h-444l91 649h429l-9 -79h-334l-28 -198h286l-10 -70h-286zM331 830h87l86 -132h-78l-56 97l-82 -97h-77z" />
    <glyph glyph-name="edieresis.sc" horiz-adv-x="577" 
d="M145 78h350l-13 -78h-444l91 649h429l-9 -79h-334l-28 -198h286l-10 -70h-286zM285 817q40 0 40 -32q0 -51 -51 -51q-41 0 -41 32q0 24 14 37.5t38 13.5zM450 817q40 0 40 -32q0 -51 -51 -51q-42 0 -42 32q0 24 14 37.5t39 13.5z" />
    <glyph glyph-name="igrave.sc" horiz-adv-x="299" 
d="M50 0l91 649h100l-91 -649h-100zM244 698h-74l-100 132h113z" />
    <glyph glyph-name="iacute.sc" horiz-adv-x="299" 
d="M50 0l91 649h100l-91 -649h-100zM266 830h123l-156 -132h-83z" />
    <glyph glyph-name="icircumflex.sc" horiz-adv-x="299" 
d="M50 0l91 649h100l-91 -649h-100zM169 830h87l86 -132h-78l-56 97l-82 -97h-77z" />
    <glyph glyph-name="idieresis.sc" horiz-adv-x="299" 
d="M50 0l91 649h100l-91 -649h-100zM130 817q40 0 40 -32q0 -51 -51 -51q-41 0 -41 32q0 24 14 37.5t38 13.5zM295 817q40 0 40 -32q0 -51 -51 -51q-42 0 -42 32q0 24 14 37.5t39 13.5z" />
    <glyph glyph-name="eth.sc" horiz-adv-x="678" 
d="M136 649h241q133 0 195 -56t62 -175q0 -46 -7 -92q-24 -171 -106.5 -248.5t-233.5 -77.5h-242l43 308h-78l9 65h78zM221 569l-27 -196h131l-9 -65h-131l-32 -228h143q105 0 157.5 53t72.5 194q7 56 7 84q0 87 -40 122.5t-129 35.5h-143z" />
    <glyph glyph-name="ntilde.sc" horiz-adv-x="699" 
d="M561 0h-78l-288 506l-2 -1q-2 -30 -4 -41l-64 -464h-87l91 649h87l280 -491l2 1q0 14 4 40l63 450h87zM468 712q-32 0 -65.5 30t-49.5 30q-29 0 -44 -52h-56q11 48 38 75.5t65 27.5q32 0 66 -30t50 -30q27 0 44 52h56q-11 -48 -38.5 -75.5t-65.5 -27.5z" />
    <glyph glyph-name="ograve.sc" horiz-adv-x="666" 
d="M375 659q130 0 189 -55.5t59 -176.5q0 -42 -8 -103q-25 -178 -102.5 -256.5t-231.5 -78.5q-130 0 -189.5 56t-59.5 178q0 42 8 101q25 177 103 256t232 79zM364 581q-103 0 -152.5 -55t-70.5 -202q-8 -59 -8 -98q0 -88 37.5 -124t122.5 -36q102 0 150.5 56t69.5 202
q8 62 8 101q0 87 -36.5 121.5t-120.5 34.5zM440 698h-74l-100 132h113z" />
    <glyph glyph-name="oacute.sc" horiz-adv-x="666" 
d="M375 659q130 0 189 -55.5t59 -176.5q0 -42 -8 -103q-25 -178 -102.5 -256.5t-231.5 -78.5q-130 0 -189.5 56t-59.5 178q0 42 8 101q25 177 103 256t232 79zM364 581q-103 0 -152.5 -55t-70.5 -202q-8 -59 -8 -98q0 -88 37.5 -124t122.5 -36q102 0 150.5 56t69.5 202
q8 62 8 101q0 87 -36.5 121.5t-120.5 34.5zM441 830h123l-156 -132h-83z" />
    <glyph glyph-name="ocircumflex.sc" horiz-adv-x="666" 
d="M375 659q130 0 189 -55.5t59 -176.5q0 -42 -8 -103q-25 -178 -102.5 -256.5t-231.5 -78.5q-130 0 -189.5 56t-59.5 178q0 42 8 101q25 177 103 256t232 79zM364 581q-103 0 -152.5 -55t-70.5 -202q-8 -59 -8 -98q0 -88 37.5 -124t122.5 -36q102 0 150.5 56t69.5 202
q8 62 8 101q0 87 -36.5 121.5t-120.5 34.5zM360 830h87l86 -132h-78l-56 97l-82 -97h-77z" />
    <glyph glyph-name="otilde.sc" horiz-adv-x="666" 
d="M375 659q130 0 189 -55.5t59 -176.5q0 -42 -8 -103q-25 -178 -102.5 -256.5t-231.5 -78.5q-130 0 -189.5 56t-59.5 178q0 42 8 101q25 177 103 256t232 79zM364 581q-103 0 -152.5 -55t-70.5 -202q-8 -59 -8 -98q0 -88 37.5 -124t122.5 -36q102 0 150.5 56t69.5 202
q8 62 8 101q0 87 -36.5 121.5t-120.5 34.5zM452 712q-32 0 -65.5 30t-49.5 30q-29 0 -44 -52h-56q11 48 38 75.5t65 27.5q32 0 66 -30t50 -30q27 0 44 52h56q-11 -48 -38.5 -75.5t-65.5 -27.5z" />
    <glyph glyph-name="odieresis.sc" horiz-adv-x="666" 
d="M375 659q130 0 189 -55.5t59 -176.5q0 -42 -8 -103q-25 -178 -102.5 -256.5t-231.5 -78.5q-130 0 -189.5 56t-59.5 178q0 42 8 101q25 177 103 256t232 79zM364 581q-103 0 -152.5 -55t-70.5 -202q-8 -59 -8 -98q0 -88 37.5 -124t122.5 -36q102 0 150.5 56t69.5 202
q8 62 8 101q0 87 -36.5 121.5t-120.5 34.5zM319 817q40 0 40 -32q0 -51 -51 -51q-41 0 -41 32q0 24 14 37.5t38 13.5zM484 817q40 0 40 -32q0 -51 -51 -51q-42 0 -42 32q0 24 14 37.5t39 13.5z" />
    <glyph glyph-name="oslash.sc" horiz-adv-x="666" 
d="M34 -15l-39 40l62 66q-25 50 -25 130q0 42 8 103q25 177 103 256t232 79q131 0 188 -56l63 63l39 -40l-67 -69q25 -50 25 -132q0 -42 -8 -101q-25 -178 -102.5 -256.5t-231.5 -78.5q-131 0 -190 56zM513 324q8 61 8 98q0 34 -5 67l-360 -369q35 -53 136 -53q102 0 151 56
t70 201zM141 324q-8 -59 -8 -97q0 -36 5 -66l359 369q-35 50 -133 50q-103 0 -152.5 -55t-70.5 -201z" />
    <glyph glyph-name="ugrave.sc" horiz-adv-x="685" 
d="M649 649l-57 -406q-36 -255 -301 -255q-233 0 -233 197q0 30 4 58l57 406h97l-57 -407q-3 -24 -3 -44q0 -130 146 -130q86 0 132.5 42.5t59.5 131.5l57 407h98zM443 698h-74l-100 132h113z" />
    <glyph glyph-name="uacute.sc" horiz-adv-x="685" 
d="M649 649l-57 -406q-36 -255 -301 -255q-233 0 -233 197q0 30 4 58l57 406h97l-57 -407q-3 -24 -3 -44q0 -130 146 -130q86 0 132.5 42.5t59.5 131.5l57 407h98zM439 830h123l-156 -132h-83z" />
    <glyph glyph-name="ucircumflex.sc" horiz-adv-x="685" 
d="M649 649l-57 -406q-36 -255 -301 -255q-233 0 -233 197q0 30 4 58l57 406h97l-57 -407q-3 -24 -3 -44q0 -130 146 -130q86 0 132.5 42.5t59.5 131.5l57 407h98zM360 830h87l86 -132h-78l-56 97l-82 -97h-77z" />
    <glyph glyph-name="udieresis.sc" horiz-adv-x="685" 
d="M649 649l-57 -406q-36 -255 -301 -255q-233 0 -233 197q0 30 4 58l57 406h97l-57 -407q-3 -24 -3 -44q0 -130 146 -130q86 0 132.5 42.5t59.5 131.5l57 407h98zM322 817q40 0 40 -32q0 -51 -51 -51q-41 0 -41 32q0 24 14 37.5t38 13.5zM487 817q40 0 40 -32
q0 -51 -51 -51q-42 0 -42 32q0 24 14 37.5t39 13.5z" />
    <glyph glyph-name="yacute.sc" horiz-adv-x="629" 
d="M63 649h113l119 -313q9 -23 13 -38h2q8 14 21 34l207 317h110l-300 -427l-31 -222h-102l31 222zM412 830h123l-156 -132h-83z" />
    <glyph glyph-name="thorn.sc" horiz-adv-x="605" 
d="M210 536h118q122 0 177.5 -38t55.5 -120q0 -123 -70.5 -186t-219.5 -63h-118l-18 -129h-97l91 649h97zM199 461l-36 -260h118q86 0 126 28t50 103q3 18 3 33q0 52 -33.5 74t-109.5 22h-118z" />
    <glyph glyph-name="ydieresis.sc" horiz-adv-x="629" 
d="M63 649h113l119 -313q9 -23 13 -38h2q8 14 21 34l207 317h110l-300 -427l-31 -222h-102l31 222zM295 817q40 0 40 -32q0 -51 -51 -51q-41 0 -41 32q0 24 14 37.5t38 13.5zM460 817q40 0 40 -32q0 -51 -51 -51q-42 0 -42 32q0 24 14 37.5t39 13.5z" />
    <glyph glyph-name="dotlessi.sc" horiz-adv-x="299" 
d="M50 0l91 649h100l-91 -649h-100z" />
    <glyph glyph-name="ij.sc" horiz-adv-x="756" 
d="M719 649l-62 -439q-31 -222 -239 -222q-86 0 -133 38l19 77q42 -36 107 -36q127 0 147 142l62 440h99zM50 0l91 649h100l-91 -649h-100z" />
    <glyph glyph-name="lslash.sc" horiz-adv-x="551" 
d="M166 80h322l-14 -80h-416l39 276l-78 -32l5 74l83 34l42 297h97l-37 -259l212 95l-4 -76l-219 -97z" />
    <glyph glyph-name="oe.sc" horiz-adv-x="994" 
d="M901 0h-431l6 42q1 16 7 41l-2 1q-76 -95 -220 -95q-118 0 -173.5 56t-55.5 176q0 42 8 103q25 176 100 255.5t216 79.5q146 0 194 -87l2 1q0 19 3 38l6 38h415l-8 -79h-329l-28 -197h280l-10 -71h-280l-32 -224h344zM508 324q8 52 8 102q0 86 -36 120t-118 34
q-103 0 -151.5 -54.5t-69.5 -201.5q-8 -61 -8 -99q0 -87 37 -122.5t120 -35.5q101 0 149 55.5t69 201.5z" />
    <glyph glyph-name="scaron.sc" horiz-adv-x="534" 
d="M326 659q108 0 179 -36l-23 -74q-83 33 -163 33q-75 0 -114 -32t-39 -79q0 -33 31 -55t76 -36t89.5 -30.5t75.5 -51t31 -86.5q0 -101 -73 -162t-193 -61q-117 0 -197 50l26 77q80 -51 182 -51q73 0 116.5 34t43.5 92q0 30 -22.5 51.5t-56 33l-73 26t-73 30t-56 46.5
t-22.5 73q0 90 66.5 149t188.5 59zM379 698h-87l-86 132h79l55 -97l82 97h79z" />
    <glyph glyph-name="zcaron.sc" horiz-adv-x="579" 
d="M476 0h-478l8 59l409 480q13 17 27 29l-1 2h-352l15 79h463l-10 -67l-401 -473q-18 -20 -27 -28l1 -2h359zM383 698h-87l-86 132h79l55 -97l82 97h79z" />
    <glyph glyph-name="longs.sc" horiz-adv-x="534" 
d="M326 659q108 0 179 -36l-23 -74q-83 33 -163 33q-75 0 -114 -32t-39 -79q0 -33 31 -55t76 -36t89.5 -30.5t75.5 -51t31 -86.5q0 -101 -73 -162t-193 -61q-117 0 -197 50l26 77q80 -51 182 -51q73 0 116.5 34t43.5 92q0 30 -22.5 51.5t-56 33l-73 26t-73 30t-56 46.5
t-22.5 73q0 90 66.5 149t188.5 59z" />
    <glyph glyph-name="circumflex.sc" horiz-adv-x="390" 
d="M217 830h87l86 -132h-78l-56 97l-82 -97h-77z" />
    <glyph glyph-name="caron.sc" horiz-adv-x="390" 
d="M288 698h-87l-86 132h79l55 -97l82 97h79z" />
    <glyph glyph-name="breve.sc" horiz-adv-x="390" 
d="M333 830h70q-19 -136 -161 -136q-126 0 -126 106q0 18 2 30h69q-2 -16 -2 -23q0 -67 64 -67q33 0 55.5 23t28.5 67z" />
    <glyph glyph-name="dotaccent.sc" horiz-adv-x="379" 
d="M255 822q52 0 52 -37q0 -53 -65 -53q-52 0 -52 35q0 55 65 55z" />
    <glyph glyph-name="ring.sc" horiz-adv-x="390" 
d="M262 828q47 0 71.5 -19t24.5 -51q0 -45 -31.5 -70.5t-87.5 -25.5q-97 0 -97 69q0 43 31 70t89 27zM258 788q-30 0 -46 -14t-16 -36q0 -36 50 -36q28 0 44 13.5t16 36.5q0 36 -48 36z" />
    <glyph glyph-name="ogonek.sc" horiz-adv-x="387" 
d="M184 18l35 -18q-33 0 -57 -26.5t-24 -55.5q0 -41 54 -41q32 0 60 14l2 -50q-46 -24 -98 -24q-48 0 -73 19.5t-25 52.5q0 47 36 82.5t90 46.5z" />
    <glyph glyph-name="tilde.sc" horiz-adv-x="395" 
d="M314 712q-32 0 -65.5 30t-49.5 30q-29 0 -44 -52h-56q11 48 38 75.5t65 27.5q32 0 66 -30t50 -30q27 0 44 52h56q-11 -48 -38.5 -75.5t-65.5 -27.5z" />
    <glyph glyph-name="hungarumlaut.sc" horiz-adv-x="396" 
d="M231 834h103l-131 -132h-65zM391 834h104l-138 -132h-73z" />
    <glyph glyph-name="fi.sc" horiz-adv-x="854" 
d="M548 569h-334l-28 -203h292l-11 -76h-292l-40 -290h-97l91 649h428zM605 0l91 649h100l-91 -649h-100z" />
    <glyph glyph-name="fl.sc" horiz-adv-x="1086" 
d="M548 569h-334l-28 -203h292l-11 -76h-292l-40 -290h-97l91 649h428zM701 80h322l-14 -80h-416l91 649h97z" />
    <glyph glyph-name="parenleft.case" horiz-adv-x="333" 
d="M319 838l79 -5q-103 -118 -160.5 -266t-57.5 -310q0 -191 88 -342l-79 -5q-101 138 -101 349q0 338 231 579z" />
    <glyph glyph-name="parenright.case" horiz-adv-x="333" 
d="M70 833l78 5q102 -148 102 -344q0 -169 -63.5 -324t-168.5 -260l-75 5q99 118 156.5 266.5t57.5 312.5q0 188 -87 339z" />
    <glyph glyph-name="hyphen.case" horiz-adv-x="405" 
d="M78 415h266l-10 -67h-266z" />
    <glyph glyph-name="bracketleft.case" horiz-adv-x="328" 
d="M31 -87l130 923h231l-9 -66h-143l-112 -792h143l-9 -65h-231z" />
    <glyph glyph-name="bracketright.case" horiz-adv-x="328" 
d="M301 836l-130 -923h-230l9 65h143l112 792h-144l9 66h231z" />
    <glyph glyph-name="grave.case" horiz-adv-x="399" 
d="M340 796h-81l-103 116h120z" />
    <glyph glyph-name="braceleft.case" horiz-adv-x="371" 
d="M271 480q-11 -74 -77 -102v-2q49 -24 49 -84q0 -12 -1 -18q-6 -42 -22 -106t-21 -101q-1 -7 -1 -19q0 -65 87 -65h30l-10 -69h-25q-92 0 -133 28.5t-41 85.5q0 7 2 27q6 41 25 111t24 109q0 2 0.5 6.5t0.5 6.5q0 28 -17 46t-47 22l5 41q35 5 59 27t28 55q5 37 6 107
t7 112q10 71 59.5 106.5t152.5 35.5h25l-10 -70h-30q-99 0 -110 -83q-6 -39 -8 -103t-7 -104z" />
    <glyph glyph-name="braceright.case" horiz-adv-x="371" 
d="M105 274q10 74 76 102v2q-49 23 -49 81q0 7 2 21q6 41 22.5 105t21.5 102q1 6 1 18q0 65 -88 65h-30l10 70h25q174 0 174 -115q0 -9 -2 -27q-6 -40 -24.5 -109.5t-24.5 -109.5q-1 -7 -1 -13q0 -28 17.5 -46.5t47.5 -22.5l-5 -41q-35 -4 -59.5 -26t-28.5 -55
q-6 -39 -7 -109t-6 -111q-10 -70 -60 -105.5t-152 -35.5h-24l9 69h30q98 0 111 84q6 39 7.5 103t6.5 104z" />
    <glyph glyph-name="dieresis.case" horiz-adv-x="399" 
d="M180 892q41 0 41 -35q0 -54 -54 -54q-40 0 -40 32q0 57 53 57zM373 892q41 0 41 -35q0 -54 -54 -54q-41 0 -41 32q0 57 54 57z" />
    <glyph glyph-name="guillemotleft.case" horiz-adv-x="626" 
d="M561 496l-212 -123l178 -122l-10 -73l-266 191l2 9l318 191zM341 496l-212 -123l178 -122l-10 -73l-266 191l2 9l316 191z" />
    <glyph glyph-name="uni00AD.case" horiz-adv-x="405" 
d="M78 415h266l-10 -67h-266z" />
    <glyph glyph-name="macron.case" horiz-adv-x="399" 
d="M413 866l-7 -50h-285l7 50h285z" />
    <glyph glyph-name="acute.case" horiz-adv-x="399" 
d="M284 912h130l-146 -116h-81z" />
    <glyph glyph-name="guillemotright.case" horiz-adv-x="626" 
d="M266 178l10 73l211 122l-177 123l10 73l266 -191l-2 -9zM46 178l10 73l211 122l-177 123l10 73l266 -191l-2 -9z" />
    <glyph glyph-name="circumflex.case" horiz-adv-x="399" 
d="M224 913h103l99 -117h-91l-63 80l-87 -80h-90z" />
    <glyph glyph-name="caron.case" horiz-adv-x="399" 
d="M311 796h-102l-97 117h90l63 -81l88 81h90z" />
    <glyph glyph-name="breve.case" horiz-adv-x="399" 
d="M361 914h73q-17 -122 -172 -122q-142 0 -142 99q0 7 2 23h73q-1 -5 -1 -13q0 -58 75 -58q82 0 92 71z" />
    <glyph glyph-name="dotaccent.case" horiz-adv-x="399" 
d="M275 893q57 0 57 -37q0 -55 -70 -55q-31 0 -44.5 8t-13.5 27q0 57 71 57z" />
    <glyph glyph-name="ring.case" horiz-adv-x="399" 
d="M272 895q92 0 92 -67q0 -45 -29.5 -69.5t-84.5 -24.5q-89 0 -89 64q0 44 28 70.5t83 26.5zM268 852q-55 0 -55 -49q0 -29 44 -29q54 0 54 45q0 33 -43 33z" />
    <glyph glyph-name="ogonek.case" horiz-adv-x="399" 
d="M193 20l40 -20q-32 0 -56.5 -26.5t-24.5 -55.5q0 -42 54 -42q33 0 60 15l2 -50q-46 -24 -97 -24q-48 0 -73 19.5t-25 54.5q0 46 33.5 82t86.5 47z" />
    <glyph glyph-name="tilde.case" horiz-adv-x="399" 
d="M162 798h-48q10 47 36.5 75.5t65.5 28.5q25 0 47.5 -16t41 -31.5t32.5 -15.5q31 0 45 49h46q-10 -48 -36 -76t-65 -28q-24 0 -47 15.5t-41.5 31t-32.5 15.5q-27 0 -44 -48z" />
    <glyph glyph-name="hungarumlaut.case" horiz-adv-x="399" 
d="M196 914h106l-117 -118h-65zM360 914h108l-136 -118h-74z" />
    <glyph glyph-name="endash.case" horiz-adv-x="531" 
d="M78 415h392l-10 -67h-392z" />
    <glyph glyph-name="emdash.case" horiz-adv-x="707" 
d="M78 415h569l-10 -67h-569z" />
    <glyph glyph-name="guilsinglleft.case" horiz-adv-x="405" 
d="M355 490l-212 -123l178 -122l-10 -73l-265 191l1 9l319 191z" />
    <glyph glyph-name="guilsinglright.case" horiz-adv-x="405" 
d="M42 172l10 73l211 122l-177 123l11 73l265 -191l-1 -9z" />
    <glyph glyph-name="zero.zero" horiz-adv-x="650" 
d="M331 423q36 0 36 -38q0 -61 -50 -61q-37 0 -37 34q0 65 51 65zM595 374q-29 -207 -104.5 -296t-217.5 -89q-117 0 -171 58t-54 189q0 56 11 138q30 212 104 298.5t219 86.5q117 0 170.5 -56.5t53.5 -187.5q0 -58 -11 -141zM496 375q12 81 12 137q0 94 -33 130t-104 36
q-62 0 -100.5 -24.5t-67 -91t-45.5 -187.5q-12 -82 -12 -138q0 -95 33.5 -131.5t104.5 -36.5q61 0 99.5 24.5t67 92t45.5 189.5z" />
    <glyph glyph-name="zero.osf.zero" horiz-adv-x="626" 
d="M353 638q113 0 166.5 -53t53.5 -169q0 -43 -8 -104q-23 -169 -95.5 -245.5t-208.5 -76.5q-114 0 -167.5 53.5t-53.5 168.5q0 41 8 100q25 173 96.5 249.5t208.5 76.5zM340 553q-88 0 -133.5 -52t-65.5 -188q-7 -48 -7 -90q0 -83 33.5 -116.5t105.5 -33.5q88 0 133.5 52
t64.5 188q8 56 8 92q0 81 -33.5 114.5t-105.5 33.5zM314 364q36 0 36 -38q0 -61 -50 -61q-37 0 -37 34q0 65 51 65z" />
    <glyph glyph-name="zero.lf.zero" horiz-adv-x="634" 
d="M322 423q36 0 36 -38q0 -61 -50 -61q-37 0 -37 34q0 65 51 65zM374 759q117 0 170.5 -56.5t53.5 -187.5q0 -58 -11 -141q-29 -207 -104.5 -296t-217.5 -89q-117 0 -171 58t-54 189q0 56 11 138q30 212 104 298.5t219 86.5zM363 678q-62 0 -100.5 -24.5t-67 -91
t-45.5 -187.5q-12 -82 -12 -138q0 -95 33.5 -131.5t105.5 -36.5q91 0 138.5 64t72.5 242q12 81 12 137q0 94 -33 130t-104 36z" />
    <glyph glyph-name="zero.tosf.zero" 
d="M298 362q36 0 36 -38q0 -61 -50 -61q-37 0 -37 34q0 65 51 65zM339 638q113 0 166 -52.5t53 -168.5q0 -43 -8 -105q-24 -169 -95.5 -245.5t-207.5 -76.5q-115 0 -168.5 53.5t-53.5 168.5q0 41 8 100q25 173 97 249.5t209 76.5zM328 559q-87 0 -132.5 -53.5t-65.5 -192.5
q-7 -50 -7 -94q0 -85 33 -118.5t103 -33.5q86 0 130.5 53t63.5 193q8 59 8 97q0 83 -32 116t-101 33z" />
    <glyph glyph-name="orn001" horiz-adv-x="716" 
d="M365 -13q-34 0 -67 30t-67.5 80t-39.5 55q-51 56 -90.5 149t-39.5 191q0 123 71.5 198t232.5 75q159 0 232 -73.5t73 -193.5q0 -100 -39.5 -195.5t-90.5 -150.5q-6 -7 -40.5 -56t-67.5 -79t-67 -30zM366 34q24 0 50.5 26.5t53 64.5t35.5 47q42 45 77 124.5t35 161.5
q0 55 -53.5 77t-196.5 22q-147 0 -199.5 -21.5t-52.5 -77.5q0 -82 35.5 -161.5t77.5 -124.5q7 -7 34 -46.5t53.5 -65.5t50.5 -26zM465 206q-47 11 -97 11t-99 -11q-35 38 -49 92q71 -23 146 -23q76 0 145 23q-13 -58 -46 -92zM349 377l-23 -34q-84 11 -140 38q0 59 28 82
q42 -48 135 -86zM408 343l-23 34q94 39 136 86q26 -25 26 -82q-53 -27 -139 -38z" />
    </font>
</defs>
</svg>
