<?xml version="1.0" standalone="no"?>
<!DOCTYPE svg PUBLIC "-//W3C//DTD SVG 1.1//EN" "http://www.w3.org/Graphics/SVG/1.1/DTD/svg11.dtd" >
<svg>
<metadata>
Created by FontForge 20090622 at Sun Dec 27 16:58:54 2015
 By deploy user
2008 Lukasz Dziedzic published by FSI FontShop International GmbH
</metadata>
<defs>
<font id="ClanOT-BoldItalic" horiz-adv-x="603" >
  <font-face 
    font-family="ClanOT-BoldItalic"
    font-weight="700"
    font-style="italic"
    font-stretch="normal"
    units-per-em="1000"
    panose-1="2 11 8 4 3 1 1 2 1 2"
    ascent="787"
    descent="-213"
    x-height="605"
    cap-height="750"
    bbox="-180 -237 1224 950"
    underline-thickness="70"
    underline-position="-30"
    slope="-8"
    unicode-range="U+000D-U+FB02"
  />
<missing-glyph horiz-adv-x="621" 
d="M8 0v750h605v-750h-605zM99 91h423v568h-423v-568z" />
    <glyph glyph-name="f_i" unicode="fi" horiz-adv-x="662" 
d="M35 488l20 109h67q16 110 85.5 160t227.5 50l-5 -113q-80 0 -110 -18.5t-39 -78.5h187q61 0 162 11l-85 -608h-160l68 488h-187l-68 -488h-159l68 488h-72zM578 804q82 0 82 -53q0 -77 -100 -77q-42 0 -62 12t-20 40q0 78 100 78z" />
    <glyph glyph-name="f_j" unicode="fj" horiz-adv-x="662" 
d="M557 90q-18 -127 -92.5 -185.5t-199.5 -66.5l4 109q62 8 89.5 37.5t38.5 104.5l55 388h-187l-67 -477h-159l67 477h-72l21 120h67q16 110 85.5 160t227.5 50l-6 -117q-79 0 -109.5 -18.5t-38.5 -74.5h187q61 0 162 11zM572 804q82 0 82 -53q0 -77 -100 -77q-42 0 -62 12
t-20 40q0 78 100 78z" />
    <glyph glyph-name="f_l" unicode="fl" horiz-adv-x="639" 
d="M35 488l20 109h67q16 108 91 158t234 50q89 0 189 -17l-110 -788h-160l97 697q-8 1 -28 1q-81 0 -113 -22.5t-41 -78.5h116l-19 -109h-112l-68 -488h-159l68 488h-72z" />
    <glyph glyph-name=".notdef" horiz-adv-x="621" 
d="M8 0v750h605v-750h-605zM99 91h423v568h-423v-568z" />
    <glyph glyph-name=".null" horiz-adv-x="0" 
 />
    <glyph glyph-name=".null" horiz-adv-x="0" 
 />
    <glyph glyph-name="nonmarkingreturn" horiz-adv-x="333" 
 />
    <glyph glyph-name="CR" unicode="&#xd;" horiz-adv-x="268" 
 />
    <glyph glyph-name="space" unicode=" " horiz-adv-x="268" 
 />
    <glyph glyph-name="exclam" unicode="!" horiz-adv-x="304" 
d="M194 216h-125l51 534h173zM124 140q78 0 78 -60q0 -43 -24.5 -67.5t-74.5 -24.5q-42 0 -61 14t-19 45q0 44 25.5 68.5t75.5 24.5z" />
    <glyph glyph-name="quotedbl" unicode="&#x22;" horiz-adv-x="416" 
d="M291 767h153l-66 -270h-103zM86 767h153l-66 -270h-103z" />
    <glyph glyph-name="numbersign" unicode="#" horiz-adv-x="641" 
d="M46 302h92l41 144h-113l16 113h126l51 191h127l-51 -191h83l51 191h125l-52 -191h76l-16 -113h-89l-39 -144h108l-16 -111h-121l-50 -191h-124l50 191h-85l-50 -191h-127l50 191h-79zM306 446l-41 -144h84l40 144h-83z" />
    <glyph glyph-name="dollar" unicode="$" horiz-adv-x="641" 
d="M491 819l-19 -62q73 -10 114 -28l-29 -132q-55 18 -124 26l-52 -181q37 -14 63.5 -28t53.5 -36t41 -54t14 -72q0 -131 -79.5 -197.5t-224.5 -68.5l-25 -68l-87 8l18 65q-104 13 -157 45l39 137q72 -41 154 -54l58 202q-41 16 -68 29.5t-56.5 36.5t-44.5 54.5t-15 71.5
q0 114 82 179.5t228 69.5l20 65zM322 293l-50 -180q137 2 137 96q0 28 -22.5 47t-64.5 37zM348 629q-65 -1 -97 -25.5t-32 -61.5q0 -24 22 -41t64 -32z" />
    <glyph glyph-name="percent" unicode="%" horiz-adv-x="741" 
d="M243 759q68 0 101.5 -30t33.5 -97q0 -110 -49.5 -166t-135.5 -56q-135 0 -135 127q0 14 4 48q13 91 56 132.5t125 41.5zM231 671q-66 0 -66 -122q0 -27 10 -38t32 -11q65 0 65 121q0 28 -10 39t-31 11zM574 717l81 -68l-497 -623l-81 68zM552 342q68 0 101.5 -31
t33.5 -99q0 -110 -49.5 -166t-135.5 -56q-136 0 -136 128q0 13 4 47q13 91 56.5 134t125.5 43zM539 251q-65 0 -65 -123q0 -27 10 -37.5t32 -10.5q65 0 65 121q0 28 -10 39t-32 11z" />
    <glyph glyph-name="ampersand" unicode="&#x26;" horiz-adv-x="721" 
d="M371 762q86 0 138 -36t52 -96q0 -30 -13 -58.5t-29 -49t-49.5 -47t-52.5 -39.5l-61 -40q47 -63 114 -126q43 61 67 128h136q-24 -103 -105 -207q63 -43 113 -65l-77 -135q-68 33 -142 90q-119 -94 -259 -94q-104 0 -153 48.5t-49 124.5q0 83 45 144t122 114
q-41 80 -41 142q0 87 62.5 144.5t181.5 57.5zM369 161q-74 71 -132 149q-67 -62 -67 -126q0 -33 20.5 -50t56.5 -17q60 0 122 44zM352 650q-32 0 -54 -21.5t-22 -59.5q0 -30 19 -73q52 31 78.5 57t26.5 56q0 20 -13.5 30.5t-34.5 10.5z" />
    <glyph glyph-name="quotesingle" unicode="'" horiz-adv-x="229" 
d="M95 767h153l-66 -270h-103z" />
    <glyph glyph-name="parenleft" unicode="(" horiz-adv-x="359" 
d="M299 790l117 -10q-96 -118 -148.5 -271.5t-52.5 -310.5q0 -185 73 -324l-120 -10q-104 134 -104 346q0 172 61.5 322t173.5 258z" />
    <glyph glyph-name="parenright" unicode=")" horiz-adv-x="359" 
d="M62 780l121 10q104 -140 104 -343q0 -169 -62.5 -324t-172.5 -259l-116 10q95 118 147 272.5t52 314.5q0 182 -73 319z" />
    <glyph glyph-name="asterisk" unicode="*" horiz-adv-x="378" 
d="M214 784h73l-3 -104l102 25l16 -71l-103 -42l44 -89l-62 -43l-63 81l-90 -82l-53 41l70 92l-90 42l37 71l95 -25z" />
    <glyph glyph-name="plus" unicode="+" 
d="M540 268h-171v-170h-140v170h-169v136h169v171h140v-171h171v-136z" />
    <glyph glyph-name="comma" unicode="," horiz-adv-x="266" 
d="M103 154q38 0 58.5 -20t20.5 -57q0 -52 -40 -112.5t-99 -108.5l-45 31q33 50 57 103q-53 3 -53 59q0 47 27 76t74 29z" />
    <glyph glyph-name="hyphen" unicode="-" horiz-adv-x="390" 
d="M56 395h288l-15 -107h-288z" />
    <glyph glyph-name="period" unicode="." horiz-adv-x="271" 
d="M107 156q81 0 81 -67q0 -47 -26.5 -74t-77.5 -27q-42 0 -62 14.5t-20 47.5q0 106 105 106z" />
    <glyph glyph-name="slash" unicode="/" horiz-adv-x="463" 
d="M391 785h137l-470 -907h-132z" />
    <glyph glyph-name="zero" unicode="0" horiz-adv-x="641" 
d="M602 372q-28 -201 -108 -291.5t-227 -90.5q-121 0 -177 60t-56 191q0 61 10 131q30 211 106.5 299t226.5 88q122 0 179 -58.5t57 -192.5q0 -56 -11 -136zM437 374q11 74 11 132q0 71 -21 96t-68 25q-42 0 -68.5 -19t-47.5 -74.5t-36 -159.5q-11 -76 -11 -132
q0 -72 21.5 -97.5t69.5 -25.5q42 0 67.5 18.5t46.5 75t36 161.5z" />
    <glyph glyph-name="one" unicode="1" horiz-adv-x="641" 
d="M111 0l15 109h111l56 403q4 26 8 40l-2 2l-35 -21l-110 -59v134l244 143h101l-90 -642h107l-15 -109h-390z" />
    <glyph glyph-name="two" unicode="2" horiz-adv-x="641" 
d="M376 759q113 0 172 -48t59 -133q0 -57 -24 -110.5t-77.5 -110t-109.5 -104t-149 -116.5v-3h298l-21 -134h-500l14 104l86.5 75l85 73.5l69.5 63t64 64.5l44 55.5t33 57t9 50.5q0 78 -104 78q-85 0 -190 -67l-22 126q120 79 263 79z" />
    <glyph glyph-name="three" unicode="3" horiz-adv-x="641" 
d="M361 759q114 0 176 -46t62 -128q0 -136 -128 -191v-2q99 -37 99 -136q0 -122 -86 -193.5t-242 -71.5q-129 0 -219 57l48 121q87 -49 184 -49q71 0 111 35t40 93q0 43 -41 64t-143 21l16 113q112 0 157 27.5t45 84.5q0 68 -109 68q-102 0 -199 -66l-22 120q112 79 251 79z
" />
    <glyph glyph-name="four" unicode="4" horiz-adv-x="641" 
d="M578 145h-72l-20 -145h-155l20 145h-331v99l370 506h201l-67 -476h76zM374 274l48 285q4 26 8 40l-2 1q-9 -16 -22 -35l-184 -258q-4 -6 -24 -31l1 -2h175z" />
    <glyph glyph-name="five" unicode="5" horiz-adv-x="641" 
d="M597 750l-13 -139h-303l-31 -145q53 11 108 11q106 0 161 -44.5t55 -131.5q0 -21 -3 -43q-38 -267 -319 -267q-133 0 -223 57l47 122q88 -50 178 -50q150 0 150 147q0 82 -114 82q-80 0 -154 -27l-51 61l83 367h429z" />
    <glyph glyph-name="six" unicode="6" horiz-adv-x="641" 
d="M376 487q209 0 209 -173q0 -15 -4 -51q-16 -136 -95.5 -204t-208.5 -68q-121 0 -181.5 60t-60.5 194q0 51 9 112q28 198 126.5 300t261.5 102q103 0 172 -29l-30 -128q-65 24 -140 24q-89 0 -139.5 -44t-73.5 -135l1 -1q73 41 154 41zM327 369q-28 0 -63.5 -14t-55.5 -36
q-6 -48 -6 -82q0 -64 22 -90.5t70 -26.5q104 0 124 145q2 20 2 28q0 40 -22 58t-71 18z" />
    <glyph glyph-name="seven" unicode="7" horiz-adv-x="641" 
d="M650 749l-19 -133l-366 -616h-189l368 568q10 16 23 32l-1 2h-385l29 147h540z" />
    <glyph glyph-name="eight" unicode="8" horiz-adv-x="641" 
d="M378 759q225 0 225 -163q0 -127 -110 -197v-2q88 -48 88 -142q0 -129 -82.5 -196.5t-228.5 -67.5q-250 0 -250 182q0 148 133 219v2q-58 46 -58 129q0 110 72.5 173t210.5 63zM274 331q-92 -54 -92 -138q0 -42 26 -61t83 -19q55 0 90 26t35 81q0 39 -31 60.5t-111 50.5z
M360 640q-51 0 -79.5 -25t-28.5 -75q0 -37 30 -57.5t90 -38.5q80 48 80 123q0 73 -92 73z" />
    <glyph glyph-name="nine" unicode="9" horiz-adv-x="641" 
d="M366 759q118 0 180 -65.5t62 -195.5q0 -46 -7 -92q-31 -217 -124 -316t-255 -99q-109 0 -186 35l42 126q68 -30 148 -30q84 0 130 46t69 149l-2 2q-64 -39 -153 -39q-104 0 -156.5 49t-52.5 136q0 136 80.5 215t224.5 79zM441 456q4 27 4 55q0 63 -25.5 90.5t-74.5 27.5
q-57 0 -89.5 -36t-32.5 -107q0 -83 96 -83q82 0 122 53z" />
    <glyph glyph-name="colon" unicode=":" horiz-adv-x="271" 
d="M166 570q80 0 80 -66q0 -48 -26.5 -75t-77.5 -27q-42 0 -62 14.5t-20 47.5q0 106 106 106zM107 156q81 0 81 -67q0 -47 -26.5 -74t-77.5 -27q-42 0 -62 14.5t-20 47.5q0 106 105 106z" />
    <glyph glyph-name="semicolon" unicode=";" horiz-adv-x="273" 
d="M168 570q80 0 80 -66q0 -48 -26.5 -75t-77.5 -27q-42 0 -62 14.5t-20 47.5q0 106 106 106zM107 154q38 0 58.5 -20t20.5 -57q0 -52 -40 -112.5t-99 -108.5l-45 31q33 50 57 103q-53 3 -53 59q0 47 27 76t74 29z" />
    <glyph glyph-name="less" unicode="&#x3c;" 
d="M516 449l-208 -101q-22 -11 -37 -16v-2q7 -2 20 -8.5l17 -8.5l208 -101v-142l-431 224v75l431 228v-148z" />
    <glyph glyph-name="equal" unicode="=" 
d="M527 371h-454v116h454v-116zM527 169h-454v116h454v-116z" />
    <glyph glyph-name="greater" unicode="&#x3e;" 
d="M85 70v142l207 101l15 7q15 8 22 10v2q-20 7 -37 16l-207 101v148l431 -228v-75z" />
    <glyph glyph-name="question" unicode="?" horiz-adv-x="509" 
d="M302 760q104 0 157 -41.5t53 -115.5q0 -169 -205 -270l-22 -116h-125l15 169q85 45 127 84t42 90q0 62 -84 62q-85 0 -156 -56l-39 119q43 34 106.5 54.5t130.5 20.5zM211 140q78 0 78 -60q0 -43 -24.5 -67.5t-74.5 -24.5q-42 0 -61 14t-19 45q0 44 25.5 68.5t75.5 24.5z
" />
    <glyph glyph-name="at" unicode="@" horiz-adv-x="895" 
d="M484 589q58 0 86 -39l21 33l84 -6l-81 -269q-11 -35 -11 -56q0 -50 49 -50q50 0 88 51t53 155q4 28 4 60q0 113 -63.5 179.5t-188.5 66.5q-126 0 -219.5 -63.5t-138.5 -164t-45 -222.5q0 -137 75 -215t224 -78q180 0 316 100l26 -76q-149 -108 -353 -108
q-181 0 -281.5 94.5t-100.5 269.5q0 106 35 204t98 175t161.5 123t216.5 46q154 0 242 -88t88 -233q0 -29 -5 -69q-22 -153 -95 -229t-164 -76q-94 0 -119 68q-65 -68 -155 -68q-55 0 -88.5 36.5t-33.5 106.5q0 130 85 236t190 106zM475 313l43 146q-9 26 -40 26
q-49 0 -93.5 -70.5t-44.5 -149.5q0 -54 43 -54q29 0 54.5 28.5t37.5 73.5z" />
    <glyph glyph-name="A" unicode="A" horiz-adv-x="736" 
d="M488 0l-22 153h-264l-64 -153h-183l363 750h207l156 -750h-193zM402 621h-2q-1 -3 -15 -38l-128 -302h191l-41 296q-5 35 -5 44z" />
    <glyph glyph-name="B" unicode="B" horiz-adv-x="692" 
d="M431 750q110 0 166 -41.5t56 -117.5q0 -74 -34.5 -123t-91.5 -71v-2q106 -32 106 -141q0 -16 -3 -36q-31 -218 -300 -218h-310l105 750h306zM232 328l-28 -199h146q55 0 83 28.5t28 98.5q0 38 -20 55t-66 17h-143zM272 619l-25 -178h138q99 0 99 113q0 35 -19 50t-59 15
h-134z" />
    <glyph glyph-name="C" unicode="C" horiz-adv-x="597" 
d="M449 763q95 0 168 -31l-35 -134q-60 25 -142 25q-102 0 -148 -52.5t-65 -191.5q-9 -60 -9 -104q0 -84 35.5 -117t118.5 -33q81 0 149 30l-1 -128q-93 -41 -191 -41q-147 0 -219.5 70.5t-72.5 216.5q0 45 8 107q52 383 404 383z" />
    <glyph glyph-name="D" unicode="D" horiz-adv-x="733" 
d="M125 750h282q153 0 223.5 -63.5t70.5 -202.5q0 -45 -8 -106q-28 -199 -123.5 -288.5t-264.5 -89.5h-285zM278 609l-66 -468h108q61 0 95.5 18t58.5 69.5t38 150.5q8 61 8 98q0 76 -30.5 104t-103.5 28h-108z" />
    <glyph glyph-name="E" unicode="E" horiz-adv-x="619" 
d="M212 136h343l-23 -136h-512l105 750h498l-16 -138h-328l-24 -164h275l-17 -124h-275z" />
    <glyph glyph-name="F" unicode="F" horiz-adv-x="592" 
d="M605 609h-327l-25 -177h272l-19 -132h-271l-42 -300h-173l105 750h497z" />
    <glyph glyph-name="G" unicode="G" horiz-adv-x="673" 
d="M628 403l-53 -378q-93 -39 -227 -39q-163 0 -237.5 69.5t-74.5 212.5q0 45 8 106q28 199 129 294t289 95q114 0 203 -34l-36 -137q-84 33 -177 33q-111 0 -159 -52.5t-68 -197.5q-9 -60 -9 -104q0 -82 33.5 -114t112.5 -32q39 0 75 9l38 269h153z" />
    <glyph glyph-name="H" unicode="H" horiz-adv-x="742" 
d="M622 0h-173l44 314h-256l-44 -314h-173l105 750h173l-42 -297h256l42 297h173z" />
    <glyph glyph-name="I" unicode="I" horiz-adv-x="337" 
d="M30 0l105 750h177l-105 -750h-177z" />
    <glyph glyph-name="J" unicode="J" horiz-adv-x="543" 
d="M528 750l-67 -476q-22 -155 -105.5 -221t-230.5 -66q-89 0 -150 32l29 131q41 -26 113 -26q76 0 116.5 34t51.5 114l67 478h176z" />
    <glyph glyph-name="K" unicode="K" horiz-adv-x="721" 
d="M660 0h-208l-141 322h-73l-45 -322h-173l105 750h172l-42 -299h77l222 299h198l-271 -354z" />
    <glyph glyph-name="L" unicode="L" horiz-adv-x="568" 
d="M213 140h306l-23 -140h-476l105 750h174z" />
    <glyph glyph-name="M" unicode="M" horiz-adv-x="924" 
d="M125 750h191l118 -475q8 -36 9 -40h2q2 5 5 11l7 13.5l6 11.5l256 479h190l-105 -750h-158l58 418q6 38 9 48l-2 1l-245 -467h-115l-113 466h-2q-3 -33 -5 -49l-58 -417h-153z" />
    <glyph glyph-name="N" unicode="N" horiz-adv-x="747" 
d="M628 0h-122l-266 486h-2q-2 -32 -4 -42l-62 -444h-152l105 750h146l245 -462h2q0 22 3 41l59 421h153z" />
    <glyph glyph-name="O" unicode="O" horiz-adv-x="749" 
d="M709 375q-29 -205 -119.5 -297t-266.5 -92q-148 0 -217.5 67t-69.5 210q0 57 8 112q29 202 120.5 294.5t267.5 92.5q148 0 217 -66t69 -206q0 -52 -9 -115zM527 375q10 67 10 117q0 76 -28.5 104t-96.5 28q-86 0 -125.5 -51t-60.5 -198q-10 -75 -10 -113q0 -78 29.5 -108
t96.5 -30q86 0 125 51.5t60 199.5z" />
    <glyph glyph-name="P" unicode="P" horiz-adv-x="665" 
d="M125 750h270q137 0 200.5 -47.5t63.5 -147.5q0 -306 -335 -306h-97l-34 -249h-173zM278 618l-34 -243h98q66 0 95 25.5t39 95.5q3 22 3 41q0 45 -24 63t-79 18h-98z" />
    <glyph glyph-name="Q" unicode="Q" horiz-adv-x="749" 
d="M709 375q-23 -161 -82.5 -251t-167.5 -119l127 -111l-201 -46l-84 139q-136 4 -200.5 71.5t-64.5 204.5q0 57 8 112q29 202 120.5 294.5t267.5 92.5q148 0 217 -66t69 -206q0 -52 -9 -115zM527 375q10 67 10 117q0 76 -28.5 104t-96.5 28q-86 0 -125.5 -51t-60.5 -198
q-10 -75 -10 -113q0 -78 29.5 -108t96.5 -30q86 0 125 51.5t60 199.5z" />
    <glyph glyph-name="R" unicode="R" horiz-adv-x="682" 
d="M125 750h276q252 0 252 -183q0 -97 -43 -164.5t-113 -87.5l130 -315h-202l-91 284h-102l-39 -284h-173zM279 619l-30 -215h102q60 0 91 31t31 111q0 41 -21 57t-69 16h-104z" />
    <glyph glyph-name="S" unicode="S" horiz-adv-x="579" 
d="M371 763q117 0 206 -39l-38 -133q-98 32 -177 32q-67 0 -98 -24t-31 -63q0 -29 31 -49t75.5 -35.5t89 -35.5t75.5 -60t31 -98q0 -123 -88 -197.5t-228 -74.5q-129 0 -225 56l42 137q94 -55 200 -55q61 0 95 25.5t34 71.5q0 26 -22.5 45t-55.5 30.5t-72.5 28.5t-72.5 36
t-55.5 55t-22.5 85q0 112 79.5 187t227.5 75z" />
    <glyph glyph-name="T" unicode="T" horiz-adv-x="598" 
d="M621 609h-200l-85 -609h-174l85 609h-200l24 141h567z" />
    <glyph glyph-name="U" unicode="U" horiz-adv-x="726" 
d="M722 750l-68 -481q-40 -283 -342 -283q-271 0 -271 222q0 24 5 61l68 481h173l-68 -486q-3 -21 -3 -38q0 -52 28 -75.5t87 -23.5q69 0 104.5 32.5t46.5 104.5l68 486h172z" />
    <glyph glyph-name="V" unicode="V" horiz-adv-x="712" 
d="M583 750h179l-359 -750h-194l-149 750h190l77 -545q4 -24 5 -41h2q2 8 15 38z" />
    <glyph glyph-name="W" unicode="W" horiz-adv-x="1039" 
d="M485 750h186l36 -545q2 -26 2 -41h2q1 7 11 39l177 547h171l-281 -750h-208l-29 539q-1 13 -1 41h-2q-2 -10 -12 -39l-179 -541h-207l-72 750h179l21 -551q0 -7 0.5 -21t0.5 -20h2l12 39z" />
    <glyph glyph-name="X" unicode="X" horiz-adv-x="714" 
d="M742 750l-261 -359l164 -391h-195l-90 245q-9 22 -13 39h-2q-8 -17 -20 -35l-157 -249h-200l268 389l-158 361h205l80 -217q1 -4 4 -12l5.5 -15t3.5 -12h2q4 7 21 34l146 222h197z" />
    <glyph glyph-name="Y" unicode="Y" horiz-adv-x="700" 
d="M60 750h195l93 -319q8 -25 10 -39h2q3 9 19 36l182 322h189l-326 -509l-33 -241h-177l33 241z" />
    <glyph glyph-name="Z" unicode="Z" horiz-adv-x="618" 
d="M528 0h-544l14 105l387 473q1 1 26 29l-1 2h-333l25 141h530l-17 -118l-376 -461q-12 -15 -26 -29l1 -2h336z" />
    <glyph glyph-name="bracketleft" unicode="[" horiz-adv-x="354" 
d="M8 -131l129 917h274l-15 -105h-130l-99 -709h130l-15 -103h-274z" />
    <glyph glyph-name="backslash" unicode="\" horiz-adv-x="377" 
d="M44 785h131l166 -907h-129z" />
    <glyph glyph-name="bracketright" unicode="]" horiz-adv-x="354" 
d="M337 786l-129 -917h-273l14 102h129l100 710h-130l15 105h274z" />
    <glyph glyph-name="asciicircum" unicode="^" horiz-adv-x="641" 
d="M488 463l-143 226l-142 -226h-128l216 341h109l213 -341h-125z" />
    <glyph glyph-name="underscore" unicode="_" horiz-adv-x="416" 
d="M-43 -39h389l-13 -91h-388z" />
    <glyph glyph-name="grave" unicode="`" horiz-adv-x="406" 
d="M360 656h-121l-101 145h182z" />
    <glyph glyph-name="a" unicode="a" horiz-adv-x="618" 
d="M389 615q40 0 92.5 -5.5t88.5 -5.5h23l-84 -604h-124l-3 20q-3 20 -3 41l-2 1q-72 -72 -180 -72q-182 0 -182 202q0 188 102.5 305.5t271.5 117.5zM254 114q50 0 86 39t45 104l32 228q-21 3 -48 3q-155 0 -185 -214q-6 -40 -6 -69q0 -50 18 -70.5t58 -20.5z" />
    <glyph glyph-name="b" unicode="b" horiz-adv-x="622" 
d="M412 615q89 0 133 -49.5t44 -158.5q0 -210 -85.5 -314t-234.5 -104q-134 0 -248 71l101 720l160 8l-26 -184q-5 -37 -6 -40l1 -1q68 52 161 52zM351 487q-50 0 -86 -38t-45 -101l-29 -211q38 -23 85 -23q61 0 94 41t48 148q7 49 7 87q0 55 -18 76t-56 21z" />
    <glyph glyph-name="c" unicode="c" horiz-adv-x="490" 
d="M336 615q90 0 157 -38l-58 -111q-37 18 -88 18q-67 0 -106 -42t-53 -143q-6 -39 -6 -68q0 -64 25 -90.5t73 -26.5q63 0 113 43l41 -94q-81 -74 -204 -74q-100 0 -155.5 56.5t-55.5 175.5q0 32 7 86q21 154 100.5 231t209.5 77z" />
    <glyph glyph-name="d" unicode="d" horiz-adv-x="620" 
d="M333 615q57 0 101 -10l24 175l161 8l-110 -788h-123l-11 57l-2 1q-70 -69 -179 -69q-89 0 -133 49.5t-44 158.5q0 208 86 313t230 105zM255 114q50 0 85.5 39t44.5 104l31 221q-35 8 -72 8q-66 0 -104.5 -47.5t-53.5 -150.5q-7 -54 -7 -78q0 -54 18.5 -75t57.5 -21z" />
    <glyph glyph-name="e" unicode="e" horiz-adv-x="532" 
d="M337 617q87 0 135.5 -39t48.5 -104q0 -98 -82 -155t-263 -81q0 -70 25.5 -96.5t85.5 -26.5q82 0 143 47l41 -95q-92 -78 -230 -78q-104 0 -162.5 58t-58.5 178q0 37 6 82q21 153 100 231.5t211 78.5zM321 498q-54 0 -85 -36.5t-47 -118.5q102 15 145.5 43t43.5 69
q0 43 -57 43z" />
    <glyph glyph-name="f" unicode="f" horiz-adv-x="386" 
d="M35 488l20 109h67q16 110 85.5 160t227.5 50l-7 -112q-76 0 -107 -19.5t-40 -78.5h134l-21 -109h-128l-68 -488h-159l68 488h-72z" />
    <glyph glyph-name="g" unicode="g" horiz-adv-x="614" 
d="M590 605l-72 -512q-19 -132 -103.5 -193.5t-212.5 -61.5q-96 0 -177 34l30 116q70 -29 134 -29q74 0 116.5 30t53.5 104v3l-2 1q-55 -58 -149 -58q-176 0 -176 200q0 170 90 273t252 103q32 0 88.5 -5t84.5 -5h43zM268 162q46 0 78.5 35.5t41.5 101.5l26 191q-28 2 -50 2
q-77 0 -123.5 -65t-46.5 -175q0 -49 18 -69.5t56 -20.5z" />
    <glyph glyph-name="h" unicode="h" horiz-adv-x="625" 
d="M525 0h-160l51 368q3 23 3 41q0 40 -16.5 56.5t-51.5 16.5q-52 0 -87.5 -39t-44.5 -107l-47 -336h-159l109 779l160 9l-26 -184q0 -1 -2 -16.5t-4 -23.5l1 -1q68 54 162 54q168 0 168 -183q0 -33 -4 -62z" />
    <glyph glyph-name="i" unicode="i" horiz-adv-x="293" 
d="M176 0h-159l84 601l160 7zM209 804q82 0 82 -53q0 -77 -100 -77q-42 0 -62 12t-20 40q0 78 100 78z" />
    <glyph glyph-name="j" unicode="j" horiz-adv-x="308" 
d="M276 608l-73 -518q-18 -127 -92 -185.5t-199 -66.5l4 109q61 9 89 38.5t38 103.5l72 512zM222 804q82 0 82 -53q0 -77 -100 -77q-42 0 -62 12t-20 40q0 78 100 78z" />
    <glyph glyph-name="k" unicode="k" horiz-adv-x="634" 
d="M172 0h-159l109 779l160 9l-30 -218q-5 -31 -7 -40l1 -1q94 88 204 88q71 0 106 -34t35 -96q0 -70 -41 -136t-117 -112q49 -112 155 -130l-34 -117q-119 3 -197.5 80.5t-93.5 212.5q78 26 122 71.5t44 89.5q0 37 -43 37q-58 0 -112 -69t-71 -191z" />
    <glyph glyph-name="l" unicode="l" horiz-adv-x="285" 
d="M172 0h-159l109 779l160 9z" />
    <glyph glyph-name="m" unicode="m" horiz-adv-x="924" 
d="M337 0l50 362q4 36 4 47q0 38 -14.5 54.5t-44.5 16.5q-46 0 -77 -37t-40 -102l-47 -341h-159l84 601l125 8l2 -22q3 -39 3 -40l2 -1q71 71 174 71q104 0 136 -87l2 -1q74 88 189 88q153 0 153 -184q0 -28 -5 -71l-50 -362h-160l50 362q4 36 4 47q0 38 -14 54.5t-44 16.5
q-46 0 -76.5 -37.5t-40.5 -105.5l-47 -337h-159z" />
    <glyph glyph-name="n" unicode="n" horiz-adv-x="621" 
d="M361 0l51 367q3 24 3 41q0 40 -16.5 57t-51.5 17q-51 0 -86.5 -37t-44.5 -102l-48 -343h-160l84 601l125 8l3 -25q3 -39 3 -40l2 -1q72 74 184 74q168 0 168 -181q0 -26 -5 -64l-52 -372h-159z" />
    <glyph glyph-name="o" unicode="o" 
d="M320 490q-59 0 -88 -40t-45 -152q-7 -49 -7 -88q0 -58 20 -79.5t65 -21.5q60 0 89.5 40t45.5 154q8 56 8 87q0 58 -20.5 79t-67.5 21zM341 617q120 0 174 -54.5t54 -168.5q0 -46 -7 -95q-23 -161 -98 -236t-218 -75q-120 0 -174 54t-54 167q0 41 8 97q22 161 97 236
t218 75z" />
    <glyph glyph-name="p" unicode="p" horiz-adv-x="618" 
d="M408 617q90 0 133.5 -49.5t43.5 -159.5q0 -54 -8 -109q-45 -310 -267 -310q-79 0 -139 35l-25 -177h-159l106 755l125 7l2 -24q3 -39 3 -40l2 -1q72 73 183 73zM347 488q-50 0 -86 -38.5t-45 -101.5l-29 -206q39 -27 88 -27q60 0 92 42t47 146q7 48 7 85q0 56 -18 78
t-56 22z" />
    <glyph glyph-name="q" unicode="q" horiz-adv-x="618" 
d="M389 615q39 0 88 -5t79 -5h38l-107 -758h-160l21 153q4 26 8 40l-2 2q-66 -52 -157 -52q-182 0 -182 202q0 188 102.5 305.5t271.5 117.5zM255 114q50 0 85.5 39t44.5 104l32 230q-45 3 -48 3q-154 0 -185 -216q-6 -39 -6 -67q0 -51 18.5 -72t58.5 -21z" />
    <glyph glyph-name="r" unicode="r" horiz-adv-x="456" 
d="M402 616q46 0 75 -17l-44 -150q-25 15 -62 15q-61 0 -107.5 -51t-58.5 -143l-37 -270h-159l84 601l125 7l3 -52q2 -26 2 -40l2 -1q71 101 177 101z" />
    <glyph glyph-name="s" unicode="s" horiz-adv-x="482" 
d="M308 617q96 0 161 -40l-60 -111q-49 24 -125 24q-37 0 -59.5 -16.5t-22.5 -42.5q0 -22 23.5 -37.5t57.5 -28t68 -28.5t57.5 -47t23.5 -76q0 -9 -2 -27q-29 -197 -246 -197q-114 0 -194 58l49 112q62 -49 148 -49q43 0 66.5 19.5t23.5 49.5q0 24 -23.5 41.5t-57.5 31
t-67.5 30.5t-57 49t-23.5 77q0 93 69 150.5t191 57.5z" />
    <glyph glyph-name="t" unicode="t" horiz-adv-x="418" 
d="M25 479l23 119h81l42 147l128 14l-22 -161h146l-23 -119h-140l-38 -268q-2 -11 -2 -29q0 -62 55 -62q35 0 70 19l-1 -114q-57 -32 -131 -32q-156 0 -156 158q0 29 4 54l39 274h-75z" />
    <glyph glyph-name="u" unicode="u" horiz-adv-x="611" 
d="M595 604l-55 -391q-32 -224 -287 -224q-113 0 -170 46.5t-57 133.5q0 21 3 44l55 388l161 8l-56 -396q-2 -16 -2 -21q0 -73 85 -73q95 0 108 94l55 391h160z" />
    <glyph glyph-name="v" unicode="v" horiz-adv-x="604" 
d="M566 624q14 -62 14 -134q0 -83 -20.5 -157t-53.5 -127t-72.5 -95.5t-80 -68t-74 -39t-55.5 -13.5q-23 0 -51.5 15.5t-58 47t-49.5 91t-20 135.5q0 45 7 93l32 229l161 7l-33 -236q-8 -52 -8 -100q0 -49 9.5 -81.5t21 -44t23.5 -11.5q17 0 43 24t54 67t47.5 116.5
t19.5 158.5q0 47 -7 89z" />
    <glyph glyph-name="w" unicode="w" horiz-adv-x="915" 
d="M877 624q14 -62 14 -134q0 -96 -27.5 -181t-68 -141.5t-88 -98t-88 -60.5t-66.5 -19q-34 0 -75 40t-62 119h-1q-51 -75 -111.5 -117.5t-96.5 -42.5q-16 0 -35.5 9t-42 31t-41 53t-31 81.5t-12.5 111.5q0 49 7 99l32 227l161 7l-33 -234q-8 -56 -8 -105q0 -45 8 -76
t17.5 -41.5t19.5 -10.5q8 0 21 9t29.5 29.5t32.5 49t30 72.5t21 95l29 206h160l-32 -228q-8 -53 -8 -102q0 -47 8.5 -78t19.5 -42.5t23 -11.5q10 0 27.5 12.5t39 42t40 69.5t31 102.5t12.5 134.5q0 47 -7 89z" />
    <glyph glyph-name="x" unicode="x" horiz-adv-x="626" 
d="M136 0h-174l234 318l-136 283l182 7l67 -171q7 -16 14 -38h2q11 20 21 34l117 172h170l-221 -301l142 -304h-180l-72 184q-9 21 -14 38h-2q-6 -12 -22 -34z" />
    <glyph glyph-name="y" unicode="y" horiz-adv-x="604" 
d="M440 605h156q-62 -265 -193.5 -464t-317.5 -296l-53 114q95 59 154 127l-139 510l178 13l71 -333q6 -25 7 -40h2q85 163 135 369z" />
    <glyph glyph-name="z" unicode="z" horiz-adv-x="538" 
d="M512 501l-294 -349q-23 -25 -27 -29l1 -2h276l-21 -121h-457l14 105l296 349q11 13 27 28l-1 2h-260l22 121h439z" />
    <glyph glyph-name="braceleft" unicode="{" horiz-adv-x="388" 
d="M288 438q-11 -75 -74 -107v-2q45 -27 45 -88q0 -13 -1 -20q-5 -33 -17.5 -84t-16.5 -79q-2 -12 -2 -18q0 -62 75 -62h34l-15 -111h-26q-113 0 -163.5 35t-50.5 103q0 42 20.5 117.5t23.5 100.5q1 6 1 11q0 25 -14.5 42.5t-37.5 22.5l8 61q28 6 48.5 26.5t24.5 49.5
t4.5 90.5t5.5 94.5q12 85 73 128t187 43h26l-16 -111h-34q-37 0 -59 -14.5t-30.5 -43t-11 -55t-3.5 -67t-4 -63.5z" />
    <glyph glyph-name="bar" unicode="|" horiz-adv-x="291" 
d="M83 -178v986h123v-986h-123z" />
    <glyph glyph-name="braceright" unicode="}" horiz-adv-x="388" 
d="M91 221q9 75 75 108v2q-47 26 -47 85q0 6 2 22q5 33 17.5 84t16.5 79q1 5 1 15q0 65 -75 65h-33l16 111h26q113 0 163 -35t50 -103q0 -42 -20 -118t-23 -100q-1 -6 -1 -13q0 -51 52 -63l-8 -61q-29 -6 -49 -26.5t-24 -49.5t-5 -90.5t-6 -94.5q-12 -85 -72.5 -128
t-186.5 -43h-25l15 111h32q31 0 51.5 11t30.5 28t15 43.5t5.5 50t2 56.5t4.5 54z" />
    <glyph glyph-name="asciitilde" unicode="~" horiz-adv-x="641" 
d="M200 593h-91q11 186 148 186q42 0 108.5 -33t94.5 -33q47 0 59 52h90q-4 -92 -42 -138.5t-105 -46.5q-42 0 -108 33t-92 33q-25 0 -41 -15t-21 -38z" />
    <glyph glyph-name="uni00A0" unicode="&#xa0;" horiz-adv-x="268" 
 />
    <glyph glyph-name="exclamdown" unicode="&#xa1;" horiz-adv-x="302" 
d="M98 441h129l-61 -574h-167zM191 660q80 0 80 -59q0 -44 -26 -68t-75 -24q-79 0 -79 60q0 91 100 91z" />
    <glyph glyph-name="cent" unicode="&#xa2;" horiz-adv-x="641" 
d="M375 730h122l-27 -122q43 -8 85 -31l-58 -111q-37 18 -88 18q-67 0 -106 -42t-53 -143q-6 -39 -6 -68q0 -64 25 -90.5t73 -26.5q63 0 113 43l41 -94q-62 -56 -141 -69l-25 -122h-123l26 123q-152 31 -152 225q0 44 7 87q42 278 261 305z" />
    <glyph glyph-name="sterling" unicode="&#xa3;" horiz-adv-x="641" 
d="M64 313l11 117h48q-10 40 -10 75q0 51 18 95.5t55 82t102 59t151 21.5q102 0 177 -33l-38 -134q-67 27 -140 27q-157 0 -157 -135q0 -20 6 -58h240l-17 -117h-211q0 -130 -88 -182l1 -2q78 18 182 18q77 0 170 -12q0 -1 -6.5 -36l-13 -69.5t-7.5 -36.5q-126 14 -240 14
q-151 0 -282 -12l10 138q44 10 75 45t37 80q3 29 3 55h-76z" />
    <glyph glyph-name="currency" unicode="&#xa4;" horiz-adv-x="641" 
d="M347 555q43 0 85 -21l83 73l68 -81l-80 -71q13 -33 13 -66q0 -61 -34 -114l57 -66l-92 -80l-55 64q-50 -25 -100 -25t-92 24l-73 -64l-69 81l75 66q-10 30 -10 59q0 65 41 122l-61 70l93 81l62 -72q43 20 89 20zM332 455q-42 0 -73.5 -31t-31.5 -74q0 -33 23 -55.5
t57 -22.5q42 0 74 31.5t32 73.5q0 33 -23 55.5t-58 22.5z" />
    <glyph glyph-name="yen" unicode="&#xa5;" horiz-adv-x="641" 
d="M106 357h88l-121 393h189l53 -352q4 -24 5 -41h2q3 10 15 38l153 355h186l-226 -393h92l-13 -89h-128l-6 -41h128l-12 -89h-128l-19 -138h-183l19 138h-125l12 89h125l6 41h-125z" />
    <glyph glyph-name="brokenbar" unicode="&#xa6;" horiz-adv-x="291" 
d="M83 373v435h123v-435h-123zM83 -165v432h123v-432h-123z" />
    <glyph glyph-name="section" unicode="&#xa7;" horiz-adv-x="570" 
d="M362 780q121 0 194 -41l-26 -111q-86 36 -174 36q-44 0 -70.5 -16.5t-26.5 -44.5q0 -22 28 -41.5t68.5 -37.5t81 -41t68.5 -62t28 -89q0 -52 -29 -102t-80 -74v-2q53 -43 53 -102q0 -93 -73.5 -145t-195.5 -52q-121 0 -193 42l27 111q83 -37 173 -37q44 0 70 16t26 44
q0 22 -28 41.5t-68.5 38t-80.5 41.5t-68 62t-28 89q0 51 27.5 99t80.5 77v2q-53 42 -53 101q0 94 73.5 146t195.5 52zM251 412q-56 -25 -56 -74q0 -18 9 -33.5t30 -31t37 -25t49 -26.5q56 27 56 75q0 18 -9 33t-30.5 31t-37.5 25z" />
    <glyph glyph-name="dieresis" unicode="&#xa8;" horiz-adv-x="390" 
d="M167 803q59 0 59 -49q0 -78 -76 -78q-60 0 -60 48q0 79 77 79zM351 803q59 0 59 -49q0 -78 -76 -78q-60 0 -60 48q0 79 77 79z" />
    <glyph glyph-name="copyright" unicode="&#xa9;" horiz-adv-x="869" 
d="M493 769q147 0 243.5 -96.5t96.5 -239.5q0 -118 -63.5 -221.5t-167.5 -164t-219 -60.5q-147 0 -244 96.5t-97 239.5q0 117 63.5 220.5t168 164.5t219.5 61zM481 689q-143 0 -250.5 -106.5t-107.5 -248.5q0 -115 76 -193t194 -78q141 0 251 107.5t110 250.5
q0 114 -77.5 191t-195.5 77zM478 631q98 0 157 -54l-26 -105q-46 29 -109 29q-73 0 -114 -41t-41 -105q0 -48 31 -75.5t91 -27.5q68 0 120 32l1 -102q-34 -26 -83.5 -45t-98.5 -19q-101 0 -162 61.5t-61 157.5q0 116 84 205t211 89z" />
    <glyph glyph-name="ordfeminine" unicode="&#xaa;" horiz-adv-x="511" 
d="M352 825q31 0 72.5 -4t70.5 -4h20l-66 -474h-105l-9 49l-2 1q-52 -59 -135 -59q-142 0 -142 163q0 144 81.5 236t214.5 92zM249 440q32 0 57 27t31 70l26 183q-4 0 -13 0.5t-14 0.5q-110 0 -133 -162q-5 -37 -5 -56q0 -35 12 -49t39 -14z" />
    <glyph glyph-name="guillemotleft" unicode="&#xab;" horiz-adv-x="654" 
d="M602 424l-176 -103l147 -104l-16 -115l-285 214l1 10l345 214zM346 424l-176 -103l147 -104l-16 -115l-285 214l1 10l345 214z" />
    <glyph glyph-name="logicalnot" unicode="&#xac;" horiz-adv-x="641" 
d="M416 274h-322v128h451v-278h-129v150z" />
    <glyph glyph-name="uni00AD" unicode="&#xad;" horiz-adv-x="390" 
d="M56 395h288l-15 -107h-288z" />
    <glyph glyph-name="registered" unicode="&#xae;" horiz-adv-x="440" 
d="M289 835q72 0 119 -47.5t47 -118.5q0 -87 -67 -152.5t-153 -65.5q-73 0 -120.5 47t-47.5 117q0 88 67.5 154t154.5 66zM282 792q-68 0 -120 -51t-52 -119q0 -54 37 -91t93 -37q67 0 119 50.5t52 118.5q0 55 -36.5 92t-92.5 37zM188 748h95q79 0 79 -55q0 -50 -41 -69
l25 -79h-69l-17 71h-25l-10 -71h-66zM247 698l-6 -42h31q26 0 26 24q0 18 -22 18h-29z" />
    <glyph glyph-name="macron" unicode="&#xaf;" horiz-adv-x="394" 
d="M419 779l-13 -92h-322l13 92h322z" />
    <glyph glyph-name="degree" unicode="&#xb0;" horiz-adv-x="344" 
d="M76 676q8 59 54.5 100t105.5 41q54 0 88.5 -34.5t34.5 -86.5q0 -64 -48.5 -112t-113.5 -48q-53 0 -88 34.5t-35 85.5q0 6 2 20zM148 676q-1 -4 -1 -11q0 -26 16.5 -42t43.5 -16q32 0 56 23t24 56q0 27 -16.5 44t-44.5 17q-30 0 -52 -20.5t-26 -50.5z" />
    <glyph glyph-name="plusminus" unicode="&#xb1;" horiz-adv-x="641" 
d="M552 333h-164v-150h-140v150h-161v126h161v157h140v-157h164v-126zM551 37h-464v111h464v-111z" />
    <glyph glyph-name="twosuperior" unicode="&#xb2;" horiz-adv-x="375" 
d="M266 890q67 0 101 -26.5t34 -70.5q0 -62 -46 -107t-148 -107v-3h165l-13 -85h-300l9 67l51 39l47 36l39 30.5t34.5 29.5t24 26t16.5 25.5t5 23.5q0 37 -55 37q-48 0 -113 -35l-15 79q77 41 164 41z" />
    <glyph glyph-name="threesuperior" unicode="&#xb3;" horiz-adv-x="375" 
d="M258 890q70 0 107.5 -25t37.5 -70q0 -70 -71 -99v-2q56 -19 56 -70q0 -65 -50 -101.5t-142 -36.5q-84 0 -136 33l34 75q53 -29 112 -29q37 0 57 15t20 40q0 22 -22 30.5t-82 8.5l10 70q64 0 87.5 11.5t23.5 35.5q0 33 -59 33q-63 0 -121 -34l-14 74q66 41 152 41z" />
    <glyph glyph-name="acute" unicode="&#xb4;" horiz-adv-x="406" 
d="M261 801h183l-140 -145h-121z" />
    <glyph glyph-name="mu" unicode="&#xb5;" horiz-adv-x="629" 
d="M239 -8q-61 0 -86 46l-2 -1q-8 -138 -10 -186l-155 -11l108 765h159l-56 -395q-2 -18 -2 -24q0 -66 68 -66q47 0 86.5 35t47.5 90l51 360h159l-85 -601l-114 -9l-5 28q-4 19 -6 40l-2 1q-64 -72 -156 -72z" />
    <glyph glyph-name="paragraph" unicode="&#xb6;" horiz-adv-x="704" 
d="M247 -159h-139l88 625q-62 2 -99.5 33t-37.5 88q0 71 50 117t134 46h480l-24 -122h-74l-111 -787h-140l111 787h-127z" />
    <glyph glyph-name="periodcentered" unicode="&#xb7;" horiz-adv-x="297" 
d="M159 429q80 0 80 -65q0 -48 -26.5 -75.5t-77.5 -27.5q-43 0 -62.5 15t-19.5 48q0 51 27 78t79 27z" />
    <glyph glyph-name="cedilla" unicode="&#xb8;" horiz-adv-x="406" 
d="M27 -189l100 203h106l-63 -203h-143z" />
    <glyph glyph-name="onesuperior" unicode="&#xb9;" horiz-adv-x="286" 
d="M306 886l-55 -395h-109l32 229q4 29 7 40l-2 2q-4 -3 -36 -20l-50 -26l3 89l141 81h69z" />
    <glyph glyph-name="ordmasculine" unicode="&#xba;" horiz-adv-x="490" 
d="M486 579q-19 -131 -76 -187.5t-168 -56.5q-93 0 -137.5 40t-44.5 131q0 32 6 73q19 131 77 188.5t167 57.5q94 0 138 -40.5t44 -130.5q0 -34 -6 -75zM206 579q-6 -43 -6 -70q0 -39 13 -53.5t43 -14.5q40 0 59 28t31 110q6 42 6 69q0 40 -13.5 54.5t-43.5 14.5
q-40 0 -58.5 -27.5t-30.5 -110.5z" />
    <glyph glyph-name="guillemotright" unicode="&#xbb;" horiz-adv-x="654" 
d="M275 102l16 115l176 104l-147 103l16 116l284 -214l-1 -10zM19 102l16 115l176 104l-147 103l16 116l284 -214l-1 -10z" />
    <glyph glyph-name="onequarter" unicode="&#xbc;" horiz-adv-x="895" 
d="M773 71h-38l-9 -71h-101l9 71h-204v60l220 263h131l-34 -244h40zM650 150l19 115q2 16 8 40l-2 1q-5 -9 -25 -33l-74 -92q-12 -15 -26 -29l1 -2h99zM340 751l-55 -395h-109l32 229q4 29 7 40l-2 2q-4 -3 -36 -20l-50 -26l3 89l141 81h69zM687 750h112l-603 -750h-112z
" />
    <glyph glyph-name="onehalf" unicode="&#xbd;" horiz-adv-x="895" 
d="M685 399q67 0 101 -26.5t34 -70.5q0 -62 -46 -107t-148 -107v-3h165l-13 -85h-300l9 67l51 39l47 36l39 30.5t34.5 29.5t24 26t16.5 25.5t5 23.5q0 37 -55 37q-48 0 -113 -35l-15 79q77 41 164 41zM340 751l-55 -395h-109l32 229q4 29 7 40l-2 2q-4 -3 -36 -20l-50 -26
l3 89l141 81h69zM679 750h112l-603 -750h-112z" />
    <glyph glyph-name="threequarters" unicode="&#xbe;" horiz-adv-x="895" 
d="M253 755q70 0 107.5 -25t37.5 -70q0 -70 -71 -99v-2q56 -19 56 -70q0 -65 -50 -101.5t-142 -36.5q-84 0 -136 33l34 75q53 -29 112 -29q37 0 57 15t20 40q0 22 -22 30.5t-82 8.5l10 70q64 0 87.5 11.5t23.5 35.5q0 33 -59 33q-63 0 -121 -34l-14 74q66 41 152 41zM773 71
h-38l-9 -71h-101l9 71h-204v60l220 263h131l-34 -244h40zM650 150l19 115q2 16 8 40l-2 1q-5 -9 -25 -33l-74 -92q-12 -15 -26 -29l1 -2h99zM703 750h112l-603 -750h-112z" />
    <glyph glyph-name="questiondown" unicode="&#xbf;" horiz-adv-x="489" 
d="M195 -101q-104 0 -156.5 41.5t-52.5 115.5q0 168 204 270l23 116h126l-16 -169q-83 -44 -126 -83.5t-43 -90.5q0 -61 84 -61q87 0 156 56l39 -120q-43 -34 -107 -54.5t-131 -20.5zM308 671q80 0 80 -58q0 -95 -102 -95q-79 0 -79 61q0 43 25.5 67.5t75.5 24.5z" />
    <glyph glyph-name="Agrave" unicode="&#xc0;" horiz-adv-x="736" 
d="M488 0l-22 153h-264l-64 -153h-183l363 750h207l156 -750h-193zM402 621h-2q-1 -3 -15 -38l-128 -302h191l-41 296q-5 35 -5 44zM500 792h-129l-111 120h187z" />
    <glyph glyph-name="Aacute" unicode="&#xc1;" horiz-adv-x="736" 
d="M488 0l-22 153h-264l-64 -153h-183l363 750h207l156 -750h-193zM402 621h-2q-1 -3 -15 -38l-128 -302h191l-41 296q-5 35 -5 44zM432 912h202l-157 -120h-127z" />
    <glyph glyph-name="Acircumflex" unicode="&#xc2;" horiz-adv-x="736" 
d="M488 0l-22 153h-264l-64 -153h-183l363 750h207l156 -750h-193zM402 621h-2q-1 -3 -15 -38l-128 -302h191l-41 296q-5 35 -5 44zM355 913h170l89 -121h-139l-42 62l-60 -62h-137z" />
    <glyph glyph-name="Atilde" unicode="&#xc3;" horiz-adv-x="736" 
d="M488 0l-22 153h-264l-64 -153h-183l363 750h207l156 -750h-193zM402 621h-2q-1 -3 -15 -38l-128 -302h191l-41 296q-5 35 -5 44zM331 793h-73q10 55 42.5 87t81.5 32q37 0 79.5 -21.5t55.5 -21.5q24 0 34 31h70q-10 -54 -42.5 -86t-80.5 -32q-37 0 -78 21.5t-53 21.5
q-26 0 -36 -32z" />
    <glyph glyph-name="Adieresis" unicode="&#xc4;" horiz-adv-x="736" 
d="M488 0l-22 153h-264l-64 -153h-183l363 750h207l156 -750h-193zM402 621h-2q-1 -3 -15 -38l-128 -302h191l-41 296q-5 35 -5 44zM344 913q58 0 58 -46q0 -74 -75 -74q-60 0 -60 46q0 36 20 55t57 19zM543 913q58 0 58 -46q0 -74 -75 -74q-60 0 -60 46q0 36 20 55t57 19z
" />
    <glyph glyph-name="Aring" unicode="&#xc5;" horiz-adv-x="736" 
d="M439 902q121 0 121 -82q0 -54 -33 -83l154 -737h-193l-22 153h-264l-64 -153h-183l354 732q-17 17 -17 50q0 120 147 120zM402 621h-2q-1 -3 -15 -38l-128 -302h191l-41 296q-5 35 -5 44zM432 835q-33 0 -45.5 -11t-12.5 -33q0 -26 48 -26q30 0 42.5 9.5t12.5 32.5
q0 28 -45 28z" />
    <glyph glyph-name="AE" unicode="&#xc6;" horiz-adv-x="1066" 
d="M1056 613h-330l-14 -165h264l-17 -124h-256l-15 -187h313l-22 -137h-476l12 154h-251l-92 -154h-204l507 750h597zM558 637l-2 1l-21 -36l-194 -321h185l27 315q2 26 5 41z" />
    <glyph glyph-name="Ccedilla" unicode="&#xc7;" horiz-adv-x="597" 
d="M179 -189l88 179q-230 27 -230 283q0 45 8 107q52 383 404 383q95 0 168 -31l-35 -134q-60 25 -142 25q-102 0 -148 -52.5t-65 -191.5q-9 -60 -9 -104q0 -84 35.5 -117t118.5 -33q81 0 149 30l-1 -128q-62 -29 -143 -38l-55 -178h-143z" />
    <glyph glyph-name="Egrave" unicode="&#xc8;" horiz-adv-x="619" 
d="M212 136h343l-23 -136h-512l105 750h498l-16 -138h-328l-24 -164h275l-17 -124h-275zM464 792h-129l-111 120h187z" />
    <glyph glyph-name="Eacute" unicode="&#xc9;" horiz-adv-x="619" 
d="M212 136h343l-23 -136h-512l105 750h498l-16 -138h-328l-24 -164h275l-17 -124h-275zM385 912h202l-157 -120h-127z" />
    <glyph glyph-name="Ecircumflex" unicode="&#xca;" horiz-adv-x="619" 
d="M212 136h343l-23 -136h-512l105 750h498l-16 -138h-328l-24 -164h275l-17 -124h-275zM316 913h170l89 -121h-139l-42 62l-60 -62h-137z" />
    <glyph glyph-name="Edieresis" unicode="&#xcb;" horiz-adv-x="619" 
d="M212 136h343l-23 -136h-512l105 750h498l-16 -138h-328l-24 -164h275l-17 -124h-275zM302 913q58 0 58 -46q0 -74 -75 -74q-60 0 -60 46q0 36 20 55t57 19zM501 913q58 0 58 -46q0 -74 -75 -74q-60 0 -60 46q0 36 20 55t57 19z" />
    <glyph glyph-name="Igrave" unicode="&#xcc;" horiz-adv-x="337" 
d="M30 0l105 750h177l-105 -750h-177zM307 792h-129l-111 120h187z" />
    <glyph glyph-name="Iacute" unicode="&#xcd;" horiz-adv-x="337" 
d="M30 0l105 750h177l-105 -750h-177zM235 912h202l-157 -120h-127z" />
    <glyph glyph-name="Icircumflex" unicode="&#xce;" horiz-adv-x="337" 
d="M30 0l105 750h177l-105 -750h-177zM161 913h170l89 -121h-139l-42 62l-60 -62h-137z" />
    <glyph glyph-name="Idieresis" unicode="&#xcf;" horiz-adv-x="337" 
d="M30 0l105 750h177l-105 -750h-177zM147 913q58 0 58 -46q0 -74 -75 -74q-60 0 -60 46q0 36 20 55t57 19zM346 913q58 0 58 -46q0 -74 -75 -74q-60 0 -60 46q0 36 20 55t57 19z" />
    <glyph glyph-name="Eth" unicode="&#xd0;" horiz-adv-x="743" 
d="M136 750h282q153 0 223.5 -63.5t70.5 -202.5q0 -45 -8 -106q-28 -199 -123.5 -288.5t-264.5 -89.5h-285l47 341h-60l14 97h60zM289 609l-24 -171h81l-14 -97h-81l-28 -200h108q61 0 95.5 18t58.5 69.5t38 150.5q8 61 8 98q0 76 -30.5 104t-103.5 28h-108z" />
    <glyph glyph-name="Ntilde" unicode="&#xd1;" horiz-adv-x="747" 
d="M628 0h-122l-266 486h-2q-2 -32 -4 -42l-62 -444h-152l105 750h146l245 -462h2q0 22 3 41l59 421h153zM332 793h-73q10 55 42.5 87t81.5 32q37 0 79.5 -21.5t55.5 -21.5q24 0 34 31h70q-10 -54 -42.5 -86t-80.5 -32q-37 0 -78 21.5t-53 21.5q-26 0 -36 -32z" />
    <glyph glyph-name="Ograve" unicode="&#xd2;" horiz-adv-x="749" 
d="M709 375q-29 -205 -119.5 -297t-266.5 -92q-148 0 -217.5 67t-69.5 210q0 57 8 112q29 202 120.5 294.5t267.5 92.5q148 0 217 -66t69 -206q0 -52 -9 -115zM527 375q10 67 10 117q0 76 -28.5 104t-96.5 28q-86 0 -125.5 -51t-60.5 -198q-10 -75 -10 -113q0 -78 29.5 -108
t96.5 -30q86 0 125 51.5t60 199.5zM522 792h-129l-111 120h187z" />
    <glyph glyph-name="Oacute" unicode="&#xd3;" horiz-adv-x="749" 
d="M709 375q-29 -205 -119.5 -297t-266.5 -92q-148 0 -217.5 67t-69.5 210q0 57 8 112q29 202 120.5 294.5t267.5 92.5q148 0 217 -66t69 -206q0 -52 -9 -115zM527 375q10 67 10 117q0 76 -28.5 104t-96.5 28q-86 0 -125.5 -51t-60.5 -198q-10 -75 -10 -113q0 -78 29.5 -108
t96.5 -30q86 0 125 51.5t60 199.5zM438 912h202l-157 -120h-127z" />
    <glyph glyph-name="Ocircumflex" unicode="&#xd4;" horiz-adv-x="749" 
d="M709 375q-29 -205 -119.5 -297t-266.5 -92q-148 0 -217.5 67t-69.5 210q0 57 8 112q29 202 120.5 294.5t267.5 92.5q148 0 217 -66t69 -206q0 -52 -9 -115zM527 375q10 67 10 117q0 76 -28.5 104t-96.5 28q-86 0 -125.5 -51t-60.5 -198q-10 -75 -10 -113q0 -78 29.5 -108
t96.5 -30q86 0 125 51.5t60 199.5zM369 913h170l89 -121h-139l-42 62l-60 -62h-137z" />
    <glyph glyph-name="Otilde" unicode="&#xd5;" horiz-adv-x="749" 
d="M709 375q-29 -205 -119.5 -297t-266.5 -92q-148 0 -217.5 67t-69.5 210q0 57 8 112q29 202 120.5 294.5t267.5 92.5q148 0 217 -66t69 -206q0 -52 -9 -115zM527 375q10 67 10 117q0 76 -28.5 104t-96.5 28q-86 0 -125.5 -51t-60.5 -198q-10 -75 -10 -113q0 -78 29.5 -108
t96.5 -30q86 0 125 51.5t60 199.5zM329 793h-73q10 55 42.5 87t81.5 32q37 0 79.5 -21.5t55.5 -21.5q24 0 34 31h70q-10 -54 -42.5 -86t-80.5 -32q-37 0 -78 21.5t-53 21.5q-26 0 -36 -32z" />
    <glyph glyph-name="Odieresis" unicode="&#xd6;" horiz-adv-x="749" 
d="M709 375q-29 -205 -119.5 -297t-266.5 -92q-148 0 -217.5 67t-69.5 210q0 57 8 112q29 202 120.5 294.5t267.5 92.5q148 0 217 -66t69 -206q0 -52 -9 -115zM527 375q10 67 10 117q0 76 -28.5 104t-96.5 28q-86 0 -125.5 -51t-60.5 -198q-10 -75 -10 -113q0 -78 29.5 -108
t96.5 -30q86 0 125 51.5t60 199.5zM355 913q58 0 58 -46q0 -74 -75 -74q-60 0 -60 46q0 36 20 55t57 19zM554 913q58 0 58 -46q0 -74 -75 -74q-60 0 -60 46q0 36 20 55t57 19z" />
    <glyph glyph-name="multiply" unicode="&#xd7;" 
d="M525 196l-92 -92l-133 133l-132 -134l-92 92l133 133l-135 134l92 93l135 -135l135 135l92 -92l-136 -135z" />
    <glyph glyph-name="Oslash" unicode="&#xd8;" horiz-adv-x="749" 
d="M62 -17l-72 70l68 71q-22 56 -22 140q0 56 8 111q29 202 120.5 294.5t267.5 92.5q141 0 209 -59l61 60l71 -72l-74 -74q19 -53 19 -127q0 -52 -9 -115q-29 -205 -119.5 -297t-266.5 -92q-135 0 -205 55zM227 375q-8 -60 -10 -111l303 308q-25 44 -109 44
q-85 0 -124.5 -49.5t-59.5 -191.5zM527 375l11 102l-300 -304q27 -41 105 -41q85 0 124.5 50.5t59.5 192.5z" />
    <glyph glyph-name="Ugrave" unicode="&#xd9;" horiz-adv-x="726" 
d="M722 750l-68 -481q-40 -283 -342 -283q-271 0 -271 222q0 24 5 61l68 481h173l-68 -486q-3 -21 -3 -38q0 -52 28 -75.5t87 -23.5q69 0 104.5 32.5t46.5 104.5l68 486h172zM506 792h-129l-111 120h187z" />
    <glyph glyph-name="Uacute" unicode="&#xda;" horiz-adv-x="726" 
d="M722 750l-68 -481q-40 -283 -342 -283q-271 0 -271 222q0 24 5 61l68 481h173l-68 -486q-3 -21 -3 -38q0 -52 28 -75.5t87 -23.5q69 0 104.5 32.5t46.5 104.5l68 486h172zM427 912h202l-157 -120h-127z" />
    <glyph glyph-name="Ucircumflex" unicode="&#xdb;" horiz-adv-x="726" 
d="M722 750l-68 -481q-40 -283 -342 -283q-271 0 -271 222q0 24 5 61l68 481h173l-68 -486q-3 -21 -3 -38q0 -52 28 -75.5t87 -23.5q69 0 104.5 32.5t46.5 104.5l68 486h172zM357 913h170l89 -121h-139l-42 62l-60 -62h-137z" />
    <glyph glyph-name="Udieresis" unicode="&#xdc;" horiz-adv-x="726" 
d="M722 750l-68 -481q-40 -283 -342 -283q-271 0 -271 222q0 24 5 61l68 481h173l-68 -486q-3 -21 -3 -38q0 -52 28 -75.5t87 -23.5q69 0 104.5 32.5t46.5 104.5l68 486h172zM343 913q58 0 58 -46q0 -74 -75 -74q-60 0 -60 46q0 36 20 55t57 19zM542 913q58 0 58 -46
q0 -74 -75 -74q-60 0 -60 46q0 36 20 55t57 19z" />
    <glyph glyph-name="Yacute" unicode="&#xdd;" horiz-adv-x="700" 
d="M60 750h195l93 -319q8 -25 10 -39h2q3 9 19 36l182 322h189l-326 -509l-33 -241h-177l33 241zM416 912h202l-157 -120h-127z" />
    <glyph glyph-name="Thorn" unicode="&#xde;" horiz-adv-x="666" 
d="M281 633h87q143 0 208.5 -48t65.5 -149q0 -305 -344 -305h-87l-18 -131h-173l105 750h173zM262 500l-34 -242h88q71 0 102.5 25t41.5 97q3 21 3 38q0 46 -25.5 64t-87.5 18h-88z" />
    <glyph glyph-name="germandbls" unicode="&#xdf;" horiz-adv-x="660" 
d="M27 91l56 399q38 273 298 273q90 0 142.5 -41.5t52.5 -105.5q0 -35 -17.5 -67t-39 -51t-39 -38t-17.5 -31q0 -10 15 -22.5t37 -27t44 -34t37 -50.5t15 -68q0 -105 -78 -170.5t-192 -65.5q-89 0 -135 32l27 128q32 -27 99 -27q49 0 81.5 20t32.5 62q0 28 -25 54.5
t-54.5 43.5t-54.5 43.5t-25 54.5q0 27 21 55t45.5 48t45.5 45t21 46q0 43 -61 43q-50 0 -77 -31.5t-37 -103.5l-58 -412q-18 -127 -92 -185.5t-199 -67.5l4 110q61 9 89 38.5t38 103.5z" />
    <glyph glyph-name="agrave" unicode="&#xe0;" horiz-adv-x="618" 
d="M389 615q40 0 92.5 -5.5t88.5 -5.5h23l-84 -604h-124l-3 20q-3 20 -3 41l-2 1q-72 -72 -180 -72q-182 0 -182 202q0 188 102.5 305.5t271.5 117.5zM254 114q50 0 86 39t45 104l32 228q-21 3 -48 3q-155 0 -185 -214q-6 -40 -6 -69q0 -50 18 -70.5t58 -20.5zM499 656h-121
l-101 145h182z" />
    <glyph glyph-name="aacute" unicode="&#xe1;" horiz-adv-x="618" 
d="M389 615q40 0 92.5 -5.5t88.5 -5.5h23l-84 -604h-124l-3 20q-3 20 -3 41l-2 1q-72 -72 -180 -72q-182 0 -182 202q0 188 102.5 305.5t271.5 117.5zM254 114q50 0 86 39t45 104l32 228q-21 3 -48 3q-155 0 -185 -214q-6 -40 -6 -69q0 -50 18 -70.5t58 -20.5zM404 801h183
l-140 -145h-121z" />
    <glyph glyph-name="acircumflex" unicode="&#xe2;" horiz-adv-x="618" 
d="M389 615q40 0 92.5 -5.5t88.5 -5.5h23l-84 -604h-124l-3 20q-3 20 -3 41l-2 1q-72 -72 -180 -72q-182 0 -182 202q0 188 102.5 305.5t271.5 117.5zM254 114q50 0 86 39t45 104l32 228q-21 3 -48 3q-155 0 -185 -214q-6 -40 -6 -69q0 -50 18 -70.5t58 -20.5zM343 801h138
l80 -145h-118l-22 47l-16 37h-2q-13 -21 -23 -33l-38 -51h-117z" />
    <glyph glyph-name="atilde" unicode="&#xe3;" horiz-adv-x="618" 
d="M389 615q40 0 92.5 -5.5t88.5 -5.5h23l-84 -604h-124l-3 20q-3 20 -3 41l-2 1q-72 -72 -180 -72q-182 0 -182 202q0 188 102.5 305.5t271.5 117.5zM254 114q50 0 86 39t45 104l32 228q-21 3 -48 3q-155 0 -185 -214q-6 -40 -6 -69q0 -50 18 -70.5t58 -20.5zM479 658
q-37 0 -71 25.5t-46 25.5q-22 0 -34 -43h-87q11 62 44.5 98.5t81.5 36.5q37 0 71 -25.5t46 -25.5q22 0 34 43h87q-11 -62 -44.5 -98.5t-81.5 -36.5z" />
    <glyph glyph-name="adieresis" unicode="&#xe4;" horiz-adv-x="618" 
d="M389 615q40 0 92.5 -5.5t88.5 -5.5h23l-84 -604h-124l-3 20q-3 20 -3 41l-2 1q-72 -72 -180 -72q-182 0 -182 202q0 188 102.5 305.5t271.5 117.5zM254 114q50 0 86 39t45 104l32 228q-21 3 -48 3q-155 0 -185 -214q-6 -40 -6 -69q0 -50 18 -70.5t58 -20.5zM333 803
q59 0 59 -49q0 -78 -76 -78q-60 0 -60 48q0 79 77 79zM517 803q59 0 59 -49q0 -78 -76 -78q-60 0 -60 48q0 79 77 79z" />
    <glyph glyph-name="aring" unicode="&#xe5;" horiz-adv-x="618" 
d="M389 615q40 0 92.5 -5.5t88.5 -5.5h23l-84 -604h-124l-3 20q-3 20 -3 41l-2 1q-72 -72 -180 -72q-182 0 -182 202q0 188 102.5 305.5t271.5 117.5zM254 114q50 0 86 39t45 104l32 228q-21 3 -48 3q-155 0 -185 -214q-6 -40 -6 -69q0 -50 18 -70.5t58 -20.5zM418 832
q59 0 88 -20.5t29 -55.5q0 -102 -142 -102q-115 0 -115 72q0 106 140 106zM412 775q-57 0 -57 -39q0 -26 48 -26q57 0 57 36q0 29 -48 29z" />
    <glyph glyph-name="ae" unicode="&#xe6;" horiz-adv-x="898" 
d="M378 615q90 0 170 -41q59 43 155 43q86 0 135 -39t49 -104q0 -197 -345 -241q0 -66 26 -92t84 -26q83 0 144 47l41 -95q-92 -78 -230 -78q-152 0 -187 122h-2q-75 -121 -224 -121q-179 0 -179 202q0 198 102.5 310.5t260.5 112.5zM254 114q50 0 85.5 37t44.5 99l34 241
q-21 3 -46 3q-86 0 -139.5 -74t-53.5 -215q0 -50 18 -70.5t57 -20.5zM689 498q-54 0 -85.5 -35.5t-48.5 -119.5q189 28 189 111q0 44 -55 44z" />
    <glyph glyph-name="ccedilla" unicode="&#xe7;" horiz-adv-x="490" 
d="M101 -189l89 181q-171 21 -171 229q0 32 7 86q21 154 100.5 231t209.5 77q90 0 157 -38l-58 -111q-37 18 -88 18q-67 0 -106 -42t-53 -143q-6 -39 -6 -68q0 -64 25 -90.5t73 -26.5q63 0 113 43l41 -94q-59 -53 -132 -68l-58 -184h-143z" />
    <glyph glyph-name="egrave" unicode="&#xe8;" horiz-adv-x="532" 
d="M337 617q87 0 135.5 -39t48.5 -104q0 -98 -82 -155t-263 -81q0 -70 25.5 -96.5t85.5 -26.5q82 0 143 47l41 -95q-92 -78 -230 -78q-104 0 -162.5 58t-58.5 178q0 37 6 82q21 153 100 231.5t211 78.5zM321 498q-54 0 -85 -36.5t-47 -118.5q102 15 145.5 43t43.5 69
q0 43 -57 43zM417 656h-121l-101 145h182z" />
    <glyph glyph-name="eacute" unicode="&#xe9;" horiz-adv-x="532" 
d="M337 617q87 0 135.5 -39t48.5 -104q0 -98 -82 -155t-263 -81q0 -70 25.5 -96.5t85.5 -26.5q82 0 143 47l41 -95q-92 -78 -230 -78q-104 0 -162.5 58t-58.5 178q0 37 6 82q21 153 100 231.5t211 78.5zM321 498q-54 0 -85 -36.5t-47 -118.5q102 15 145.5 43t43.5 69
q0 43 -57 43zM339 801h183l-140 -145h-121z" />
    <glyph glyph-name="ecircumflex" unicode="&#xea;" horiz-adv-x="532" 
d="M337 617q87 0 135.5 -39t48.5 -104q0 -98 -82 -155t-263 -81q0 -70 25.5 -96.5t85.5 -26.5q82 0 143 47l41 -95q-92 -78 -230 -78q-104 0 -162.5 58t-58.5 178q0 37 6 82q21 153 100 231.5t211 78.5zM321 498q-54 0 -85 -36.5t-47 -118.5q102 15 145.5 43t43.5 69
q0 43 -57 43zM288 801h138l80 -145h-118l-22 47l-16 37h-2q-13 -21 -23 -33l-38 -51h-117z" />
    <glyph glyph-name="edieresis" unicode="&#xeb;" horiz-adv-x="532" 
d="M337 617q87 0 135.5 -39t48.5 -104q0 -98 -82 -155t-263 -81q0 -70 25.5 -96.5t85.5 -26.5q82 0 143 47l41 -95q-92 -78 -230 -78q-104 0 -162.5 58t-58.5 178q0 37 6 82q21 153 100 231.5t211 78.5zM321 498q-54 0 -85 -36.5t-47 -118.5q102 15 145.5 43t43.5 69
q0 43 -57 43zM260 803q59 0 59 -49q0 -78 -76 -78q-60 0 -60 48q0 79 77 79zM444 803q59 0 59 -49q0 -78 -76 -78q-60 0 -60 48q0 79 77 79z" />
    <glyph glyph-name="igrave" unicode="&#xec;" horiz-adv-x="293" 
d="M180 0h-163l84 601l164 7zM263 656h-121l-101 145h182z" />
    <glyph glyph-name="iacute" unicode="&#xed;" horiz-adv-x="293" 
d="M180 0h-163l84 601l164 7zM200 801h183l-140 -145h-121z" />
    <glyph glyph-name="icircumflex" unicode="&#xee;" horiz-adv-x="293" 
d="M180 0h-163l84 601l164 7zM142 801h138l80 -145h-118l-22 47q-4 7 -16 37h-2q-13 -21 -23 -33l-38 -51h-117z" />
    <glyph glyph-name="idieresis" unicode="&#xef;" horiz-adv-x="293" 
d="M180 0h-163l84 601l164 7zM117 803q59 0 59 -49q0 -78 -76 -78q-60 0 -60 48q0 79 77 79zM301 803q59 0 59 -49q0 -78 -76 -78q-60 0 -60 48q0 79 77 79z" />
    <glyph glyph-name="eth" unicode="&#xf0;" horiz-adv-x="624" 
d="M545 733l-80 -44q127 -142 127 -305q0 -25 -3 -49q-26 -185 -103.5 -265t-223.5 -80q-118 0 -182 49.5t-64 168.5q0 166 75 254t204 88q64 0 108 -20l2 1q-25 51 -60 92l-93 -51l-47 58l84 47q-33 27 -81 53l122 69q40 -23 78 -54l92 53zM317 424q-60 0 -89.5 -33
t-40.5 -114q-5 -30 -5 -62q0 -57 22.5 -79.5t68.5 -22.5q64 0 96.5 40.5t46.5 139.5q2 12 2 34q0 97 -101 97z" />
    <glyph glyph-name="ntilde" unicode="&#xf1;" horiz-adv-x="621" 
d="M361 0l51 367q3 24 3 41q0 40 -16.5 57t-51.5 17q-51 0 -86.5 -37t-44.5 -102l-48 -343h-160l84 601l125 8l3 -25q3 -39 3 -40l2 -1q72 74 184 74q168 0 168 -181q0 -26 -5 -64l-52 -372h-159zM427 658q-37 0 -71 25.5t-46 25.5q-22 0 -34 -43h-87q11 62 44.5 98.5
t81.5 36.5q37 0 71 -25.5t46 -25.5q22 0 34 43h87q-11 -62 -44.5 -98.5t-81.5 -36.5z" />
    <glyph glyph-name="ograve" unicode="&#xf2;" 
d="M320 490q-59 0 -88 -40t-45 -152q-7 -49 -7 -88q0 -58 20 -79.5t65 -21.5q60 0 89.5 40t45.5 154q8 56 8 87q0 58 -20.5 79t-67.5 21zM341 617q120 0 174 -54.5t54 -168.5q0 -46 -7 -95q-23 -161 -98 -236t-218 -75q-120 0 -174 54t-54 167q0 41 8 97q22 161 97 236
t218 75zM424 656h-121l-101 145h182z" />
    <glyph glyph-name="oacute" unicode="&#xf3;" 
d="M320 490q-59 0 -88 -40t-45 -152q-7 -49 -7 -88q0 -58 20 -79.5t65 -21.5q60 0 89.5 40t45.5 154q8 56 8 87q0 58 -20.5 79t-67.5 21zM341 617q120 0 174 -54.5t54 -168.5q0 -46 -7 -95q-23 -161 -98 -236t-218 -75q-120 0 -174 54t-54 167q0 41 8 97q22 161 97 236
t218 75zM345 801h183l-140 -145h-121z" />
    <glyph glyph-name="ocircumflex" unicode="&#xf4;" 
d="M320 490q-59 0 -88 -40t-45 -152q-7 -49 -7 -88q0 -58 20 -79.5t65 -21.5q60 0 89.5 40t45.5 154q8 56 8 87q0 58 -20.5 79t-67.5 21zM341 617q120 0 174 -54.5t54 -168.5q0 -46 -7 -95q-23 -161 -98 -236t-218 -75q-120 0 -174 54t-54 167q0 41 8 97q22 161 97 236
t218 75zM299 801h138l80 -145h-118l-22 47q-4 7 -16 37h-2q-13 -21 -23 -33l-38 -51h-117z" />
    <glyph glyph-name="otilde" unicode="&#xf5;" 
d="M320 490q-59 0 -88 -40t-45 -152q-7 -49 -7 -88q0 -58 20 -79.5t65 -21.5q60 0 89.5 40t45.5 154q8 56 8 87q0 58 -20.5 79t-67.5 21zM341 617q120 0 174 -54.5t54 -168.5q0 -46 -7 -95q-23 -161 -98 -236t-218 -75q-120 0 -174 54t-54 167q0 41 8 97q22 161 97 236
t218 75zM418 658q-37 0 -71 25.5t-46 25.5q-22 0 -34 -43h-87q11 62 44.5 98.5t81.5 36.5q37 0 71 -25.5t46 -25.5q22 0 34 43h87q-11 -62 -44.5 -98.5t-81.5 -36.5z" />
    <glyph glyph-name="odieresis" unicode="&#xf6;" 
d="M320 490q-59 0 -88 -40t-45 -152q-7 -49 -7 -88q0 -58 20 -79.5t65 -21.5q60 0 89.5 40t45.5 154q8 56 8 87q0 58 -20.5 79t-67.5 21zM341 617q120 0 174 -54.5t54 -168.5q0 -46 -7 -95q-23 -161 -98 -236t-218 -75q-120 0 -174 54t-54 167q0 41 8 97q22 161 97 236
t218 75zM276 803q59 0 59 -49q0 -78 -76 -78q-60 0 -60 48q0 79 77 79zM460 803q59 0 59 -49q0 -78 -76 -78q-60 0 -60 48q0 79 77 79z" />
    <glyph glyph-name="divide" unicode="&#xf7;" horiz-adv-x="602" 
d="M399 524q0 -74 -99 -74q-50 0 -74 17t-24 57q0 75 98 75q99 0 99 -75zM399 148q0 -74 -99 -74q-51 0 -74.5 16.5t-23.5 57.5q0 74 98 74q99 0 99 -74zM544 267h-488v138h488v-138z" />
    <glyph glyph-name="oslash" unicode="&#xf8;" 
d="M341 617q109 0 164 -46l44 46l58 -58l-54 -57q16 -44 16 -106q0 -48 -7 -97q-23 -161 -98 -236t-218 -75q-104 0 -160 42l-42 -43l-59 58l50 53q-17 42 -17 108q0 41 8 100q22 161 97 236t218 75zM320 490q-66 0 -94.5 -50.5t-45.5 -201.5l219 210q-16 42 -79 42z
M400 303l8 58l-220 -211q15 -41 77 -41q60 0 89.5 40t45.5 154z" />
    <glyph glyph-name="ugrave" unicode="&#xf9;" horiz-adv-x="611" 
d="M595 604l-55 -391q-32 -224 -287 -224q-113 0 -170 46.5t-57 133.5q0 21 3 44l55 388l161 8l-56 -396q-2 -16 -2 -21q0 -73 85 -73q95 0 108 94l55 391h160zM429 656h-121l-101 145h182z" />
    <glyph glyph-name="uacute" unicode="&#xfa;" horiz-adv-x="611" 
d="M595 604l-55 -391q-32 -224 -287 -224q-113 0 -170 46.5t-57 133.5q0 21 3 44l55 388l161 8l-56 -396q-2 -16 -2 -21q0 -73 85 -73q95 0 108 94l55 391h160zM346 801h183l-140 -145h-121z" />
    <glyph glyph-name="ucircumflex" unicode="&#xfb;" horiz-adv-x="611" 
d="M595 604l-55 -391q-32 -224 -287 -224q-113 0 -170 46.5t-57 133.5q0 21 3 44l55 388l161 8l-56 -396q-2 -16 -2 -21q0 -73 85 -73q95 0 108 94l55 391h160zM299 801h138l80 -145h-118l-22 47q-4 7 -16 37h-2q-13 -21 -23 -33l-38 -51h-117z" />
    <glyph glyph-name="udieresis" unicode="&#xfc;" horiz-adv-x="611" 
d="M595 604l-55 -391q-32 -224 -287 -224q-113 0 -170 46.5t-57 133.5q0 21 3 44l55 388l161 8l-56 -396q-2 -16 -2 -21q0 -73 85 -73q95 0 108 94l55 391h160zM274 803q59 0 59 -49q0 -78 -76 -78q-60 0 -60 48q0 79 77 79zM458 803q59 0 59 -49q0 -78 -76 -78
q-60 0 -60 48q0 79 77 79z" />
    <glyph glyph-name="yacute" unicode="&#xfd;" horiz-adv-x="604" 
d="M440 605h156q-62 -265 -193.5 -464t-317.5 -296l-53 114q95 59 154 127l-139 510l178 13l71 -333q6 -25 7 -40h2q85 163 135 369zM355 801h183l-140 -145h-121z" />
    <glyph glyph-name="thorn" unicode="&#xfe;" horiz-adv-x="622" 
d="M412 615q90 0 133.5 -49t43.5 -158q0 -54 -8 -109q-45 -309 -267 -309q-80 0 -139 36l-25 -179h-159l131 932l160 9l-26 -184q0 -1 -2 -16.5t-4 -23.5l1 -1q68 52 161 52zM351 487q-50 0 -86 -40t-45 -105l-28 -198q36 -28 87 -28q60 0 92 42t47 145q7 48 7 85
q0 55 -18 77t-56 22z" />
    <glyph glyph-name="ydieresis" unicode="&#xff;" horiz-adv-x="604" 
d="M440 605h156q-62 -265 -193.5 -464t-317.5 -296l-53 114q95 59 154 127l-139 510l178 13l71 -333q6 -25 7 -40h2q85 163 135 369zM282 803q59 0 59 -49q0 -78 -76 -78q-60 0 -60 48q0 79 77 79zM466 803q59 0 59 -49q0 -78 -76 -78q-60 0 -60 48q0 79 77 79z" />
    <glyph glyph-name="dotlessi" unicode="&#x131;" horiz-adv-x="293" 
d="M180 0h-163l84 601l164 7z" />
    <glyph glyph-name="IJ" unicode="&#x132;" horiz-adv-x="865" 
d="M30 0l105 750h177l-105 -750h-177zM850 750l-67 -476q-22 -155 -105.5 -221t-230.5 -66q-89 0 -150 32l29 131q41 -26 113 -26q76 0 116.5 34t51.5 114l67 478h176z" />
    <glyph glyph-name="ij" unicode="&#x133;" horiz-adv-x="587" 
d="M176 0h-159l84 601l160 7zM556 608l-73 -518q-18 -127 -92.5 -185.5t-199.5 -66.5l4 109q62 9 90 38.5t38 103.5l72 512zM209 804q82 0 82 -53q0 -77 -100 -77q-42 0 -62 12t-20 40q0 78 100 78zM503 804q82 0 82 -53q0 -77 -100 -77q-42 0 -62 12t-20 40q0 78 100 78z
" />
    <glyph glyph-name="Lslash" unicode="&#x141;" horiz-adv-x="604" 
d="M249 140h306l-23 -140h-476l39 280l-73 -30l5 128l87 36l47 336h174l-38 -272l191 78l-4 -134l-207 -82z" />
    <glyph glyph-name="lslash" unicode="&#x142;" horiz-adv-x="368" 
d="M23 321l16 127l84 39l41 292l160 9l-34 -238l91 41l-18 -124l-90 -43l-59 -424h-159l50 359z" />
    <glyph glyph-name="OE" unicode="&#x152;" horiz-adv-x="1070" 
d="M983 0h-495l8 58l-2 1q-74 -73 -207 -73q-126 0 -189 67.5t-63 207.5q0 53 9 114q28 200 115 293.5t239 93.5q128 0 185 -69h2l8 57h480l-16 -138h-327l-24 -164h274l-17 -124h-274l-26 -188h342zM526 375q10 66 10 116q0 75 -28.5 103t-95.5 28q-86 0 -125.5 -50.5
t-60.5 -196.5q-10 -75 -10 -112q0 -77 29.5 -107t96.5 -30q85 0 124 51.5t60 197.5z" />
    <glyph glyph-name="oe" unicode="&#x153;" horiz-adv-x="911" 
d="M341 617q131 0 174 -80q71 80 201 80q86 0 135 -39t49 -104q0 -197 -345 -241q0 -66 26 -92t85 -26q82 0 143 47l41 -95q-92 -78 -230 -78q-123 0 -171 81q-70 -82 -203 -82q-120 0 -174 54t-54 167q0 41 8 97q22 161 97 236t218 75zM321 488q-60 0 -89 -39t-45 -151
q-7 -49 -7 -87q0 -57 20 -78.5t66 -21.5q59 0 88.5 40t45.5 152q7 48 7 85q0 57 -20 78.5t-66 21.5zM703 497q-54 0 -85.5 -35.5t-48.5 -118.5q102 15 145 42.5t43 67.5q0 44 -54 44z" />
    <glyph glyph-name="Scaron" unicode="&#x160;" horiz-adv-x="579" 
d="M371 763q117 0 206 -39l-38 -133q-98 32 -177 32q-67 0 -98 -24t-31 -63q0 -29 31 -49t75.5 -35.5t89 -35.5t75.5 -60t31 -98q0 -123 -88 -197.5t-228 -74.5q-129 0 -225 56l42 137q94 -55 200 -55q61 0 95 25.5t34 71.5q0 26 -22.5 45t-55.5 30.5t-72.5 28.5t-72.5 36
t-55.5 55t-22.5 85q0 112 79.5 187t227.5 75zM459 792h-169l-87 121h139l42 -65l60 65h138z" />
    <glyph glyph-name="scaron" unicode="&#x161;" horiz-adv-x="482" 
d="M308 617q96 0 161 -40l-60 -111q-49 24 -125 24q-37 0 -59.5 -16.5t-22.5 -42.5q0 -22 23.5 -37.5t57.5 -28t68 -28.5t57.5 -47t23.5 -76q0 -9 -2 -27q-29 -197 -246 -197q-114 0 -194 58l49 112q62 -49 148 -49q43 0 66.5 19.5t23.5 49.5q0 24 -23.5 41.5t-57.5 31
t-67.5 30.5t-57 49t-23.5 77q0 93 69 150.5t191 57.5zM372 656h-140l-77 145h117l22 -51q12 -28 15 -38h2q8 15 22 34l39 55h119z" />
    <glyph glyph-name="Ydieresis" unicode="&#x178;" horiz-adv-x="700" 
d="M60 750h195l93 -319q8 -25 10 -39h2q3 9 19 36l182 322h189l-326 -509l-33 -241h-177l33 241zM333 913q58 0 58 -46q0 -74 -75 -74q-60 0 -60 46q0 36 20 55t57 19zM532 913q58 0 58 -46q0 -74 -75 -74q-60 0 -60 46q0 36 20 55t57 19z" />
    <glyph glyph-name="Zcaron" unicode="&#x17d;" horiz-adv-x="618" 
d="M528 0h-544l14 105l387 473q1 1 26 29l-1 2h-333l25 141h530l-17 -118l-376 -461q-12 -15 -26 -29l1 -2h336zM460 792h-169l-87 121h139l42 -65l60 65h138z" />
    <glyph glyph-name="zcaron" unicode="&#x17e;" horiz-adv-x="538" 
d="M512 501l-294 -349q-23 -25 -27 -29l1 -2h276l-21 -121h-457l14 105l296 349q11 13 27 28l-1 2h-260l22 121h439zM379 656h-140l-77 145h117l22 -51q12 -28 15 -38h2q8 15 22 34l39 55h119z" />
    <glyph glyph-name="longs" unicode="&#x17f;" horiz-adv-x="335" 
d="M35 488l20 109h67q16 110 85.5 160t227.5 50l-7 -112q-76 0 -107.5 -20t-39.5 -79l-71 -506q-18 -127 -92 -185.5t-198 -66.5l4 109q61 9 89 38.5t38 103.5l56 399h-72z" />
    <glyph glyph-name="florin" unicode="&#x192;" horiz-adv-x="429" 
d="M62 -153h-158l226 643h-62l42 115h62l13 38q23 66 85.5 107t155.5 41q49 0 92 -13l-45 -98q-24 8 -50 8q-64 0 -79 -48l-11 -35h121l-42 -115h-122z" />
    <glyph glyph-name="uni02BB" unicode="&#x2bb;" horiz-adv-x="255" 
d="M152 523q-79 0 -79 76q0 52 39.5 113t99.5 110l46 -31q-36 -52 -59 -103q55 -5 55 -61q0 -46 -28 -75t-74 -29z" />
    <glyph glyph-name="afii57929" unicode="&#x2bc;" horiz-adv-x="255" 
d="M187 783q78 0 78 -78q0 -51 -40 -112t-98 -108l-46 31q34 50 57 103q-53 3 -53 61q0 46 27.5 74.5t74.5 28.5z" />
    <glyph glyph-name="circumflex" unicode="&#x2c6;" horiz-adv-x="394" 
d="M190 801h138l80 -145h-118l-22 47l-16 37h-2q-13 -21 -23 -33l-38 -51h-117z" />
    <glyph glyph-name="caron" unicode="&#x2c7;" horiz-adv-x="394" 
d="M310 656h-140l-77 145h117l22 -51q12 -28 15 -38h2q8 15 22 34l39 55h119z" />
    <glyph glyph-name="breve" unicode="&#x2d8;" horiz-adv-x="394" 
d="M311 801h109q-22 -153 -182 -153q-143 0 -143 117q0 17 3 36h107q-2 -18 -2 -23q0 -53 45 -53q52 0 63 76z" />
    <glyph glyph-name="dotaccent" unicode="&#x2d9;" horiz-adv-x="406" 
d="M265 804q82 0 82 -53q0 -77 -100 -77q-42 0 -62 12t-20 40q0 78 100 78z" />
    <glyph glyph-name="ring" unicode="&#x2da;" horiz-adv-x="394" 
d="M264 832q59 0 88 -20.5t29 -55.5q0 -102 -142 -102q-115 0 -115 72q0 106 140 106zM258 775q-57 0 -57 -39q0 -26 48 -26q57 0 57 36q0 29 -48 29z" />
    <glyph glyph-name="ogonek" unicode="&#x2db;" horiz-adv-x="406" 
d="M188 -188q-56 0 -84 21t-28 57q0 48 34 81t92 50l62 -21q-30 -9 -46.5 -27t-16.5 -39q0 -31 46 -31q28 0 50 11l1 -78q-50 -24 -110 -24z" />
    <glyph glyph-name="tilde" unicode="&#x2dc;" horiz-adv-x="406" 
d="M318 658q-37 0 -71 25.5t-46 25.5q-22 0 -34 -43h-87q11 62 44.5 98.5t81.5 36.5q37 0 71 -25.5t46 -25.5q22 0 34 43h87q-11 -62 -44.5 -98.5t-81.5 -36.5z" />
    <glyph glyph-name="hungarumlaut" unicode="&#x2dd;" horiz-adv-x="394" 
d="M170 801h161l-128 -145h-102zM369 801h163l-141 -145h-116z" />
    <glyph glyph-name="uni0394" unicode="&#x394;" horiz-adv-x="742" 
d="M483 753l180 -753h-686l391 753h115zM399 559h-2q-3 -9 -17 -37l-193 -396h296l-77 393q-6 25 -7 40z" />
    <glyph glyph-name="uni03A9" unicode="&#x3a9;" horiz-adv-x="746" 
d="M429 761q138 0 212.5 -61.5t74.5 -188.5q0 -120 -54 -219t-160 -164v-3h168l-17 -125h-301l24 177q157 106 157 319q0 68 -30 98.5t-93 30.5q-75 0 -116 -44t-56 -148q-4 -29 -4 -61q0 -124 85 -195l-24 -177h-301l17 125h166l1 3q-125 89 -125 252q0 32 4 60
q23 159 120.5 240t251.5 81z" />
    <glyph glyph-name="uni03BC" unicode="&#x3bc;" horiz-adv-x="629" 
d="M239 -8q-61 0 -86 46l-2 -1q-8 -138 -10 -186l-155 -11l108 765h159l-56 -395q-2 -18 -2 -24q0 -66 68 -66q47 0 86.5 35t47.5 90l51 360h159l-85 -601l-114 -9l-5 28q-4 19 -6 40l-2 1q-64 -72 -156 -72z" />
    <glyph glyph-name="pi" unicode="&#x3c0;" horiz-adv-x="682" 
d="M385 167l44 310h-138l-67 -477h-158l66 475q-46 -3 -72 -18l-20 116q54 32 172 32h467l-18 -128h-73l-44 -310q-2 -16 -2 -21q0 -22 11.5 -31t39.5 -9l-15 -111q-110 0 -153.5 27t-43.5 94q0 26 4 51z" />
    <glyph glyph-name="uni2007" unicode="&#x2007;" horiz-adv-x="641" 
 />
    <glyph glyph-name="uni2008" unicode="&#x2008;" horiz-adv-x="271" 
 />
    <glyph glyph-name="uni200B" unicode="&#x200b;" horiz-adv-x="0" 
 />
    <glyph glyph-name="endash" unicode="&#x2013;" horiz-adv-x="515" 
d="M56 395h413l-15 -107h-413z" />
    <glyph glyph-name="emdash" unicode="&#x2014;" horiz-adv-x="697" 
d="M56 395h595l-15 -107h-595z" />
    <glyph glyph-name="quoteleft" unicode="&#x2018;" horiz-adv-x="255" 
d="M152 523q-79 0 -79 76q0 52 39.5 113t99.5 110l46 -31q-36 -52 -59 -103q55 -5 55 -61q0 -46 -28 -75t-74 -29z" />
    <glyph glyph-name="quoteright" unicode="&#x2019;" horiz-adv-x="255" 
d="M187 783q78 0 78 -78q0 -51 -40 -112t-98 -108l-46 31q34 50 57 103q-53 3 -53 61q0 46 27.5 74.5t74.5 28.5z" />
    <glyph glyph-name="quotesinglbase" unicode="&#x201a;" horiz-adv-x="255" 
d="M98 154q38 0 58.5 -20t20.5 -57q0 -52 -40 -112.5t-99 -108.5l-45 31q33 50 57 103q-53 3 -53 59q0 47 27 76t74 29z" />
    <glyph glyph-name="quotedblleft" unicode="&#x201c;" horiz-adv-x="475" 
d="M152 523q-79 0 -79 76q0 52 39.5 113t99.5 110l46 -31q-36 -52 -59 -103q55 -5 55 -61q0 -46 -28 -75t-74 -29zM373 523q-79 0 -79 76q0 52 39.5 113t99.5 110l46 -31q-36 -52 -59 -103q55 -5 55 -61q0 -46 -28 -75t-74 -29z" />
    <glyph glyph-name="quotedblright" unicode="&#x201d;" horiz-adv-x="475" 
d="M186 781q38 0 58.5 -20t20.5 -57q0 -52 -40 -112.5t-99 -108.5l-45 31q33 50 57 103q-53 3 -53 59q0 47 27 76t74 29zM406 782q38 0 58.5 -20t20.5 -57q0 -52 -39.5 -112.5t-98.5 -108.5l-46 31q33 50 57 103q-25 2 -39 17t-14 42q0 47 27 76t74 29z" />
    <glyph glyph-name="quotedblbase" unicode="&#x201e;" horiz-adv-x="475" 
d="M318 154q38 0 58.5 -20t20.5 -57q0 -52 -40 -112.5t-99 -108.5l-45 31q33 50 57 103q-53 3 -53 59q0 47 27 76t74 29zM98 154q38 0 58.5 -20t20.5 -57q0 -52 -40 -112.5t-99 -108.5l-45 31q33 50 57 103q-53 3 -53 59q0 47 27 76t74 29z" />
    <glyph glyph-name="dagger" unicode="&#x2020;" horiz-adv-x="491" 
d="M65 613l148 -11l12 185h159l-38 -185l153 11l-19 -135l-150 10l-77 -634h-159l103 634l-151 -10z" />
    <glyph glyph-name="daggerdbl" unicode="&#x2021;" horiz-adv-x="491" 
d="M436 168l-19 -135l-149 11l-15 -191h-159l41 191l-152 -11l19 135l151 -10l44 330l-151 -10l19 135l148 -11l12 185h159l-38 -185l153 11l-19 -135l-150 10l-46 -330z" />
    <glyph glyph-name="bullet" unicode="&#x2022;" horiz-adv-x="414" 
d="M42 322q22 157 179 157q142 0 142 -121q0 -96 -49.5 -145.5t-137.5 -49.5q-137 0 -137 120q0 18 3 39z" />
    <glyph glyph-name="ellipsis" unicode="&#x2026;" horiz-adv-x="744" 
d="M582 156q81 0 81 -67q0 -47 -26.5 -74t-77.5 -27q-42 0 -62 14.5t-20 47.5q0 106 105 106zM348 156q81 0 81 -67q0 -47 -26.5 -74t-77.5 -27q-42 0 -62 14.5t-20 47.5q0 106 105 106zM107 156q81 0 81 -67q0 -47 -26.5 -74t-77.5 -27q-42 0 -62 14.5t-20 47.5
q0 106 105 106z" />
    <glyph glyph-name="perthousand" unicode="&#x2030;" horiz-adv-x="1077" 
d="M243 759q68 0 101.5 -30t33.5 -97q0 -110 -49.5 -166t-135.5 -56q-135 0 -135 127q0 14 4 48q13 91 56 132.5t125 41.5zM231 671q-67 0 -67 -121q0 -27 10.5 -38.5t32.5 -11.5q27 0 41.5 18t21.5 67q3 19 3 35q0 29 -10.5 40t-31.5 11zM574 717l82 -68l-497 -623l-82 68z
M552 342q68 0 101.5 -31t33.5 -99q0 -110 -49.5 -166t-135.5 -56q-136 0 -136 128q0 13 4 47q13 91 56.5 134t125.5 43zM540 251q-67 0 -67 -122q0 -28 10.5 -38.5t32.5 -10.5q27 0 41.5 18t21.5 67q3 20 3 35q0 29 -10.5 40t-31.5 11zM888 342q68 0 101.5 -31t33.5 -99
q0 -110 -49.5 -166t-136.5 -56q-135 0 -135 128q0 13 4 47q13 91 56.5 134t125.5 43zM875 251q-66 0 -66 -122q0 -28 10 -38.5t32 -10.5q28 0 42.5 17.5t21.5 67.5q3 20 3 35q0 29 -10.5 40t-32.5 11z" />
    <glyph glyph-name="guilsinglleft" unicode="&#x2039;" horiz-adv-x="394" 
d="M354 424l-176 -103l147 -104l-16 -115l-285 214l1 10l345 214z" />
    <glyph glyph-name="guilsinglright" unicode="&#x203a;" horiz-adv-x="394" 
d="M14 102l16 115l176 104l-147 103l16 116l284 -214l-1 -10z" />
    <glyph glyph-name="fraction" unicode="&#x2044;" horiz-adv-x="308" 
d="M423 750h112l-603 -750h-112z" />
    <glyph glyph-name="uni2070" unicode="&#x2070;" horiz-adv-x="385" 
d="M268 890q75 0 110 -34t35 -108q0 -24 -5 -61q-14 -102 -62 -151.5t-135 -49.5q-75 0 -110 35.5t-35 108.5q0 29 4 57q15 106 62 154.5t136 48.5zM256 807q-33 0 -51.5 -25t-28.5 -95q-5 -37 -5 -55q0 -36 12.5 -50t38.5 -14q32 0 50 25t28 95q5 37 5 55q0 36 -12 50
t-37 14z" />
    <glyph glyph-name="uni2074" unicode="&#x2074;" horiz-adv-x="385" 
d="M398 562h-38l-9 -71h-101l9 71h-204v60l220 263h131l-34 -244h40zM275 641l19 115q2 16 8 40l-2 1q-5 -9 -25 -33l-74 -92q-12 -15 -26 -29l1 -2h99z" />
    <glyph glyph-name="uni2075" unicode="&#x2075;" horiz-adv-x="385" 
d="M405 885l-9 -85h-179l-14 -62q32 5 60 5q131 0 131 -97q0 -74 -48 -117t-140 -43q-84 0 -139 28l28 78q56 -26 114 -26q41 0 59 15t18 47q0 38 -61 38q-50 0 -93 -10l-36 30l49 199h260z" />
    <glyph glyph-name="uni2076" unicode="&#x2076;" horiz-adv-x="385" 
d="M407 874l-18 -81q-39 14 -87 14q-91 0 -116 -77l1 -1q40 19 85 19q129 0 129 -96q0 -80 -50.5 -123t-133.5 -43q-151 0 -151 145q0 122 63 191t171 69q63 0 107 -17zM244 676q-15 0 -35.5 -5.5t-29.5 -15.5q-2 -12 -2 -31q0 -59 52 -59q28 0 46 19t18 56q0 36 -49 36z
" />
    <glyph glyph-name="uni2077" unicode="&#x2077;" horiz-adv-x="385" 
d="M432 885l-12 -88l-203 -306h-126l193 270q14 19 24 31l-1 2h-221l18 91h328z" />
    <glyph glyph-name="uni2078" unicode="&#x2078;" horiz-adv-x="385" 
d="M211 486q-155 0 -155 101q0 72 70 109v2q-28 22 -28 65q0 60 43 94t127 34q138 0 138 -90q0 -63 -54 -98v-2q46 -26 46 -74q0 -69 -48.5 -105t-138.5 -36zM206 658q-44 -24 -44 -59q0 -37 62 -37q64 0 64 43q0 5 -1 9t-4 7.5l-5.5 6.5t-8 6t-9.5 5t-12 5t-12.5 4.5
t-14.5 4.5t-15 5zM257 816q-26 0 -41 -10.5t-15 -27.5q0 -20 16 -29t54 -19q36 21 36 51q0 35 -50 35z" />
    <glyph glyph-name="uni2079" unicode="&#x2079;" horiz-adv-x="385" 
d="M261 891q149 0 149 -140q0 -14 -4 -48q-28 -217 -222 -217q-65 0 -116 19l28 78q47 -18 91 -18q48 0 75.5 22t38.5 72l-2 2q-35 -25 -87 -25q-133 0 -133 99q0 67 48 111.5t134 44.5zM247 810q-63 0 -63 -64q0 -38 52 -38q44 0 66 25q2 18 2 24q0 29 -14 41t-43 12z" />
    <glyph glyph-name="uni207A" unicode="&#x207a;" horiz-adv-x="386" 
d="M390 645h-105v-106h-93v106h-105v90h105v107h93v-107h105v-90z" />
    <glyph glyph-name="uni207B" unicode="&#x207b;" horiz-adv-x="386" 
d="M378 651h-292l12 87h292z" />
    <glyph glyph-name="uni207C" unicode="&#x207c;" horiz-adv-x="386" 
d="M381 721h-284v75h284v-75zM381 591h-284v75h284v-75z" />
    <glyph glyph-name="uni207D" unicode="&#x207d;" horiz-adv-x="221" 
d="M225 915l71 -7q-106 -130 -106 -300q0 -96 40 -171l-73 -7q-64 70 -64 183q0 190 132 302z" />
    <glyph glyph-name="uni207E" unicode="&#x207e;" horiz-adv-x="221" 
d="M78 908l75 7q63 -70 63 -179q0 -90 -34.5 -171t-96.5 -135l-72 7q105 135 105 303q0 97 -40 168z" />
    <glyph glyph-name="uni2080" unicode="&#x2080;" horiz-adv-x="385" 
d="M178 246q75 0 110 -34t35 -108q0 -24 -5 -61q-14 -102 -62 -151.5t-135 -49.5q-75 0 -110 35.5t-35 108.5q0 29 4 57q15 106 62 154.5t136 48.5zM166 163q-33 0 -51.5 -25t-28.5 -95q-5 -37 -5 -55q0 -36 12.5 -50t38.5 -14q32 0 50 25t28 95q5 37 5 55q0 36 -12 50
t-37 14z" />
    <glyph glyph-name="uni2081" unicode="&#x2081;" horiz-adv-x="286" 
d="M216 242l-55 -395h-109l32 229q4 29 7 40l-2 2q-4 -3 -36 -20l-50 -26l3 89l141 81h69z" />
    <glyph glyph-name="uni2082" unicode="&#x2082;" horiz-adv-x="374" 
d="M176 246q67 0 101 -26.5t34 -70.5q0 -62 -46 -107t-148 -107v-3h165l-13 -85h-300l9 67l51 39l47 36l39 30.5t34.5 29.5t24 26t16.5 25.5t5 23.5q0 37 -55 37q-48 0 -113 -35l-15 79q77 41 164 41z" />
    <glyph glyph-name="uni2083" unicode="&#x2083;" horiz-adv-x="374" 
d="M168 246q70 0 107.5 -25t37.5 -70q0 -70 -71 -99v-2q56 -19 56 -70q0 -65 -50 -101.5t-142 -36.5q-84 0 -136 33l34 75q53 -29 112 -29q37 0 57 15t20 40q0 22 -22 30.5t-82 8.5l10 70q64 0 87.5 11.5t23.5 35.5q0 33 -59 33q-63 0 -121 -34l-14 74q66 41 152 41z" />
    <glyph glyph-name="uni2084" unicode="&#x2084;" horiz-adv-x="385" 
d="M308 -82h-38l-9 -71h-101l9 71h-204v60l220 263h131l-34 -244h40zM185 -3l19 115q2 16 8 40l-2 1q-5 -9 -25 -33l-74 -92q-12 -15 -26 -29l1 -2h99z" />
    <glyph glyph-name="uni2085" unicode="&#x2085;" horiz-adv-x="385" 
d="M315 241l-9 -85h-179l-14 -62q32 5 60 5q131 0 131 -97q0 -74 -48 -117t-140 -43q-84 0 -139 28l28 78q56 -26 114 -26q41 0 59 15t18 47q0 38 -61 38q-50 0 -93 -10l-36 30l49 199h260z" />
    <glyph glyph-name="uni2086" unicode="&#x2086;" horiz-adv-x="385" 
d="M317 230l-18 -81q-39 14 -87 14q-91 0 -116 -77l1 -1q40 19 85 19q129 0 129 -96q0 -80 -50.5 -123t-133.5 -43q-151 0 -151 145q0 122 63 191t171 69q63 0 107 -17zM154 32q-15 0 -35.5 -5.5t-29.5 -15.5q-2 -12 -2 -31q0 -59 52 -59q28 0 46 19t18 56q0 36 -49 36z" />
    <glyph glyph-name="uni2087" unicode="&#x2087;" horiz-adv-x="385" 
d="M342 241l-12 -88l-203 -306h-126l193 270q14 19 24 31l-1 2h-221l18 91h328z" />
    <glyph glyph-name="uni2088" unicode="&#x2088;" horiz-adv-x="385" 
d="M121 -158q-155 0 -155 101q0 72 70 109v2q-28 22 -28 65q0 60 43 94t127 34q138 0 138 -90q0 -63 -54 -98v-2q46 -26 46 -74q0 -69 -48.5 -105t-138.5 -36zM116 14q-44 -24 -44 -59q0 -37 62 -37q64 0 64 43q0 5 -1 9t-4 7.5l-5.5 6.5t-8 6t-9.5 5t-12 5t-12.5 4.5
t-14.5 4.5t-15 5zM167 172q-26 0 -41 -10.5t-15 -27.5q0 -20 16 -29t54 -19q36 21 36 51q0 35 -50 35z" />
    <glyph glyph-name="uni2089" unicode="&#x2089;" horiz-adv-x="385" 
d="M171 247q149 0 149 -140q0 -14 -4 -48q-28 -217 -222 -217q-65 0 -116 19l28 78q47 -18 91 -18q48 0 75.5 22t38.5 72l-2 2q-35 -25 -87 -25q-133 0 -133 99q0 67 48 111.5t134 44.5zM157 166q-63 0 -63 -64q0 -38 52 -38q44 0 66 25q2 18 2 24q0 29 -14 41t-43 12z" />
    <glyph glyph-name="uni208A" unicode="&#x208a;" horiz-adv-x="386" 
d="M300 1h-105v-106h-93v106h-105v90h105v107h93v-107h105v-90z" />
    <glyph glyph-name="uni208B" unicode="&#x208b;" horiz-adv-x="386" 
d="M287 7h-292l13 87h292z" />
    <glyph glyph-name="uni208C" unicode="&#x208c;" horiz-adv-x="386" 
d="M291 77h-284v75h284v-75zM291 -53h-284v75h284v-75z" />
    <glyph glyph-name="uni208D" unicode="&#x208d;" horiz-adv-x="221" 
d="M135 271l71 -7q-106 -130 -106 -300q0 -96 40 -171l-73 -7q-64 70 -64 183q0 190 132 302z" />
    <glyph glyph-name="uni208E" unicode="&#x208e;" horiz-adv-x="221" 
d="M-12 264l75 7q63 -70 63 -179q0 -90 -34.5 -171t-96.5 -135l-72 7q105 135 105 303q0 97 -40 168z" />
    <glyph glyph-name="franc" unicode="&#x20a3;" horiz-adv-x="641" 
d="M-1 199h70l78 551h497l-17 -141h-328l-23 -162h252l-19 -133h-251l-17 -115h79l-14 -105h-79l-13 -94h-172l13 94h-70z" />
    <glyph glyph-name="lira" unicode="&#x20a4;" horiz-adv-x="641" 
d="M83 393l4 82h30q-2 20 -2 30q0 52 18 96.5t55 81.5t101.5 58.5t150.5 21.5q103 0 178 -33l-39 -134q-65 27 -140 27q-76 0 -117 -34t-41 -96q0 -9 1 -18h260l-11 -82h-237q5 -23 6 -45h224l-11 -81h-215v-2q-14 -90 -85 -133l1 -2q79 17 182 17q76 0 170 -12l-13 -69
q-13 -70 -14 -73q-126 14 -240 14q-151 0 -283 -12l11 138q44 10 75 45t37 80l1 9h-69l6 81h63q-1 9 -3.5 24.5t-3.5 20.5h-50z" />
    <glyph glyph-name="peseta" unicode="&#x20a7;" horiz-adv-x="641" 
d="M648 456h-46q-24 -107 -96 -159t-206 -52h-88l-34 -245h-161l64 456h-45l10 75h45l31 219h249q127 0 184.5 -45.5t57.5 -144.5q0 -19 -1 -29h46zM264 619l-12 -88h195q0 50 -21.5 69t-73.5 19h-88zM317 369q51 0 79 18.5t41 68.5h-195l-13 -87h88z" />
    <glyph glyph-name="Euro" unicode="&#x20ac;" horiz-adv-x="641" 
d="M505 347l-30 -79h-198q4 -79 43.5 -114t115.5 -35q63 0 139 33l-5 -118q-81 -43 -197 -43q-269 0 -272 277h-83l12 79h76q2 22 6 47h-75l10 82h84q40 131 133 204.5t226 73.5q107 0 172 -31l-51 -128q-44 19 -102 19q-149 0 -202 -138h252l-31 -82h-242q-6 -29 -7 -47
h226z" />
    <glyph glyph-name="trademark" unicode="&#x2122;" horiz-adv-x="695" 
d="M678 474h-80l20 145q4 23 9 41l-2 1l-93 -187h-69l-42 183h-2q-2 -30 -4 -41l-20 -142h-80l40 287h119l31 -148q3 -14 7 -40h2l17 37l73 151h114zM314 683h-76l-29 -209h-97l29 209h-77l11 78h250z" />
    <glyph glyph-name="Omega" unicode="&#x2126;" horiz-adv-x="746" 
d="M429 761q138 0 212.5 -61.5t74.5 -188.5q0 -120 -54 -219t-160 -164v-3h168l-17 -125h-301l24 177q157 106 157 319q0 68 -30 98.5t-93 30.5q-75 0 -116 -44t-56 -148q-4 -29 -4 -61q0 -124 85 -195l-24 -177h-301l17 125h166l1 3q-125 89 -125 252q0 32 4 60
q23 159 120.5 240t251.5 81z" />
    <glyph glyph-name="uni2150" unicode="&#x2150;" horiz-adv-x="979" 
d="M287 751l-55 -395h-109l32 229q4 29 7 40l-2 2q-4 -3 -36 -20l-50 -26l3 89l141 81h69zM709 750h112l-603 -750h-112zM957 394l-12 -88l-203 -306h-126l193 270q14 20 24 31l-1 2h-221l18 91h328z" />
    <glyph glyph-name="uni2151" unicode="&#x2151;" horiz-adv-x="979" 
d="M287 751l-55 -395h-109l32 229q4 29 7 40l-2 2q-4 -3 -36 -20l-50 -26l3 89l141 81h69zM709 750h112l-603 -750h-112zM786 400q149 0 149 -140q0 -14 -4 -48q-28 -217 -222 -217q-65 0 -116 19l28 78q47 -18 91 -18q48 0 75.5 22t38.5 72l-2 2q-35 -25 -87 -25
q-133 0 -133 99q0 67 48 111.5t134 44.5zM772 319q-63 0 -63 -64q0 -38 52 -38q44 0 66 25q2 18 2 24q0 29 -14 41t-43 12z" />
    <glyph glyph-name="uni2152" unicode="&#x2152;" horiz-adv-x="1265" 
d="M287 751l-55 -395h-109l32 229q4 29 7 40l-2 2q-4 -3 -36 -20l-50 -26l3 89l141 81h69zM709 750h112l-603 -750h-112zM831 395l-55 -395h-109l32 229q4 29 7 40l-2 2q-4 -3 -36 -20l-50 -26l3 89l141 81h69zM1079 399q75 0 110 -34t35 -108q0 -24 -5 -61
q-14 -102 -62 -151.5t-135 -49.5q-75 0 -110 35.5t-35 108.5q0 29 4 57q15 106 62 154.5t136 48.5zM1067 316q-33 0 -51.5 -25t-28.5 -95q-5 -37 -5 -55q0 -36 12.5 -50t38.5 -14q32 0 50 25t28 95q5 37 5 55q0 36 -12 50t-37 14z" />
    <glyph glyph-name="onethird" unicode="&#x2153;" horiz-adv-x="895" 
d="M677 399q70 0 107.5 -25t37.5 -70q0 -70 -71 -99v-2q56 -19 56 -70q0 -65 -50 -101.5t-142 -36.5q-83 0 -136 33l34 75q53 -29 112 -29q37 0 57 15t20 40q0 22 -22 30.5t-82 8.5l10 70q64 0 87.5 11.5t23.5 35.5q0 33 -59 33q-63 0 -121 -34l-14 74q66 41 152 41z
M340 751l-55 -395h-109l32 229q4 29 7 40l-2 2q-4 -3 -36 -20l-50 -26l3 89l141 81h69zM679 750h112l-603 -750h-112z" />
    <glyph glyph-name="twothirds" unicode="&#x2154;" horiz-adv-x="895" 
d="M684 399q70 0 107.5 -25t37.5 -70q0 -70 -71 -99v-2q56 -19 56 -70q0 -65 -50 -101.5t-142 -36.5q-84 0 -136 33l34 75q53 -29 112 -29q37 0 57 15t20 40q0 22 -22 30.5t-82 8.5l10 70q64 0 87.5 11.5t23.5 35.5q0 33 -59 33q-63 0 -121 -34l-14 74q66 41 152 41z
M255 755q67 0 101 -26.5t34 -70.5q0 -62 -46 -107t-148 -107v-3h165l-13 -85h-300l9 67l51 39l47 36l39 30.5t34.5 29.5t24 26t16.5 25.5t5 23.5q0 37 -55 37q-48 0 -113 -35l-15 79q77 41 164 41zM696 750h112l-603 -750h-112z" />
    <glyph glyph-name="uni2155" unicode="&#x2155;" horiz-adv-x="979" 
d="M287 751l-55 -395h-109l32 229q4 29 7 40l-2 2q-4 -3 -36 -20l-50 -26l3 89l141 81h69zM709 750h112l-603 -750h-112zM930 394l-9 -85h-179l-14 -62q32 5 60 5q131 0 131 -97q0 -74 -48 -117t-140 -43q-84 0 -139 28l28 78q56 -26 114 -26q41 0 59 15t18 47q0 38 -61 38
q-50 0 -93 -10l-36 30l49 199h260z" />
    <glyph glyph-name="uni2156" unicode="&#x2156;" horiz-adv-x="1068" 
d="M247 755q67 0 101 -26.5t34 -70.5q0 -62 -46 -107t-148 -107v-3h165l-13 -85h-300l9 67l51 39l47 36l39 30.5t34.5 29.5t24 26t16.5 25.5t5 23.5q0 37 -55 37q-48 0 -113 -35l-15 79q77 41 164 41zM798 750h112l-603 -750h-112zM1019 394l-9 -85h-179l-14 -62q32 5 60 5
q131 0 131 -97q0 -74 -48 -117t-140 -43q-84 0 -139 28l28 78q56 -26 114 -26q41 0 59 15t18 47q0 38 -61 38q-50 0 -93 -10l-36 30l49 199h260z" />
    <glyph glyph-name="uni2157" unicode="&#x2157;" horiz-adv-x="1068" 
d="M239 755q70 0 107.5 -25t37.5 -70q0 -70 -71 -99v-2q56 -19 56 -70q0 -65 -50 -101.5t-142 -36.5q-83 0 -136 33l34 75q53 -29 112 -29q37 0 57 15t20 40q0 22 -22 30.5t-82 8.5l10 70q64 0 87.5 11.5t23.5 35.5q0 33 -59 33q-63 0 -121 -34l-14 74q66 41 152 41z
M798 750h112l-603 -750h-112zM1019 394l-9 -85h-179l-14 -62q32 5 60 5q131 0 131 -97q0 -74 -48 -117t-140 -43q-84 0 -139 28l28 78q56 -26 114 -26q41 0 59 15t18 47q0 38 -61 38q-50 0 -93 -10l-36 30l49 199h260z" />
    <glyph glyph-name="uni2158" unicode="&#x2158;" horiz-adv-x="1078" 
d="M379 427h-38l-9 -71h-101l9 71h-204v60l220 263h131l-34 -244h40zM256 506l19 115q2 16 8 40l-2 1q-5 -9 -25 -33l-74 -92q-12 -15 -26 -29l1 -2h99zM808 750h112l-603 -750h-112zM1029 394l-9 -85h-179l-14 -62q32 5 60 5q131 0 131 -97q0 -74 -48 -117t-140 -43
q-84 0 -139 28l28 78q56 -26 114 -26q41 0 59 15t18 47q0 38 -61 38q-50 0 -93 -10l-36 30l49 199h260z" />
    <glyph glyph-name="uni2159" unicode="&#x2159;" horiz-adv-x="979" 
d="M287 751l-55 -395h-109l32 229q4 29 7 40l-2 2q-4 -3 -36 -20l-50 -26l3 89l141 81h69zM709 750h112l-603 -750h-112zM932 383l-18 -81q-39 14 -87 14q-91 0 -116 -77l1 -1q40 19 85 19q129 0 129 -96q0 -80 -50.5 -123t-133.5 -43q-151 0 -151 145q0 122 63 191t171 69
q63 0 107 -17zM769 185q-45 0 -65 -21q-2 -12 -2 -31q0 -59 52 -59q28 0 46 19t18 56q0 36 -49 36z" />
    <glyph glyph-name="uni215A" unicode="&#x215a;" horiz-adv-x="1078" 
d="M386 750l-9 -85h-179l-14 -62q32 5 60 5q131 0 131 -97q0 -74 -48 -117t-140 -43q-84 0 -139 28l28 78q56 -26 114 -26q41 0 59 15t18 47q0 38 -61 38q-50 0 -93 -10l-36 30l49 199h260zM808 750h112l-603 -750h-112zM1031 383l-18 -81q-39 14 -87 14q-91 0 -116 -77
l1 -1q40 19 85 19q129 0 129 -96q0 -80 -50.5 -123t-133.5 -43q-151 0 -151 145q0 122 63 191t171 69q63 0 107 -17zM868 185q-15 0 -35.5 -5.5t-29.5 -15.5q-2 -12 -2 -31q0 -59 52 -59q28 0 46 19t18 56q0 36 -49 36z" />
    <glyph glyph-name="oneeighth" unicode="&#x215b;" horiz-adv-x="895" 
d="M630 -5q-155 0 -155 101q0 72 70 109v2q-28 22 -28 65q0 60 43 94t127 34q138 0 138 -90q0 -63 -54 -98v-2q46 -26 46 -74q0 -69 -48.5 -105t-138.5 -36zM625 167q-44 -24 -44 -59q0 -37 62 -37q64 0 64 43q0 5 -1 9t-4 7.5l-5.5 6.5t-8 6t-9.5 5t-12 5t-12.5 4.5
t-14.5 4.5t-15 5zM676 325q-26 0 -41 -10.5t-15 -27.5q0 -20 16 -29t54 -19q36 21 36 51q0 35 -50 35zM340 751l-55 -395h-109l32 229q4 29 7 40l-2 2q-4 -3 -36 -20l-50 -26l3 89l141 81h69zM679 750h112l-603 -750h-112z" />
    <glyph glyph-name="threeeighths" unicode="&#x215c;" horiz-adv-x="895" 
d="M637 -5q-155 0 -155 101q0 72 70 109v2q-28 22 -28 65q0 60 43 94t127 34q138 0 138 -90q0 -63 -54 -98v-2q46 -26 46 -74q0 -69 -48.5 -105t-138.5 -36zM632 167q-44 -24 -44 -59q0 -37 62 -37q64 0 64 43q0 5 -1 9t-4 7.5l-5.5 6.5t-8 6t-9.5 5t-12 5t-12.5 4.5
t-14.5 4.5t-15 5zM683 325q-26 0 -41 -10.5t-15 -27.5q0 -20 16 -29t54 -19q36 21 36 51q0 35 -50 35zM253 755q70 0 107.5 -25t37.5 -70q0 -70 -71 -99v-2q56 -19 56 -70q0 -65 -50 -101.5t-142 -36.5q-84 0 -136 33l34 75q53 -29 112 -29q37 0 57 15t20 40q0 22 -22 30.5
t-82 8.5l10 70q64 0 87.5 11.5t23.5 35.5q0 33 -59 33q-63 0 -121 -34l-14 74q66 41 152 41zM696 750h112l-603 -750h-112z" />
    <glyph glyph-name="fiveeighths" unicode="&#x215d;" horiz-adv-x="895" 
d="M637 -5q-155 0 -155 101q0 72 70 109v2q-28 22 -28 65q0 60 43 94t127 34q138 0 138 -90q0 -63 -54 -98v-2q46 -26 46 -74q0 -69 -48.5 -105t-138.5 -36zM632 167q-44 -24 -44 -59q0 -37 62 -37q64 0 64 43q0 5 -1 9t-4 7.5l-5.5 6.5t-8 6t-9.5 5t-12 5t-12.5 4.5
t-14.5 4.5t-15 5zM683 325q-26 0 -41 -10.5t-15 -27.5q0 -20 16 -29t54 -19q36 21 36 51q0 35 -50 35zM400 750l-9 -85h-179l-14 -62q32 5 60 5q131 0 131 -97q0 -74 -48 -117t-140 -43q-84 0 -139 28l28 78q56 -26 114 -26q41 0 59 15t18 47q0 38 -61 38q-50 0 -93 -10
l-36 30l49 199h260zM696 750h112l-603 -750h-112z" />
    <glyph glyph-name="seveneighths" unicode="&#x215e;" horiz-adv-x="895" 
d="M630 -5q-155 0 -155 101q0 72 70 109v2q-28 22 -28 65q0 60 43 94t127 34q138 0 138 -90q0 -63 -54 -98v-2q46 -26 46 -74q0 -69 -48.5 -105t-138.5 -36zM625 167q-44 -24 -44 -59q0 -37 62 -37q64 0 64 43q0 5 -1 9t-4 7.5l-5.5 6.5t-8 6t-9.5 5t-12 5t-12.5 4.5
t-14.5 4.5t-15 5zM676 325q-26 0 -41 -10.5t-15 -27.5q0 -20 16 -29t54 -19q36 21 36 51q0 35 -50 35zM466 750l-12 -88l-203 -306h-126l193 270q14 20 24 31l-1 2h-221l18 91h328zM679 750h112l-603 -750h-112z" />
    <glyph glyph-name="uni215F" unicode="&#x215f;" horiz-adv-x="594" 
d="M287 751l-55 -395h-109l32 229q4 29 7 40l-2 2q-4 -3 -36 -20l-50 -26l3 89l141 81h69zM709 750h112l-603 -750h-112z" />
    <glyph glyph-name="uni2189" unicode="&#x2189;" horiz-adv-x="1002" 
d="M249 755q75 0 110 -34t35 -108q0 -24 -5 -61q-14 -102 -62 -151.5t-135 -49.5q-75 0 -110 35.5t-35 108.5q0 29 4 57q15 106 62 154.5t136 48.5zM237 672q-33 0 -51.5 -25t-28.5 -95q-5 -37 -5 -55q0 -36 12.5 -50t38.5 -14q32 0 50 25t28 95q5 37 5 55q0 36 -12 50
t-37 14zM743 750h112l-603 -750h-112zM817 399q70 0 107.5 -25t37.5 -70q0 -70 -71 -99v-2q56 -19 56 -70q0 -65 -50 -101.5t-142 -36.5q-83 0 -136 33l34 75q53 -29 112 -29q37 0 57 15t20 40q0 22 -22 30.5t-82 8.5l10 70q64 0 87.5 11.5t23.5 35.5q0 33 -59 33
q-63 0 -121 -34l-14 74q66 41 152 41z" />
    <glyph glyph-name="partialdiff" unicode="&#x2202;" horiz-adv-x="640" 
d="M337 548q75 0 129 -40l2 1q-10 124 -142 124q-99 0 -192 -55l-25 106q61 38 120.5 56.5t139.5 18.5q48 0 91 -15t79.5 -46t58 -86t21.5 -127q0 -36 -6 -78q-27 -191 -127 -306t-262 -115q-105 0 -158.5 49t-53.5 142q0 28 4 53q22 153 106.5 235.5t214.5 82.5zM434 345
q0 2 0.5 6t0.5 6q0 32 -22.5 54t-65.5 22q-66 0 -111 -54.5t-60 -160.5q-2 -20 -2 -27q0 -86 86 -86q65 0 112 67t62 173z" />
    <glyph glyph-name="Delta" unicode="&#x2206;" horiz-adv-x="742" 
d="M483 753l180 -753h-686l391 753h115zM399 559h-2q-3 -9 -17 -37l-193 -396h296l-77 393q-6 25 -7 40z" />
    <glyph glyph-name="product" unicode="&#x220f;" horiz-adv-x="753" 
d="M282 -159h-147v792l-90 9l-3 108h670l-2 -107l-90 -10v-792h-146v781h-192v-781z" />
    <glyph glyph-name="summation" unicode="&#x2211;" horiz-adv-x="697" 
d="M539 321v-33l-271 -315l1 -3h391l-4 -129h-587v86l305 378l-305 349v96h572l3 -132h-365l-1 -2z" />
    <glyph glyph-name="minus" unicode="&#x2212;" 
d="M520 267h-463l19 137h463z" />
    <glyph glyph-name="uni2219" unicode="&#x2219;" 
d="M142 322q22 157 179 157q142 0 142 -121q0 -96 -49.5 -145.5t-137.5 -49.5q-137 0 -137 120q0 18 3 39z" />
    <glyph glyph-name="radical" unicode="&#x221a;" horiz-adv-x="617" 
d="M7 369l18 135h193l46 -294q4 -24 5 -41h2q7 22 14 38l233 578h168l-339 -785h-190l-73 369h-77z" />
    <glyph glyph-name="infinity" unicode="&#x221e;" horiz-adv-x="765" 
d="M540 148q-97 0 -157 68q-56 -68 -156 -68q-82 0 -135 52.5t-53 144.5q0 89 48 143t137 54q97 0 158 -70q56 70 156 70q82 0 135 -52.5t53 -144.5q0 -90 -48 -143.5t-138 -53.5zM232 276q23 0 41.5 15t28 31.5t24.5 49.5q-38 50 -91 50q-32 0 -50.5 -21t-18.5 -53
q0 -34 19 -53t47 -19zM533 413q-18 0 -31.5 -7t-25.5 -23t-18.5 -29l-18.5 -38q38 -48 92 -48q32 0 50 21t18 54t-19 51.5t-47 18.5z" />
    <glyph glyph-name="integral" unicode="&#x222b;" horiz-adv-x="329" 
d="M244 603l-1 -565q0 -107 -56.5 -156t-177.5 -49l-4 101q42 1 61.5 24t19.5 75v571q0 195 234 195l3 -101q-79 0 -79 -95z" />
    <glyph glyph-name="approxequal" unicode="&#x2248;" horiz-adv-x="641" 
d="M430 347q-44 0 -116.5 22.5t-104.5 22.5q-62 0 -116 -30v116q55 30 116 30q43 0 115.5 -23t105.5 -23q57 0 116 31v-116q-55 -30 -116 -30zM430 147q-44 0 -116.5 23t-104.5 23q-60 0 -116 -31v116q57 31 116 31q43 0 115.5 -23t105.5 -23q60 0 116 31v-116
q-57 -31 -116 -31z" />
    <glyph glyph-name="notequal" unicode="&#x2260;" horiz-adv-x="641" 
d="M394 607l101 -47l-36 -73h87v-116h-144l-42 -86h186v-116h-242l-60 -123l-101 46l37 77h-87v116h144l42 86h-186v116h242z" />
    <glyph glyph-name="lessequal" unicode="&#x2264;" horiz-adv-x="641" 
d="M549 503l-313 -81q-18 -6 -40 -9v-2q16 -2 40 -8l313 -77v-140l-464 156v145l464 159v-143zM549 35h-460v120h460v-120z" />
    <glyph glyph-name="greaterequal" unicode="&#x2265;" horiz-adv-x="641" 
d="M85 186v140l313 77q19 5 40 8v2q-24 4 -40 9l-313 81v143l464 -159v-145zM545 35h-460v120h460v-120z" />
    <glyph glyph-name="dotmath" unicode="&#x22c5;" 
d="M314 429q80 0 80 -65q0 -48 -26.5 -75.5t-77.5 -27.5q-42 0 -62 15t-20 48q0 51 27 78t79 27z" />
    <glyph glyph-name="lozenge" unicode="&#x25ca;" horiz-adv-x="626" 
d="M23 342l289 339l290 -339l-290 -338zM184 343l128 -148l128 148l-128 149z" />
    <glyph glyph-name="fi" unicode="&#xfb01;" horiz-adv-x="662" 
d="M35 488l20 109h67q16 110 85.5 160t227.5 50l-5 -113q-80 0 -110 -18.5t-39 -78.5h187q61 0 162 11l-85 -608h-160l68 488h-187l-68 -488h-159l68 488h-72zM578 804q82 0 82 -53q0 -77 -100 -77q-42 0 -62 12t-20 40q0 78 100 78z" />
    <glyph glyph-name="fl" unicode="&#xfb02;" horiz-adv-x="639" 
d="M35 488l20 109h67q16 108 91 158t234 50q89 0 189 -17l-110 -788h-160l97 697q-8 1 -28 1q-81 0 -113 -22.5t-41 -78.5h116l-19 -109h-112l-68 -488h-159l68 488h-72z" />
    <glyph glyph-name="product.alt001" horiz-adv-x="754" 
d="M211 -159h-150l112 796l-89 10l12 103h674l-18 -103l-90 -9l-112 -797h-150l111 786h-189z" />
    <glyph glyph-name="summation.alt001" horiz-adv-x="697" 
d="M532 289l-290 -294q-18 -18 -28 -26v-3h392l-22 -125h-590l12 83l362 382l-259 352l13 92h575l-15 -127h-367l-1 -2q9 -10 25 -30l198 -270z" />
    <glyph glyph-name="infinity.alt001" horiz-adv-x="768" 
d="M252 541q96 0 146 -69q64 69 167 69q73 0 119 -42.5t46 -117.5q0 -102 -59.5 -166.5t-157.5 -64.5t-149 68q-65 -68 -165 -68q-73 0 -119 42t-46 117q0 101 60 166.5t158 65.5zM221 273q18 0 32.5 7t29 24t22.5 29t24 39q-30 53 -84 53q-34 0 -56.5 -26t-22.5 -65
q0 -29 15 -45t40 -16zM542 417q-18 0 -32.5 -7t-29 -24.5t-22 -29l-24.5 -39.5q30 -52 84 -52q35 0 57 26.5t22 66.5q0 28 -15.5 43.5t-39.5 15.5z" />
    <glyph glyph-name="integral.alt001" horiz-adv-x="330" 
d="M280 604l-80 -565q-16 -108 -79 -156.5t-185 -48.5l10 97q40 1 63 25t30 77l80 571q27 195 264 195l-10 -97q-80 0 -93 -98z" />
    <glyph glyph-name="lozenge.alt001" horiz-adv-x="627" 
d="M20 341l338 337l243 -337l-338 -337zM182 342l108 -149l149 148l-108 151z" />
    <glyph glyph-name="dollar.subs" horiz-adv-x="336" 
d="M155 306h84l-17 -73q31 -5 66 -17l-23 -78q-56 17 -94 17q-66 0 -66 -36q0 -14 25.5 -23.5t56 -15.5t56 -28t25.5 -59q0 -53 -32.5 -90t-90.5 -47l-15 -66h-83l14 65q-54 5 -91 27l25 80q51 -30 107 -30q64 0 64 38q0 14 -25.5 24t-56 16.5t-56 29t-25.5 59.5
q0 50 34.5 87.5t100.5 46.5z" />
    <glyph glyph-name="comma.subs" horiz-adv-x="174" 
d="M26 -58q53 0 53 -46q0 -26 -24.5 -66t-52.5 -67l-37 9q14 25 34 66q-19 1 -29.5 13.5t-10.5 29.5q0 24 18 42.5t49 18.5z" />
    <glyph glyph-name="period.subs" horiz-adv-x="174" 
d="M29 -56q54 0 54 -41q0 -65 -69 -65q-28 0 -41 9t-13 30q0 67 69 67z" />
    <glyph glyph-name="cent.subs" horiz-adv-x="336" 
d="M294 218l-18 -82q-37 13 -68 13q-60 0 -87 -30t-27 -99q0 -77 83 -77q31 0 77 16l-3 -74q-31 -17 -76 -23l-16 -72h-86l17 75q-109 21 -109 139q0 99 46 159t134 70l17 73h86l-18 -75q22 -4 48 -13z" />
    <glyph glyph-name="dollar.sups" horiz-adv-x="336" 
d="M245 950h84l-17 -73q31 -5 66 -17l-23 -78q-56 17 -94 17q-66 0 -66 -36q0 -14 25.5 -23.5t56 -15.5t56 -28t25.5 -59q0 -53 -32.5 -90t-90.5 -47l-15 -66h-83l14 65q-54 5 -91 27l25 80q51 -30 107 -30q64 0 64 38q0 14 -25.5 24t-56 16.5t-56 29t-25.5 59.5
q0 50 34.5 87.5t100.5 46.5z" />
    <glyph glyph-name="comma.sups" horiz-adv-x="174" 
d="M116 586q53 0 53 -46q0 -26 -24.5 -66t-52.5 -67l-37 9q14 25 34 66q-19 1 -29.5 13.5t-10.5 29.5q0 24 18 42.5t49 18.5z" />
    <glyph glyph-name="period.sups" horiz-adv-x="174" 
d="M119 588q54 0 54 -41q0 -65 -69 -65q-28 0 -41 9t-13 30q0 67 69 67z" />
    <glyph glyph-name="cent.sups" horiz-adv-x="336" 
d="M384 862l-18 -82q-37 13 -68 13q-60 0 -87 -30t-27 -99q0 -77 83 -77q31 0 77 16l-3 -74q-31 -17 -76 -23l-16 -72h-86l17 75q-109 21 -109 139q0 99 46 159t134 70l17 73h86l-18 -75q22 -4 48 -13z" />
    <glyph glyph-name="dollar.numr" horiz-adv-x="336" 
d="M226 815h84l-17 -73q31 -5 66 -17l-23 -78q-56 17 -94 17q-66 0 -66 -36q0 -14 25.5 -23.5t56 -15.5t56 -28t25.5 -59q0 -53 -32.5 -90t-90.5 -47l-15 -66h-83l14 65q-54 5 -91 27l25 80q51 -30 107 -30q64 0 64 38q0 14 -25.5 24t-56 16.5t-56 29t-25.5 59.5
q0 50 34.5 87.5t100.5 46.5z" />
    <glyph glyph-name="parenleft.numr" horiz-adv-x="221" 
d="M206 780l71 -7q-106 -130 -106 -300q0 -96 40 -171l-73 -7q-64 70 -64 183q0 190 132 302z" />
    <glyph glyph-name="parenright.numr" horiz-adv-x="221" 
d="M59 773l75 7q63 -70 63 -179q0 -90 -34.5 -171t-96.5 -135l-72 7q105 135 105 303q0 97 -40 168z" />
    <glyph glyph-name="plus.numr" horiz-adv-x="386" 
d="M371 510h-105v-106h-93v106h-105v90h105v107h93v-107h105v-90z" />
    <glyph glyph-name="comma.numr" horiz-adv-x="174" 
d="M97 451q53 0 53 -46q0 -26 -24.5 -66t-52.5 -67l-37 9q14 25 34 66q-19 1 -29.5 13.5t-10.5 29.5q0 24 18 42.5t49 18.5z" />
    <glyph glyph-name="period.numr" horiz-adv-x="174" 
d="M100 453q54 0 54 -41q0 -65 -69 -65q-28 0 -41 9t-13 30q0 67 69 67z" />
    <glyph glyph-name="zero.numr" horiz-adv-x="385" 
d="M249 755q75 0 110 -34t35 -108q0 -24 -5 -61q-14 -102 -62 -151.5t-135 -49.5q-75 0 -110 35.5t-35 108.5q0 29 4 57q15 106 62 154.5t136 48.5zM237 672q-33 0 -51.5 -25t-28.5 -95q-5 -37 -5 -55q0 -36 12.5 -50t38.5 -14q32 0 50 25t28 95q5 37 5 55q0 36 -12 50
t-37 14z" />
    <glyph glyph-name="one.numr" horiz-adv-x="286" 
d="M287 751l-55 -395h-109l32 229q4 29 7 40l-2 2q-4 -3 -36 -20l-50 -26l3 89l141 81h69z" />
    <glyph glyph-name="two.numr" horiz-adv-x="375" 
d="M247 755q67 0 101 -26.5t34 -70.5q0 -62 -46 -107t-148 -107v-3h165l-13 -85h-300l9 67l51 39l47 36l39 30.5t34.5 29.5t24 26t16.5 25.5t5 23.5q0 37 -55 37q-48 0 -113 -35l-15 79q77 41 164 41z" />
    <glyph glyph-name="three.numr" horiz-adv-x="375" 
d="M239 755q70 0 107.5 -25t37.5 -70q0 -70 -71 -99v-2q56 -19 56 -70q0 -65 -50 -101.5t-142 -36.5q-83 0 -136 33l34 75q53 -29 112 -29q37 0 57 15t20 40q0 22 -22 30.5t-82 8.5l10 70q64 0 87.5 11.5t23.5 35.5q0 33 -59 33q-63 0 -121 -34l-14 74q66 41 152 41z" />
    <glyph glyph-name="four.numr" horiz-adv-x="385" 
d="M379 427h-38l-9 -71h-101l9 71h-204v60l220 263h131l-34 -244h40zM256 506l19 115q2 16 8 40l-2 1q-5 -9 -25 -33l-74 -92q-12 -15 -26 -29l1 -2h99z" />
    <glyph glyph-name="five.numr" horiz-adv-x="385" 
d="M386 750l-9 -85h-179l-14 -62q32 5 60 5q131 0 131 -97q0 -74 -48 -117t-140 -43q-84 0 -139 28l28 78q56 -26 114 -26q41 0 59 15t18 47q0 38 -61 38q-50 0 -93 -10l-36 30l49 199h260z" />
    <glyph glyph-name="six.numr" horiz-adv-x="385" 
d="M388 739l-18 -81q-39 14 -87 14q-91 0 -116 -77l1 -1q40 19 85 19q129 0 129 -96q0 -80 -50.5 -123t-133.5 -43q-151 0 -151 145q0 122 63 191t171 69q63 0 107 -17zM225 541q-45 0 -65 -21q-2 -12 -2 -31q0 -59 52 -59q28 0 46 19t18 56q0 36 -49 36z" />
    <glyph glyph-name="seven.numr" horiz-adv-x="385" 
d="M413 750l-12 -88l-203 -306h-126l193 270q14 20 24 31l-1 2h-221l18 91h328z" />
    <glyph glyph-name="eight.numr" horiz-adv-x="385" 
d="M192 351q-155 0 -155 101q0 72 70 109v2q-28 22 -28 65q0 60 43 94t127 34q138 0 138 -90q0 -63 -54 -98v-2q46 -26 46 -74q0 -69 -48.5 -105t-138.5 -36zM187 523q-44 -24 -44 -59q0 -37 62 -37q64 0 64 43q0 5 -1 9t-4 7.5l-5.5 6.5t-8 6t-9.5 5t-12 5t-12.5 4.5
t-14.5 4.5t-15 5zM238 681q-26 0 -41 -10.5t-15 -27.5q0 -20 16 -29t54 -19q36 21 36 51q0 35 -50 35z" />
    <glyph glyph-name="nine.numr" horiz-adv-x="385" 
d="M242 756q149 0 149 -140q0 -14 -4 -48q-28 -217 -222 -217q-65 0 -116 19l28 78q47 -18 91 -18q48 0 75.5 22t38.5 72l-2 2q-35 -25 -87 -25q-133 0 -133 99q0 67 48 111.5t134 44.5zM228 675q-63 0 -63 -64q0 -38 52 -38q44 0 66 25q2 18 2 24q0 29 -14 41t-43 12z" />
    <glyph glyph-name="equal.numr" horiz-adv-x="386" 
d="M362 586h-284v75h284v-75zM362 456h-284v75h284v-75z" />
    <glyph glyph-name="cent.numr" horiz-adv-x="336" 
d="M365 727l-18 -82q-37 13 -68 13q-60 0 -87 -30t-27 -99q0 -77 83 -77q31 0 77 16l-3 -74q-31 -17 -76 -23l-16 -72h-86l17 75q-109 21 -109 139q0 99 46 159t134 70l17 73h86l-18 -75q22 -4 48 -13z" />
    <glyph glyph-name="minus.numr" horiz-adv-x="386" 
d="M359 516h-292l12 87h292z" />
    <glyph glyph-name="dollar.dnom" horiz-adv-x="336" 
d="M176 459h84l-17 -73q31 -5 66 -17l-23 -78q-56 17 -94 17q-66 0 -66 -36q0 -14 25.5 -23.5t56 -15.5t56 -28t25.5 -59q0 -53 -32.5 -90t-90.5 -47l-15 -66h-83l14 65q-54 5 -91 27l25 80q51 -30 107 -30q64 0 64 38q0 14 -25.5 24t-56 16.5t-56 29t-25.5 59.5
q0 50 34.5 87.5t100.5 46.5z" />
    <glyph glyph-name="parenleft.dnom" horiz-adv-x="221" 
d="M156 424l71 -7q-106 -130 -106 -300q0 -96 40 -171l-73 -7q-64 70 -64 183q0 190 132 302z" />
    <glyph glyph-name="parenright.dnom" horiz-adv-x="221" 
d="M9 417l75 7q63 -70 63 -179q0 -90 -34.5 -171t-96.5 -135l-72 7q105 135 105 303q0 97 -40 168z" />
    <glyph glyph-name="plus.dnom" horiz-adv-x="386" 
d="M321 154h-105v-106h-93v106h-105v90h105v107h93v-107h105v-90z" />
    <glyph glyph-name="comma.dnom" horiz-adv-x="174" 
d="M47 95q53 0 53 -46q0 -26 -24.5 -66t-52.5 -67l-37 9q14 25 34 66q-19 1 -29.5 13.5t-10.5 29.5q0 24 18 42.5t49 18.5z" />
    <glyph glyph-name="period.dnom" horiz-adv-x="174" 
d="M50 97q54 0 54 -41q0 -65 -69 -65q-28 0 -41 9t-13 30q0 67 69 67z" />
    <glyph glyph-name="zero.dnom" horiz-adv-x="385" 
d="M199 399q75 0 110 -34t35 -108q0 -24 -5 -61q-14 -102 -62 -151.5t-135 -49.5q-75 0 -110 35.5t-35 108.5q0 29 4 57q15 106 62 154.5t136 48.5zM187 316q-33 0 -51.5 -25t-28.5 -95q-5 -37 -5 -55q0 -36 12.5 -50t38.5 -14q32 0 50 25t28 95q5 37 5 55q0 36 -12 50
t-37 14z" />
    <glyph glyph-name="one.dnom" horiz-adv-x="286" 
d="M237 395l-55 -395h-109l32 229q4 29 7 40l-2 2q-4 -3 -36 -20l-50 -26l3 89l141 81h69z" />
    <glyph glyph-name="two.dnom" horiz-adv-x="374" 
d="M197 399q67 0 101 -26.5t34 -70.5q0 -62 -46 -107t-148 -107v-3h165l-13 -85h-300l9 67l51 39l47 36l39 30.5t34.5 29.5t24 26t16.5 25.5t5 23.5q0 37 -55 37q-48 0 -113 -35l-15 79q77 41 164 41z" />
    <glyph glyph-name="three.dnom" horiz-adv-x="374" 
d="M189 399q70 0 107.5 -25t37.5 -70q0 -70 -71 -99v-2q56 -19 56 -70q0 -65 -50 -101.5t-142 -36.5q-83 0 -136 33l34 75q53 -29 112 -29q37 0 57 15t20 40q0 22 -22 30.5t-82 8.5l10 70q64 0 87.5 11.5t23.5 35.5q0 33 -59 33q-63 0 -121 -34l-14 74q66 41 152 41z" />
    <glyph glyph-name="four.dnom" horiz-adv-x="385" 
d="M329 71h-38l-9 -71h-101l9 71h-204v60l220 263h131l-34 -244h40zM206 150l19 115q2 16 8 40l-2 1q-5 -9 -25 -33l-74 -92q-12 -15 -26 -29l1 -2h99z" />
    <glyph glyph-name="five.dnom" horiz-adv-x="385" 
d="M336 394l-9 -85h-179l-14 -62q32 5 60 5q131 0 131 -97q0 -74 -48 -117t-140 -43q-84 0 -139 28l28 78q56 -26 114 -26q41 0 59 15t18 47q0 38 -61 38q-50 0 -93 -10l-36 30l49 199h260z" />
    <glyph glyph-name="six.dnom" horiz-adv-x="385" 
d="M338 383l-18 -81q-39 14 -87 14q-91 0 -116 -77l1 -1q40 19 85 19q129 0 129 -96q0 -80 -50.5 -123t-133.5 -43q-151 0 -151 145q0 122 63 191t171 69q63 0 107 -17zM175 185q-45 0 -65 -21q-2 -12 -2 -31q0 -59 52 -59q28 0 46 19t18 56q0 36 -49 36z" />
    <glyph glyph-name="seven.dnom" horiz-adv-x="385" 
d="M363 394l-12 -88l-203 -306h-126l193 270q14 20 24 31l-1 2h-221l18 91h328z" />
    <glyph glyph-name="eight.dnom" horiz-adv-x="385" 
d="M142 -5q-155 0 -155 101q0 72 70 109v2q-28 22 -28 65q0 60 43 94t127 34q138 0 138 -90q0 -63 -54 -98v-2q46 -26 46 -74q0 -69 -48.5 -105t-138.5 -36zM137 167q-44 -24 -44 -59q0 -37 62 -37q64 0 64 43q0 5 -1 9t-4 7.5l-5.5 6.5t-8 6t-9.5 5t-12 5t-12.5 4.5
t-14.5 4.5t-15 5zM188 325q-26 0 -41 -10.5t-15 -27.5q0 -20 16 -29t54 -19q36 21 36 51q0 35 -50 35z" />
    <glyph glyph-name="nine.dnom" horiz-adv-x="385" 
d="M192 400q149 0 149 -140q0 -14 -4 -48q-28 -217 -222 -217q-65 0 -116 19l28 78q47 -18 91 -18q48 0 75.5 22t38.5 72l-2 2q-35 -25 -87 -25q-133 0 -133 99q0 67 48 111.5t134 44.5zM178 319q-63 0 -63 -64q0 -38 52 -38q44 0 66 25q2 18 2 24q0 29 -14 41t-43 12z" />
    <glyph glyph-name="equal.dnom" horiz-adv-x="386" 
d="M312 230h-284v75h284v-75zM312 100h-284v75h284v-75z" />
    <glyph glyph-name="cent.dnom" horiz-adv-x="336" 
d="M315 371l-18 -82q-37 13 -68 13q-60 0 -87 -30t-27 -99q0 -77 83 -77q31 0 77 16l-3 -74q-31 -17 -76 -23l-16 -72h-86l17 75q-109 21 -109 139q0 99 46 159t134 70l17 73h86l-18 -75q22 -4 48 -13z" />
    <glyph glyph-name="minus.dnom" horiz-adv-x="386" 
d="M314 160h-292v87h292v-87z" />
    <glyph glyph-name="space.frac" horiz-adv-x="53" 
 />
    <glyph glyph-name="numbersign.osf" 
d="M21 266h84l36 118h-104l15 102h118l48 163h124l-48 -163h99l47 163h121l-48 -163h73l-15 -102h-87l-35 -118h106l-14 -100h-120l-48 -166h-121l48 166h-99l-48 -166h-123l48 166h-71zM265 384l-36 -118h99l35 118h-98z" />
    <glyph glyph-name="dollar.osf" horiz-adv-x="493" 
d="M276 730h123l-27 -119q60 -12 96 -34l-60 -111q-49 24 -125 24q-37 0 -59.5 -16.5t-22.5 -42.5q0 -22 23.5 -37.5t57.5 -28t68 -28.5t57.5 -47t23.5 -76q0 -9 -2 -27q-23 -164 -177 -191l-26 -126h-124l27 124q-82 12 -140 54l49 112q62 -49 148 -49q43 0 66.5 19.5
t23.5 49.5q0 24 -23.5 41.5t-57 31t-67.5 30.5t-57.5 49t-23.5 77q0 81 53.5 136t150.5 68z" />
    <glyph glyph-name="zero.osf" horiz-adv-x="618" 
d="M350 651q120 0 176 -55t56 -175q0 -42 -8 -103q-23 -169 -100 -248.5t-218 -79.5q-120 0 -175.5 56t-55.5 174q0 48 7 98q25 176 99.5 254.5t218.5 78.5zM332 525q-60 0 -92 -43t-49 -163q-7 -50 -7 -91q0 -65 21.5 -89t69.5 -24q59 0 90 42t48 162q8 59 8 93
q0 63 -22 88t-67 25z" />
    <glyph glyph-name="one.osf" horiz-adv-x="459" 
d="M406 642l-90 -642h-163l57 413q4 26 8 40l-2 2l-35 -21l-100 -53v131l227 130h98z" />
    <glyph glyph-name="two.osf" horiz-adv-x="577" 
d="M328 650q109 0 164.5 -44t55.5 -118q0 -41 -15.5 -79.5t-40 -70.5t-68.5 -69t-86 -66.5l-108 -72.5v-3h269l-20 -127h-475l13 98l83.5 64l79 60l65.5 52t57.5 51t39.5 44t28.5 45t8.5 41q0 66 -98 66q-85 0 -181 -58l-24 117q113 70 252 70z" />
    <glyph glyph-name="three.osf" horiz-adv-x="570" 
d="M300 651q108 0 165 -42.5t57 -113.5q0 -54 -26.5 -97.5t-74.5 -68.5v-2q82 -35 82 -124q0 -9 -2 -29q-19 -134 -137.5 -206.5t-318.5 -76.5l3 121q154 3 226.5 51.5t72.5 123.5q0 73 -105 73q-21 0 -65 -6l7 102q107 12 147.5 36.5t40.5 71.5q0 60 -101 60
q-99 0 -185 -55l-19 116q96 66 233 66z" />
    <glyph glyph-name="four.osf" horiz-adv-x="611" 
d="M545 61h-68l-23 -163l-150 -8l24 171h-333v98l381 491l182 -10l-64 -462h72zM351 178l50 296q3 21 9 40l-2 1q-12 -20 -24 -34l-202 -271q-13 -18 -25 -30l1 -2h193z" />
    <glyph glyph-name="five.osf" horiz-adv-x="563" 
d="M530 642l-12 -136h-288l-30 -138q50 11 103 11q98 0 151 -42t53 -119q0 -17 -3 -35q-19 -136 -138 -213.5t-325 -78.5l4 126q147 2 222.5 47.5t75.5 120.5q0 70 -106 70q-77 0 -152 -28l-46 56l81 359h410z" />
    <glyph glyph-name="six.osf" horiz-adv-x="596" 
d="M505 751l5 -127q-117 -2 -193.5 -51.5t-106.5 -134.5l1 -1q68 38 140 38q200 0 200 -169q0 -22 -3 -46q-19 -135 -95 -202t-199 -67q-232 0 -232 241q0 124 42 225t111.5 163.5t154 96t175.5 34.5zM273 120q97 0 117 139q2 18 2 24q0 75 -88 75q-27 0 -60 -13.5
t-52 -33.5q-6 -47 -6 -80q0 -61 21 -86t66 -25z" />
    <glyph glyph-name="seven.osf" horiz-adv-x="574" 
d="M576 641l-18 -126l-353 -611h-181l342 562q14 22 22 32l-1 2h-333l30 141h492z" />
    <glyph glyph-name="eight.osf" horiz-adv-x="610" 
d="M254 -11q-247 0 -247 163q0 121 120 182v2q-52 39 -52 111q0 96 68.5 149.5t203.5 53.5q220 0 220 -145q0 -107 -95 -164v-2q82 -41 82 -125q0 -109 -79 -167t-221 -58zM247 279q-81 -42 -81 -106q0 -35 25.5 -51t82.5 -16q54 0 85 20.5t31 57.5q0 34 -31.5 53t-111.5 42
zM329 535q-49 0 -75.5 -19.5t-26.5 -54.5q0 -22 20 -38t41 -23t63 -18q68 36 68 95q0 58 -90 58z" />
    <glyph glyph-name="nine.osf" horiz-adv-x="589" 
d="M332 651q227 0 227 -231q0 -36 -6 -78q-16 -116 -60.5 -203.5t-109.5 -140t-143 -78.5t-168 -27l2 125q106 2 184.5 52.5t110.5 146.5l-2 2q-54 -39 -136 -39q-91 0 -142.5 45t-51.5 134q0 134 78.5 213t216.5 79zM311 522q-53 0 -82.5 -34.5t-29.5 -105.5q0 -41 20 -60
t65 -19q79 0 110 58q5 38 5 60q0 55 -21 78t-67 23z" />
    <glyph glyph-name="cent.osf" horiz-adv-x="497" 
d="M323 730h122l-27 -124q36 -8 75 -29l-58 -111q-37 18 -88 18q-67 0 -106 -42t-53 -143q-6 -39 -6 -68q0 -64 25 -90.5t73 -26.5q63 0 113 43l41 -94q-58 -54 -130 -67l-27 -126h-123l26 123q-160 26 -160 228q0 180 74.5 280t202.5 112z" />
    <glyph glyph-name="sterling.osf" horiz-adv-x="574" 
d="M37 272l8 103h42q-5 30 -5 53q0 45 16 84.5t50 73.5t95.5 53.5t144.5 19.5q90 0 169 -28l-36 -118q-64 23 -134 23q-81 0 -112.5 -30.5t-31.5 -85.5l3 -45h227l-14 -103h-202q0 -111 -76 -157l1 -2q74 15 172 15q86 0 159 -12l-25 -122q-116 12 -229 12q-135 0 -265 -10
l12 123q96 19 96 153h-65z" />
    <glyph glyph-name="currency.osf" 
d="M323 518q44 0 83 -21l82 72l69 -81l-80 -70q13 -34 13 -66q0 -56 -32 -110l55 -66l-92 -80l-54 62q-47 -24 -98 -24q-48 0 -90 24l-72 -63l-70 81l74 65q-9 27 -9 58q0 64 39 119l-59 70l91 81l61 -72q45 21 89 21zM309 417q-42 0 -72 -30.5t-30 -72.5q0 -33 21.5 -54
t55.5 -21q40 0 71 30t31 71q0 33 -21.5 55t-55.5 22z" />
    <glyph glyph-name="yen.osf" 
d="M90 305h84l-124 344h174l65 -282q6 -24 8 -40h2q3 9 17 37l145 285h170l-219 -344h90l-10 -72h-123l-6 -42h123l-10 -71h-123l-16 -120h-170l16 120h-119l10 71h119l6 42h-119z" />
    <glyph glyph-name="franc.osf" 
d="M6 174h62l67 475h466l-15 -128h-313l-19 -135h235l-18 -121h-234l-13 -91h72l-14 -96h-72l-10 -78h-155l10 78h-63z" />
    <glyph glyph-name="lira.osf" 
d="M398 659q95 0 173 -29l-36 -118q-63 24 -139 24q-86 0 -117 -32.5t-31 -92.5h247l-10 -70h-230q3 -13 5 -41h220l-10 -71h-212q-11 -77 -72 -114l1 -2q84 15 177 15q85 0 164 -11l-25 -123q-119 12 -234 12q-139 0 -271 -10l12 124q43 8 68 39t29 70h-61l5 71h55
q-2 22 -6 41h-45l4 70h30q0 3 -0.5 8.5t-0.5 7.5q0 98 74 165t236 67z" />
    <glyph glyph-name="peseta.osf" 
d="M69 649h113q61 0 87 -24.5t26 -89.5q0 -39 -7 -85q-16 -117 -49 -157.5t-111 -40.5h-27l-35 -252h-88zM416 329h-36l-30 -214q-4 -26 -4 -29q0 -17 15 -17q9 0 13 3l-8 -70q-13 -9 -38 -9q-62 0 -62 73q0 18 2 29l33 234h-18l10 73h21l26 88l63 10l-14 -98h40zM529 407
q33 0 51 -15l-17 -78q-16 10 -38 10q-14 0 -23 -12t-9 -33q0 -18 14.5 -34.5t29.5 -40t15 -58.5q0 -77 -31 -115.5t-81 -38.5q-34 0 -52 16l12 74q16 -12 42 -12q16 0 26 13.5t10 38.5q0 16 -9 30t-20.5 24t-20.5 31t-9 49q0 65 31 108t79 43zM171 560h-26l-31 -224h25
q25 0 36.5 20t22.5 93q6 45 6 68q0 26 -7.5 34.5t-25.5 8.5z" />
    <glyph glyph-name="Euro.osf" 
d="M426 659q112 0 184 -35l-55 -117q-45 20 -106 20q-76 0 -119.5 -24t-66.5 -77h255l-35 -75h-240q-3 -19 -7 -50h226l-36 -73h-190q7 -60 44.5 -86.5t107.5 -26.5q68 0 133 31l-9 -115q-73 -44 -187 -44q-131 0 -200 61t-73 180h-44l10 73h36q4 31 7 50h-36l10 75h45
q78 233 346 233z" />
    <glyph glyph-name="numbersign.lf" horiz-adv-x="632" 
d="M28 299h97l46 149h-122l16 108h137l56 194h128l-57 -194h84l56 194h125l-57 -194h86l-16 -108h-100l-44 -149h124l-16 -110h-140l-54 -189h-125l55 189h-85l-55 -189h-127l54 189h-82zM299 448l-45 -149h83l44 149h-82z" />
    <glyph glyph-name="dollar.lf" horiz-adv-x="592" 
d="M387 826l94 -7l-19 -62q71 -10 110 -28l-28 -130q-54 17 -121 25l-54 -185q37 -14 62.5 -28t52 -36t40.5 -53t14 -71q0 -128 -77.5 -194t-218.5 -69l-26 -68l-86 6l19 67q-101 12 -153 43l39 135q62 -36 148 -51l58 203q-40 16 -66 30t-54.5 37t-43 54t-14.5 70
q0 113 80.5 178.5t222.5 69.5zM312 294l-48 -180q131 2 131 95q0 27 -21.5 46.5t-61.5 38.5zM340 630q-63 -1 -94 -26.5t-31 -62.5q0 -24 21 -41t61 -33z" />
    <glyph glyph-name="zero.lf" horiz-adv-x="626" 
d="M369 759q122 0 179 -58.5t57 -192.5q0 -56 -11 -136q-28 -201 -107.5 -291.5t-226.5 -90.5q-122 0 -178 60t-56 192q0 61 10 130q30 211 106.5 299t226.5 88zM351 627q-42 0 -68 -19t-47 -74.5t-36 -159.5q-11 -76 -11 -133q0 -71 21.5 -96.5t68.5 -25.5q42 0 67.5 18.5
t46.5 75t36 161.5q11 74 11 132q0 71 -21 96t-68 25z" />
    <glyph glyph-name="one.lf" horiz-adv-x="471" 
d="M437 751l-105 -751h-172l70 504q4 26 8 40l-2 2l-35 -21l-110 -59l3 139l242 146h101z" />
    <glyph glyph-name="two.lf" horiz-adv-x="613" 
d="M359 759q114 0 172.5 -48t58.5 -133q0 -56 -23.5 -109t-75.5 -109t-107.5 -103t-146.5 -115v-3h292l-22 -139h-500l14 104l68.5 59l67.5 58.5l59.5 52.5t56 52l45.5 47t40.5 47t28 42t20 42.5t5.5 38.5q0 78 -104 78q-85 0 -190 -67l-22 126q120 79 263 79z" />
    <glyph glyph-name="three.lf" horiz-adv-x="613" 
d="M345 759q114 0 176 -46t62 -128q0 -136 -128 -191v-2q99 -37 99 -136q0 -122 -86 -193.5t-242 -71.5q-129 0 -219 57l48 121q87 -49 184 -49q71 0 111 35.5t40 96.5q0 42 -40.5 61.5t-143.5 19.5l16 113q113 0 157.5 28t44.5 83q0 69 -109 69q-102 0 -199 -66l-22 120
q112 79 251 79z" />
    <glyph glyph-name="four.lf" horiz-adv-x="638" 
d="M576 145h-72l-20 -145h-156l20 145h-330v99l369 506h202l-67 -477h76zM372 273l48 288q3 22 9 40l-2 1q-17 -27 -23 -35l-186 -261q-4 -6 -24 -31l1 -2h177z" />
    <glyph glyph-name="five.lf" horiz-adv-x="595" 
d="M574 750l-14 -139h-303l-31 -145q53 11 108 11q106 0 161 -44.5t55 -131.5q0 -21 -3 -43q-38 -267 -318 -267q-134 0 -224 57l47 122q89 -50 179 -50q149 0 149 147q0 82 -114 82q-80 0 -154 -27l-51 59l83 369h430z" />
    <glyph glyph-name="six.lf" horiz-adv-x="617" 
d="M422 759q104 0 171 -29l-29 -128q-65 24 -140 24q-89 0 -140 -43.5t-74 -135.5l1 -1q75 41 155 41q209 0 209 -173q0 -15 -4 -51q-18 -136 -96.5 -204t-207.5 -68q-121 0 -181.5 60t-60.5 194q0 51 9 112q28 198 126.5 300t261.5 102zM317 369q-29 0 -64 -13.5t-55 -36.5
q-6 -47 -6 -80q0 -64 22.5 -91t70.5 -27q103 0 123 144q2 18 2 24q0 80 -93 80z" />
    <glyph glyph-name="seven.lf" horiz-adv-x="620" 
d="M637 750l-19 -134l-363 -616h-189l368 571q10 16 23 32l-1 2h-383l28 145h536z" />
    <glyph glyph-name="eight.lf" horiz-adv-x="623" 
d="M260 -9q-249 0 -249 182q0 148 133 219v2q-58 46 -58 129q0 111 72 173.5t210 62.5q226 0 226 -163q0 -127 -110 -198v-2q88 -46 88 -141q0 -129 -83 -196.5t-229 -67.5zM264 331q-91 -54 -91 -138q0 -43 26 -61.5t83 -18.5q55 0 90 26t35 81q0 38 -32 60.5t-111 50.5z
M350 639q-50 0 -79 -25t-29 -74q0 -37 30.5 -57.5t90.5 -38.5q79 47 79 124q0 71 -92 71z" />
    <glyph glyph-name="nine.lf" horiz-adv-x="619" 
d="M358 759q117 0 179 -65.5t62 -195.5q0 -46 -7 -92q-31 -217 -123.5 -316t-254.5 -99q-110 0 -187 35l42 126q69 -30 147 -30q85 0 131 46t69 149l-2 2q-64 -39 -153 -39q-104 0 -156.5 49t-52.5 136q0 136 80.5 215t225.5 79zM336 628q-57 0 -89.5 -35.5t-32.5 -106.5
q0 -84 96 -84q82 0 122 54q4 27 4 55q0 63 -25.5 90t-74.5 27z" />
    <glyph glyph-name="cent.lf" horiz-adv-x="503" 
d="M326 730h123l-28 -125q33 -8 72 -28l-58 -111q-37 18 -88 18q-67 0 -106 -42t-53 -143q-6 -39 -6 -68q0 -64 25 -90.5t73 -26.5q63 0 113 43l41 -94q-59 -53 -128 -67l-27 -126h-123l26 123q-163 26 -163 227q0 42 7 87q20 143 90 219.5t185 86.5z" />
    <glyph glyph-name="sterling.lf" horiz-adv-x="625" 
d="M46 320l9 111h49q-8 37 -8 72q0 110 81.5 184.5t253.5 74.5q107 0 183 -32l-38 -130q-68 27 -145 27q-90 0 -126 -37t-36 -102q0 -19 6 -57h248l-16 -111h-220q0 -142 -89 -195l1 -2q82 17 188 17q93 0 175 -12l-12 -66q-13 -66 -14 -69q-132 14 -250 14q-154 0 -291 -12
l12 140q56 11 85 57.5t29 105.5q0 15 -1 22h-74z" />
    <glyph glyph-name="currency.lf" horiz-adv-x="608" 
d="M332 560q45 0 84 -21l86 74l70 -83l-82 -72q12 -32 12 -69q0 -59 -34 -112l59 -67l-95 -83l-56 65q-48 -25 -99 -25q-53 0 -94 24l-74 -65l-71 83l77 67q-9 27 -9 57q0 67 39 125l-61 72l95 83l62 -74q47 21 91 21zM317 459q-41 0 -73.5 -32t-32.5 -74q0 -35 22.5 -57
t57.5 -22q43 0 75 31t32 74q0 34 -23 57t-58 23z" />
    <glyph glyph-name="yen.lf" horiz-adv-x="717" 
d="M134 361h94l-138 389h195l68 -350q6 -32 7 -40h2q5 15 16 37l168 353h191l-243 -389h99l-11 -82h-136l-6 -43h136l-12 -82h-136l-21 -154h-191l21 154h-132l12 82h132l6 43h-132z" />
    <glyph glyph-name="franc.lf" horiz-adv-x="618" 
d="M-10 199h67l78 551h497l-17 -140h-327l-23 -165h245l-19 -131h-244l-17 -115h75l-15 -108h-75l-12 -91h-173l12 91h-67z" />
    <glyph glyph-name="lira.lf" horiz-adv-x="640" 
d="M65 393l4 82h32q-1 7 -1 20q0 53 17.5 99t54.5 84.5t104 61t157 22.5q106 0 183 -32l-38 -128q-68 27 -145 27q-91 0 -126.5 -38t-35.5 -104q0 -2 0.5 -6t0.5 -6h266l-11 -82h-243q2 -15 4 -45h232l-11 -81h-223v-2q-14 -95 -89 -140l1 -2q84 17 191 17q93 0 175 -12
l-12 -66q-13 -66 -14 -69q-132 14 -250 14q-154 0 -291 -12l12 140q45 9 74.5 42.5t36.5 79.5l1 10h-68l6 81h62q-1 22 -6 45h-50z" />
    <glyph glyph-name="peseta.lf" horiz-adv-x="836" 
d="M256 750q85 0 123.5 -35t38.5 -120q0 -35 -6 -80q-18 -126 -69 -179.5t-153 -53.5h-35l-39 -282h-116l105 750h151zM589 374h-53l-34 -242q-4 -24 -4 -29q0 -22 23 -22q11 0 18 4l-8 -84q-20 -10 -56 -10q-81 0 -81 87q0 20 2 31l37 265h-26l12 85h30l32 99l82 10
l-15 -109h53zM737 464q42 0 71 -18l-20 -94q-26 14 -56 14q-17 0 -28 -12.5t-11 -34.5q0 -18 13.5 -33t29 -26.5t29 -36.5t13.5 -59q0 -84 -38 -129t-104 -45q-49 0 -78 20l19 89q25 -18 61 -18q19 0 30.5 14.5t11.5 41.5q0 20 -13.5 35.5t-29 26t-29 35t-13.5 59.5
q0 75 38.5 123t103.5 48zM240 639h-35l-35 -251h35q39 0 56.5 23t28.5 103q6 40 6 65q0 35 -12.5 47.5t-43.5 12.5z" />
    <glyph glyph-name="Euro.lf" horiz-adv-x="618" 
d="M478 348l-29 -80h-196q4 -82 43 -118.5t114 -36.5q62 0 133 33l-5 -113q-78 -42 -187 -42q-132 0 -197.5 68t-66.5 209h-79l11 80h72q4 33 7 46h-72l12 83h79q39 131 130.5 204.5t219.5 73.5q101 0 163 -30l-46 -120q-45 19 -100 19q-150 0 -200 -147h247l-31 -83h-237
q-3 -13 -7 -46h222z" />
    <glyph glyph-name="numbersign.tosf" 
d="M21 266h85l36 118h-105l15 104h120l47 161h123l-48 -161h99l47 161h121l-48 -161h73l-15 -104h-87l-36 -118h107l-15 -105h-121l-46 -161h-121l46 161h-99l-46 -161h-123l46 161h-70zM265 384l-36 -118h99l35 118h-98z" />
    <glyph glyph-name="dollar.tosf" 
d="M524 192q-11 -81 -67 -134t-159 -66l-27 -126h-133l27 125q-91 9 -151 43l41 130q40 -24 96 -37t104 -13t73.5 19t25.5 49q0 19 -21.5 32.5t-53.5 20t-69 18.5t-69 26.5t-53.5 45.5t-21.5 74q0 87 57.5 143.5t166.5 69.5l29 125h133l-29 -125q68 -9 131 -32l-33 -130
q-87 35 -182 35q-47 0 -73 -15t-26 -41q0 -22 29.5 -35t71.5 -23t84 -23.5t71.5 -46t29.5 -82.5q0 -7 -2 -27z" />
    <glyph glyph-name="zero.tosf" 
d="M343 651q119 0 175 -55.5t56 -174.5q0 -42 -8 -103q-23 -169 -99.5 -248.5t-217.5 -79.5q-121 0 -176.5 56t-55.5 174q0 48 7 98q25 176 100 254.5t219 78.5zM325 525q-60 0 -92.5 -43t-49.5 -163q-7 -50 -7 -91q0 -65 22 -89t70 -24q59 0 90 41.5t47 162.5q8 61 8 96
q0 63 -21 86.5t-67 23.5z" />
    <glyph glyph-name="one.tosf" 
d="M66 0l12 90h136l45 325q4 26 8 40l-2 2q-4 -3 -36 -20l-127 -66v132l255 139h99l-78 -552h131l-12 -90h-431z" />
    <glyph glyph-name="two.tosf" 
d="M340 650q110 0 165.5 -44t55.5 -120q0 -51 -21 -96t-69 -90.5t-98 -81.5t-136 -92v-3h275l-21 -123h-475l13 98l83.5 63.5l79 61l64.5 52t58 51t40 44.5t29 45.5t8 40.5q0 65 -98 65q-85 0 -181 -58l-24 117q115 70 252 70z" />
    <glyph glyph-name="three.tosf" 
d="M321 651q108 0 164.5 -42.5t56.5 -112.5q0 -55 -26.5 -98.5t-74.5 -68.5v-2q82 -35 82 -124q0 -9 -2 -29q-19 -134 -137.5 -206.5t-318.5 -76.5l3 121q154 3 226.5 51.5t72.5 123.5q0 73 -105 73q-34 0 -66 -6l8 102q107 12 148 37t41 72q0 59 -101 59q-99 0 -187 -55
l-18 116q44 30 107.5 48t126.5 18z" />
    <glyph glyph-name="four.tosf" 
d="M553 640l-64 -461h72l-21 -118h-68l-23 -163l-150 -8l24 171h-333v98l381 491zM346 179l50 297q3 22 9 40l-2 1q-12 -20 -24 -34l-202 -272q-13 -18 -25 -30l1 -2h193z" />
    <glyph glyph-name="five.tosf" 
d="M549 642l-13 -136h-288l-30 -138q50 11 101 11q99 0 152.5 -41.5t53.5 -119.5q0 -17 -3 -35q-19 -136 -137.5 -213.5t-324.5 -78.5l3 126q146 2 222.5 47t76.5 118q0 70 -111 70q-75 0 -147 -28l-46 59l81 359h410z" />
    <glyph glyph-name="six.tosf" 
d="M356 475q200 0 200 -169q0 -22 -3 -46q-19 -135 -95 -202t-199 -67q-233 0 -233 242q0 124 42 225t111.5 163t154 95.5t175.5 34.5l6 -127q-119 -2 -196.5 -53t-106.5 -137l1 -1q71 42 143 42zM309 358q-28 0 -60.5 -13.5t-52.5 -34.5q-6 -45 -6 -78q0 -62 21 -87t66 -25
q98 0 118 139q2 16 2 24q0 75 -88 75z" />
    <glyph glyph-name="seven.tosf" 
d="M592 641l-18 -126l-354 -611h-179l340 561q4 7 22 32l-1 2h-332l29 142h493z" />
    <glyph glyph-name="eight.tosf" 
d="M251 -11q-247 0 -247 163q0 121 120 182v2q-52 39 -52 111q0 96 68.5 149.5t203.5 53.5q220 0 220 -145q0 -107 -95 -164v-2q82 -41 82 -125q0 -109 -79 -167t-221 -58zM244 279q-81 -42 -81 -106q0 -35 25.5 -51t82.5 -16q51 0 83.5 19t32.5 59q0 9 -2 17t-7 15t-9.5 12
t-14.5 10.5t-16.5 8.5t-21 8l-21.5 7.5t-25 8t-26 8.5zM326 535q-49 0 -75.5 -19.5t-26.5 -54.5q0 -22 20 -38t41 -23t63 -18q68 36 68 95q0 58 -90 58z" />
    <glyph glyph-name="nine.tosf" 
d="M336 649q227 0 227 -229q0 -36 -6 -78q-16 -116 -60.5 -203.5t-110 -140t-143.5 -78.5t-168 -27l3 125q107 2 185.5 53t109.5 148l-2 2q-55 -36 -135 -36q-92 0 -143 44.5t-51 132.5q0 133 78 210t216 77zM314 520q-52 0 -81.5 -35t-29.5 -104q0 -40 20 -59t65 -19
q79 0 110 58q4 29 4 59q0 55 -21 77.5t-67 22.5z" />
    <glyph glyph-name="cent.tosf" 
d="M382 738h130l-30 -129q57 -8 96 -24l-28 -132q-63 24 -125 24q-97 0 -141 -39.5t-58 -134.5q-3 -24 -3 -44q0 -138 152 -138q70 0 136 28l-5 -121q-54 -32 -143 -39l-28 -125h-130l30 130q-188 33 -188 237q0 165 78.5 264.5t227.5 115.5z" />
    <glyph glyph-name="sterling.tosf" 
d="M41 272l8 103h42q-5 30 -5 54q0 45 16.5 84.5t51 73t97 53t146.5 19.5q96 0 174 -29l-36 -118q-65 23 -139 23q-82 0 -115.5 -30t-33.5 -84q0 -16 4 -46h234l-14 -103h-209q0 -110 -77 -157l1 -2q84 15 178 15q84 0 164 -11l-26 -123q-117 12 -234 12q-138 0 -271 -10
l12 124q98 18 98 152h-66z" />
    <glyph glyph-name="currency.tosf" 
d="M323 518q44 0 83 -21l82 72l69 -81l-80 -70q13 -34 13 -66q0 -56 -32 -110l55 -66l-92 -80l-54 62q-47 -24 -98 -24q-48 0 -90 24l-72 -63l-70 81l74 65q-9 27 -9 58q0 64 39 119l-59 70l91 81l61 -72q45 21 89 21zM309 417q-41 0 -71.5 -30.5t-30.5 -71.5
q0 -33 21.5 -54.5t55.5 -21.5q40 0 71 29.5t31 70.5q0 33 -22 55.5t-55 22.5z" />
    <glyph glyph-name="yen.tosf" 
d="M90 305h84l-124 344h174l65 -282q6 -24 8 -40h2q3 9 17 37l145 285h170l-219 -344h90l-10 -72h-123l-6 -42h123l-10 -71h-123l-16 -120h-170l16 120h-119l10 71h119l6 42h-119z" />
    <glyph glyph-name="uni2007.tosf" 
 />
    <glyph glyph-name="franc.tosf" 
d="M6 174h63l67 475h465l-15 -128h-313l-19 -135h235l-18 -121h-234l-13 -91h72l-14 -96h-72l-10 -78h-155l10 78h-63z" />
    <glyph glyph-name="lira.tosf" 
d="M55 340l4 71h30q0 3 -0.5 8.5t-0.5 7.5q0 98 74 165t236 67q95 0 173 -29l-36 -118q-63 24 -139 24q-85 0 -116.5 -33.5t-31.5 -91.5h247l-10 -71h-230q2 -13 4 -39h221l-10 -72h-213q-11 -78 -72 -114l1 -2q76 15 178 15q85 0 164 -11l-25 -123q-119 12 -234 12
q-139 0 -271 -10l12 124q84 16 97 109h-61l5 72h55l-6 39h-45z" />
    <glyph glyph-name="peseta.tosf" 
d="M333 649q117 0 171 -41.5t54 -129.5v-15h47l-10 -71h-48q-22 -89 -88 -133.5t-187 -44.5h-81l-30 -214h-151l54 391h-39l11 72h39l26 186h232zM317 536h-81l-10 -73h176q0 41 -19 57t-66 16zM287 321q46 0 69.5 14t34.5 56h-176l-9 -70h81z" />
    <glyph glyph-name="Euro.tosf" 
d="M610 624l-55 -117q-45 20 -106 20q-74 0 -118.5 -24t-66.5 -77h254l-35 -77h-240q-3 -16 -7 -48h226l-36 -74h-188q18 -112 150 -112q71 0 135 32l-11 -116q-73 -44 -187 -44q-130 0 -199.5 61t-74.5 179h-44l11 74h36q5 40 7 49h-36l10 76h45q78 233 346 233
q112 0 184 -35z" />
    <glyph glyph-name="f_i.sc" horiz-adv-x="861" 
d="M549 520h-301l-20 -140h256l-18 -123h-255l-36 -257h-160l90 649h459zM575 0l91 649h164l-91 -649h-164z" />
    <glyph glyph-name="f_l.sc" horiz-adv-x="1078" 
d="M549 520h-301l-20 -140h256l-18 -123h-255l-36 -257h-160l90 649h459zM746 129h282l-22 -129h-439l91 649h161z" />
    <glyph glyph-name="exclam.sc" horiz-adv-x="289" 
d="M180 191h-117l43 458h160zM114 127q73 0 73 -55q0 -39 -23.5 -61t-68.5 -22q-73 0 -73 52q0 86 92 86z" />
    <glyph glyph-name="ampersand.sc" horiz-adv-x="667" 
d="M617 348q-20 -84 -93 -178q47 -30 103 -54l-71 -124q-62 27 -134 78q-109 -82 -231 -82q-95 0 -139 43t-44 110q0 125 146 218q-37 68 -37 121q0 77 55 128t165 51q79 0 127.5 -32t48.5 -85q0 -32 -14.5 -60t-47.5 -55.5t-55 -42l-69 -43.5q47 -54 105 -104q37 54 59 111
h126zM231 105q52 0 103 35q-69 62 -116 124q-55 -50 -55 -102q0 -57 68 -57zM320 555q-29 0 -46.5 -17.5t-17.5 -50.5q0 -29 17 -60q44 25 67 46t23 46q0 36 -43 36z" />
    <glyph glyph-name="question.sc" horiz-adv-x="477" 
d="M273 658q95 0 144 -37t49 -103q0 -147 -184 -233l-20 -94h-116l12 145q75 35 113 67.5t38 75.5q0 51 -76 51q-78 0 -142 -49l-37 110q40 30 99 48.5t120 18.5zM194 127q73 0 73 -55q0 -39 -23 -61t-69 -22q-38 0 -55 12t-17 40q0 86 91 86z" />
    <glyph glyph-name="grave.sc" horiz-adv-x="406" 
d="M346 687h-118l-106 128h178z" />
    <glyph glyph-name="a.sc" horiz-adv-x="680" 
d="M445 0l-21 129h-241l-58 -129h-170l329 649h190l151 -649h-180zM360 522h-2l-15 -37l-108 -238h169l-39 235q-4 25 -5 40z" />
    <glyph glyph-name="b.sc" horiz-adv-x="626" 
d="M105 649h284q100 0 151 -36.5t51 -102.5q0 -124 -110 -167v-2q95 -26 95 -123q0 -103 -69.5 -160.5t-204.5 -57.5h-288zM207 278l-23 -159h135q48 0 72.5 22.5t24.5 76.5q0 31 -18 45.5t-58 14.5h-133zM243 527l-21 -143h128q85 0 85 91q0 52 -68 52h-124z" />
    <glyph glyph-name="c.sc" horiz-adv-x="545" 
d="M394 661q85 0 156 -28l-34 -125q-58 24 -132 24q-92 0 -133 -44.5t-58 -160.5q-6 -47 -6 -80q0 -73 32 -102.5t109 -29.5q69 0 140 28l-1 -117q-83 -38 -179 -38q-269 0 -269 253q0 44 7 87q25 164 114.5 248.5t253.5 84.5z" />
    <glyph glyph-name="d.sc" horiz-adv-x="664" 
d="M105 649h262q139 0 204 -57.5t65 -178.5q0 -33 -7 -87q-24 -170 -110.5 -248t-240.5 -78h-264zM248 520l-55 -391h99q80 0 116.5 39.5t53.5 159.5q6 44 6 76q0 66 -27.5 91t-93.5 25h-99z" />
    <glyph glyph-name="e.sc" horiz-adv-x="570" 
d="M192 125h315l-20 -125h-473l91 649h460l-16 -127h-301l-19 -133h252l-16 -113h-252z" />
    <glyph glyph-name="f.sc" horiz-adv-x="553" 
d="M549 520h-301l-20 -140h256l-18 -123h-255l-36 -257h-160l90 649h459z" />
    <glyph glyph-name="g.sc" horiz-adv-x="610" 
d="M405 661q107 0 187 -31l-33 -128q-77 28 -163 28q-100 0 -142.5 -43.5t-59.5 -161.5q-7 -54 -7 -82q0 -71 30.5 -98.5t102.5 -27.5q35 0 69 8l31 222h143l-45 -323q-90 -36 -211 -36q-150 0 -219.5 62t-69.5 187q0 33 7 87q24 170 115.5 253.5t264.5 83.5z" />
    <glyph glyph-name="h.sc" horiz-adv-x="682" 
d="M568 0h-161l37 266h-232l-37 -266h-161l91 649h161l-36 -254h232l36 254h161z" />
    <glyph glyph-name="i.sc" horiz-adv-x="308" 
d="M22 0l91 649h164l-91 -649h-164z" />
    <glyph glyph-name="j.sc" horiz-adv-x="452" 
d="M436 649l-59 -418q-35 -243 -270 -243q-84 0 -130 29l26 122q37 -24 91 -24q57 0 84.5 26.5t35.5 87.5l59 420h163z" />
    <glyph glyph-name="k.sc" horiz-adv-x="664" 
d="M604 0h-195l-128 274h-68l-38 -274h-161l91 649h160l-36 -256h71l201 256h183l-247 -307z" />
    <glyph glyph-name="l.sc" horiz-adv-x="525" 
d="M193 129h282l-22 -129h-439l91 649h161z" />
    <glyph glyph-name="m.sc" horiz-adv-x="849" 
d="M105 649h176l111 -401q1 -4 5 -18.5t5 -21.5h2q3 9 19 36l228 405h175l-91 -649h-147l53 383q1 6 9 41l-2 1l-224 -425h-104l-105 414h-2q-2 -30 -4 -41l-52 -373h-143z" />
    <glyph glyph-name="n.sc" horiz-adv-x="688" 
d="M573 0h-128l-211 371q-13 21 -20 37l-2 -1q-2 -30 -4 -41l-51 -366h-143l91 649h135l207 -360q3 -7 11 -19.5t10 -16.5l2 1q0 20 3 40l50 355h141z" />
    <glyph glyph-name="o.sc" horiz-adv-x="672" 
d="M378 659q138 0 202 -59t64 -183q0 -47 -7 -93q-24 -174 -108 -255t-245 -81q-136 0 -201 60.5t-65 185.5q0 45 7 90q24 172 108.5 253.5t244.5 81.5zM360 532q-78 0 -114 -43t-53 -165q-7 -48 -7 -88q0 -68 27 -94.5t90 -26.5q77 0 112.5 44t52.5 165q8 58 8 91
q0 66 -26.5 91.5t-89.5 25.5z" />
    <glyph glyph-name="p.sc" horiz-adv-x="613" 
d="M105 649h249q125 0 183.5 -43t58.5 -132q0 -128 -74.5 -197t-229.5 -69h-88l-29 -208h-161zM248 528l-29 -204h89q59 0 84.5 20.5t33.5 81.5q3 18 3 33q0 39 -21 54t-71 15h-89z" />
    <glyph glyph-name="q.sc" horiz-adv-x="680" 
d="M382 659q138 0 202 -59t64 -183q0 -47 -7 -93q-18 -130 -68.5 -207.5t-140.5 -107.5l106 -107l-189 -25l-82 112q-125 4 -185 65t-60 180q0 44 7 90q24 172 108.5 253.5t244.5 81.5zM364 532q-78 0 -114 -43t-53 -165q-7 -48 -7 -88q0 -68 27 -94.5t90 -26.5
q77 0 112.5 44t52.5 165q8 58 8 91q0 66 -26.5 91.5t-89.5 25.5z" />
    <glyph glyph-name="r.sc" horiz-adv-x="634" 
d="M105 649h256q232 0 232 -164q0 -81 -38.5 -139t-102.5 -78l122 -268h-190l-84 239h-92l-33 -239h-161zM249 530l-26 -183h93q56 0 81.5 26.5t25.5 95.5q0 33 -18.5 47t-60.5 14h-95z" />
    <glyph glyph-name="s.sc" horiz-adv-x="536" 
d="M333 660q113 0 189 -35l-35 -120q-92 29 -165 29q-113 0 -113 -71q0 -23 28.5 -39.5t69.5 -29.5t82.5 -30t70 -52.5t28.5 -87.5q0 -106 -80 -171t-207 -65q-121 0 -208 49l38 125q87 -49 186 -49q55 0 84 20t29 57q0 24 -28.5 41t-69 30.5t-81.5 31t-69.5 52.5t-28.5 86
q0 99 72 164t208 65z" />
    <glyph glyph-name="t.sc" horiz-adv-x="550" 
d="M561 522h-182l-73 -522h-163l73 522h-182l21 127h521z" />
    <glyph glyph-name="u.sc" horiz-adv-x="672" 
d="M656 649l-58 -409q-36 -252 -313 -252q-249 0 -249 199q0 28 4 53l58 409h160l-58 -411q-2 -11 -2 -32q0 -46 25.5 -67.5t79.5 -21.5q63 0 94.5 28.5t40.5 92.5l58 411h160z" />
    <glyph glyph-name="v.sc" horiz-adv-x="659" 
d="M527 649h168l-327 -649h-177l-144 649h178l72 -463q4 -24 5 -41h2q8 24 15 38z" />
    <glyph glyph-name="w.sc" horiz-adv-x="960" 
d="M437 649h174l37 -467q2 -26 2 -41h2l12 39l154 469h159l-253 -649h-192l-31 455q-2 26 -2 41h-2q-2 -10 -12 -39l-157 -457h-191l-73 649h169l18 -472q0 -7 0.5 -21t0.5 -20h2l13 39z" />
    <glyph glyph-name="x.sc" horiz-adv-x="662" 
d="M677 649l-237 -311l154 -338h-184l-80 202q-9 21 -14 38h-2q-2 -5 -21 -34l-137 -206h-188l244 338l-148 311h192l72 -178q7 -16 14 -38h2q8 15 22 34l126 182h185z" />
    <glyph glyph-name="y.sc" horiz-adv-x="650" 
d="M47 649h182l85 -276q10 -32 11 -39h2q10 22 19 36l163 279h176l-296 -440l-29 -209h-166l29 209z" />
    <glyph glyph-name="z.sc" horiz-adv-x="576" 
d="M487 0h-501l13 96l341 394q11 13 27 28l-1 2h-299l22 129h487l-15 -108l-331 -382q-22 -24 -26 -28v-2h303z" />
    <glyph glyph-name="exclamdown.sc" horiz-adv-x="302" 
d="M97 439h130l-56 -531h-167zM192 667q80 0 80 -59q0 -44 -26 -68t-75 -24q-79 0 -79 60q0 91 100 91z" />
    <glyph glyph-name="dieresis.sc" horiz-adv-x="406" 
d="M175 813q57 0 57 -44q0 -66 -73 -66q-58 0 -58 42q0 68 74 68zM362 813q58 0 58 -44q0 -66 -74 -66q-57 0 -57 42q0 68 73 68z" />
    <glyph glyph-name="macron.sc" horiz-adv-x="406" 
d="M426 795l-11 -81h-322l11 81h322z" />
    <glyph glyph-name="acute.sc" horiz-adv-x="378" 
d="M259 815h191l-165 -128h-130z" />
    <glyph glyph-name="cedilla.sc" horiz-adv-x="406" 
d="M27 -189l101 202h105l-63 -202h-143z" />
    <glyph glyph-name="questiondown.sc" horiz-adv-x="512" 
d="M205 -75q-105 0 -159 39.5t-54 112.5q0 160 205 257l21 107h125l-13 -158q-85 -43 -126.5 -80t-41.5 -86q0 -59 85 -59q84 0 156 55l40 -116q-43 -33 -107 -52.5t-131 -19.5zM312 663q41 0 60 -13.5t19 -43.5q0 -95 -101 -95q-79 0 -79 60q0 43 26 67.5t75 24.5z" />
    <glyph glyph-name="germandbls.sc" horiz-adv-x="1072" 
d="M333 660q113 0 189 -35l-35 -120q-92 29 -165 29q-113 0 -113 -71q0 -23 28.5 -39.5t69.5 -29.5t82.5 -30t70 -52.5t28.5 -87.5q0 -106 -80 -171t-207 -65q-121 0 -208 49l38 125q87 -49 186 -49q55 0 84 20t29 57q0 24 -28.5 41t-69 30.5t-81.5 31t-69.5 52.5t-28.5 86
q0 99 72 164t208 65zM869 660q113 0 189 -35l-35 -120q-92 29 -165 29q-113 0 -113 -71q0 -23 28.5 -39.5t69.5 -29.5t82.5 -30t70 -52.5t28.5 -87.5q0 -106 -80 -171t-207 -65q-121 0 -208 49l38 125q87 -49 186 -49q55 0 84 20t29 57q0 24 -28.5 41t-69 30.5t-81.5 31
t-69.5 52.5t-28.5 86q0 99 72 164t208 65z" />
    <glyph glyph-name="agrave.sc" horiz-adv-x="680" 
d="M445 0l-21 129h-241l-58 -129h-170l329 649h190l151 -649h-180zM360 522h-2l-15 -37l-108 -238h169l-39 235q-4 25 -5 40zM464 687h-118l-106 128h178z" />
    <glyph glyph-name="aacute.sc" horiz-adv-x="680" 
d="M445 0l-21 129h-241l-58 -129h-170l329 649h190l151 -649h-180zM360 522h-2l-15 -37l-108 -238h169l-39 235q-4 25 -5 40zM421 815h191l-165 -128h-130z" />
    <glyph glyph-name="acircumflex.sc" horiz-adv-x="680" 
d="M445 0l-21 129h-241l-58 -129h-170l329 649h190l151 -649h-180zM360 522h-2l-15 -37l-108 -238h169l-39 235q-4 25 -5 40zM328 815h139l81 -128h-119l-38 74l-59 -74h-119z" />
    <glyph glyph-name="atilde.sc" horiz-adv-x="680" 
d="M445 0l-21 129h-241l-58 -129h-170l329 649h190l151 -649h-180zM360 522h-2l-15 -37l-108 -238h169l-39 235q-4 25 -5 40zM443 690q-37 0 -70.5 23t-45.5 23q-22 0 -33 -38h-87q10 55 42.5 87t80.5 32q37 0 71 -23t46 -23q22 0 33 38h87q-10 -55 -43 -87t-81 -32z" />
    <glyph glyph-name="adieresis.sc" horiz-adv-x="680" 
d="M445 0l-21 129h-241l-58 -129h-170l329 649h190l151 -649h-180zM360 522h-2l-15 -37l-108 -238h169l-39 235q-4 25 -5 40zM298 813q57 0 57 -44q0 -66 -73 -66q-58 0 -58 42q0 68 74 68zM485 813q58 0 58 -44q0 -66 -74 -66q-57 0 -57 42q0 68 73 68z" />
    <glyph glyph-name="aring.sc" horiz-adv-x="680" 
d="M398 800q123 0 123 -80q0 -59 -44 -86l148 -634h-180l-21 129h-241l-58 -129h-170l320 631q-26 19 -26 56q0 113 149 113zM360 522h-2l-15 -37l-108 -238h169l-39 235q-4 25 -5 40zM392 739q-60 0 -60 -41q0 -27 50 -27q59 0 59 40q0 28 -49 28z" />
    <glyph glyph-name="ae.sc" horiz-adv-x="968" 
d="M950 523h-300l-11 -134h241l-16 -113h-234l-11 -151h286l-21 -125h-439l10 130h-229l-83 -130h-192l464 649h550zM489 536l-2 1q-6 -12 -22 -36l-164 -255h163l20 249q2 27 5 41z" />
    <glyph glyph-name="ccedilla.sc" horiz-adv-x="545" 
d="M116 -189l92 184q-189 33 -189 246q0 33 7 87q47 333 368 333q85 0 156 -28l-34 -125q-58 24 -132 24q-92 0 -133 -44.5t-58 -160.5q-6 -47 -6 -80q0 -73 32 -102.5t109 -29.5q69 0 140 28l-1 -117q-66 -31 -152 -37l-56 -178h-143z" />
    <glyph glyph-name="egrave.sc" horiz-adv-x="570" 
d="M192 125h315l-20 -125h-473l91 649h460l-16 -127h-301l-19 -133h252l-16 -113h-252zM426 687h-118l-106 128h178z" />
    <glyph glyph-name="eacute.sc" horiz-adv-x="570" 
d="M192 125h315l-20 -125h-473l91 649h460l-16 -127h-301l-19 -133h252l-16 -113h-252zM350 815h191l-165 -128h-130z" />
    <glyph glyph-name="ecircumflex.sc" horiz-adv-x="570" 
d="M192 125h315l-20 -125h-473l91 649h460l-16 -127h-301l-19 -133h252l-16 -113h-252zM293 815h139l81 -128h-119l-38 74l-59 -74h-119z" />
    <glyph glyph-name="edieresis.sc" horiz-adv-x="570" 
d="M192 125h315l-20 -125h-473l91 649h460l-16 -127h-301l-19 -133h252l-16 -113h-252zM265 813q57 0 57 -44q0 -66 -73 -66q-58 0 -58 42q0 68 74 68zM452 813q58 0 58 -44q0 -66 -74 -66q-57 0 -57 42q0 68 73 68z" />
    <glyph glyph-name="igrave.sc" horiz-adv-x="308" 
d="M22 0l91 649h164l-91 -649h-164zM271 687h-118l-106 128h178z" />
    <glyph glyph-name="iacute.sc" horiz-adv-x="308" 
d="M22 0l91 649h164l-91 -649h-164zM230 815h191l-165 -128h-130z" />
    <glyph glyph-name="icircumflex.sc" horiz-adv-x="308" 
d="M22 0l91 649h164l-91 -649h-164zM145 815h139l81 -128h-119l-38 74l-59 -74h-119z" />
    <glyph glyph-name="idieresis.sc" horiz-adv-x="308" 
d="M22 0l91 649h164l-91 -649h-164zM124 813q57 0 57 -44q0 -66 -73 -66q-58 0 -58 42q0 68 74 68zM311 813q58 0 58 -44q0 -66 -74 -66q-57 0 -57 42q0 68 73 68z" />
    <glyph glyph-name="eth.sc" horiz-adv-x="673" 
d="M114 649h262q139 0 204 -57.5t65 -178.5q0 -33 -7 -87q-24 -170 -110.5 -248t-240.5 -78h-264l40 286h-61l14 103h61zM257 520l-19 -131h98l-14 -103h-98l-22 -157h99q80 0 116.5 39.5t53.5 159.5q6 44 6 76q0 66 -27.5 91t-93.5 25h-99z" />
    <glyph glyph-name="ntilde.sc" horiz-adv-x="688" 
d="M573 0h-128l-211 371q-13 21 -20 37l-2 -1q-2 -30 -4 -41l-51 -366h-143l91 649h135l207 -360q3 -7 11 -19.5t10 -16.5l2 1q0 20 3 40l50 355h141zM459 690q-37 0 -70.5 23t-45.5 23q-22 0 -33 -38h-87q10 55 42.5 87t80.5 32q37 0 71 -23t46 -23q22 0 33 38h87
q-10 -55 -43 -87t-81 -32z" />
    <glyph glyph-name="ograve.sc" horiz-adv-x="672" 
d="M378 659q138 0 202 -59t64 -183q0 -47 -7 -93q-24 -174 -108 -255t-245 -81q-136 0 -201 60.5t-65 185.5q0 45 7 90q24 172 108.5 253.5t244.5 81.5zM360 532q-78 0 -114 -43t-53 -165q-7 -48 -7 -88q0 -68 27 -94.5t90 -26.5q77 0 112.5 44t52.5 165q8 58 8 91
q0 66 -26.5 91.5t-89.5 25.5zM460 687h-118l-106 128h178z" />
    <glyph glyph-name="oacute.sc" horiz-adv-x="672" 
d="M378 659q138 0 202 -59t64 -183q0 -47 -7 -93q-24 -174 -108 -255t-245 -81q-136 0 -201 60.5t-65 185.5q0 45 7 90q24 172 108.5 253.5t244.5 81.5zM360 532q-78 0 -114 -43t-53 -165q-7 -48 -7 -88q0 -68 27 -94.5t90 -26.5q77 0 112.5 44t52.5 165q8 58 8 91
q0 66 -26.5 91.5t-89.5 25.5zM405 815h191l-165 -128h-130z" />
    <glyph glyph-name="ocircumflex.sc" horiz-adv-x="672" 
d="M378 659q138 0 202 -59t64 -183q0 -47 -7 -93q-24 -174 -108 -255t-245 -81q-136 0 -201 60.5t-65 185.5q0 45 7 90q24 172 108.5 253.5t244.5 81.5zM360 532q-78 0 -114 -43t-53 -165q-7 -48 -7 -88q0 -68 27 -94.5t90 -26.5q77 0 112.5 44t52.5 165q8 58 8 91
q0 66 -26.5 91.5t-89.5 25.5zM335 815h139l81 -128h-119l-38 74l-59 -74h-119z" />
    <glyph glyph-name="otilde.sc" horiz-adv-x="672" 
d="M378 659q138 0 202 -59t64 -183q0 -47 -7 -93q-24 -174 -108 -255t-245 -81q-136 0 -201 60.5t-65 185.5q0 45 7 90q24 172 108.5 253.5t244.5 81.5zM360 532q-78 0 -114 -43t-53 -165q-7 -48 -7 -88q0 -68 27 -94.5t90 -26.5q77 0 112.5 44t52.5 165q8 58 8 91
q0 66 -26.5 91.5t-89.5 25.5zM455 690q-37 0 -70.5 23t-45.5 23q-22 0 -33 -38h-87q10 55 42.5 87t80.5 32q37 0 71 -23t46 -23q22 0 33 38h87q-10 -55 -43 -87t-81 -32z" />
    <glyph glyph-name="odieresis.sc" horiz-adv-x="672" 
d="M378 659q138 0 202 -59t64 -183q0 -47 -7 -93q-24 -174 -108 -255t-245 -81q-136 0 -201 60.5t-65 185.5q0 45 7 90q24 172 108.5 253.5t244.5 81.5zM360 532q-78 0 -114 -43t-53 -165q-7 -48 -7 -88q0 -68 27 -94.5t90 -26.5q77 0 112.5 44t52.5 165q8 58 8 91
q0 66 -26.5 91.5t-89.5 25.5zM313 813q57 0 57 -44q0 -66 -73 -66q-58 0 -58 42q0 68 74 68zM500 813q58 0 58 -44q0 -66 -74 -66q-57 0 -57 42q0 68 73 68z" />
    <glyph glyph-name="oslash.sc" horiz-adv-x="672" 
d="M53 -17l-63 61l55 56q-27 54 -27 133q0 45 7 91q23 172 107.5 253.5t245.5 81.5q121 0 186 -46l54 54l61 -63l-59 -60q24 -52 24 -129q0 -45 -7 -91q-24 -174 -108 -255t-245 -81q-118 0 -182 45zM193 324q-3 -19 -9 -105l274 275q-25 37 -98 37q-78 0 -113 -43t-54 -164
zM468 324q3 22 9 102l-272 -274q24 -36 98 -36q77 0 112.5 44t52.5 164z" />
    <glyph glyph-name="ugrave.sc" horiz-adv-x="672" 
d="M656 649l-58 -409q-36 -252 -313 -252q-249 0 -249 199q0 28 4 53l58 409h160l-58 -411q-2 -11 -2 -32q0 -46 25.5 -67.5t79.5 -21.5q63 0 94.5 28.5t40.5 92.5l58 411h160zM453 687h-118l-106 128h178z" />
    <glyph glyph-name="uacute.sc" horiz-adv-x="672" 
d="M656 649l-58 -409q-36 -252 -313 -252q-249 0 -249 199q0 28 4 53l58 409h160l-58 -411q-2 -11 -2 -32q0 -46 25.5 -67.5t79.5 -21.5q63 0 94.5 28.5t40.5 92.5l58 411h160zM404 815h191l-165 -128h-130z" />
    <glyph glyph-name="ucircumflex.sc" horiz-adv-x="672" 
d="M656 649l-58 -409q-36 -252 -313 -252q-249 0 -249 199q0 28 4 53l58 409h160l-58 -411q-2 -11 -2 -32q0 -46 25.5 -67.5t79.5 -21.5q63 0 94.5 28.5t40.5 92.5l58 411h160zM326 815h139l81 -128h-119l-38 74l-59 -74h-119z" />
    <glyph glyph-name="udieresis.sc" horiz-adv-x="672" 
d="M656 649l-58 -409q-36 -252 -313 -252q-249 0 -249 199q0 28 4 53l58 409h160l-58 -411q-2 -11 -2 -32q0 -46 25.5 -67.5t79.5 -21.5q63 0 94.5 28.5t40.5 92.5l58 411h160zM306 813q57 0 57 -44q0 -66 -73 -66q-58 0 -58 42q0 68 74 68zM493 813q58 0 58 -44
q0 -66 -74 -66q-57 0 -57 42q0 68 73 68z" />
    <glyph glyph-name="yacute.sc" horiz-adv-x="650" 
d="M47 649h182l85 -276q10 -32 11 -39h2q10 22 19 36l163 279h176l-296 -440l-29 -209h-166l29 209zM391 815h191l-165 -128h-130z" />
    <glyph glyph-name="thorn.sc" horiz-adv-x="613" 
d="M252 551h79q131 0 191 -43.5t60 -132.5q0 -265 -313 -265h-79l-15 -110h-161l91 649h161zM234 430l-29 -205h80q69 0 99.5 27.5t30.5 106.5q0 40 -22.5 55.5t-78.5 15.5h-80z" />
    <glyph glyph-name="ydieresis.sc" horiz-adv-x="650" 
d="M47 649h182l85 -276q10 -32 11 -39h2q10 22 19 36l163 279h176l-296 -440l-29 -209h-166l29 209zM297 813q57 0 57 -44q0 -66 -73 -66q-58 0 -58 42q0 68 74 68zM484 813q58 0 58 -44q0 -66 -74 -66q-57 0 -57 42q0 68 73 68z" />
    <glyph glyph-name="dotlessi.sc" horiz-adv-x="308" 
d="M22 0l91 649h164l-91 -649h-164z" />
    <glyph glyph-name="ij.sc" horiz-adv-x="761" 
d="M746 649l-59 -418q-34 -243 -270 -243q-84 0 -130 29l26 122q37 -24 91 -24q57 0 84.5 26.5t35.5 87.5l59 420h163zM22 0l91 649h164l-91 -649h-164z" />
    <glyph glyph-name="lslash.sc" horiz-adv-x="553" 
d="M221 129h282l-22 -129h-439l35 252l-73 -26l9 118l81 29l39 276h161l-31 -217l187 72l-7 -122l-197 -75z" />
    <glyph glyph-name="oe.sc" horiz-adv-x="959" 
d="M877 0h-450l7 52l-2 1q-73 -65 -183 -65q-231 0 -231 242q0 46 7 94q24 171 102.5 253t217.5 82q111 0 164 -56h2l7 46h436l-15 -127h-294l-19 -133h246l-16 -113h-246l-21 -150h307zM460 324q8 59 8 92q0 65 -25.5 90t-86.5 25q-76 0 -111 -42.5t-52 -164.5
q-8 -56 -8 -90q0 -66 26.5 -92t86.5 -26q75 0 110 43.5t52 164.5z" />
    <glyph glyph-name="scaron.sc" horiz-adv-x="536" 
d="M333 660q113 0 189 -35l-35 -120q-92 29 -165 29q-113 0 -113 -71q0 -23 28.5 -39.5t69.5 -29.5t82.5 -30t70 -52.5t28.5 -87.5q0 -106 -80 -171t-207 -65q-121 0 -208 49l38 125q87 -49 186 -49q55 0 84 20t29 57q0 24 -28.5 41t-69 30.5t-81.5 31t-69.5 52.5t-28.5 86
q0 99 72 164t208 65zM409 687h-140l-80 128h120l37 -77l59 77h121z" />
    <glyph glyph-name="zcaron.sc" horiz-adv-x="576" 
d="M487 0h-501l13 96l341 394q11 13 27 28l-1 2h-299l22 129h487l-15 -108l-331 -382q-22 -24 -26 -28v-2h303zM406 687h-140l-80 128h120l37 -77l59 77h121z" />
    <glyph glyph-name="longs.sc" horiz-adv-x="536" 
d="M333 660q113 0 189 -35l-35 -120q-92 29 -165 29q-113 0 -113 -71q0 -23 28.5 -39.5t69.5 -29.5t82.5 -30t70 -52.5t28.5 -87.5q0 -106 -80 -171t-207 -65q-121 0 -208 49l38 125q87 -49 186 -49q55 0 84 20t29 57q0 24 -28.5 41t-69 30.5t-81.5 31t-69.5 52.5t-28.5 86
q0 99 72 164t208 65z" />
    <glyph glyph-name="circumflex.sc" horiz-adv-x="389" 
d="M188 815h139l81 -128h-119l-38 74l-59 -74h-119z" />
    <glyph glyph-name="caron.sc" horiz-adv-x="389" 
d="M312 687h-140l-80 128h120l37 -77l59 77h121z" />
    <glyph glyph-name="breve.sc" horiz-adv-x="389" 
d="M309 815h110q-19 -133 -180 -133q-76 0 -110 26.5t-34 77.5q0 9 2 29h108q-2 -14 -2 -18q0 -47 46 -47q50 0 60 65z" />
    <glyph glyph-name="dotaccent.sc" horiz-adv-x="367" 
d="M249 817q75 0 75 -46q0 -68 -91 -68q-75 0 -75 45q0 69 91 69z" />
    <glyph glyph-name="ring.sc" horiz-adv-x="389" 
d="M261 823q123 0 123 -80q0 -109 -149 -109q-123 0 -123 76q0 113 149 113zM255 762q-60 0 -60 -41q0 -27 50 -27q59 0 59 40q0 28 -49 28z" />
    <glyph glyph-name="ogonek.sc" horiz-adv-x="382" 
d="M186 21l57 -21q-29 0 -49.5 -20.5t-20.5 -43.5q0 -33 46 -33q24 0 49 11l2 -78q-50 -25 -110 -25q-57 0 -86.5 21t-29.5 56q0 52 40.5 86t101.5 47z" />
    <glyph glyph-name="tilde.sc" horiz-adv-x="397" 
d="M312 690q-37 0 -70.5 23t-45.5 23q-22 0 -33 -38h-87q10 55 42.5 87t80.5 32q37 0 71 -23t46 -23q22 0 33 38h87q-10 -55 -43 -87t-81 -32z" />
    <glyph glyph-name="hungarumlaut.sc" horiz-adv-x="400" 
d="M175 823h158l-128 -128h-101zM371 823h161l-141 -128h-114z" />
    <glyph glyph-name="fi.sc" horiz-adv-x="861" 
d="M549 520h-301l-20 -140h256l-18 -123h-255l-36 -257h-160l90 649h459zM575 0l91 649h164l-91 -649h-164z" />
    <glyph glyph-name="fl.sc" horiz-adv-x="1078" 
d="M549 520h-301l-20 -140h256l-18 -123h-255l-36 -257h-160l90 649h459zM746 129h282l-22 -129h-439l91 649h161z" />
    <glyph glyph-name="parenleft.case" horiz-adv-x="360" 
d="M305 837l118 -10q-97 -118 -149.5 -273t-52.5 -312q0 -181 73 -321l-119 -10q-105 135 -105 345q0 171 62 322t173 259z" />
    <glyph glyph-name="parenright.case" horiz-adv-x="359" 
d="M69 827l120 10q105 -142 105 -344q0 -167 -63 -323t-172 -259l-117 10q95 118 147 271.5t52 314.5q0 185 -72 320z" />
    <glyph glyph-name="hyphen.case" horiz-adv-x="389" 
d="M63 442h288l-15 -107h-288z" />
    <glyph glyph-name="bracketleft.case" horiz-adv-x="354" 
d="M15 -84l129 917h274l-15 -105h-130l-100 -709h130l-14 -103h-274z" />
    <glyph glyph-name="bracketright.case" horiz-adv-x="354" 
d="M344 833l-129 -917h-273l13 102h130l100 710h-130l15 105h274z" />
    <glyph glyph-name="grave.case" horiz-adv-x="406" 
d="M363 792h-129l-111 120h187z" />
    <glyph glyph-name="braceleft.case" horiz-adv-x="388" 
d="M295 485q-11 -75 -75 -107v-2q45 -27 45 -87q0 -14 -1 -21q-5 -33 -17.5 -84t-16.5 -79q-1 -6 -1 -16q0 -64 75 -64h34l-16 -111h-26q-113 0 -163.5 35t-50.5 103q0 42 20.5 117.5t23.5 100.5q1 4 1 12q0 25 -14.5 42t-37.5 22l9 61q30 7 47.5 25.5t23 48t6.5 58t1 67
t4 62.5q12 85 73 128t187 43h26l-15 -111h-34q-37 0 -59 -14.5t-30.5 -43t-11 -55t-3.5 -67t-4 -63.5z" />
    <glyph glyph-name="braceright.case" horiz-adv-x="388" 
d="M97 268q11 76 75 108v2q-46 26 -46 85q0 6 2 22q5 33 17.5 84t16.5 79q1 5 1 15q0 65 -75 65h-33l15 111h26q113 0 163.5 -34.5t50.5 -102.5q0 -42 -20.5 -119.5t-23.5 -99.5q-1 -4 -1 -11q0 -53 53 -65l-9 -61q-28 -6 -48.5 -26.5t-24.5 -49.5t-5 -90.5t-6 -94.5
q-12 -85 -72.5 -128t-186.5 -43h-25l15 111h33q36 0 58 14t30.5 42.5t11 55t4 67t4.5 64.5z" />
    <glyph glyph-name="dieresis.case" horiz-adv-x="406" 
d="M183 913q58 0 58 -46q0 -74 -75 -74q-60 0 -60 46q0 36 20 55t57 19zM382 913q58 0 58 -46q0 -74 -75 -74q-60 0 -60 46q0 36 20 55t57 19z" />
    <glyph glyph-name="guillemotleft.case" horiz-adv-x="654" 
d="M612 482l-176 -103l147 -104l-16 -115l-285 214l1 10l346 214zM355 482l-176 -103l147 -104l-16 -115l-285 214l1 10l346 214z" />
    <glyph glyph-name="uni00AD.case" horiz-adv-x="389" 
d="M63 442h288l-15 -107h-288z" />
    <glyph glyph-name="macron.case" horiz-adv-x="406" 
d="M438 883l-11 -75h-323l11 75h323z" />
    <glyph glyph-name="acute.case" horiz-adv-x="406" 
d="M257 912h202l-157 -120h-127z" />
    <glyph glyph-name="guillemotright.case" horiz-adv-x="654" 
d="M282 160l16 115l176 104l-147 103l17 116l283 -214l-1 -10zM26 160l16 115l176 104l-147 103l17 116l283 -214l-1 -10z" />
    <glyph glyph-name="circumflex.case" horiz-adv-x="406" 
d="M194 913h170l89 -121h-139l-42 62l-60 -62h-137z" />
    <glyph glyph-name="caron.case" horiz-adv-x="406" 
d="M347 792h-169l-87 121h139l42 -65l60 65h138z" />
    <glyph glyph-name="breve.case" horiz-adv-x="406" 
d="M337 913h118q-19 -126 -191 -126q-157 0 -157 102q0 8 2 24h117q-1 -4 -1 -10q0 -39 50 -39q55 0 62 49z" />
    <glyph glyph-name="dotaccent.case" horiz-adv-x="406" 
d="M280 909q86 0 86 -50q0 -35 -24 -52t-78 -17q-46 0 -66 10.5t-20 35.5q0 73 102 73z" />
    <glyph glyph-name="ring.case" horiz-adv-x="406" 
d="M277 912q121 0 121 -82q0 -115 -149 -115q-62 0 -90.5 18t-28.5 59q0 120 147 120zM270 845q-33 0 -45.5 -11t-12.5 -33q0 -26 48 -26q30 0 42.5 9.5t12.5 32.5q0 28 -45 28z" />
    <glyph glyph-name="ogonek.case" horiz-adv-x="406" 
d="M204 24l67 -24q-28 0 -50 -20.5t-22 -43.5q0 -33 47 -33q27 0 49 11l2 -78q-52 -25 -110 -25q-56 0 -85 21t-29 58q0 51 36 86t95 48z" />
    <glyph glyph-name="tilde.case" horiz-adv-x="406" 
d="M164 793h-73q10 55 42.5 87t81.5 32q37 0 79.5 -21.5t55.5 -21.5q24 0 34 31h70q-10 -54 -42.5 -86t-80.5 -32q-37 0 -78 21.5t-53 21.5q-26 0 -36 -32z" />
    <glyph glyph-name="hungarumlaut.case" horiz-adv-x="406" 
d="M146 913h160l-110 -121h-101zM345 913h164l-134 -121h-115z" />
    <glyph glyph-name="endash.case" horiz-adv-x="515" 
d="M63 442h413l-15 -107h-413z" />
    <glyph glyph-name="emdash.case" horiz-adv-x="697" 
d="M63 442h595l-15 -107h-595z" />
    <glyph glyph-name="guilsinglleft.case" horiz-adv-x="394" 
d="M361 471l-177 -103l148 -104l-17 -115l-284 214l1 10l345 214z" />
    <glyph glyph-name="guilsinglright.case" horiz-adv-x="394" 
d="M20 149l17 115l175 104l-146 103l16 116l284 -214l-1 -10z" />
    <glyph glyph-name="zero.zero" horiz-adv-x="641" 
d="M330 438q47 0 47 -43q0 -82 -64 -82q-24 0 -35 9.5t-11 34.5q0 81 63 81zM602 372q-28 -201 -108 -291.5t-227 -90.5q-121 0 -177 60t-56 191q0 61 10 131q30 211 106.5 299t226.5 88q122 0 179 -58.5t57 -192.5q0 -56 -11 -136zM437 374q11 74 11 132q0 71 -21 96
t-68 25q-42 0 -68.5 -19t-47.5 -74.5t-36 -159.5q-11 -76 -11 -132q0 -72 21.5 -97.5t69.5 -25.5q42 0 67.5 18.5t46.5 75t36 161.5z" />
    <glyph glyph-name="zero.osf.zero" horiz-adv-x="618" 
d="M350 651q120 0 176 -55t56 -175q0 -42 -8 -103q-23 -169 -100 -248.5t-218 -79.5q-120 0 -175.5 56t-55.5 174q0 48 7 98q25 176 99.5 254.5t218.5 78.5zM330 513q-63 0 -96 -40.5t-50 -152.5q-7 -45 -7 -82q0 -64 23.5 -88t74.5 -24q64 0 97 40t49 154q7 46 7 83
q0 62 -23.5 86t-74.5 24zM311 383q47 0 47 -43q0 -82 -64 -82q-24 0 -35 9.5t-11 34.5q0 81 63 81z" />
    <glyph glyph-name="zero.lf.zero" horiz-adv-x="626" 
d="M323 438q47 0 47 -43q0 -82 -64 -82q-24 0 -35 9.5t-11 34.5q0 81 63 81zM369 759q122 0 179 -58.5t57 -192.5q0 -56 -11 -136q-28 -201 -107.5 -291.5t-226.5 -90.5q-122 0 -178 60t-56 192q0 61 10 130q30 211 106.5 299t226.5 88zM351 627q-42 0 -68 -19t-47 -74.5
t-36 -159.5q-11 -76 -11 -133q0 -71 21.5 -96.5t68.5 -25.5q42 0 67.5 18.5t46.5 75t36 161.5q11 74 11 132q0 71 -21 96t-68 25z" />
    <glyph glyph-name="zero.tosf.zero" 
d="M304 383q47 0 47 -43q0 -82 -64 -82q-24 0 -35 9.5t-11 34.5q0 81 63 81zM343 651q119 0 175 -55.5t56 -174.5q0 -42 -8 -103q-23 -169 -99.5 -248.5t-217.5 -79.5q-121 0 -176.5 56t-55.5 174q0 48 7 98q25 176 100 254.5t219 78.5zM325 525q-60 0 -92.5 -43t-49.5 -163
q-7 -50 -7 -91q0 -65 22 -89t70 -24q59 0 90 41.5t47 162.5q8 61 8 96q0 63 -21 86.5t-67 23.5z" />
    <glyph glyph-name="orn001" horiz-adv-x="708" 
d="M363 -14q-26 0 -58 20.5t-52 41.5t-48.5 55.5t-32.5 38.5q-47 51 -82.5 149t-35.5 196q0 127 73 203t235 76q163 0 237 -76t74 -203q0 -98 -36 -196.5t-84 -148.5q-6 -6 -33.5 -39t-48 -54.5t-51.5 -42t-57 -20.5zM364 50q23 0 49 21t56.5 57.5t32.5 38.5q34 34 63 111.5
t29 151.5q0 66 -46.5 90.5t-182.5 24.5q-140 0 -186 -23.5t-46 -91.5q0 -74 29 -151.5t63 -111.5q1 -1 32.5 -38t57.5 -58t49 -21zM469 187q-46 10 -101 10q-56 0 -105 -10q-40 47 -49 108q74 -23 149 -23q77 0 151 23q-10 -71 -45 -108zM349 374l-30 -47q-77 8 -134 37
q-1 5 -1 16q0 63 34 88q46 -53 131 -94zM410 327l-28 47q85 41 131 94q34 -25 34 -104q-59 -29 -137 -37z" />
    </font>
</defs>
</svg>
